G04 Layer_Color=2752767*
%FSLAX44Y44*%
%MOMM*%
G71*
G01*
G75*
%ADD134C,0.0508*%
%ADD135C,0.0677*%
D134*
X162823Y92458D02*
Y96522D01*
X166887D01*
Y92458D01*
X162823D01*
X162681Y103778D02*
Y107842D01*
X166745D01*
Y103778D01*
X162681D01*
X177817Y99439D02*
Y103503D01*
X181881D01*
Y99439D01*
X177817D01*
X194073D02*
Y103503D01*
X198137D01*
Y99439D01*
X194073D01*
X105173Y156843D02*
Y160907D01*
X109237D01*
Y156843D01*
X105173D01*
X118381D02*
Y160907D01*
X122445D01*
Y156843D01*
X118381D01*
X95521Y190879D02*
Y194943D01*
X99585D01*
Y190879D01*
X95521D01*
X109237D02*
Y194943D01*
X113301D01*
Y190879D01*
X109237D01*
X120849D02*
Y194943D01*
X124913D01*
Y190879D01*
X120849D01*
X59961Y152779D02*
Y156843D01*
X64025D01*
Y152779D01*
X59961D01*
X60469Y142619D02*
Y146683D01*
X64533D01*
Y142619D01*
X60469D01*
X365445Y61671D02*
X363413Y65735D01*
X367477D01*
X365445Y61671D01*
X83712Y331406D02*
Y335470D01*
X87775D01*
Y331406D01*
X83712D01*
X263086Y318550D02*
Y322614D01*
X267150D01*
Y318550D01*
X263086D01*
X100640Y318020D02*
Y322084D01*
X104704D01*
Y318020D01*
X100640D01*
X238525Y42432D02*
Y46495D01*
X242589D01*
Y42432D01*
X238525D01*
X607742Y148343D02*
X605709Y152407D01*
X609773D01*
X607742Y148343D01*
X603292Y118672D02*
X601260Y122736D01*
X605324D01*
X603292Y118672D01*
X630839Y221618D02*
X628807Y225681D01*
X632871D01*
X630839Y221618D01*
X604919Y187152D02*
X602887Y191216D01*
X606951D01*
X604919Y187152D01*
X190012Y13589D02*
X187980Y17653D01*
X192044D01*
X190012Y13589D01*
X214748Y14056D02*
X212716Y18120D01*
X216780D01*
X214748Y14056D01*
X240809Y13587D02*
X238777Y17651D01*
X242841D01*
X240809Y13587D01*
X252018Y36392D02*
Y40456D01*
X256082D01*
Y36392D01*
X252018D01*
X221747Y41668D02*
Y45732D01*
X225811D01*
Y41668D01*
X221747D01*
X587204Y244904D02*
Y248968D01*
X591268D01*
Y244904D01*
X587204D01*
D135*
X73169Y154303D02*
G03*
X73169Y154303I-2032J0D01*
G01*
Y144143D02*
G03*
X73169Y144143I-2032J0D01*
G01*
X115841Y158875D02*
G03*
X115841Y158875I-2032J0D01*
G01*
X106697Y192911D02*
G03*
X106697Y192911I-2032J0D01*
G01*
X119397D02*
G03*
X119397Y192911I-2032J0D01*
G01*
X58462Y190157D02*
G03*
X58462Y190157I-2032J0D01*
G01*
Y197999D02*
G03*
X58462Y197999I-2032J0D01*
G01*
X58584Y205901D02*
G03*
X58584Y205901I-2032J0D01*
G01*
X66244Y190400D02*
G03*
X66244Y190400I-2032J0D01*
G01*
X66484Y198118D02*
G03*
X66484Y198118I-2032J0D01*
G01*
X431273Y252803D02*
G03*
X431273Y252803I-2032J0D01*
G01*
X571319Y34103D02*
G03*
X571319Y34103I-2032J0D01*
G01*
X453613Y244003D02*
G03*
X453613Y244003I-2032J0D01*
G01*
X75325Y45857D02*
G03*
X75325Y45857I-2032J0D01*
G01*
X100515Y45314D02*
G03*
X100515Y45314I-2032J0D01*
G01*
X515555Y340902D02*
G03*
X515555Y340902I-2032J0D01*
G01*
X528779Y332880D02*
G03*
X528779Y332880I-2032J0D01*
G01*
X580159Y304187D02*
G03*
X580159Y304187I-2032J0D01*
G01*
X578700Y327618D02*
G03*
X578700Y327618I-2032J0D01*
G01*
X202680Y268584D02*
G03*
X202680Y268584I-2032J0D01*
G01*
X178694Y263042D02*
G03*
X178694Y263042I-2032J0D01*
G01*
X159107Y48057D02*
G03*
X159107Y48057I-2032J0D01*
G01*
X43383Y47769D02*
G03*
X43383Y47769I-2032J0D01*
G01*
X39568Y67913D02*
G03*
X39568Y67913I-2032J0D01*
G01*
X139344Y71470D02*
G03*
X139344Y71470I-2032J0D01*
G01*
X159081Y71293D02*
G03*
X159081Y71293I-2032J0D01*
G01*
X151382Y18411D02*
G03*
X151382Y18411I-2032J0D01*
G01*
X58001Y268381D02*
G03*
X58001Y268381I-2032J0D01*
G01*
X75011Y333303D02*
G03*
X75011Y333303I-2032J0D01*
G01*
X66210Y342844D02*
G03*
X66210Y342844I-2032J0D01*
G01*
X111785Y281900D02*
G03*
X111785Y281900I-2032J0D01*
G01*
X114643Y335463D02*
G03*
X114643Y335463I-2032J0D01*
G01*
X116504Y74824D02*
G03*
X116504Y74824I-2032J0D01*
G01*
X208260Y319650D02*
G03*
X208260Y319650I-2032J0D01*
G01*
X289324Y216839D02*
G03*
X289324Y216839I-2032J0D01*
G01*
X286408Y203717D02*
G03*
X286408Y203717I-2032J0D01*
G01*
X272547Y312488D02*
G03*
X272547Y312488I-2032J0D01*
G01*
X283701Y333049D02*
G03*
X283701Y333049I-2032J0D01*
G01*
X263735Y300649D02*
G03*
X263735Y300649I-2032J0D01*
G01*
X263928Y309189D02*
G03*
X263928Y309189I-2032J0D01*
G01*
X273129Y333484D02*
G03*
X273129Y333484I-2032J0D01*
G01*
X281005Y35055D02*
G03*
X281005Y35055I-2032J0D01*
G01*
X219409Y17216D02*
G03*
X219409Y17216I-2032J0D01*
G01*
X205980Y305684D02*
G03*
X205980Y305684I-2032J0D01*
G01*
X214052Y278029D02*
G03*
X214052Y278029I-2032J0D01*
G01*
X212406Y269199D02*
G03*
X212406Y269199I-2032J0D01*
G01*
X267589Y246603D02*
G03*
X267589Y246603I-2032J0D01*
G01*
X221177Y266162D02*
G03*
X221177Y266162I-2032J0D01*
G01*
X237879Y252990D02*
G03*
X237879Y252990I-2032J0D01*
G01*
X263809Y255194D02*
G03*
X263809Y255194I-2032J0D01*
G01*
X92903Y61878D02*
G03*
X92903Y61878I-2032J0D01*
G01*
X268241Y15619D02*
G03*
X268241Y15619I-2032J0D01*
G01*
X121162Y128836D02*
G03*
X121162Y128836I-2032J0D01*
G01*
X268475Y34409D02*
G03*
X268475Y34409I-2032J0D01*
G01*
X250229Y254453D02*
G03*
X250229Y254453I-2032J0D01*
G01*
X247269Y245458D02*
G03*
X247269Y245458I-2032J0D01*
G01*
X117577Y266102D02*
G03*
X117577Y266102I-2032J0D01*
G01*
X79786Y10114D02*
G03*
X79786Y10114I-2032J0D01*
G01*
X541906Y326952D02*
G03*
X541906Y326952I-2032J0D01*
G01*
X342148Y223629D02*
G03*
X342148Y223629I-2032J0D01*
G01*
X354302Y100426D02*
G03*
X354302Y100426I-2032J0D01*
G01*
X222047Y58390D02*
G03*
X222047Y58390I-2032J0D01*
G01*
X13392Y328007D02*
G03*
X13392Y328007I-2032J0D01*
G01*
X13186Y310401D02*
G03*
X13186Y310401I-2032J0D01*
G01*
X14020Y227882D02*
G03*
X14020Y227882I-2032J0D01*
G01*
X68633Y242332D02*
G03*
X68633Y242332I-2032J0D01*
G01*
X223634Y237727D02*
G03*
X223634Y237727I-2032J0D01*
G01*
X145731Y241330D02*
G03*
X145731Y241330I-2032J0D01*
G01*
X58122Y297624D02*
G03*
X58122Y297624I-2032J0D01*
G01*
X57498Y306164D02*
G03*
X57498Y306164I-2032J0D01*
G01*
X40589Y252879D02*
G03*
X40589Y252879I-2032J0D01*
G01*
X59206Y278692D02*
G03*
X59206Y278692I-2032J0D01*
G01*
X118347Y175887D02*
G03*
X118347Y175887I-2032J0D01*
G01*
X110874Y175760D02*
G03*
X110874Y175760I-2032J0D01*
G01*
X196182Y58291D02*
G03*
X196182Y58291I-2032J0D01*
G01*
X306513Y274181D02*
G03*
X306513Y274181I-2032J0D01*
G01*
X279845Y317267D02*
G03*
X279845Y317267I-2032J0D01*
G01*
X424241Y337454D02*
G03*
X424241Y337454I-2032J0D01*
G01*
X437157Y337331D02*
G03*
X437157Y337331I-2032J0D01*
G01*
X450321Y337707D02*
G03*
X450321Y337707I-2032J0D01*
G01*
X530725Y66229D02*
G03*
X530725Y66229I-2032J0D01*
G01*
X437978Y21586D02*
G03*
X437978Y21586I-2032J0D01*
G01*
X341446Y27978D02*
G03*
X341446Y27978I-2032J0D01*
G01*
X354918Y27687D02*
G03*
X354918Y27687I-2032J0D01*
G01*
X328272Y28126D02*
G03*
X328272Y28126I-2032J0D01*
G01*
X315095Y28419D02*
G03*
X315095Y28419I-2032J0D01*
G01*
X302651Y29737D02*
G03*
X302651Y29737I-2032J0D01*
G01*
X323117Y48213D02*
G03*
X323117Y48213I-2032J0D01*
G01*
X191814Y27415D02*
G03*
X191814Y27415I-2032J0D01*
G01*
X145120Y284378D02*
G03*
X145120Y284378I-2032J0D01*
G01*
X595399Y301014D02*
G03*
X595399Y301014I-2032J0D01*
G01*
X562469Y244898D02*
G03*
X562469Y244898I-2032J0D01*
G01*
X66867Y79230D02*
G03*
X66867Y79230I-2032J0D01*
G01*
X561394Y255740D02*
G03*
X561394Y255740I-2032J0D01*
G01*
X529422Y251751D02*
G03*
X529422Y251751I-2032J0D01*
G01*
X529615Y257557D02*
G03*
X529615Y257557I-2032J0D01*
G01*
X535690Y251751D02*
G03*
X535690Y251751I-2032J0D01*
G01*
X535906Y257493D02*
G03*
X535906Y257493I-2032J0D01*
G01*
X542976Y251767D02*
G03*
X542976Y251767I-2032J0D01*
G01*
X542768Y257157D02*
G03*
X542768Y257157I-2032J0D01*
G01*
X500592Y319314D02*
G03*
X500592Y319314I-2032J0D01*
G01*
X258540Y326399D02*
G03*
X258540Y326399I-2032J0D01*
G01*
X249080Y327126D02*
G03*
X249080Y327126I-2032J0D01*
G01*
X234703Y341799D02*
G03*
X234703Y341799I-2032J0D01*
G01*
X214908Y314221D02*
G03*
X214908Y314221I-2032J0D01*
G01*
X210372Y297999D02*
G03*
X210372Y297999I-2032J0D01*
G01*
X189104Y308373D02*
G03*
X189104Y308373I-2032J0D01*
G01*
X261517Y265801D02*
G03*
X261517Y265801I-2032J0D01*
G01*
X260417Y284285D02*
G03*
X260417Y284285I-2032J0D01*
G01*
X259482Y292825D02*
G03*
X259482Y292825I-2032J0D01*
G01*
X197440Y304584D02*
G03*
X197440Y304584I-2032J0D01*
G01*
X228921Y312605D02*
G03*
X228921Y312605I-2032J0D01*
G01*
X229512Y302762D02*
G03*
X229512Y302762I-2032J0D01*
G01*
M02*
