G04 Layer_Physical_Order=1*
G04 Layer_Color=255*
%FSLAX44Y44*%
%MOMM*%
G71*
G01*
G75*
%ADD10R,0.6200X0.6200*%
%ADD11R,0.8000X1.0000*%
%ADD12R,1.7000X0.4000*%
%ADD13R,0.6200X0.6200*%
%ADD14R,1.2700X1.1400*%
%ADD15R,5.0000X3.0000*%
%ADD16R,5.0000X2.5000*%
%ADD17R,1.1400X1.2700*%
%ADD18R,0.7901X0.5400*%
%ADD19R,2.0000X1.0000*%
%ADD20R,1.0000X2.0000*%
%ADD21O,0.6000X1.5200*%
%ADD22R,1.2500X0.7000*%
%ADD23R,0.5000X0.5000*%
%ADD24R,3.8000X4.3500*%
%ADD25R,0.6000X1.1000*%
%ADD26R,2.2000X1.1999*%
%ADD27R,1.3000X1.3000*%
%ADD28R,1.6000X1.5200*%
%ADD29R,0.4000X0.4000*%
%ADD30O,0.7000X0.3000*%
%ADD31R,1.5000X0.3000*%
%ADD32R,0.3000X1.5000*%
%ADD33C,2.0000*%
%ADD34C,0.1270*%
%ADD35C,0.5000*%
%ADD36C,0.2500*%
%ADD37C,0.2000*%
%ADD38C,0.3000*%
%ADD39R,1.8796X2.2860*%
%ADD40R,4.7788X2.2012*%
%ADD41R,4.1638X1.3588*%
%ADD42R,0.9533X1.8798*%
%ADD43R,2.8983X1.2688*%
%ADD44R,0.7854X0.7337*%
%ADD45R,1.6935X3.5972*%
%ADD46R,1.9104X0.7066*%
%ADD47R,1.1548X3.3335*%
%ADD48R,0.8115X1.6017*%
%ADD49R,0.6727X2.0475*%
%ADD50R,0.7124X0.6765*%
%ADD51R,0.2309X2.2118*%
%ADD52C,1.0000*%
%ADD53C,0.6000*%
%ADD54C,1.2700*%
%ADD55C,0.8000*%
G36*
X542773Y112355D02*
X542761Y112476D01*
X542723Y112584D01*
X542659Y112679D01*
X542570Y112761D01*
X542456Y112831D01*
X542316Y112888D01*
X542151Y112933D01*
X541961Y112965D01*
X541745Y112984D01*
X541503Y112990D01*
Y114260D01*
X541745Y114266D01*
X541961Y114285D01*
X542151Y114317D01*
X542316Y114362D01*
X542456Y114419D01*
X542570Y114489D01*
X542659Y114571D01*
X542723Y114666D01*
X542761Y114774D01*
X542773Y114895D01*
Y112355D01*
D02*
G37*
G36*
X536469Y114774D02*
X536508Y114666D01*
X536573Y114571D01*
X536664Y114489D01*
X536781Y114419D01*
X536925Y114362D01*
X537094Y114317D01*
X537289Y114285D01*
X537510Y114266D01*
X537757Y114260D01*
Y112990D01*
X537510Y112984D01*
X537289Y112965D01*
X537094Y112933D01*
X536925Y112888D01*
X536781Y112831D01*
X536664Y112761D01*
X536573Y112679D01*
X536508Y112584D01*
X536469Y112476D01*
X536456Y112355D01*
Y114895D01*
X536469Y114774D01*
D02*
G37*
G36*
X536517Y126004D02*
X536607Y125793D01*
X536757Y125606D01*
X536967Y125444D01*
X537237Y125308D01*
X537567Y125196D01*
X537957Y125109D01*
X538407Y125047D01*
X538917Y125009D01*
X539487Y124997D01*
Y121997D01*
X538912Y121982D01*
X538398Y121937D01*
X537945Y121862D01*
X537551Y121757D01*
X537218Y121622D01*
X536945Y121457D01*
X536732Y121262D01*
X536580Y121037D01*
X536488Y120782D01*
X536456Y120497D01*
X536487Y126240D01*
X536517Y126004D01*
D02*
G37*
G36*
X287171Y115546D02*
X287063Y115507D01*
X286967Y115442D01*
X286885Y115351D01*
X286815Y115234D01*
X286758Y115091D01*
X286713Y114922D01*
X286682Y114727D01*
X286663Y114506D01*
X286656Y114259D01*
X285386D01*
X285380Y114506D01*
X285361Y114727D01*
X285329Y114922D01*
X285285Y115091D01*
X285228Y115234D01*
X285158Y115351D01*
X285075Y115442D01*
X284980Y115507D01*
X284872Y115546D01*
X284751Y115559D01*
X287291D01*
X287171Y115546D01*
D02*
G37*
G36*
X485090Y117352D02*
X485190Y117423D01*
X484899Y117087D01*
X484733Y116786D01*
X484691Y116521D01*
X484773Y116291D01*
X484981Y116097D01*
X485313Y115938D01*
X485769Y115814D01*
X486351Y115725D01*
X487057Y115672D01*
X487887Y115655D01*
X479155Y110655D01*
Y113155D01*
X480618Y114190D01*
X479153Y115655D01*
X479327Y115689D01*
X479556Y115793D01*
X479838Y115965D01*
X480175Y116207D01*
X481012Y116897D01*
X482674Y118450D01*
X483337Y119105D01*
X485090Y117352D01*
D02*
G37*
G36*
X286663Y111157D02*
X286682Y110941D01*
X286713Y110751D01*
X286758Y110585D01*
X286815Y110446D01*
X286885Y110331D01*
X286967Y110243D01*
X287063Y110179D01*
X287171Y110141D01*
X287291Y110128D01*
X284751D01*
X284872Y110141D01*
X284980Y110179D01*
X285075Y110243D01*
X285158Y110331D01*
X285228Y110446D01*
X285285Y110585D01*
X285329Y110751D01*
X285361Y110941D01*
X285380Y111157D01*
X285386Y111398D01*
X286656D01*
X286663Y111157D01*
D02*
G37*
G36*
X298940Y111885D02*
X298927Y112005D01*
X298888Y112113D01*
X298823Y112209D01*
X298732Y112291D01*
X298615Y112361D01*
X298472Y112418D01*
X298302Y112463D01*
X298107Y112494D01*
X297886Y112513D01*
X297639Y112520D01*
Y113790D01*
X297886Y113796D01*
X298107Y113815D01*
X298302Y113847D01*
X298472Y113891D01*
X298615Y113948D01*
X298732Y114018D01*
X298823Y114101D01*
X298888Y114196D01*
X298927Y114304D01*
X298940Y114425D01*
Y111885D01*
D02*
G37*
G36*
X548895Y114054D02*
X548934Y113946D01*
X548999Y113851D01*
X549090Y113769D01*
X549207Y113699D01*
X549350Y113642D01*
X549519Y113597D01*
X549714Y113565D01*
X549935Y113546D01*
X550182Y113540D01*
Y112270D01*
X549935Y112264D01*
X549714Y112245D01*
X549519Y112213D01*
X549350Y112168D01*
X549207Y112111D01*
X549090Y112041D01*
X548999Y111959D01*
X548934Y111864D01*
X548895Y111756D01*
X548882Y111635D01*
Y114175D01*
X548895Y114054D01*
D02*
G37*
G36*
X68523Y129647D02*
X68636Y127967D01*
X68687Y127697D01*
X68748Y127487D01*
X68819Y127337D01*
X68899Y127247D01*
X68988Y127217D01*
X65049D01*
X65138Y127247D01*
X65218Y127337D01*
X65288Y127487D01*
X65349Y127697D01*
X65401Y127967D01*
X65443Y128297D01*
X65500Y129137D01*
X65518Y130217D01*
X68518D01*
X68523Y129647D01*
D02*
G37*
G36*
X522232Y128664D02*
X522277Y128150D01*
X522352Y127696D01*
X522457Y127303D01*
X522592Y126969D01*
X522757Y126697D01*
X522952Y126484D01*
X523177Y126332D01*
X523432Y126239D01*
X523717Y126208D01*
X518238Y126238D01*
X518424Y126268D01*
X518591Y126358D01*
X518737Y126508D01*
X518865Y126718D01*
X518973Y126988D01*
X519061Y127318D01*
X519129Y127708D01*
X519178Y128158D01*
X519217Y129238D01*
X522217D01*
X522232Y128664D01*
D02*
G37*
G36*
X273982Y129518D02*
X273973Y129570D01*
X273945Y129616D01*
X273898Y129657D01*
X273832Y129693D01*
X273747Y129723D01*
X273644Y129748D01*
X273522Y129767D01*
X273381Y129781D01*
X273043Y129792D01*
Y131062D01*
X273221Y131065D01*
X273522Y131086D01*
X273644Y131106D01*
X273747Y131130D01*
X273832Y131160D01*
X273898Y131196D01*
X273945Y131237D01*
X273973Y131284D01*
X273982Y131336D01*
Y129518D01*
D02*
G37*
G36*
X289073Y131576D02*
X289112Y131468D01*
X289177Y131373D01*
X289268Y131290D01*
X289385Y131221D01*
X289529Y131163D01*
X289697Y131119D01*
X289893Y131087D01*
X290114Y131068D01*
X290361Y131062D01*
Y129792D01*
X290114Y129785D01*
X289893Y129766D01*
X289697Y129735D01*
X289529Y129690D01*
X289385Y129633D01*
X289268Y129563D01*
X289177Y129481D01*
X289112Y129385D01*
X289073Y129277D01*
X289060Y129157D01*
Y131697D01*
X289073Y131576D01*
D02*
G37*
G36*
X275270Y122395D02*
X275449Y122243D01*
X275629Y122108D01*
X275808Y121991D01*
X275988Y121892D01*
X276168Y121812D01*
X276347Y121749D01*
X276527Y121704D01*
X276706Y121677D01*
X276886Y121668D01*
X273952D01*
X273988Y121677D01*
X274002Y121704D01*
X273993Y121749D01*
X273962Y121812D01*
X273907Y121892D01*
X273830Y121991D01*
X273608Y122243D01*
X273294Y122566D01*
X275090D01*
X275270Y122395D01*
D02*
G37*
G36*
X542773Y120497D02*
X542743Y120782D01*
X542653Y121037D01*
X542503Y121262D01*
X542293Y121457D01*
X542024Y121622D01*
X541693Y121757D01*
X541303Y121862D01*
X540854Y121937D01*
X540343Y121982D01*
X539773Y121997D01*
Y124997D01*
X540343Y125004D01*
X541693Y125108D01*
X542024Y125171D01*
X542293Y125248D01*
X542503Y125339D01*
X542653Y125443D01*
X542743Y125562D01*
X542773Y125695D01*
Y120497D01*
D02*
G37*
G36*
X530348D02*
X530318Y120782D01*
X530228Y121037D01*
X530078Y121262D01*
X529868Y121457D01*
X529598Y121622D01*
X529268Y121757D01*
X528878Y121862D01*
X528428Y121937D01*
X527918Y121982D01*
X527362Y121996D01*
X526807Y121982D01*
X526297Y121937D01*
X525847Y121862D01*
X525457Y121757D01*
X525127Y121622D01*
X524857Y121457D01*
X524647Y121262D01*
X524497Y121037D01*
X524407Y120782D01*
X524377Y120497D01*
Y126238D01*
X524407Y126002D01*
X524497Y125791D01*
X524647Y125605D01*
X524857Y125444D01*
X525127Y125307D01*
X525457Y125195D01*
X525847Y125108D01*
X526297Y125047D01*
X526807Y125009D01*
X527362Y124997D01*
X527918Y125009D01*
X528878Y125109D01*
X529268Y125196D01*
X529598Y125308D01*
X529868Y125444D01*
X530078Y125606D01*
X530228Y125793D01*
X530318Y126004D01*
X530348Y126240D01*
Y120497D01*
D02*
G37*
G36*
X599471Y115633D02*
X598483Y116359D01*
X595839Y118078D01*
X595064Y118499D01*
X593674Y119110D01*
X593058Y119301D01*
X592496Y119416D01*
X592268Y119433D01*
Y118204D01*
X592243Y118442D01*
X592168Y118654D01*
X592043Y118842D01*
X591868Y119004D01*
X591643Y119142D01*
X591368Y119254D01*
X591043Y119342D01*
X590668Y119404D01*
X590243Y119442D01*
X589768Y119454D01*
Y121954D01*
X590243Y121967D01*
X590668Y122004D01*
X591043Y122067D01*
X591368Y122154D01*
X591643Y122267D01*
X591868Y122404D01*
X592043Y122567D01*
X592168Y122754D01*
X592243Y122967D01*
X592268Y123204D01*
Y121975D01*
X592496Y121992D01*
X593058Y122107D01*
X593674Y122298D01*
X594342Y122565D01*
X595064Y122909D01*
X596667Y123827D01*
X597549Y124400D01*
X599471Y125776D01*
Y115633D01*
D02*
G37*
G36*
X32861Y108245D02*
X32848Y108366D01*
X32810Y108474D01*
X32746Y108569D01*
X32657Y108652D01*
X32543Y108722D01*
X32403Y108779D01*
X32238Y108823D01*
X32048Y108855D01*
X31832Y108874D01*
X31590Y108880D01*
Y110150D01*
X31832Y110157D01*
X32048Y110176D01*
X32238Y110208D01*
X32403Y110252D01*
X32543Y110309D01*
X32657Y110379D01*
X32746Y110462D01*
X32810Y110557D01*
X32848Y110665D01*
X32861Y110785D01*
Y108245D01*
D02*
G37*
G36*
X83884Y102071D02*
X83921Y101641D01*
X83984Y101261D01*
X84071Y100932D01*
X84184Y100654D01*
X84321Y100426D01*
X84484Y100249D01*
X84671Y100122D01*
X84884Y100047D01*
X85121Y100021D01*
X80121D01*
X80359Y100047D01*
X80571Y100122D01*
X80759Y100249D01*
X80921Y100426D01*
X81059Y100654D01*
X81171Y100932D01*
X81259Y101261D01*
X81321Y101641D01*
X81359Y102071D01*
X81371Y102552D01*
X83871D01*
X83884Y102071D01*
D02*
G37*
G36*
X95768Y101843D02*
X95805Y101413D01*
X95868Y101034D01*
X95955Y100705D01*
X96068Y100426D01*
X96205Y100199D01*
X96368Y100021D01*
X96555Y99895D01*
X96768Y99819D01*
X97005Y99794D01*
X92005D01*
X92243Y99819D01*
X92455Y99895D01*
X92643Y100021D01*
X92805Y100199D01*
X92943Y100426D01*
X93055Y100705D01*
X93143Y101034D01*
X93205Y101413D01*
X93243Y101843D01*
X93255Y102324D01*
X95755D01*
X95768Y101843D01*
D02*
G37*
G36*
X45415Y105643D02*
X45394Y105517D01*
X45406Y105375D01*
X45450Y105218D01*
X45526Y105047D01*
X45635Y104859D01*
X45777Y104657D01*
X45951Y104439D01*
X46398Y103958D01*
X45840Y102720D01*
X45562Y102989D01*
X45071Y103411D01*
X44859Y103562D01*
X44668Y103675D01*
X44499Y103748D01*
X44353Y103782D01*
X44228Y103777D01*
X44125Y103732D01*
X44044Y103648D01*
X45469Y105754D01*
X45415Y105643D01*
D02*
G37*
G36*
X59510Y102664D02*
X59548Y102233D01*
X59611Y101854D01*
X59698Y101525D01*
X59811Y101247D01*
X59948Y101019D01*
X60111Y100842D01*
X60298Y100715D01*
X60511Y100639D01*
X60748Y100614D01*
X55748D01*
X55985Y100639D01*
X56198Y100715D01*
X56385Y100842D01*
X56548Y101019D01*
X56686Y101247D01*
X56798Y101525D01*
X56885Y101854D01*
X56948Y102233D01*
X56986Y102664D01*
X56998Y103144D01*
X59498D01*
X59510Y102664D01*
D02*
G37*
G36*
X201146Y101676D02*
X201275Y101188D01*
X201445Y100701D01*
X201656Y100216D01*
X201906Y99733D01*
X202197Y99253D01*
X202528Y98774D01*
X202899Y98296D01*
X203311Y97821D01*
X203763Y97348D01*
X200228Y93813D01*
X199755Y94265D01*
X198802Y95048D01*
X198323Y95379D01*
X197843Y95670D01*
X197360Y95920D01*
X196875Y96131D01*
X196388Y96301D01*
X195900Y96430D01*
X195409Y96519D01*
X201057Y102167D01*
X201146Y101676D01*
D02*
G37*
G36*
X32861Y89245D02*
X32848Y89366D01*
X32810Y89474D01*
X32746Y89569D01*
X32657Y89652D01*
X32543Y89722D01*
X32403Y89779D01*
X32238Y89823D01*
X32048Y89855D01*
X31832Y89874D01*
X31590Y89880D01*
Y91150D01*
X31832Y91157D01*
X32048Y91176D01*
X32238Y91208D01*
X32403Y91252D01*
X32543Y91309D01*
X32657Y91379D01*
X32746Y91461D01*
X32810Y91557D01*
X32848Y91665D01*
X32861Y91785D01*
Y89245D01*
D02*
G37*
G36*
X116237Y95683D02*
X116224Y95804D01*
X116185Y95912D01*
X116120Y96007D01*
X116029Y96090D01*
X115912Y96159D01*
X115769Y96217D01*
X115600Y96261D01*
X115405Y96293D01*
X115183Y96312D01*
X114936Y96318D01*
Y97588D01*
X115183Y97595D01*
X115405Y97614D01*
X115600Y97645D01*
X115769Y97690D01*
X115912Y97747D01*
X116029Y97817D01*
X116120Y97899D01*
X116185Y97995D01*
X116224Y98103D01*
X116237Y98223D01*
Y95683D01*
D02*
G37*
G36*
X109780Y98103D02*
X109818Y97995D01*
X109881Y97899D01*
X109970Y97817D01*
X110084Y97747D01*
X110224Y97690D01*
X110389Y97645D01*
X110580Y97614D01*
X110795Y97595D01*
X111037Y97588D01*
Y96318D01*
X110795Y96312D01*
X110580Y96293D01*
X110389Y96261D01*
X110224Y96217D01*
X110084Y96159D01*
X109970Y96090D01*
X109881Y96007D01*
X109818Y95912D01*
X109780Y95804D01*
X109767Y95683D01*
Y98223D01*
X109780Y98103D01*
D02*
G37*
G36*
X536132Y111101D02*
X535877Y111011D01*
X535652Y110859D01*
X535457Y110647D01*
X535292Y110374D01*
X535157Y110041D01*
X535052Y109647D01*
X534977Y109192D01*
X534932Y108677D01*
X534917Y108101D01*
X531917D01*
X531902Y108677D01*
X531857Y109192D01*
X531782Y109647D01*
X531677Y110041D01*
X531542Y110374D01*
X531377Y110647D01*
X531182Y110859D01*
X530957Y111011D01*
X530702Y111101D01*
X530417Y111132D01*
X536417D01*
X536132Y111101D01*
D02*
G37*
G36*
X84974Y109467D02*
X84510Y109457D01*
X84116Y109426D01*
X83792Y109374D01*
X83539Y109302D01*
X83357Y109209D01*
X83245Y109096D01*
X83204Y108962D01*
X83234Y108807D01*
X83334Y108632D01*
X83505Y108436D01*
X80707Y107699D01*
X80346Y108035D01*
X79970Y108335D01*
X79580Y108601D01*
X79175Y108830D01*
X78756Y109025D01*
X78322Y109184D01*
X77873Y109308D01*
X77410Y109396D01*
X76932Y109449D01*
X76439Y109467D01*
X79457Y111967D01*
X84974Y109467D01*
D02*
G37*
G36*
X26098Y110665D02*
X26137Y110557D01*
X26202Y110462D01*
X26293Y110379D01*
X26410Y110309D01*
X26553Y110252D01*
X26722Y110208D01*
X26917Y110176D01*
X27138Y110157D01*
X27385Y110150D01*
Y108880D01*
X27138Y108874D01*
X26917Y108855D01*
X26722Y108823D01*
X26553Y108779D01*
X26410Y108722D01*
X26293Y108652D01*
X26202Y108569D01*
X26137Y108474D01*
X26098Y108366D01*
X26084Y108245D01*
Y110785D01*
X26098Y110665D01*
D02*
G37*
G36*
X458932Y108185D02*
X458882Y108654D01*
X458732Y109074D01*
X458482Y109445D01*
X458132Y109766D01*
X457682Y110037D01*
X457132Y110260D01*
X456482Y110433D01*
X455732Y110556D01*
X454882Y110630D01*
X453932Y110655D01*
Y115655D01*
X454882Y115679D01*
X455732Y115753D01*
X456482Y115877D01*
X457132Y116050D01*
X457682Y116272D01*
X458132Y116544D01*
X458482Y116865D01*
X458732Y117235D01*
X458882Y117655D01*
X458932Y118124D01*
Y108185D01*
D02*
G37*
G36*
X273982Y105789D02*
X273969Y105909D01*
X273930Y106017D01*
X273865Y106113D01*
X273774Y106195D01*
X273657Y106265D01*
X273514Y106322D01*
X273345Y106367D01*
X273150Y106398D01*
X272929Y106417D01*
X272682Y106424D01*
Y107694D01*
X272929Y107700D01*
X273150Y107719D01*
X273345Y107751D01*
X273514Y107795D01*
X273657Y107852D01*
X273774Y107922D01*
X273865Y108005D01*
X273930Y108100D01*
X273969Y108208D01*
X273982Y108329D01*
Y105789D01*
D02*
G37*
G36*
X504086Y89026D02*
Y85795D01*
X504057Y85469D01*
X503976Y84983D01*
X503957Y84913D01*
X500993D01*
Y83588D01*
X374649D01*
X365599Y74538D01*
X364329Y75064D01*
Y78021D01*
X352059D01*
Y70752D01*
X355772D01*
Y56831D01*
X352059D01*
Y48291D01*
Y39752D01*
X363800D01*
Y1308D01*
X266838D01*
X266755Y2578D01*
X269603Y2953D01*
X272765Y4263D01*
X275481Y6347D01*
X277565Y9063D01*
X278486Y11286D01*
X285018D01*
Y9363D01*
X297218D01*
Y9823D01*
X298848D01*
Y15463D01*
Y21103D01*
X297218D01*
Y21563D01*
X285018D01*
Y19952D01*
X278486D01*
X277565Y22175D01*
X275481Y24890D01*
X272765Y26974D01*
X270071Y28090D01*
X269846Y29373D01*
X269871Y29484D01*
X270769Y30084D01*
X272095Y32068D01*
X272152Y32353D01*
X272541Y32473D01*
X273473Y32487D01*
X274648Y30729D01*
X276632Y29403D01*
X278974Y28937D01*
X281315Y29403D01*
X283299Y30729D01*
X284625Y32714D01*
X285091Y35055D01*
X284625Y37396D01*
X283299Y39381D01*
X281315Y40707D01*
X278974Y41173D01*
X276632Y40707D01*
X274648Y39381D01*
X273322Y37396D01*
X273265Y37111D01*
X272875Y36991D01*
X271943Y36977D01*
X270769Y38735D01*
X268784Y40061D01*
X266443Y40527D01*
X264102Y40061D01*
X263258Y39498D01*
X261896Y40115D01*
X261844Y40512D01*
X261038Y42458D01*
X259755Y44129D01*
X258084Y45412D01*
X256138Y46218D01*
X254050Y46493D01*
X251961Y46218D01*
X250015Y45412D01*
X249803Y45249D01*
X248449Y45810D01*
X248351Y46552D01*
X247545Y48498D01*
X246854Y49399D01*
X247480Y50669D01*
X263644D01*
X263787Y50640D01*
X263840Y50651D01*
X263895Y50642D01*
X264007Y50669D01*
X266817D01*
Y50858D01*
X267105Y50874D01*
X289712D01*
X291858Y51301D01*
X293678Y52516D01*
X346747Y105586D01*
X347176Y105929D01*
X347756Y106323D01*
X348349Y106660D01*
X348959Y106943D01*
X349590Y107174D01*
X350247Y107355D01*
X350936Y107486D01*
X351482Y107547D01*
X455027D01*
X455350Y107519D01*
X455839Y107438D01*
X455901Y107422D01*
Y105155D01*
X458789D01*
X458932Y105126D01*
X459074Y105155D01*
X459133D01*
X459256Y105144D01*
X459291Y105155D01*
X481901D01*
Y107547D01*
X485564D01*
X504086Y89026D01*
D02*
G37*
G36*
X289073Y109793D02*
X289112Y109685D01*
X289177Y109590D01*
X289268Y109507D01*
X289385Y109437D01*
X289529Y109380D01*
X289697Y109336D01*
X289893Y109304D01*
X290114Y109285D01*
X290361Y109278D01*
Y108008D01*
X290114Y108002D01*
X289893Y107983D01*
X289697Y107951D01*
X289529Y107907D01*
X289385Y107850D01*
X289268Y107780D01*
X289177Y107697D01*
X289112Y107602D01*
X289073Y107494D01*
X289060Y107373D01*
Y109913D01*
X289073Y109793D01*
D02*
G37*
G36*
X348004Y117853D02*
X348086Y117575D01*
X348336Y117125D01*
X348686Y116735D01*
X349136Y116405D01*
X349686Y116135D01*
X350336Y115925D01*
X351086Y115775D01*
X351936Y115685D01*
X352886Y115655D01*
X352421Y110655D01*
X351436Y110619D01*
X350480Y110513D01*
X349553Y110337D01*
X348656Y110089D01*
X347787Y109771D01*
X346948Y109382D01*
X346139Y108922D01*
X345358Y108392D01*
X344607Y107791D01*
X343886Y107119D01*
X346386Y113155D01*
X346867Y114921D01*
X344617D01*
X344668Y115022D01*
X344714Y115217D01*
X344754Y115505D01*
X344818Y116364D01*
X344886Y120155D01*
X347886D01*
X348004Y117853D01*
D02*
G37*
G36*
X298942Y131885D02*
X298929Y132005D01*
X298890Y132113D01*
X298825Y132208D01*
X298734Y132291D01*
X298617Y132361D01*
X298474Y132418D01*
X298305Y132463D01*
X298110Y132494D01*
X297889Y132513D01*
X297642Y132520D01*
Y133790D01*
X297889Y133796D01*
X298110Y133815D01*
X298305Y133847D01*
X298474Y133891D01*
X298617Y133948D01*
X298734Y134018D01*
X298825Y134101D01*
X298890Y134196D01*
X298929Y134304D01*
X298942Y134425D01*
Y131885D01*
D02*
G37*
G36*
X533551Y208585D02*
X533569Y208332D01*
X533601Y208112D01*
X533645Y207924D01*
X533702Y207769D01*
X533771Y207647D01*
X533853Y207558D01*
X533948Y207502D01*
X534055Y207478D01*
X534175Y207487D01*
X531658Y206977D01*
X531775Y207016D01*
X531880Y207083D01*
X531972Y207179D01*
X532052Y207302D01*
X532120Y207454D01*
X532176Y207633D01*
X532219Y207841D01*
X532250Y208077D01*
X532268Y208341D01*
X532274Y208633D01*
X533544Y208871D01*
X533551Y208585D01*
D02*
G37*
G36*
X521979Y209136D02*
X522078Y207986D01*
X522163Y207518D01*
X522274Y207123D01*
X522409Y206799D01*
X522568Y206548D01*
X522752Y206368D01*
X522960Y206260D01*
X523193Y206224D01*
X518242D01*
X518474Y206260D01*
X518683Y206368D01*
X518867Y206548D01*
X519026Y206799D01*
X519161Y207123D01*
X519271Y207518D01*
X519357Y207986D01*
X519418Y208525D01*
X519455Y209136D01*
X519467Y209819D01*
X521967D01*
X521979Y209136D01*
D02*
G37*
G36*
X522419Y215258D02*
X522333Y215233D01*
X522256Y215158D01*
X522188Y215033D01*
X522130Y214858D01*
X522080Y214633D01*
X522039Y214358D01*
X521985Y213658D01*
X521967Y212758D01*
X519467D01*
X519455Y213237D01*
X519417Y213666D01*
X519355Y214044D01*
X519267Y214373D01*
X519155Y214651D01*
X519017Y214879D01*
X518855Y215056D01*
X518667Y215184D01*
X518455Y215261D01*
X518217Y215288D01*
X522419Y215258D01*
D02*
G37*
G36*
X546758Y208515D02*
X546808Y208028D01*
X546852Y207831D01*
X546908Y207663D01*
X546977Y207526D01*
X547058Y207420D01*
X547151Y207344D01*
X547257Y207298D01*
X547376Y207283D01*
X544859D01*
X544977Y207298D01*
X545083Y207344D01*
X545177Y207420D01*
X545258Y207526D01*
X545326Y207663D01*
X545382Y207831D01*
X545426Y208028D01*
X545457Y208257D01*
X545476Y208515D01*
X545482Y208804D01*
X546752D01*
X546758Y208515D01*
D02*
G37*
G36*
X289073Y194304D02*
X289112Y194196D01*
X289177Y194101D01*
X289268Y194018D01*
X289385Y193949D01*
X289529Y193891D01*
X289697Y193847D01*
X289893Y193815D01*
X290114Y193796D01*
X290361Y193790D01*
Y192520D01*
X290114Y192514D01*
X289893Y192494D01*
X289697Y192463D01*
X289529Y192418D01*
X289385Y192361D01*
X289268Y192291D01*
X289177Y192209D01*
X289112Y192113D01*
X289073Y192006D01*
X289060Y191885D01*
Y194425D01*
X289073Y194304D01*
D02*
G37*
G36*
X547257Y192747D02*
X547151Y192702D01*
X547058Y192626D01*
X546977Y192519D01*
X546908Y192382D01*
X546852Y192215D01*
X546808Y192017D01*
X546777Y191789D01*
X546758Y191530D01*
X546752Y191241D01*
X545482D01*
X545476Y191530D01*
X545426Y192017D01*
X545382Y192215D01*
X545326Y192382D01*
X545258Y192519D01*
X545177Y192626D01*
X545083Y192702D01*
X544977Y192747D01*
X544859Y192763D01*
X547376D01*
X547257Y192747D01*
D02*
G37*
G36*
X499737Y237118D02*
X500939Y236315D01*
X502358Y236032D01*
X528694D01*
X529345Y234762D01*
X528926Y234178D01*
X526114D01*
Y233318D01*
X524989Y232967D01*
Y232967D01*
X520619D01*
Y227327D01*
X519349D01*
Y226057D01*
X513709D01*
Y224427D01*
X513249D01*
Y212227D01*
X516384D01*
Y209025D01*
X516378Y208929D01*
X515787Y208044D01*
X515774Y208032D01*
X515762Y208007D01*
X515065Y206964D01*
X514780Y205530D01*
X513485D01*
X513236Y206784D01*
X512011Y208617D01*
X510179Y209841D01*
X509287Y210019D01*
Y200023D01*
Y190027D01*
X510179Y190204D01*
X512011Y191429D01*
X513236Y193261D01*
X513485Y194515D01*
X514780D01*
X515065Y193082D01*
X515762Y192038D01*
X515774Y192014D01*
X515696Y190786D01*
X504442Y179532D01*
X503503Y178127D01*
X503173Y176468D01*
Y154192D01*
X503142Y153801D01*
X503114Y153621D01*
X503077Y153448D01*
X503040Y153317D01*
X503009Y153229D01*
X502987Y153182D01*
X502981Y153171D01*
X502906Y153062D01*
X502802Y152822D01*
X502365Y152168D01*
X501900Y149827D01*
Y140627D01*
X502365Y138286D01*
X503063Y137242D01*
X503074Y137218D01*
X503087Y137206D01*
X503666Y136339D01*
X503684Y136126D01*
Y111443D01*
X504014Y109785D01*
X504953Y108379D01*
X522249Y91083D01*
X523655Y90144D01*
X525313Y89814D01*
X561295D01*
X562953Y90144D01*
X564359Y91083D01*
X588064Y114788D01*
X589237Y114302D01*
Y103621D01*
X606723D01*
X606874Y102351D01*
X602586Y101322D01*
X598154Y99486D01*
X594064Y96980D01*
X590416Y93864D01*
X587301Y90217D01*
X584794Y86126D01*
X583743Y83588D01*
X536933D01*
Y84453D01*
X529963D01*
Y75563D01*
X527423D01*
Y84453D01*
X520453D01*
Y83588D01*
X518393D01*
Y84913D01*
X515430D01*
X515411Y84983D01*
X515330Y85469D01*
X515301Y85795D01*
Y91349D01*
X514874Y93495D01*
X513659Y95314D01*
X491852Y117120D01*
X490149Y118259D01*
X490608Y118946D01*
X490938Y120604D01*
Y240871D01*
X490608Y242529D01*
X489669Y243935D01*
X482391Y251213D01*
X482058Y251571D01*
X481894Y251777D01*
Y253302D01*
X483067Y253788D01*
X499737Y237118D01*
D02*
G37*
G36*
X298940Y191885D02*
X298927Y192006D01*
X298888Y192113D01*
X298823Y192209D01*
X298732Y192291D01*
X298615Y192361D01*
X298472Y192418D01*
X298302Y192463D01*
X298107Y192494D01*
X297886Y192514D01*
X297639Y192520D01*
Y193790D01*
X297886Y193796D01*
X298107Y193815D01*
X298302Y193847D01*
X298472Y193891D01*
X298615Y193949D01*
X298732Y194018D01*
X298823Y194101D01*
X298888Y194196D01*
X298927Y194304D01*
X298940Y194425D01*
Y191885D01*
D02*
G37*
G36*
X547364Y227820D02*
X547403Y227712D01*
X547468Y227617D01*
X547559Y227535D01*
X547676Y227465D01*
X547819Y227408D01*
X547988Y227363D01*
X548183Y227332D01*
X548405Y227313D01*
X548652Y227306D01*
Y226036D01*
X548405Y226030D01*
X548183Y226011D01*
X547988Y225979D01*
X547819Y225935D01*
X547676Y225877D01*
X547559Y225807D01*
X547468Y225725D01*
X547403Y225630D01*
X547364Y225522D01*
X547351Y225401D01*
Y227941D01*
X547364Y227820D01*
D02*
G37*
G36*
X536631Y219846D02*
X536369Y219576D01*
X535928Y219065D01*
X535749Y218826D01*
X535597Y218596D01*
X535474Y218377D01*
X535377Y218167D01*
X535308Y217968D01*
X535267Y217780D01*
X535253Y217601D01*
Y221193D01*
X535262Y221026D01*
X535290Y220896D01*
X535337Y220803D01*
X535402Y220747D01*
X535485Y220729D01*
X535587Y220747D01*
X535708Y220803D01*
X535847Y220896D01*
X536005Y221026D01*
X536182Y221193D01*
X536631Y219846D01*
D02*
G37*
G36*
X17823Y225307D02*
X17797Y225544D01*
X17721Y225757D01*
X17595Y225944D01*
X17418Y226107D01*
X17190Y226244D01*
X16912Y226357D01*
X16583Y226444D01*
X16262Y226497D01*
X16015Y226458D01*
X15673Y226381D01*
X15338Y226283D01*
X15009Y226162D01*
X14687Y226020D01*
X14371Y225856D01*
X14062Y225669D01*
X13759Y225461D01*
X13847Y230236D01*
X14149Y230012D01*
X14457Y229812D01*
X14771Y229635D01*
X15092Y229481D01*
X15419Y229352D01*
X15752Y229245D01*
X16092Y229163D01*
X16314Y229125D01*
X16583Y229169D01*
X16912Y229257D01*
X17190Y229369D01*
X17418Y229507D01*
X17595Y229669D01*
X17721Y229857D01*
X17797Y230069D01*
X17823Y230307D01*
Y225307D01*
D02*
G37*
G36*
X552956Y225401D02*
X552943Y225522D01*
X552905Y225630D01*
X552842Y225725D01*
X552753Y225807D01*
X552639Y225877D01*
X552499Y225935D01*
X552334Y225979D01*
X552143Y226011D01*
X551927Y226030D01*
X551686Y226036D01*
Y227306D01*
X551927Y227313D01*
X552143Y227332D01*
X552334Y227363D01*
X552499Y227408D01*
X552639Y227465D01*
X552753Y227535D01*
X552842Y227617D01*
X552905Y227712D01*
X552943Y227820D01*
X552956Y227941D01*
Y225401D01*
D02*
G37*
G36*
X534059Y216026D02*
X533951Y215987D01*
X533855Y215922D01*
X533773Y215831D01*
X533703Y215714D01*
X533646Y215571D01*
X533601Y215402D01*
X533570Y215207D01*
X533551Y214986D01*
X533544Y214739D01*
X532274D01*
X532268Y214986D01*
X532249Y215207D01*
X532217Y215402D01*
X532173Y215571D01*
X532116Y215714D01*
X532046Y215831D01*
X531963Y215922D01*
X531868Y215987D01*
X531760Y216026D01*
X531639Y216039D01*
X534179D01*
X534059Y216026D01*
D02*
G37*
G36*
X547382Y215502D02*
X547262Y215490D01*
X547155Y215452D01*
X547061Y215388D01*
X546979Y215299D01*
X546910Y215185D01*
X546853Y215045D01*
X546809Y214880D01*
X546777Y214690D01*
X546759Y214474D01*
X546752Y214232D01*
X545482D01*
X545476Y214478D01*
X545457Y214698D01*
X545425Y214893D01*
X545381Y215061D01*
X545323Y215204D01*
X545254Y215321D01*
X545171Y215413D01*
X545076Y215478D01*
X544968Y215518D01*
X544847Y215533D01*
X547382Y215502D01*
D02*
G37*
G36*
X552956Y217693D02*
X552943Y217813D01*
X552905Y217921D01*
X552842Y218017D01*
X552753Y218099D01*
X552639Y218169D01*
X552499Y218226D01*
X552334Y218271D01*
X552143Y218302D01*
X551927Y218321D01*
X551686Y218328D01*
Y219598D01*
X551927Y219604D01*
X552143Y219623D01*
X552334Y219655D01*
X552499Y219699D01*
X552639Y219757D01*
X552753Y219826D01*
X552842Y219909D01*
X552905Y220004D01*
X552943Y220112D01*
X552956Y220233D01*
Y217693D01*
D02*
G37*
G36*
X547364Y220112D02*
X547403Y220004D01*
X547468Y219909D01*
X547559Y219826D01*
X547676Y219757D01*
X547819Y219699D01*
X547988Y219655D01*
X548183Y219623D01*
X548405Y219604D01*
X548652Y219598D01*
Y218328D01*
X548405Y218321D01*
X548183Y218302D01*
X547988Y218271D01*
X547819Y218226D01*
X547676Y218169D01*
X547559Y218099D01*
X547468Y218017D01*
X547403Y217921D01*
X547364Y217813D01*
X547351Y217693D01*
Y220233D01*
X547364Y220112D01*
D02*
G37*
G36*
X522960Y193785D02*
X522752Y193678D01*
X522568Y193498D01*
X522409Y193246D01*
X522274Y192922D01*
X522163Y192527D01*
X522078Y192060D01*
X522016Y191520D01*
X521979Y190909D01*
X521967Y190226D01*
X519467D01*
X519455Y190909D01*
X519357Y192060D01*
X519271Y192527D01*
X519161Y192922D01*
X519026Y193246D01*
X518867Y193498D01*
X518683Y193678D01*
X518474Y193785D01*
X518242Y193821D01*
X523193D01*
X522960Y193785D01*
D02*
G37*
G36*
X458962Y150655D02*
X458937Y150892D01*
X458861Y151105D01*
X458735Y151292D01*
X458557Y151455D01*
X458330Y151592D01*
X458051Y151705D01*
X457722Y151792D01*
X457343Y151855D01*
X456913Y151892D01*
X456432Y151905D01*
Y154405D01*
X456913Y154417D01*
X457343Y154455D01*
X457722Y154517D01*
X458051Y154605D01*
X458330Y154717D01*
X458557Y154855D01*
X458735Y155017D01*
X458861Y155205D01*
X458937Y155417D01*
X458962Y155655D01*
Y150655D01*
D02*
G37*
G36*
X277663Y146209D02*
X277682Y145993D01*
X277713Y145802D01*
X277758Y145637D01*
X277815Y145498D01*
X277885Y145383D01*
X277967Y145295D01*
X278063Y145231D01*
X278171Y145193D01*
X278291Y145180D01*
X275751D01*
X275872Y145193D01*
X275980Y145231D01*
X276075Y145295D01*
X276158Y145383D01*
X276227Y145498D01*
X276285Y145637D01*
X276329Y145802D01*
X276361Y145993D01*
X276380Y146209D01*
X276386Y146450D01*
X277656D01*
X277663Y146209D01*
D02*
G37*
G36*
X547379Y154340D02*
X547478Y153190D01*
X547563Y152722D01*
X547674Y152327D01*
X547809Y152003D01*
X547968Y151752D01*
X548152Y151572D01*
X548360Y151464D01*
X548593Y151428D01*
X543642D01*
X543874Y151464D01*
X544083Y151572D01*
X544267Y151752D01*
X544426Y152003D01*
X544561Y152327D01*
X544671Y152722D01*
X544757Y153190D01*
X544818Y153729D01*
X544855Y154340D01*
X544867Y155023D01*
X547367D01*
X547379Y154340D01*
D02*
G37*
G36*
X508769Y154582D02*
X508867Y153511D01*
X508954Y153083D01*
X509064Y152727D01*
X509200Y152442D01*
X509360Y152229D01*
X509545Y152087D01*
X509754Y152018D01*
X509988Y152019D01*
X505423Y151324D01*
X505582Y151554D01*
X505723Y151808D01*
X505848Y152086D01*
X505957Y152389D01*
X506048Y152716D01*
X506123Y153068D01*
X506181Y153444D01*
X506248Y154269D01*
X506256Y154719D01*
X508756Y155225D01*
X508769Y154582D01*
D02*
G37*
G36*
X510260Y138989D02*
X510052Y138882D01*
X509868Y138702D01*
X509709Y138450D01*
X509574Y138127D01*
X509463Y137731D01*
X509378Y137264D01*
X509316Y136725D01*
X509280Y136113D01*
X509267Y135430D01*
X506767D01*
X506755Y136113D01*
X506657Y137264D01*
X506571Y137731D01*
X506461Y138127D01*
X506326Y138450D01*
X506167Y138702D01*
X505983Y138882D01*
X505774Y138989D01*
X505541Y139025D01*
X510493D01*
X510260Y138989D01*
D02*
G37*
G36*
X286663Y134525D02*
X286682Y134309D01*
X286713Y134118D01*
X286758Y133953D01*
X286815Y133814D01*
X286885Y133699D01*
X286967Y133610D01*
X287063Y133547D01*
X287171Y133509D01*
X287291Y133496D01*
X284751D01*
X284872Y133509D01*
X284980Y133547D01*
X285075Y133610D01*
X285158Y133699D01*
X285228Y133814D01*
X285285Y133953D01*
X285329Y134118D01*
X285361Y134309D01*
X285380Y134525D01*
X285386Y134766D01*
X286656D01*
X286663Y134525D01*
D02*
G37*
G36*
X287171Y139059D02*
X287063Y139020D01*
X286967Y138955D01*
X286885Y138864D01*
X286815Y138747D01*
X286758Y138603D01*
X286713Y138434D01*
X286682Y138239D01*
X286663Y138018D01*
X286656Y137771D01*
X285386D01*
X285380Y138018D01*
X285361Y138239D01*
X285329Y138434D01*
X285285Y138603D01*
X285228Y138747D01*
X285158Y138864D01*
X285075Y138955D01*
X284980Y139020D01*
X284872Y139059D01*
X284751Y139072D01*
X287291D01*
X287171Y139059D01*
D02*
G37*
G36*
X534557Y137951D02*
X534451Y137906D01*
X534358Y137830D01*
X534277Y137723D01*
X534208Y137586D01*
X534152Y137419D01*
X534108Y137221D01*
X534077Y136993D01*
X534058Y136734D01*
X534052Y136445D01*
X532782D01*
X532776Y136734D01*
X532726Y137221D01*
X532682Y137419D01*
X532626Y137586D01*
X532558Y137723D01*
X532477Y137830D01*
X532383Y137906D01*
X532277Y137951D01*
X532159Y137967D01*
X534676D01*
X534557Y137951D01*
D02*
G37*
G36*
X609167Y194056D02*
X611819Y192703D01*
X612610Y192372D01*
X614051Y191891D01*
X614702Y191741D01*
X615306Y191651D01*
X615863Y191621D01*
X616349Y189121D01*
X615761Y189079D01*
X615153Y188952D01*
X614527Y188741D01*
X613882Y188446D01*
X613218Y188067D01*
X612534Y187603D01*
X611832Y187055D01*
X611111Y186423D01*
X609612Y184905D01*
X604919Y190634D01*
X608190Y194627D01*
X609167Y194056D01*
D02*
G37*
G36*
X604919Y190634D02*
X600227Y184905D01*
X598728Y186423D01*
X598006Y187055D01*
X597304Y187603D01*
X596621Y188067D01*
X595957Y188446D01*
X595311Y188741D01*
X594685Y188952D01*
X594078Y189079D01*
X593490Y189121D01*
X593975Y191621D01*
X594533Y191651D01*
X595137Y191741D01*
X595787Y191891D01*
X597229Y192372D01*
X598019Y192703D01*
X600672Y194056D01*
X601649Y194627D01*
X604919Y190634D01*
D02*
G37*
G36*
X278171Y189714D02*
X278063Y189675D01*
X277967Y189610D01*
X277885Y189519D01*
X277815Y189402D01*
X277758Y189259D01*
X277713Y189090D01*
X277682Y188895D01*
X277663Y188674D01*
X277656Y188427D01*
X276386D01*
X276380Y188674D01*
X276361Y188895D01*
X276329Y189090D01*
X276285Y189259D01*
X276227Y189402D01*
X276158Y189519D01*
X276075Y189610D01*
X275980Y189675D01*
X275872Y189714D01*
X275751Y189727D01*
X278291D01*
X278171Y189714D01*
D02*
G37*
G36*
X592268Y187871D02*
X592243Y188108D01*
X592168Y188321D01*
X592043Y188508D01*
X591868Y188671D01*
X591643Y188808D01*
X591368Y188921D01*
X591043Y189008D01*
X590668Y189071D01*
X590243Y189108D01*
X589768Y189121D01*
Y191621D01*
X590243Y191633D01*
X590668Y191671D01*
X591043Y191733D01*
X591368Y191821D01*
X591643Y191933D01*
X591868Y192071D01*
X592043Y192233D01*
X592168Y192421D01*
X592243Y192633D01*
X592268Y192871D01*
Y187871D01*
D02*
G37*
G36*
X282037Y166555D02*
X283568Y165235D01*
X283789Y165092D01*
X283981Y164991D01*
X284145Y164930D01*
X284279Y164909D01*
X283357Y163987D01*
X284279Y163409D01*
X287900Y161909D01*
X287309Y161888D01*
X286735Y161824D01*
X286179Y161719D01*
X285641Y161570D01*
X285120Y161379D01*
X284616Y161146D01*
X284130Y160870D01*
X283662Y160552D01*
X283212Y160191D01*
X282779Y159788D01*
X280648Y161900D01*
X281042Y162312D01*
X281375Y162699D01*
X281649Y163062D01*
X281861Y163401D01*
X282014Y163715D01*
X282106Y164005D01*
X282138Y164270D01*
X282109Y164511D01*
X282068Y164611D01*
X281783Y164953D01*
X281133Y165651D01*
X280747Y166043D01*
X281645Y166941D01*
X282037Y166555D01*
D02*
G37*
G36*
X278002Y154982D02*
X277929Y154824D01*
X277865Y154616D01*
X277810Y154359D01*
X277763Y154054D01*
X277695Y153296D01*
X277661Y152343D01*
X277656Y151793D01*
X276386D01*
X276382Y152343D01*
X276233Y154359D01*
X276177Y154616D01*
X276113Y154824D01*
X276041Y154982D01*
X275960Y155092D01*
X278083D01*
X278002Y154982D01*
D02*
G37*
G36*
X126614Y180442D02*
X126653Y165772D01*
X125385Y165144D01*
X124448Y165863D01*
X122502Y166669D01*
X120413Y166944D01*
X118325Y166669D01*
X116379Y165863D01*
X114949Y164766D01*
X113809Y164992D01*
X112670Y164766D01*
X111240Y165863D01*
X109294Y166669D01*
X107205Y166944D01*
X105117Y166669D01*
X103171Y165863D01*
X101500Y164580D01*
X100870Y163759D01*
X99600Y164191D01*
Y176997D01*
X102470Y179867D01*
X103439Y179765D01*
X104041Y178546D01*
X103624Y177922D01*
X103446Y177030D01*
X108842D01*
Y175760D01*
X110112D01*
Y170364D01*
X111004Y170541D01*
X112673Y171657D01*
X114153Y170668D01*
X115044Y170491D01*
Y175887D01*
X116314D01*
Y177157D01*
X121710D01*
X121533Y178048D01*
X120946Y178926D01*
X121625Y180196D01*
X122953D01*
X122953Y180196D01*
X124514Y180507D01*
X125342Y181060D01*
X126614Y180442D01*
D02*
G37*
G36*
X57580Y212547D02*
X70917Y199211D01*
X71153Y199337D01*
X74171Y196320D01*
Y179217D01*
X71180D01*
Y178757D01*
X69550D01*
Y173117D01*
Y167477D01*
X71180D01*
Y167017D01*
X74171D01*
Y163965D01*
X55897D01*
X54727Y163733D01*
X54709Y163721D01*
X53439Y164400D01*
X53439Y184082D01*
X53539Y184142D01*
Y209905D01*
X51702Y211742D01*
X52878Y212918D01*
X57580D01*
Y212547D01*
D02*
G37*
G36*
X26098Y91665D02*
X26137Y91557D01*
X26202Y91461D01*
X26293Y91379D01*
X26410Y91309D01*
X26553Y91252D01*
X26722Y91208D01*
X26917Y91176D01*
X27138Y91157D01*
X27385Y91150D01*
Y89880D01*
X27138Y89874D01*
X26917Y89855D01*
X26722Y89823D01*
X26553Y89779D01*
X26410Y89722D01*
X26293Y89652D01*
X26202Y89569D01*
X26137Y89474D01*
X26098Y89366D01*
X26084Y89245D01*
Y91785D01*
X26098Y91665D01*
D02*
G37*
G36*
X155121Y37174D02*
X154642Y37161D01*
X154214Y37124D01*
X153836Y37061D01*
X153508Y36974D01*
X153230Y36861D01*
X153002Y36724D01*
X152824Y36561D01*
X152696Y36374D01*
X152618Y36161D01*
X152590Y35924D01*
X152621Y38800D01*
X155121Y39674D01*
Y37174D01*
D02*
G37*
G36*
X141701Y32679D02*
X141593Y32640D01*
X141497Y32575D01*
X141415Y32484D01*
X141345Y32367D01*
X141288Y32224D01*
X141243Y32055D01*
X141212Y31860D01*
X141193Y31639D01*
X141186Y31391D01*
X139916D01*
X139910Y31639D01*
X139891Y31860D01*
X139859Y32055D01*
X139815Y32224D01*
X139758Y32367D01*
X139688Y32484D01*
X139605Y32575D01*
X139510Y32640D01*
X139402Y32679D01*
X139281Y32692D01*
X141821D01*
X141701Y32679D01*
D02*
G37*
G36*
X121877Y40276D02*
X121915Y40169D01*
X121979Y40073D01*
X122068Y39991D01*
X122182Y39921D01*
X122322Y39864D01*
X122487Y39819D01*
X122677Y39788D01*
X122893Y39769D01*
X123134Y39762D01*
Y38492D01*
X122893Y38486D01*
X122677Y38467D01*
X122487Y38435D01*
X122322Y38391D01*
X122182Y38333D01*
X122068Y38264D01*
X121979Y38181D01*
X121915Y38086D01*
X121877Y37978D01*
X121865Y37857D01*
Y40397D01*
X121877Y40276D01*
D02*
G37*
G36*
X19478Y38096D02*
X19519Y37690D01*
X19554Y37525D01*
X19600Y37385D01*
X19656Y37271D01*
X19722Y37182D01*
X19798Y37118D01*
X19884Y37080D01*
X19980Y37068D01*
X17568Y37037D01*
X17689Y37052D01*
X17797Y37092D01*
X17892Y37158D01*
X17975Y37249D01*
X18044Y37366D01*
X18102Y37509D01*
X18146Y37678D01*
X18178Y37872D01*
X18197Y38092D01*
X18203Y38338D01*
X19473D01*
X19478Y38096D01*
D02*
G37*
G36*
X33171Y33775D02*
X33209Y33667D01*
X33273Y33572D01*
X33362Y33489D01*
X33476Y33419D01*
X33616Y33362D01*
X33781Y33318D01*
X33971Y33286D01*
X34187Y33267D01*
X34429Y33261D01*
Y31991D01*
X34187Y31984D01*
X33971Y31965D01*
X33781Y31934D01*
X33616Y31889D01*
X33476Y31832D01*
X33362Y31762D01*
X33273Y31680D01*
X33209Y31584D01*
X33171Y31476D01*
X33159Y31356D01*
Y33896D01*
X33171Y33775D01*
D02*
G37*
G36*
X27050Y31356D02*
X27037Y31476D01*
X26998Y31584D01*
X26933Y31680D01*
X26842Y31762D01*
X26725Y31832D01*
X26582Y31889D01*
X26413Y31934D01*
X26218Y31965D01*
X25997Y31984D01*
X25749Y31991D01*
Y33261D01*
X25997Y33267D01*
X26218Y33286D01*
X26413Y33318D01*
X26582Y33362D01*
X26725Y33419D01*
X26842Y33489D01*
X26933Y33572D01*
X26998Y33667D01*
X27037Y33775D01*
X27050Y33896D01*
Y31356D01*
D02*
G37*
G36*
X121877Y33777D02*
X121915Y33669D01*
X121979Y33574D01*
X122068Y33491D01*
X122182Y33421D01*
X122322Y33364D01*
X122487Y33319D01*
X122677Y33288D01*
X122893Y33269D01*
X123134Y33262D01*
Y31992D01*
X122893Y31986D01*
X122677Y31967D01*
X122487Y31935D01*
X122322Y31891D01*
X122182Y31834D01*
X122068Y31764D01*
X121979Y31681D01*
X121915Y31586D01*
X121877Y31478D01*
X121865Y31357D01*
Y33897D01*
X121877Y33777D01*
D02*
G37*
G36*
X48954Y31356D02*
X48941Y31476D01*
X48902Y31584D01*
X48837Y31680D01*
X48746Y31762D01*
X48629Y31832D01*
X48486Y31889D01*
X48317Y31934D01*
X48122Y31965D01*
X47901Y31984D01*
X47654Y31991D01*
Y33261D01*
X47901Y33267D01*
X48122Y33286D01*
X48317Y33318D01*
X48486Y33362D01*
X48629Y33419D01*
X48746Y33489D01*
X48837Y33572D01*
X48902Y33667D01*
X48941Y33775D01*
X48954Y33896D01*
Y31356D01*
D02*
G37*
G36*
X114565Y46607D02*
X114724Y46535D01*
X114931Y46471D01*
X115188Y46416D01*
X115493Y46369D01*
X116251Y46300D01*
X117204Y46266D01*
X117754Y46262D01*
Y44992D01*
X117204Y44988D01*
X115188Y44839D01*
X114931Y44783D01*
X114724Y44719D01*
X114565Y44647D01*
X114455Y44566D01*
Y46688D01*
X114565Y46607D01*
D02*
G37*
G36*
X121877Y46776D02*
X121916Y46668D01*
X121979Y46573D01*
X122068Y46491D01*
X122182Y46421D01*
X122322Y46364D01*
X122487Y46319D01*
X122678Y46287D01*
X122893Y46268D01*
X123135Y46262D01*
Y44992D01*
X122893Y44986D01*
X122678Y44967D01*
X122487Y44935D01*
X122322Y44890D01*
X122182Y44833D01*
X122068Y44763D01*
X121979Y44681D01*
X121916Y44586D01*
X121877Y44478D01*
X121865Y44357D01*
Y46897D01*
X121877Y46776D01*
D02*
G37*
G36*
X171921Y45267D02*
X171896Y45504D01*
X171820Y45717D01*
X171693Y45904D01*
X171516Y46067D01*
X171289Y46205D01*
X171010Y46317D01*
X170681Y46405D01*
X170302Y46467D01*
X169872Y46505D01*
X169391Y46517D01*
Y49017D01*
X169872Y49029D01*
X170302Y49067D01*
X170681Y49130D01*
X171010Y49217D01*
X171289Y49330D01*
X171516Y49467D01*
X171693Y49630D01*
X171820Y49817D01*
X171896Y50030D01*
X171921Y50267D01*
Y45267D01*
D02*
G37*
G36*
X138888Y44728D02*
X138792Y44797D01*
X138677Y44830D01*
X138544Y44827D01*
X138392Y44788D01*
X138222Y44713D01*
X138033Y44602D01*
X137825Y44455D01*
X137599Y44272D01*
X137092Y43800D01*
X136194Y44697D01*
X136448Y44961D01*
X136849Y45431D01*
X136996Y45639D01*
X137107Y45828D01*
X137182Y45998D01*
X137221Y46150D01*
X137224Y46283D01*
X137191Y46398D01*
X137122Y46494D01*
X138888Y44728D01*
D02*
G37*
G36*
X187005Y46632D02*
X187049Y46556D01*
X187132Y46446D01*
X187414Y46120D01*
X188797Y44690D01*
X187137Y42816D01*
X186843Y43108D01*
X185552Y44252D01*
X185524Y44245D01*
X186999Y46672D01*
X187005Y46632D01*
D02*
G37*
G36*
X220770Y39706D02*
X220056Y40228D01*
X218089Y41462D01*
X217491Y41764D01*
X216922Y42011D01*
X216383Y42203D01*
X215872Y42340D01*
X215390Y42422D01*
X214937Y42450D01*
Y44950D01*
X215390Y44977D01*
X215872Y45059D01*
X216383Y45197D01*
X216922Y45389D01*
X217491Y45635D01*
X218089Y45937D01*
X219371Y46705D01*
X220056Y47172D01*
X220770Y47693D01*
Y39706D01*
D02*
G37*
G36*
X71487Y43461D02*
X71241Y43631D01*
X70979Y43784D01*
X70700Y43918D01*
X70406Y44035D01*
X70094Y44133D01*
X69767Y44214D01*
X69423Y44276D01*
X69063Y44321D01*
X68687Y44348D01*
X68294Y44357D01*
Y47357D01*
X68687Y47366D01*
X69423Y47438D01*
X69767Y47501D01*
X70094Y47581D01*
X70406Y47680D01*
X70700Y47796D01*
X70979Y47931D01*
X71241Y48083D01*
X71487Y48253D01*
Y43461D01*
D02*
G37*
G36*
X100362Y47681D02*
X100599Y47565D01*
X100858Y47462D01*
X101139Y47373D01*
X101441Y47298D01*
X101764Y47236D01*
X102476Y47154D01*
X102864Y47134D01*
X103273Y47127D01*
X103638Y44127D01*
X103242Y44117D01*
X102866Y44087D01*
X102507Y44036D01*
X102168Y43965D01*
X101847Y43874D01*
X101545Y43763D01*
X101262Y43631D01*
X100997Y43479D01*
X100751Y43307D01*
X100523Y43115D01*
X100146Y47811D01*
X100362Y47681D01*
D02*
G37*
G36*
X19993Y33775D02*
X20031Y33667D01*
X20095Y33572D01*
X20183Y33489D01*
X20298Y33419D01*
X20438Y33362D01*
X20603Y33318D01*
X20793Y33286D01*
X21009Y33267D01*
X21250Y33261D01*
Y31991D01*
X21009Y31984D01*
X20793Y31965D01*
X20603Y31934D01*
X20438Y31889D01*
X20298Y31832D01*
X20183Y31762D01*
X20095Y31680D01*
X20031Y31584D01*
X19993Y31476D01*
X19980Y31356D01*
Y33896D01*
X19993Y33775D01*
D02*
G37*
G36*
X58008Y13985D02*
X58027Y13769D01*
X58059Y13578D01*
X58103Y13413D01*
X58161Y13274D01*
X58230Y13159D01*
X58313Y13070D01*
X58408Y13007D01*
X58516Y12969D01*
X58637Y12956D01*
X56097D01*
X56217Y12969D01*
X56325Y13007D01*
X56421Y13070D01*
X56503Y13159D01*
X56573Y13274D01*
X56630Y13413D01*
X56675Y13578D01*
X56706Y13769D01*
X56725Y13985D01*
X56732Y14226D01*
X58002D01*
X58008Y13985D01*
D02*
G37*
G36*
X137482Y8785D02*
X137469Y8784D01*
X137431Y8782D01*
X136212Y8775D01*
Y10045D01*
X136457Y10052D01*
X136677Y10071D01*
X136871Y10103D01*
X137039Y10147D01*
X137182Y10204D01*
X137299Y10274D01*
X137391Y10357D01*
X137457Y10452D01*
X137498Y10560D01*
X137512Y10680D01*
X137482Y8785D01*
D02*
G37*
G36*
X141193Y15953D02*
X141212Y15737D01*
X141243Y15547D01*
X141288Y15382D01*
X141345Y15242D01*
X141415Y15128D01*
X141497Y15039D01*
X141593Y14975D01*
X141701Y14937D01*
X141821Y14924D01*
X139281D01*
X139402Y14937D01*
X139510Y14975D01*
X139605Y15039D01*
X139688Y15128D01*
X139758Y15242D01*
X139815Y15382D01*
X139859Y15547D01*
X139891Y15737D01*
X139910Y15953D01*
X139916Y16194D01*
X141186D01*
X141193Y15953D01*
D02*
G37*
G36*
X151503Y16241D02*
X150772Y15006D01*
X150736Y14933D01*
X150821Y14924D01*
X150732D01*
X150593Y14638D01*
X150333Y13969D01*
X150251Y13667D01*
X150203Y13388D01*
X150186Y13130D01*
X148916Y13043D01*
X148898Y13306D01*
X148843Y13587D01*
X148751Y13885D01*
X148622Y14200D01*
X148456Y14532D01*
X148254Y14882D01*
X148015Y15249D01*
X147426Y16035D01*
X147076Y16454D01*
X151812Y16697D01*
X151503Y16241D01*
D02*
G37*
G36*
X69431Y12149D02*
X69507Y11937D01*
X69633Y11749D01*
X69811Y11586D01*
X70038Y11449D01*
X70317Y11336D01*
X70646Y11249D01*
X71025Y11186D01*
X71455Y11149D01*
X71936Y11136D01*
Y8637D01*
X71455Y8624D01*
X71025Y8586D01*
X70646Y8524D01*
X70317Y8436D01*
X70038Y8324D01*
X69811Y8186D01*
X69633Y8024D01*
X69507Y7836D01*
X69431Y7624D01*
X69406Y7386D01*
Y12386D01*
X69431Y12149D01*
D02*
G37*
G36*
X188557Y32820D02*
X187621Y32634D01*
X185788Y31410D01*
X184564Y29577D01*
X184386Y28686D01*
X189782D01*
Y26146D01*
X183129D01*
X181066Y24562D01*
X179056Y21943D01*
X177792Y18892D01*
X177528Y16889D01*
X190009D01*
Y15619D01*
X191279D01*
Y3138D01*
X193283Y3401D01*
X196333Y4665D01*
X198953Y6675D01*
X200963Y9295D01*
X201773Y11250D01*
X203148D01*
X204054Y9063D01*
X206138Y6347D01*
X208853Y4263D01*
X212016Y2953D01*
X214864Y2578D01*
X214780Y1308D01*
X150646D01*
X150119Y2578D01*
X152172Y4631D01*
X152923Y5755D01*
X155651D01*
Y17955D01*
X155651D01*
X155332Y19093D01*
X155261Y19448D01*
Y29631D01*
X155651D01*
Y34090D01*
X188432D01*
X188557Y32820D01*
D02*
G37*
G36*
X76051Y7644D02*
X75759Y7832D01*
X75458Y8001D01*
X75148Y8150D01*
X74830Y8279D01*
X74504Y8388D01*
X74169Y8478D01*
X73825Y8547D01*
X73473Y8597D01*
X73112Y8626D01*
X72743Y8637D01*
X72533Y11136D01*
X72896Y11149D01*
X73250Y11186D01*
X73596Y11248D01*
X73933Y11334D01*
X74262Y11445D01*
X74582Y11581D01*
X74893Y11741D01*
X75197Y11926D01*
X75491Y12136D01*
X75777Y12370D01*
X76051Y7644D01*
D02*
G37*
G36*
X150701Y8803D02*
X150593Y8764D01*
X150498Y8699D01*
X150415Y8608D01*
X150345Y8491D01*
X150288Y8348D01*
X150244Y8179D01*
X150212Y7984D01*
X150193Y7763D01*
X150186Y7515D01*
X148916D01*
X148910Y7763D01*
X148891Y7984D01*
X148859Y8179D01*
X148815Y8348D01*
X148758Y8491D01*
X148688Y8608D01*
X148605Y8699D01*
X148510Y8764D01*
X148402Y8803D01*
X148281Y8816D01*
X150821D01*
X150701Y8803D01*
D02*
G37*
G36*
X48954Y24856D02*
X48941Y24977D01*
X48902Y25085D01*
X48837Y25180D01*
X48746Y25262D01*
X48629Y25332D01*
X48486Y25389D01*
X48317Y25434D01*
X48122Y25466D01*
X47900Y25485D01*
X47653Y25491D01*
Y26761D01*
X47900Y26767D01*
X48122Y26786D01*
X48317Y26818D01*
X48486Y26862D01*
X48629Y26920D01*
X48746Y26990D01*
X48837Y27072D01*
X48902Y27167D01*
X48941Y27275D01*
X48954Y27396D01*
Y24856D01*
D02*
G37*
G36*
X33171Y27275D02*
X33209Y27167D01*
X33273Y27072D01*
X33362Y26990D01*
X33476Y26920D01*
X33616Y26862D01*
X33781Y26818D01*
X33971Y26786D01*
X34187Y26767D01*
X34429Y26761D01*
Y25491D01*
X34187Y25485D01*
X33971Y25466D01*
X33781Y25434D01*
X33616Y25389D01*
X33476Y25332D01*
X33362Y25262D01*
X33273Y25180D01*
X33209Y25085D01*
X33171Y24977D01*
X33159Y24856D01*
Y27396D01*
X33171Y27275D01*
D02*
G37*
G36*
X141193Y27845D02*
X141212Y27629D01*
X141243Y27438D01*
X141288Y27273D01*
X141345Y27134D01*
X141415Y27019D01*
X141497Y26930D01*
X141593Y26867D01*
X141701Y26829D01*
X141821Y26816D01*
X139281D01*
X139402Y26829D01*
X139510Y26867D01*
X139605Y26930D01*
X139688Y27019D01*
X139758Y27134D01*
X139815Y27273D01*
X139859Y27438D01*
X139891Y27629D01*
X139910Y27845D01*
X139916Y28086D01*
X141186D01*
X141193Y27845D01*
D02*
G37*
G36*
X121872Y26908D02*
X121897Y26878D01*
X121938Y26851D01*
X121995Y26827D01*
X122068Y26807D01*
X122158Y26791D01*
X122264Y26779D01*
X122525Y26764D01*
X122680Y26762D01*
Y25492D01*
X122525Y25491D01*
X122158Y25464D01*
X122068Y25447D01*
X121995Y25428D01*
X121938Y25404D01*
X121897Y25377D01*
X121872Y25347D01*
X121864Y25312D01*
Y26943D01*
X121872Y26908D01*
D02*
G37*
G36*
X58516Y24174D02*
X58408Y24135D01*
X58313Y24070D01*
X58230Y23979D01*
X58161Y23862D01*
X58103Y23719D01*
X58059Y23550D01*
X58027Y23355D01*
X58008Y23133D01*
X58002Y22886D01*
X56732D01*
X56725Y23133D01*
X56706Y23355D01*
X56675Y23550D01*
X56630Y23719D01*
X56573Y23862D01*
X56503Y23979D01*
X56421Y24070D01*
X56325Y24135D01*
X56217Y24174D01*
X56097Y24187D01*
X58637D01*
X58516Y24174D01*
D02*
G37*
G36*
X141701Y20695D02*
X141593Y20656D01*
X141497Y20591D01*
X141415Y20500D01*
X141345Y20383D01*
X141288Y20240D01*
X141243Y20070D01*
X141212Y19875D01*
X141193Y19654D01*
X141186Y19407D01*
X139916D01*
X139910Y19654D01*
X139891Y19875D01*
X139859Y20070D01*
X139815Y20240D01*
X139758Y20383D01*
X139688Y20500D01*
X139605Y20591D01*
X139510Y20656D01*
X139402Y20695D01*
X139281Y20708D01*
X141821D01*
X141701Y20695D01*
D02*
G37*
G36*
X27050Y24856D02*
X27037Y24977D01*
X26998Y25085D01*
X26933Y25180D01*
X26842Y25262D01*
X26725Y25332D01*
X26582Y25389D01*
X26413Y25434D01*
X26218Y25466D01*
X25997Y25485D01*
X25749Y25491D01*
Y26761D01*
X25997Y26767D01*
X26218Y26786D01*
X26413Y26818D01*
X26582Y26862D01*
X26725Y26920D01*
X26842Y26990D01*
X26933Y27072D01*
X26998Y27167D01*
X27037Y27275D01*
X27050Y27396D01*
Y24856D01*
D02*
G37*
G36*
X19993Y27275D02*
X20031Y27167D01*
X20095Y27072D01*
X20183Y26990D01*
X20298Y26920D01*
X20438Y26862D01*
X20603Y26818D01*
X20793Y26786D01*
X21009Y26767D01*
X21250Y26761D01*
Y25491D01*
X21009Y25485D01*
X20793Y25466D01*
X20603Y25434D01*
X20438Y25389D01*
X20298Y25332D01*
X20183Y25262D01*
X20095Y25180D01*
X20031Y25085D01*
X19993Y24977D01*
X19980Y24856D01*
Y27396D01*
X19993Y27275D01*
D02*
G37*
G36*
X159378Y50033D02*
X159667Y49820D01*
X159965Y49632D01*
X160273Y49469D01*
X160590Y49331D01*
X160916Y49218D01*
X161252Y49130D01*
X161598Y49067D01*
X161953Y49029D01*
X162317Y49017D01*
X162049Y46517D01*
X161676Y46508D01*
X161313Y46479D01*
X160959Y46431D01*
X160615Y46365D01*
X160280Y46280D01*
X159955Y46175D01*
X159639Y46052D01*
X159333Y45909D01*
X159036Y45748D01*
X158749Y45567D01*
X157075Y47697D01*
X159099Y50272D01*
X159378Y50033D01*
D02*
G37*
G36*
X95655Y84703D02*
X95547Y84664D01*
X95451Y84599D01*
X95369Y84508D01*
X95299Y84391D01*
X95242Y84248D01*
X95197Y84078D01*
X95166Y83883D01*
X95147Y83662D01*
X95140Y83415D01*
X93870D01*
X93864Y83662D01*
X93845Y83883D01*
X93813Y84078D01*
X93769Y84248D01*
X93712Y84391D01*
X93642Y84508D01*
X93559Y84599D01*
X93464Y84664D01*
X93356Y84703D01*
X93235Y84716D01*
X95775D01*
X95655Y84703D01*
D02*
G37*
G36*
X131503Y84508D02*
X131395Y84469D01*
X131299Y84404D01*
X131217Y84313D01*
X131147Y84196D01*
X131090Y84053D01*
X131046Y83884D01*
X131014Y83689D01*
X130995Y83468D01*
X130988Y83221D01*
X129718D01*
X129712Y83468D01*
X129693Y83689D01*
X129661Y83884D01*
X129617Y84053D01*
X129560Y84196D01*
X129490Y84313D01*
X129407Y84404D01*
X129312Y84469D01*
X129204Y84508D01*
X129083Y84521D01*
X131623D01*
X131503Y84508D01*
D02*
G37*
G36*
X585854Y345805D02*
X585883Y345774D01*
X585883Y345774D01*
X585884Y345774D01*
X590906Y345492D01*
X598066Y344275D01*
X605046Y342265D01*
X611756Y339485D01*
X618113Y335972D01*
X624036Y331769D01*
X629452Y326929D01*
X634291Y321513D01*
X638494Y315590D01*
X642008Y309233D01*
X644787Y302523D01*
X646798Y295544D01*
X648014Y288383D01*
X648422Y281132D01*
X648363Y280082D01*
X648296Y278903D01*
X648296Y278903D01*
X648327Y277661D01*
Y277572D01*
X648239Y83588D01*
X640322D01*
X639271Y86126D01*
X636765Y90217D01*
X633649Y93864D01*
X630002Y96980D01*
X625911Y99486D01*
X621480Y101322D01*
X617192Y102351D01*
X617342Y103621D01*
X645237D01*
Y137996D01*
Y172371D01*
Y208371D01*
X645237D01*
Y209245D01*
X645237D01*
Y240245D01*
X618896D01*
X618745Y241515D01*
X621777Y242243D01*
X626350Y244138D01*
X630572Y246724D01*
X634336Y249939D01*
X637551Y253704D01*
X640138Y257925D01*
X642032Y262499D01*
X643188Y267313D01*
X643577Y272248D01*
X643188Y277184D01*
X642032Y281998D01*
X640138Y286572D01*
X637551Y290793D01*
X634336Y294557D01*
X630572Y297772D01*
X626350Y300359D01*
X621777Y302254D01*
X616963Y303409D01*
X612027Y303798D01*
X607092Y303409D01*
X602278Y302254D01*
X600394Y301473D01*
X599274Y302072D01*
X599019Y303355D01*
X597693Y305339D01*
X595708Y306665D01*
X593367Y307131D01*
X591026Y306665D01*
X589041Y305339D01*
X587715Y303355D01*
X587249Y301014D01*
X587395Y300283D01*
X583743Y296631D01*
X582570Y297117D01*
Y298707D01*
X582574Y298718D01*
X582570Y298774D01*
Y298974D01*
X582598Y299121D01*
X582570Y299259D01*
Y300035D01*
X583779Y301846D01*
X584245Y304187D01*
X583779Y306528D01*
X582897Y307848D01*
Y314319D01*
Y326519D01*
X582897Y326519D01*
X582786Y327618D01*
X582763Y327733D01*
X582763Y327733D01*
X582754Y327776D01*
X582570Y328704D01*
Y339063D01*
X570370D01*
Y338603D01*
X568740D01*
Y332963D01*
X567470D01*
Y331693D01*
X561830D01*
Y327734D01*
X561697Y326519D01*
X561697Y326519D01*
X561697D01*
Y312972D01*
X560981Y312829D01*
X559493Y311835D01*
X558887Y311229D01*
X557713Y311715D01*
Y316067D01*
X547436D01*
X546713Y316067D01*
X545530Y315857D01*
X525983D01*
Y291567D01*
Y267277D01*
X543496Y267277D01*
X542387Y268386D01*
Y273397D01*
X539846Y278663D01*
X546568D01*
X546253Y278952D01*
Y278987D01*
X546713Y280067D01*
X547523Y280067D01*
X557713D01*
Y291067D01*
X547820Y291067D01*
X547387Y291817D01*
X547820Y292567D01*
X557713D01*
Y296151D01*
X557742Y296294D01*
X557713Y296436D01*
Y296962D01*
X558351Y297716D01*
X560656Y300021D01*
X561830Y299535D01*
Y297305D01*
X567470D01*
Y296035D01*
X568740D01*
Y292965D01*
X570264D01*
X570027Y292940D01*
X569814Y292865D01*
X569627Y292740D01*
X569464Y292565D01*
X569327Y292340D01*
X569214Y292065D01*
X569127Y291740D01*
X569064Y291365D01*
X569027Y290940D01*
X569014Y290465D01*
X568740D01*
Y290395D01*
X570370D01*
Y289935D01*
X575456D01*
X576135Y288665D01*
X576054Y288543D01*
X575771Y287124D01*
Y246006D01*
X567464Y237699D01*
X561512D01*
X561387Y238969D01*
X562779Y239246D01*
X564763Y240572D01*
X566089Y242557D01*
X566555Y244898D01*
X566089Y247239D01*
X564763Y249223D01*
X563729Y249915D01*
X563687Y251414D01*
X565014Y253399D01*
X565479Y255740D01*
X565014Y258081D01*
X563687Y260066D01*
X561870Y261280D01*
X556853D01*
X555036Y260066D01*
X553710Y258081D01*
X553244Y255740D01*
X553389Y255009D01*
X547093Y248713D01*
X546106Y249522D01*
X546162Y249606D01*
X546339Y250497D01*
X540943D01*
Y253037D01*
X546339D01*
X546162Y253929D01*
X545702Y254618D01*
X545955Y254996D01*
X546132Y255888D01*
X540736D01*
Y257157D01*
X539466D01*
Y262553D01*
X538575Y262376D01*
X537556Y261696D01*
X536036Y262712D01*
X535144Y262889D01*
Y257493D01*
X532604D01*
Y262889D01*
X531713Y262712D01*
X530776Y262086D01*
X529744Y262776D01*
X528853Y262953D01*
Y257557D01*
X526313D01*
Y262953D01*
X525421Y262776D01*
X523589Y261551D01*
X522764Y260317D01*
X521719D01*
Y254677D01*
X519179D01*
Y260317D01*
X512719D01*
Y254677D01*
X511449D01*
Y253407D01*
X505809D01*
Y249364D01*
X504680Y248696D01*
X478476Y274901D01*
X479002Y276171D01*
X481129D01*
Y280541D01*
X478791D01*
X479044Y280180D01*
X479401Y279736D01*
X480326Y278741D01*
X478558Y276973D01*
X478043Y277472D01*
X477120Y278255D01*
X476713Y278541D01*
X476341Y278756D01*
X476006Y278901D01*
X475706Y278975D01*
X475442Y278978D01*
X475215Y278910D01*
X475023Y278772D01*
X476792Y280541D01*
X475489D01*
Y283081D01*
X481129D01*
Y287451D01*
X481129D01*
X481261Y287903D01*
X481261Y287903D01*
Y288517D01*
X482159Y289415D01*
X483222D01*
X490314Y282322D01*
X491713Y281388D01*
Y280067D01*
X501607Y280067D01*
X502040Y279317D01*
X501607Y278567D01*
X491713D01*
Y267567D01*
X502024D01*
X503173Y267277D01*
X503863Y267277D01*
X523443D01*
Y291567D01*
Y315857D01*
X504808D01*
X504381Y316655D01*
X504242Y317127D01*
X504677Y319314D01*
X504212Y321655D01*
X502886Y323639D01*
X500901Y324965D01*
X498560Y325431D01*
X496219Y324965D01*
X494234Y323639D01*
X492908Y321655D01*
X492442Y319314D01*
X492836Y317337D01*
X492102Y316067D01*
X491713D01*
Y306588D01*
X490443Y306062D01*
X488326Y308179D01*
X486838Y309174D01*
X485082Y309523D01*
X481261D01*
Y311931D01*
X481129D01*
Y316257D01*
X475489D01*
Y317527D01*
X474219D01*
Y323167D01*
X473668D01*
X472589Y323627D01*
X472125Y324747D01*
X477067Y329689D01*
X500551D01*
X506615Y323624D01*
X507818Y322821D01*
X509236Y322538D01*
X535680D01*
X537533Y321300D01*
X539874Y320835D01*
X542215Y321300D01*
X544200Y322626D01*
X545526Y324611D01*
X545992Y326952D01*
X545526Y329293D01*
X544200Y331278D01*
X542215Y332604D01*
X539874Y333070D01*
X537533Y332604D01*
X535548Y331278D01*
X534662Y329951D01*
X533417D01*
X532534Y331221D01*
X532864Y332880D01*
X532399Y335221D01*
X531073Y337205D01*
X529088Y338532D01*
X526747Y338997D01*
X524406Y338532D01*
X522421Y337205D01*
X522007Y336586D01*
X519202D01*
X518604Y337706D01*
X519175Y338561D01*
X519641Y340902D01*
X519175Y343243D01*
X518304Y344546D01*
X518983Y345816D01*
X585854Y345805D01*
D02*
G37*
G36*
X20945Y84863D02*
X20837Y84824D01*
X20742Y84759D01*
X20659Y84668D01*
X20589Y84551D01*
X20532Y84408D01*
X20488Y84239D01*
X20456Y84044D01*
X20437Y83823D01*
X20431Y83576D01*
X19160D01*
X19154Y83823D01*
X19135Y84044D01*
X19103Y84239D01*
X19059Y84408D01*
X19002Y84551D01*
X18932Y84668D01*
X18849Y84759D01*
X18754Y84824D01*
X18646Y84863D01*
X18526Y84876D01*
X21065D01*
X20945Y84863D01*
D02*
G37*
G36*
X17651Y72049D02*
X17670Y71827D01*
X17701Y71632D01*
X17746Y71463D01*
X17803Y71320D01*
X17873Y71203D01*
X17955Y71112D01*
X18051Y71047D01*
X18159Y71008D01*
X18279Y70995D01*
X15739D01*
X15860Y71008D01*
X15968Y71047D01*
X16063Y71112D01*
X16145Y71203D01*
X16215Y71320D01*
X16272Y71463D01*
X16317Y71632D01*
X16349Y71827D01*
X16368Y72049D01*
X16374Y72296D01*
X17644D01*
X17651Y72049D01*
D02*
G37*
G36*
X35894Y65402D02*
X35612Y65574D01*
X35320Y65728D01*
X35018Y65863D01*
X34704Y65981D01*
X34381Y66080D01*
X34046Y66161D01*
X33701Y66225D01*
X33367Y66267D01*
X33239Y66256D01*
X32859Y66193D01*
X32531Y66106D01*
X32252Y65993D01*
X32025Y65856D01*
X31847Y65693D01*
X31721Y65506D01*
X31645Y65293D01*
X31620Y65056D01*
Y70056D01*
X31645Y69819D01*
X31721Y69606D01*
X31847Y69419D01*
X32025Y69256D01*
X32252Y69118D01*
X32531Y69006D01*
X32859Y68918D01*
X33107Y68878D01*
X33339Y68921D01*
X33674Y69010D01*
X33998Y69125D01*
X34312Y69265D01*
X34616Y69431D01*
X34909Y69622D01*
X35192Y69839D01*
X35464Y70082D01*
X35894Y65402D01*
D02*
G37*
G36*
X512218Y85932D02*
X512293Y85082D01*
X512418Y84332D01*
X512593Y83682D01*
X512818Y83132D01*
X513093Y82682D01*
X513418Y82332D01*
X513793Y82082D01*
X514218Y81932D01*
X514693Y81882D01*
X504693D01*
X505168Y81932D01*
X505593Y82082D01*
X505968Y82332D01*
X506293Y82682D01*
X506568Y83132D01*
X506793Y83682D01*
X506968Y84332D01*
X507093Y85082D01*
X507168Y85932D01*
X507193Y86882D01*
X512193D01*
X512218Y85932D01*
D02*
G37*
G36*
X155088Y69022D02*
X154670Y69372D01*
X153886Y69961D01*
X153519Y70201D01*
X153170Y70403D01*
X152837Y70569D01*
X152641Y70649D01*
X152616Y70635D01*
X152525Y70553D01*
X152460Y70457D01*
X152421Y70349D01*
X152408Y70229D01*
Y70733D01*
X152224Y70790D01*
X151944Y70845D01*
X151680Y70864D01*
X151769Y72134D01*
X152027Y72150D01*
X152307Y72199D01*
X152408Y72226D01*
Y72769D01*
X152421Y72648D01*
X152460Y72540D01*
X152525Y72445D01*
X152616Y72362D01*
X152701Y72312D01*
X152932Y72393D01*
X153278Y72539D01*
X154036Y72929D01*
X154447Y73172D01*
X155337Y73756D01*
X155088Y69022D01*
D02*
G37*
G36*
X73656Y89441D02*
X73694Y89333D01*
X73757Y89238D01*
X73846Y89155D01*
X73960Y89085D01*
X74100Y89028D01*
X74265Y88984D01*
X74456Y88952D01*
X74672Y88933D01*
X74913Y88927D01*
Y87657D01*
X74672Y87650D01*
X74456Y87631D01*
X74265Y87599D01*
X74100Y87555D01*
X73960Y87498D01*
X73846Y87428D01*
X73757Y87346D01*
X73694Y87250D01*
X73656Y87142D01*
X73643Y87022D01*
Y89562D01*
X73656Y89441D01*
D02*
G37*
G36*
X103658Y86485D02*
X103645Y86605D01*
X103606Y86713D01*
X103541Y86809D01*
X103450Y86891D01*
X103333Y86961D01*
X103190Y87018D01*
X103021Y87063D01*
X102826Y87094D01*
X102605Y87113D01*
X102358Y87120D01*
Y88390D01*
X102605Y88396D01*
X102826Y88415D01*
X103021Y88447D01*
X103190Y88491D01*
X103333Y88548D01*
X103450Y88618D01*
X103541Y88701D01*
X103606Y88796D01*
X103645Y88904D01*
X103658Y89025D01*
Y86485D01*
D02*
G37*
G36*
X55209Y87300D02*
X55199Y87364D01*
X55169Y87421D01*
X55119Y87471D01*
X55049Y87515D01*
X54959Y87551D01*
X54849Y87582D01*
X54719Y87605D01*
X54569Y87622D01*
X54208Y87635D01*
Y88905D01*
X54398Y88909D01*
X54719Y88935D01*
X54849Y88959D01*
X54959Y88989D01*
X55049Y89026D01*
X55119Y89070D01*
X55169Y89120D01*
X55199Y89177D01*
X55209Y89241D01*
Y87300D01*
D02*
G37*
G36*
X79582Y87022D02*
X79569Y87142D01*
X79530Y87250D01*
X79465Y87346D01*
X79374Y87428D01*
X79257Y87498D01*
X79114Y87555D01*
X78945Y87599D01*
X78750Y87631D01*
X78529Y87650D01*
X78282Y87657D01*
Y88927D01*
X78529Y88933D01*
X78750Y88952D01*
X78945Y88984D01*
X79114Y89028D01*
X79257Y89085D01*
X79374Y89155D01*
X79465Y89238D01*
X79530Y89333D01*
X79569Y89441D01*
X79582Y89562D01*
Y87022D01*
D02*
G37*
G36*
X122358Y88608D02*
X122396Y88500D01*
X122460Y88405D01*
X122549Y88322D01*
X122663Y88252D01*
X122803Y88195D01*
X122968Y88151D01*
X123158Y88119D01*
X123374Y88100D01*
X123615Y88094D01*
Y86824D01*
X123374Y86817D01*
X123158Y86798D01*
X122968Y86767D01*
X122803Y86722D01*
X122663Y86665D01*
X122549Y86595D01*
X122460Y86512D01*
X122396Y86417D01*
X122358Y86309D01*
X122345Y86189D01*
Y88729D01*
X122358Y88608D01*
D02*
G37*
G36*
X83771Y84930D02*
X83663Y84891D01*
X83567Y84826D01*
X83485Y84735D01*
X83415Y84618D01*
X83358Y84475D01*
X83313Y84306D01*
X83281Y84111D01*
X83263Y83890D01*
X83256Y83643D01*
X81986D01*
X81980Y83890D01*
X81961Y84111D01*
X81929Y84306D01*
X81884Y84475D01*
X81827Y84618D01*
X81757Y84735D01*
X81675Y84826D01*
X81580Y84891D01*
X81472Y84930D01*
X81351Y84943D01*
X83891D01*
X83771Y84930D01*
D02*
G37*
G36*
X97557Y88904D02*
X97596Y88796D01*
X97661Y88701D01*
X97752Y88618D01*
X97869Y88548D01*
X98013Y88491D01*
X98181Y88447D01*
X98377Y88415D01*
X98598Y88396D01*
X98845Y88390D01*
Y87120D01*
X98598Y87113D01*
X98377Y87094D01*
X98181Y87063D01*
X98013Y87018D01*
X97869Y86961D01*
X97752Y86891D01*
X97661Y86809D01*
X97596Y86713D01*
X97557Y86605D01*
X97544Y86485D01*
Y89025D01*
X97557Y88904D01*
D02*
G37*
G36*
X127751Y86189D02*
X127738Y86309D01*
X127699Y86417D01*
X127634Y86512D01*
X127543Y86595D01*
X127426Y86665D01*
X127283Y86722D01*
X127114Y86767D01*
X126919Y86798D01*
X126698Y86817D01*
X126451Y86824D01*
Y88094D01*
X126698Y88100D01*
X126919Y88119D01*
X127114Y88151D01*
X127283Y88195D01*
X127426Y88252D01*
X127543Y88322D01*
X127634Y88405D01*
X127699Y88500D01*
X127738Y88608D01*
X127751Y88729D01*
Y86189D01*
D02*
G37*
G36*
X50552Y68119D02*
X50571Y67899D01*
X50603Y67705D01*
X50647Y67536D01*
X50704Y67393D01*
X50774Y67276D01*
X50857Y67185D01*
X50952Y67119D01*
X51060Y67078D01*
X51181Y67064D01*
X48924Y67094D01*
X48991Y67107D01*
X49051Y67145D01*
X49103Y67209D01*
X49149Y67298D01*
X49188Y67412D01*
X49219Y67552D01*
X49244Y67717D01*
X49261Y67907D01*
X49275Y68364D01*
X50546D01*
X50552Y68119D01*
D02*
G37*
G36*
X59580Y81588D02*
X59598Y81298D01*
X59439Y80500D01*
X70231D01*
X70181Y80751D01*
X71044Y82021D01*
X76521D01*
Y81882D01*
X78915D01*
Y58433D01*
X76314Y55832D01*
X68894D01*
Y60125D01*
X68894D01*
Y70125D01*
X53617D01*
Y82437D01*
X53747Y82568D01*
X59056D01*
X59580Y81588D01*
D02*
G37*
G36*
X17678Y55904D02*
X17570Y55865D01*
X17475Y55800D01*
X17392Y55709D01*
X17322Y55592D01*
X17265Y55449D01*
X17221Y55280D01*
X17189Y55085D01*
X17170Y54864D01*
X17163Y54617D01*
X15893D01*
X15887Y54864D01*
X15868Y55085D01*
X15836Y55280D01*
X15792Y55449D01*
X15735Y55592D01*
X15665Y55709D01*
X15582Y55800D01*
X15487Y55865D01*
X15379Y55904D01*
X15259Y55917D01*
X17799D01*
X17678Y55904D01*
D02*
G37*
G36*
X121878Y59776D02*
X121916Y59668D01*
X121979Y59573D01*
X122068Y59490D01*
X122183Y59420D01*
X122322Y59363D01*
X122487Y59319D01*
X122678Y59287D01*
X122894Y59268D01*
X123135Y59262D01*
Y57992D01*
X122894Y57985D01*
X122678Y57966D01*
X122487Y57935D01*
X122322Y57890D01*
X122183Y57833D01*
X122068Y57763D01*
X121979Y57681D01*
X121916Y57585D01*
X121878Y57477D01*
X121865Y57357D01*
Y59897D01*
X121878Y59776D01*
D02*
G37*
G36*
X139096Y56237D02*
X138997Y56309D01*
X138880Y56345D01*
X138746D01*
X138593Y56309D01*
X138422Y56237D01*
X138234Y56129D01*
X138027Y55986D01*
X137803Y55806D01*
X137300Y55339D01*
X136402Y56237D01*
X136653Y56498D01*
X137048Y56965D01*
X137192Y57171D01*
X137300Y57360D01*
X137372Y57530D01*
X137408Y57683D01*
Y57818D01*
X137372Y57934D01*
X137300Y58033D01*
X139096Y56237D01*
D02*
G37*
G36*
X65876Y53275D02*
X65914Y53167D01*
X65977Y53071D01*
X66066Y52989D01*
X66181Y52919D01*
X66320Y52862D01*
X66485Y52818D01*
X66676Y52786D01*
X66892Y52767D01*
X67133Y52760D01*
Y51490D01*
X66892Y51484D01*
X66676Y51465D01*
X66485Y51433D01*
X66320Y51389D01*
X66181Y51332D01*
X66066Y51262D01*
X65977Y51179D01*
X65914Y51084D01*
X65876Y50976D01*
X65863Y50855D01*
Y53395D01*
X65876Y53275D01*
D02*
G37*
G36*
X157075Y47697D02*
X155401Y45567D01*
X155114Y45748D01*
X154817Y45909D01*
X154511Y46052D01*
X154195Y46175D01*
X153870Y46280D01*
X153535Y46365D01*
X153394Y46392D01*
X153111Y46317D01*
X152833Y46205D01*
X152605Y46067D01*
X152428Y45904D01*
X152301Y45717D01*
X152225Y45504D01*
X152200Y45267D01*
Y46515D01*
X152100Y46517D01*
X151833Y49017D01*
X152197Y49029D01*
X152200Y49030D01*
Y50267D01*
X152225Y50030D01*
X152301Y49817D01*
X152428Y49630D01*
X152605Y49467D01*
X152833Y49330D01*
X153111Y49217D01*
X153170Y49201D01*
X153233Y49218D01*
X153560Y49331D01*
X153877Y49469D01*
X154185Y49632D01*
X154483Y49820D01*
X154772Y50033D01*
X155051Y50272D01*
X157075Y47697D01*
D02*
G37*
G36*
X29730Y55504D02*
X29622Y55465D01*
X29527Y55400D01*
X29444Y55309D01*
X29374Y55192D01*
X29317Y55049D01*
X29273Y54880D01*
X29241Y54685D01*
X29222Y54464D01*
X29216Y54216D01*
X27946D01*
X27939Y54464D01*
X27920Y54685D01*
X27888Y54880D01*
X27844Y55049D01*
X27787Y55192D01*
X27717Y55309D01*
X27634Y55400D01*
X27539Y55465D01*
X27431Y55504D01*
X27311Y55517D01*
X29851D01*
X29730Y55504D01*
D02*
G37*
G36*
X263837Y59027D02*
X263987Y59018D01*
X266987Y58984D01*
X268787Y58981D01*
Y53981D01*
X267837Y53979D01*
X263837Y53753D01*
X263787Y53699D01*
Y59038D01*
X263837Y59027D01*
D02*
G37*
G36*
X104957Y63857D02*
X104944Y63977D01*
X104905Y64085D01*
X104840Y64181D01*
X104749Y64263D01*
X104632Y64333D01*
X104489Y64390D01*
X104319Y64435D01*
X104124Y64467D01*
X103903Y64486D01*
X103656Y64492D01*
Y65762D01*
X103903Y65768D01*
X104124Y65787D01*
X104319Y65819D01*
X104489Y65863D01*
X104632Y65921D01*
X104749Y65991D01*
X104840Y66073D01*
X104905Y66168D01*
X104944Y66276D01*
X104957Y66397D01*
Y63857D01*
D02*
G37*
G36*
X48955Y63855D02*
X48942Y63976D01*
X48903Y64083D01*
X48838Y64179D01*
X48747Y64261D01*
X48630Y64331D01*
X48487Y64388D01*
X48318Y64433D01*
X48123Y64464D01*
X47901Y64483D01*
X47654Y64490D01*
Y65760D01*
X47901Y65766D01*
X48123Y65785D01*
X48318Y65817D01*
X48487Y65861D01*
X48630Y65919D01*
X48747Y65988D01*
X48838Y66071D01*
X48903Y66166D01*
X48942Y66274D01*
X48955Y66395D01*
Y63855D01*
D02*
G37*
G36*
X529955Y70999D02*
X529989Y70647D01*
X530046Y70301D01*
X530127Y69960D01*
X530230Y69625D01*
X530356Y69296D01*
X530366Y69274D01*
X531193D01*
X530956Y69248D01*
X530743Y69173D01*
X530556Y69046D01*
X530499Y68984D01*
X530505Y68972D01*
X530677Y68654D01*
X530872Y68341D01*
X531089Y68034D01*
X530056D01*
X530056Y68034D01*
X529993Y67654D01*
X529956Y67224D01*
X529943Y66743D01*
X527443D01*
X527431Y67224D01*
X527393Y67654D01*
X527331Y68034D01*
X527331Y68034D01*
X526297D01*
X526515Y68341D01*
X526710Y68654D01*
X526882Y68972D01*
X526887Y68984D01*
X526831Y69046D01*
X526643Y69173D01*
X526431Y69248D01*
X526193Y69274D01*
X527020D01*
X527031Y69296D01*
X527157Y69625D01*
X527260Y69960D01*
X527340Y70301D01*
X527397Y70647D01*
X527432Y70999D01*
X527443Y71356D01*
X529943D01*
X529955Y70999D01*
D02*
G37*
G36*
X121878Y66276D02*
X121916Y66168D01*
X121980Y66073D01*
X122069Y65991D01*
X122183Y65921D01*
X122323Y65863D01*
X122488Y65819D01*
X122678Y65787D01*
X122894Y65768D01*
X123135Y65762D01*
Y64492D01*
X122894Y64486D01*
X122678Y64467D01*
X122488Y64435D01*
X122323Y64390D01*
X122183Y64333D01*
X122069Y64263D01*
X121980Y64181D01*
X121916Y64085D01*
X121878Y63977D01*
X121865Y63857D01*
Y66397D01*
X121878Y66276D01*
D02*
G37*
G36*
X259435Y60067D02*
X259454Y59851D01*
X259485Y59661D01*
X259530Y59495D01*
X259587Y59356D01*
X259657Y59241D01*
X259739Y59152D01*
X259835Y59089D01*
X259943Y59051D01*
X260063Y59038D01*
X257523D01*
X257644Y59051D01*
X257752Y59089D01*
X257847Y59152D01*
X257930Y59241D01*
X257999Y59356D01*
X258057Y59495D01*
X258101Y59661D01*
X258133Y59851D01*
X258152Y60067D01*
X258158Y60308D01*
X259428D01*
X259435Y60067D01*
D02*
G37*
G36*
X251480Y63088D02*
X251593Y61488D01*
X251693Y60838D01*
X251821Y60288D01*
X251977Y59838D01*
X252161Y59488D01*
X252374Y59238D01*
X252616Y59088D01*
X252885Y59038D01*
X245046D01*
X245315Y59088D01*
X245557Y59238D01*
X245770Y59488D01*
X245954Y59838D01*
X246110Y60288D01*
X246238Y60838D01*
X246338Y61488D01*
X246409Y62238D01*
X246465Y64038D01*
X251465D01*
X251480Y63088D01*
D02*
G37*
G36*
X514218Y69223D02*
X513793Y69072D01*
X513418Y68821D01*
X513093Y68469D01*
X512818Y68016D01*
X512593Y67463D01*
X512418Y66809D01*
X512293Y66054D01*
X512237Y65406D01*
X512293Y64762D01*
X512418Y64012D01*
X512593Y63362D01*
X512818Y62812D01*
X513093Y62362D01*
X513418Y62012D01*
X513793Y61762D01*
X514218Y61612D01*
X514693Y61562D01*
X504693D01*
X505168Y61612D01*
X505593Y61762D01*
X505968Y62012D01*
X506293Y62362D01*
X506568Y62812D01*
X506793Y63362D01*
X506968Y64012D01*
X507093Y64762D01*
X507150Y65406D01*
X507093Y66054D01*
X506968Y66809D01*
X506793Y67463D01*
X506568Y68016D01*
X506293Y68469D01*
X505968Y68821D01*
X505593Y69072D01*
X505168Y69223D01*
X504693Y69274D01*
X514693D01*
X514218Y69223D01*
D02*
G37*
G36*
X530872Y64117D02*
X530677Y63804D01*
X530505Y63486D01*
X530356Y63162D01*
X530230Y62833D01*
X530130Y62510D01*
X530143Y62462D01*
X530256Y62187D01*
X530393Y61962D01*
X530556Y61787D01*
X530743Y61662D01*
X530956Y61587D01*
X531193Y61562D01*
X529965D01*
X529955Y61459D01*
X529943Y61102D01*
X527443D01*
X527432Y61459D01*
X527422Y61562D01*
X526193D01*
X526431Y61587D01*
X526643Y61662D01*
X526831Y61787D01*
X526993Y61962D01*
X527131Y62187D01*
X527243Y62462D01*
X527256Y62510D01*
X527157Y62833D01*
X527031Y63162D01*
X526882Y63486D01*
X526710Y63804D01*
X526515Y64117D01*
X526297Y64424D01*
X531089D01*
X530872Y64117D01*
D02*
G37*
G36*
X32931Y230522D02*
X33022Y230267D01*
X33173Y230042D01*
X33386Y229847D01*
X33658Y229682D01*
X33992Y229547D01*
X34386Y229442D01*
X34840Y229367D01*
X35187Y229336D01*
X36862Y229307D01*
Y227807D01*
X68245D01*
X82092Y213960D01*
X84213D01*
X84643Y213552D01*
X85071Y213186D01*
X85499Y212863D01*
X85925Y212583D01*
X86349Y212347D01*
X86773Y212153D01*
X87196Y212002D01*
X87617Y211895D01*
X88037Y211830D01*
X88455Y211809D01*
X84243D01*
X86885Y209167D01*
Y203559D01*
X86397Y203071D01*
X122953D01*
X126014Y200010D01*
Y187335D01*
X122953Y184275D01*
X101109D01*
X95521Y178687D01*
Y157351D01*
X90441Y152271D01*
X80281D01*
X78249Y154303D01*
Y198499D01*
X77233D01*
X58437Y217295D01*
X36085D01*
X27957Y225423D01*
X30341Y227807D01*
X31628D01*
Y229576D01*
X31729Y229524D01*
X31924Y229479D01*
X32212Y229438D01*
X32901Y229387D01*
Y230807D01*
X32931Y230522D01*
D02*
G37*
G36*
X133508Y302362D02*
X133527Y302141D01*
X133559Y301946D01*
X133603Y301777D01*
X133660Y301634D01*
X133730Y301517D01*
X133813Y301426D01*
X133908Y301361D01*
X134016Y301322D01*
X134136Y301309D01*
X131596D01*
X131717Y301322D01*
X131825Y301361D01*
X131920Y301426D01*
X132003Y301517D01*
X132073Y301634D01*
X132130Y301777D01*
X132174Y301946D01*
X132206Y302141D01*
X132225Y302362D01*
X132232Y302609D01*
X133502D01*
X133508Y302362D01*
D02*
G37*
G36*
X47797Y307950D02*
X47168Y307791D01*
X46488Y307526D01*
X45757Y307155D01*
X44975Y306677D01*
X44142Y306094D01*
X42325Y304609D01*
X41341Y303708D01*
X40306Y302700D01*
X35002Y304468D01*
X35389Y304869D01*
X36040Y305641D01*
X36305Y306010D01*
X36529Y306369D01*
X36712Y306717D01*
X36854Y307055D01*
X36956Y307382D01*
X37017Y307698D01*
X37037Y308003D01*
X48376D01*
X47797Y307950D01*
D02*
G37*
G36*
X478232Y307650D02*
X478324Y307395D01*
X478477Y307170D01*
X478689Y306975D01*
X478962Y306810D01*
X479296Y306675D01*
X479689Y306570D01*
X480143Y306495D01*
X480657Y306450D01*
X481231Y306435D01*
Y303435D01*
X480661Y303428D01*
X479311Y303327D01*
X478981Y303267D01*
X478711Y303193D01*
X478501Y303105D01*
X478351Y303004D01*
X478261Y302889D01*
X478231Y302761D01*
X478200Y307935D01*
X478232Y307650D01*
D02*
G37*
G36*
X556804Y300536D02*
X556210Y299921D01*
X555277Y298818D01*
X554937Y298330D01*
X554683Y297885D01*
X554513Y297481D01*
X554428Y297121D01*
Y296803D01*
X554513Y296527D01*
X554683Y296294D01*
X550440Y300536D01*
X550673Y300366D01*
X550949Y300282D01*
X551268D01*
X551628Y300366D01*
X552031Y300536D01*
X552477Y300791D01*
X552965Y301130D01*
X553495Y301555D01*
X554683Y302658D01*
X556804Y300536D01*
D02*
G37*
G36*
X403684Y326285D02*
Y319277D01*
X387615D01*
Y306277D01*
X404144D01*
Y304547D01*
X404783D01*
X405126Y304576D01*
X405505Y304639D01*
X405834Y304727D01*
X406113Y304839D01*
X406340Y304977D01*
X406517Y305139D01*
X406644Y305326D01*
X406720Y305539D01*
X406745Y305777D01*
Y304547D01*
X412934D01*
X421724D01*
Y309317D01*
X421724D01*
X421261Y310586D01*
X422510Y311836D01*
X423683Y311350D01*
Y306277D01*
X442183D01*
Y309070D01*
X444770D01*
X445551Y308290D01*
Y296882D01*
X445833Y295464D01*
X446636Y294261D01*
X452112Y288786D01*
Y275191D01*
X452394Y273772D01*
X453198Y272570D01*
X459236Y266531D01*
X460438Y265728D01*
X461857Y265446D01*
X471409D01*
X474527Y262328D01*
X474041Y261155D01*
X455894D01*
Y249685D01*
X454774Y249086D01*
X453922Y249655D01*
X451581Y250121D01*
X449240Y249655D01*
X447255Y248329D01*
X446841Y247709D01*
X433702D01*
X433349Y248979D01*
X434460Y250642D01*
X434637Y251533D01*
X423846D01*
X424023Y250642D01*
X425134Y248979D01*
X424781Y247709D01*
X361307D01*
X355035Y253981D01*
X355521Y255155D01*
X366917D01*
Y281155D01*
X350930D01*
X350173Y282289D01*
X350171Y282290D01*
X350589Y283668D01*
X350645Y283680D01*
X351847Y284483D01*
X366806Y299442D01*
X368076Y298916D01*
Y297236D01*
X375596D01*
Y303277D01*
Y309317D01*
X368679D01*
Y315777D01*
X386116D01*
Y326413D01*
X403556D01*
X403684Y326285D01*
D02*
G37*
G36*
X61837Y337192D02*
X64178Y336726D01*
X66519Y337192D01*
X67088Y337572D01*
X68004Y336656D01*
X67327Y335644D01*
X66861Y333303D01*
X67327Y330961D01*
X67575Y330591D01*
X66976Y329470D01*
X64427D01*
Y325100D01*
X70067D01*
Y322560D01*
X64427D01*
Y318190D01*
X64427D01*
X64989Y317423D01*
Y313053D01*
X70629D01*
Y311783D01*
X71899D01*
Y306143D01*
X73529D01*
Y305683D01*
X74479D01*
Y302757D01*
X71269Y299547D01*
X63257D01*
Y298858D01*
X61987Y298733D01*
X61742Y299965D01*
X60416Y301950D01*
X59654Y302459D01*
X60684Y304002D01*
X60862Y304894D01*
X60148D01*
X59884Y304868D01*
X59538Y304811D01*
X59197Y304731D01*
X58862Y304627D01*
X58533Y304501D01*
X58209Y304352D01*
X57891Y304181D01*
X57578Y303986D01*
X57271Y303768D01*
Y304894D01*
X55466D01*
Y306164D01*
X54196D01*
Y311560D01*
X53304Y311383D01*
X52677Y310963D01*
X51407Y311642D01*
Y323515D01*
X51407Y323673D01*
X51407D01*
Y324785D01*
X51407D01*
Y334479D01*
X51453Y334561D01*
X51855Y335138D01*
X53016Y336513D01*
X54738Y338235D01*
X60276D01*
X61837Y337192D01*
D02*
G37*
G36*
X577886Y302104D02*
X578297D01*
X578301Y301950D01*
X579481Y301509D01*
X579256Y301375D01*
X579055Y301209D01*
X578877Y301014D01*
X578723Y300788D01*
X578593Y300531D01*
X578487Y300244D01*
X578484Y300236D01*
X578496Y300184D01*
X578608Y299854D01*
X578744Y299584D01*
X578906Y299374D01*
X579092Y299224D01*
X579303Y299134D01*
X579539Y299104D01*
X578306Y299098D01*
X578297Y298792D01*
X577842Y299095D01*
X573797Y299074D01*
X574082Y299105D01*
X574337Y299198D01*
X574562Y299350D01*
X574757Y299562D01*
X574922Y299835D01*
X575057Y300168D01*
X575162Y300562D01*
X575237Y301016D01*
X575282Y301530D01*
X575297Y302104D01*
X575329D01*
X575351Y303050D01*
X577886Y302104D01*
D02*
G37*
G36*
X188342Y302959D02*
X189756Y302243D01*
X191082Y300258D01*
X193067Y298932D01*
X195408Y298466D01*
X197749Y298932D01*
X199734Y300258D01*
X200207Y300967D01*
X201607Y300032D01*
X202588Y299837D01*
X202223Y297999D01*
X202688Y295658D01*
X204014Y293673D01*
X205999Y292347D01*
X208340Y291881D01*
X210681Y292347D01*
X211277Y292745D01*
X212129Y292469D01*
X212547Y292171D01*
Y286433D01*
X210173Y284059D01*
X209836Y283764D01*
X209746Y283694D01*
X209679Y283680D01*
X208749Y283059D01*
X208474Y282940D01*
X208328Y282838D01*
X208272Y282806D01*
X208200Y282771D01*
X208108Y282735D01*
X207994Y282699D01*
X207854Y282664D01*
X207728Y282641D01*
X207476Y282617D01*
X184297D01*
X183203Y283711D01*
Y284702D01*
X183239Y286721D01*
X183270Y287140D01*
X183796Y287926D01*
X184223Y290072D01*
Y302202D01*
X185493Y303038D01*
X185802Y302977D01*
Y308373D01*
X188342D01*
Y302959D01*
D02*
G37*
G36*
X273572Y312346D02*
X273881Y310916D01*
X274002Y310522D01*
X274131Y310168D01*
X274269Y309856D01*
X274415Y309585D01*
X274571Y309355D01*
X274734Y309167D01*
X273836Y308269D01*
X273648Y308432D01*
X273418Y308588D01*
X273147Y308734D01*
X272834Y308872D01*
X272481Y309001D01*
X272087Y309122D01*
X271174Y309337D01*
X270097Y309517D01*
X273486Y312906D01*
X273572Y312346D01*
D02*
G37*
G36*
X298201Y311154D02*
X298240Y311046D01*
X298305Y310951D01*
X298396Y310868D01*
X298513Y310798D01*
X298656Y310741D01*
X298825Y310697D01*
X299020Y310665D01*
X299241Y310646D01*
X299488Y310639D01*
Y309369D01*
X299241Y309363D01*
X299020Y309344D01*
X298825Y309312D01*
X298656Y309268D01*
X298513Y309211D01*
X298396Y309141D01*
X298305Y309058D01*
X298240Y308963D01*
X298201Y308855D01*
X298188Y308734D01*
Y311274D01*
X298201Y311154D01*
D02*
G37*
G36*
X403067Y313926D02*
X403106Y313818D01*
X403171Y313723D01*
X403262Y313640D01*
X403379Y313570D01*
X403522Y313513D01*
X403691Y313469D01*
X403887Y313437D01*
X404108Y313418D01*
X404355Y313412D01*
Y312142D01*
X404108Y312135D01*
X403887Y312116D01*
X403691Y312085D01*
X403522Y312040D01*
X403379Y311983D01*
X403262Y311913D01*
X403171Y311831D01*
X403106Y311735D01*
X403067Y311627D01*
X403054Y311507D01*
Y314047D01*
X403067Y313926D01*
D02*
G37*
G36*
X564758Y306600D02*
X564738Y306693D01*
X564677Y306776D01*
X564576Y306850D01*
X564435Y306914D01*
X564253Y306968D01*
X564031Y307012D01*
X563768Y307046D01*
X563121Y307085D01*
X562737Y307090D01*
Y310090D01*
X563121Y310095D01*
X564031Y310169D01*
X564253Y310213D01*
X564435Y310267D01*
X564576Y310331D01*
X564677Y310404D01*
X564738Y310488D01*
X564758Y310581D01*
Y306600D01*
D02*
G37*
G36*
X317979Y303862D02*
X317820Y303868D01*
X317657Y303852D01*
X317489Y303814D01*
X317316Y303754D01*
X317139Y303672D01*
X316957Y303568D01*
X316771Y303442D01*
X316579Y303295D01*
X316384Y303125D01*
X316183Y302933D01*
X314453Y302999D01*
X314659Y303214D01*
X314825Y303407D01*
X314953Y303581D01*
X315042Y303733D01*
X315093Y303865D01*
X315104Y303976D01*
X315077Y304067D01*
X315010Y304136D01*
X314905Y304185D01*
X314761Y304214D01*
X317979Y303862D01*
D02*
G37*
G36*
X346327D02*
X346183Y303883D01*
X346032Y303879D01*
X345872Y303849D01*
X345704Y303794D01*
X345529Y303714D01*
X345345Y303609D01*
X345154Y303478D01*
X344954Y303321D01*
X344747Y303140D01*
X344531Y302933D01*
X342994Y303192D01*
X343213Y303420D01*
X343536Y303814D01*
X343641Y303981D01*
X343707Y304128D01*
X343736Y304254D01*
X343726Y304360D01*
X343678Y304445D01*
X343592Y304511D01*
X343468Y304556D01*
X346327Y303862D01*
D02*
G37*
G36*
X134016Y307027D02*
X133908Y306989D01*
X133813Y306926D01*
X133730Y306837D01*
X133660Y306723D01*
X133603Y306583D01*
X133559Y306418D01*
X133527Y306227D01*
X133508Y306011D01*
X133502Y305770D01*
X132232D01*
X132225Y306011D01*
X132206Y306227D01*
X132174Y306418D01*
X132130Y306583D01*
X132073Y306723D01*
X132003Y306837D01*
X131920Y306926D01*
X131825Y306989D01*
X131717Y307027D01*
X131596Y307040D01*
X134136D01*
X134016Y307027D01*
D02*
G37*
G36*
X136271Y299419D02*
X136310Y299311D01*
X136375Y299216D01*
X136466Y299133D01*
X136583Y299063D01*
X136726Y299006D01*
X136895Y298962D01*
X137090Y298930D01*
X137311Y298911D01*
X137558Y298905D01*
Y297635D01*
X137311Y297628D01*
X137090Y297609D01*
X136895Y297577D01*
X136726Y297533D01*
X136583Y297476D01*
X136466Y297406D01*
X136375Y297323D01*
X136310Y297228D01*
X136271Y297120D01*
X136258Y297000D01*
Y299540D01*
X136271Y299419D01*
D02*
G37*
G36*
X144358Y278982D02*
X145165Y279142D01*
X145444Y279134D01*
X146435Y278604D01*
Y269970D01*
Y259970D01*
X166935D01*
Y253677D01*
X138714D01*
X136510Y255881D01*
Y257274D01*
X138904D01*
Y268958D01*
Y278983D01*
X140174Y279662D01*
X140927Y279159D01*
X141818Y278982D01*
Y284378D01*
X144358D01*
Y278982D01*
D02*
G37*
G36*
X260646Y286347D02*
X261876Y285554D01*
X262240Y285360D01*
X262582Y285202D01*
X262900Y285079D01*
X263195Y284991D01*
X263467Y284938D01*
X263717Y284920D01*
Y283650D01*
X263467Y283633D01*
X263195Y283580D01*
X262900Y283492D01*
X262582Y283368D01*
X262240Y283210D01*
X261876Y283016D01*
X261079Y282523D01*
X260190Y281889D01*
Y286681D01*
X260646Y286347D01*
D02*
G37*
G36*
X133988Y283503D02*
X133880Y283465D01*
X133785Y283402D01*
X133702Y283313D01*
X133632Y283199D01*
X133575Y283059D01*
X133531Y282894D01*
X133499Y282703D01*
X133480Y282487D01*
X133473Y282246D01*
X132203D01*
X132197Y282487D01*
X132178Y282703D01*
X132146Y282894D01*
X132102Y283059D01*
X132045Y283199D01*
X131975Y283313D01*
X131892Y283402D01*
X131797Y283465D01*
X131689Y283503D01*
X131568Y283516D01*
X134108D01*
X133988Y283503D01*
D02*
G37*
G36*
X133480Y279156D02*
X133499Y278940D01*
X133531Y278749D01*
X133575Y278584D01*
X133632Y278445D01*
X133702Y278330D01*
X133785Y278241D01*
X133880Y278178D01*
X133988Y278140D01*
X134108Y278127D01*
X131568D01*
X131689Y278140D01*
X131797Y278178D01*
X131892Y278241D01*
X131975Y278330D01*
X132045Y278445D01*
X132102Y278584D01*
X132146Y278749D01*
X132178Y278940D01*
X132197Y279156D01*
X132203Y279397D01*
X133473D01*
X133480Y279156D01*
D02*
G37*
G36*
X210215Y275633D02*
X209969Y275803D01*
X209707Y275955D01*
X209428Y276090D01*
X209133Y276206D01*
X208822Y276305D01*
X208495Y276385D01*
X208151Y276448D01*
X207791Y276493D01*
X207415Y276520D01*
X207022Y276529D01*
Y279529D01*
X207415Y279538D01*
X208151Y279609D01*
X208495Y279672D01*
X208822Y279753D01*
X209133Y279851D01*
X209428Y279968D01*
X209707Y280102D01*
X209969Y280254D01*
X210215Y280425D01*
Y275633D01*
D02*
G37*
G36*
X215848Y281838D02*
X215586Y281556D01*
X215361Y281270D01*
X215173Y280981D01*
X215023Y280689D01*
X214909Y280394D01*
X214833Y280095D01*
X214828Y280055D01*
X215025Y279971D01*
X215394Y279847D01*
X216083Y279666D01*
X216404Y279609D01*
X216709Y279575D01*
X216998Y279564D01*
X217409Y278294D01*
X217108Y278274D01*
X216809Y278213D01*
X216511Y278113D01*
X216214Y277971D01*
X215918Y277790D01*
X215624Y277569D01*
X215331Y277307D01*
X215038Y277005D01*
X214747Y276662D01*
X214458Y276279D01*
X213692Y279459D01*
X210915Y280818D01*
X211050Y280881D01*
X211204Y280971D01*
X211378Y281088D01*
X211784Y281404D01*
X212270Y281829D01*
X213145Y282670D01*
X215848Y281838D01*
D02*
G37*
G36*
X211202Y277984D02*
X211132Y278043D01*
X210943Y278182D01*
X210887Y278216D01*
X210835Y278244D01*
X210786Y278266D01*
X210740Y278281D01*
X210697Y278291D01*
X210658Y278294D01*
Y279564D01*
X210697Y279567D01*
X210740Y279576D01*
X210786Y279592D01*
X210835Y279613D01*
X210887Y279641D01*
X210943Y279675D01*
X211066Y279762D01*
X211132Y279814D01*
X211202Y279873D01*
Y277984D01*
D02*
G37*
G36*
X98339Y332040D02*
Y328718D01*
X98321Y328615D01*
X98252Y328359D01*
X98136Y328032D01*
X97966Y327639D01*
X97768Y327248D01*
X96666Y325492D01*
X96208Y324865D01*
X96097Y324625D01*
X95684Y324087D01*
X94878Y322141D01*
X94603Y320052D01*
X94878Y317964D01*
X95684Y316018D01*
X96966Y314347D01*
X98637Y313064D01*
X100583Y312258D01*
X102672Y311983D01*
X104760Y312258D01*
X106706Y313064D01*
X108378Y314347D01*
X109660Y316018D01*
X110466Y317964D01*
X110741Y320052D01*
X110466Y322141D01*
X109660Y324087D01*
X109247Y324625D01*
X109135Y324865D01*
X108644Y325538D01*
X108256Y326108D01*
X107590Y327219D01*
X107378Y327639D01*
X107208Y328032D01*
X107091Y328359D01*
X107023Y328615D01*
X107005Y328718D01*
Y330865D01*
X108220Y331234D01*
X108285Y331137D01*
X110270Y329811D01*
X112611Y329345D01*
X114952Y329811D01*
X116529Y330864D01*
X117799Y330315D01*
Y327934D01*
X117799D01*
X118579Y327278D01*
Y322908D01*
X124219D01*
Y320368D01*
X118579D01*
Y316210D01*
X117767D01*
Y304010D01*
X118579Y303910D01*
Y299540D01*
X124219D01*
Y297000D01*
X118579D01*
Y292630D01*
X118579D01*
Y292226D01*
X118579D01*
Y287856D01*
X124219D01*
Y285316D01*
X118579D01*
Y280946D01*
X118164Y280698D01*
Y276328D01*
X123804D01*
Y273788D01*
X118164D01*
Y272980D01*
X116894Y271952D01*
X115545Y272220D01*
X113204Y271754D01*
X111219Y270428D01*
X109893Y268443D01*
X109428Y266102D01*
X109893Y263761D01*
X111219Y261777D01*
X113204Y260450D01*
X115545Y259985D01*
X116722Y260219D01*
X117704Y259413D01*
Y257274D01*
X129098D01*
Y254345D01*
X129380Y252927D01*
X130183Y251725D01*
X134558Y247350D01*
X134558Y247350D01*
X135760Y246546D01*
X137179Y246264D01*
X139000D01*
X139484Y244994D01*
X138480Y243492D01*
X138303Y242600D01*
X149095D01*
X148918Y243492D01*
X147914Y244994D01*
X148398Y246264D01*
X166935D01*
Y239471D01*
X215300D01*
X215688Y238997D01*
X227517D01*
X227905Y239471D01*
X230935D01*
Y247528D01*
X232205Y248207D01*
X233505Y247338D01*
X235847Y246873D01*
X238188Y247338D01*
X238200Y247347D01*
X239343Y246583D01*
X239119Y245458D01*
X239585Y243117D01*
X240911Y241132D01*
X242896Y239806D01*
X245237Y239340D01*
X247578Y239806D01*
X248756Y240593D01*
X249027Y240731D01*
X249367Y240999D01*
X249431Y241044D01*
X249563Y241132D01*
X250459Y240319D01*
X262759Y228019D01*
Y130292D01*
X263041Y128874D01*
X263845Y127672D01*
X270921Y120595D01*
Y110765D01*
X263428D01*
X262009Y110483D01*
X260807Y109679D01*
X256173Y105045D01*
X255369Y103843D01*
X255087Y102424D01*
Y84732D01*
X253817Y84346D01*
X252931Y85673D01*
X242913Y95691D01*
X241093Y96907D01*
X238947Y97333D01*
X209343D01*
Y111234D01*
X209110Y112404D01*
X208447Y113397D01*
X207454Y114060D01*
X206284Y114292D01*
X158496D01*
X157325Y114060D01*
X156333Y113397D01*
X155670Y112404D01*
X155437Y111234D01*
Y89222D01*
X155670Y88052D01*
X156333Y87059D01*
X157325Y86396D01*
X158496Y86163D01*
X205623D01*
X205850Y86118D01*
X236624D01*
X243358Y79385D01*
Y62534D01*
X243354Y62431D01*
X243320Y62069D01*
X242015D01*
Y59180D01*
X241987Y59038D01*
X242015Y58896D01*
Y53304D01*
X241060Y52466D01*
X240557Y52533D01*
X238468Y52257D01*
X236522Y51451D01*
X234851Y50169D01*
X233569Y48498D01*
X232763Y46552D01*
X232731Y46310D01*
X231427Y46139D01*
X230767Y47734D01*
X229484Y49405D01*
X227813Y50688D01*
X225867Y51494D01*
X223779Y51769D01*
X221690Y51494D01*
X219744Y50688D01*
X219206Y50275D01*
X218966Y50163D01*
X218293Y49672D01*
X217723Y49284D01*
X216612Y48618D01*
X216192Y48406D01*
X215800Y48236D01*
X215472Y48119D01*
X215216Y48050D01*
X215113Y48033D01*
X190060D01*
X190060Y52407D01*
Y52424D01*
Y52424D01*
X190060Y52833D01*
X191257Y53560D01*
X191988Y53072D01*
X192880Y52895D01*
Y57021D01*
X188754D01*
X188931Y56129D01*
X189916Y54654D01*
X189454Y53499D01*
X189354Y53384D01*
X189019Y53384D01*
X168860D01*
Y52100D01*
X162015D01*
X161913Y52119D01*
X161805Y52147D01*
X161702Y52183D01*
X161602Y52226D01*
X161500Y52280D01*
X161447Y52313D01*
X161401Y52383D01*
X161106Y52580D01*
X161084Y52598D01*
X161047Y52620D01*
X161026Y52633D01*
X160989Y52677D01*
X160873Y52735D01*
X159416Y53709D01*
X157075Y54175D01*
X156279Y54017D01*
X155009Y55057D01*
Y58037D01*
X149369D01*
Y60577D01*
X155009D01*
Y64385D01*
X156107Y65362D01*
X157049Y65175D01*
X159390Y65641D01*
X161375Y66967D01*
X162701Y68951D01*
X163167Y71293D01*
X162701Y73634D01*
X161375Y75618D01*
X159390Y76944D01*
X157049Y77410D01*
X155962Y77194D01*
X155469Y77599D01*
Y77599D01*
X134269D01*
X134059Y78782D01*
Y81460D01*
X136890D01*
Y93660D01*
X136430D01*
Y95290D01*
X130790D01*
Y96560D01*
X129520D01*
Y102200D01*
X125376D01*
Y102908D01*
X114045D01*
X113176Y102908D01*
Y102908D01*
X112797Y102855D01*
Y102855D01*
X98839D01*
Y107491D01*
X98509Y109149D01*
X97569Y110555D01*
X94343Y113781D01*
X92937Y114720D01*
X91279Y115050D01*
X61560D01*
X59901Y114720D01*
X58496Y113781D01*
X55184Y110469D01*
X54245Y109063D01*
X53915Y107405D01*
Y103768D01*
X51689D01*
X51689Y103768D01*
Y103768D01*
X50547Y104152D01*
X48530Y106169D01*
Y117987D01*
X29830D01*
X29830Y117987D01*
X29146Y118215D01*
Y118215D01*
X28654Y118215D01*
X10445D01*
Y100815D01*
X29145D01*
X29145Y100815D01*
X29830Y100587D01*
Y100587D01*
X30321Y100587D01*
X42858D01*
X43090Y100257D01*
X42429Y98987D01*
X29830D01*
X29830Y98987D01*
X29146Y99215D01*
Y99215D01*
X28654Y99215D01*
X10445D01*
Y81815D01*
X15091D01*
X15617Y80545D01*
X14388Y79317D01*
X13585Y78114D01*
X13303Y76696D01*
Y74056D01*
X10429D01*
Y61856D01*
Y52856D01*
X12822D01*
Y46786D01*
X13104Y45368D01*
X13908Y44165D01*
X15132Y42941D01*
Y40098D01*
X10811D01*
Y27898D01*
Y18898D01*
X23011D01*
Y18898D01*
X23989Y18807D01*
Y18807D01*
X24243Y18807D01*
X36189D01*
Y22420D01*
X45893D01*
Y21126D01*
X53660D01*
Y15986D01*
X51267D01*
Y3787D01*
X72467D01*
Y4594D01*
X72760Y4921D01*
X72920Y5051D01*
X73473Y5370D01*
X73737Y5419D01*
X73769Y5409D01*
X73909Y5352D01*
X74045Y5286D01*
X74179Y5211D01*
X74392Y5074D01*
X74649Y4972D01*
X75413Y4462D01*
X77754Y3996D01*
X80095Y4462D01*
X82079Y5788D01*
X83406Y7772D01*
X83871Y10114D01*
X83406Y12455D01*
X82079Y14439D01*
X80095Y15765D01*
X77754Y16231D01*
X75413Y15765D01*
X74457Y15127D01*
X74445Y15124D01*
X74389Y15081D01*
X74007Y14826D01*
X73838Y14736D01*
X73737Y14653D01*
X73524Y14680D01*
X72711Y15013D01*
X72634Y15074D01*
X72618Y15093D01*
X72567Y15164D01*
X72518Y15253D01*
X72467Y15374D01*
Y15986D01*
X61073D01*
Y21126D01*
X68893D01*
Y27626D01*
X68893D01*
Y34126D01*
Y40606D01*
X70163Y41285D01*
X71131Y40639D01*
X72023Y40461D01*
Y45857D01*
X73292D01*
Y47127D01*
X78688D01*
X78657Y47285D01*
X79267Y48701D01*
X80470Y49505D01*
X85242Y54277D01*
X85242Y54277D01*
X86045Y55479D01*
X86200Y56256D01*
X87451Y56864D01*
X87582Y56860D01*
X88530Y56226D01*
X90871Y55761D01*
X93212Y56226D01*
X95197Y57552D01*
X96523Y59537D01*
X96809Y60975D01*
X97746Y61544D01*
X98229Y61659D01*
X99424Y61421D01*
X101896D01*
Y51777D01*
X101268Y51302D01*
X100625Y51005D01*
X98483Y51432D01*
X96142Y50966D01*
X94157Y49640D01*
X92831Y47655D01*
X92365Y45314D01*
X92831Y42973D01*
X94157Y40988D01*
X96142Y39662D01*
X98483Y39197D01*
X100625Y39623D01*
X101895Y39034D01*
Y31127D01*
X101895D01*
Y21128D01*
X121364D01*
Y10274D01*
X121646Y8856D01*
X122450Y7653D01*
X127524Y2578D01*
X126998Y1308D01*
X22300D01*
X22299Y1329D01*
X22092Y1308D01*
X20980D01*
X18216Y1581D01*
X15023Y2549D01*
X12081Y4122D01*
X9502Y6239D01*
X7385Y8818D01*
X5812Y11760D01*
X4844Y14953D01*
X4592Y17510D01*
X4592Y17510D01*
X4592D01*
X4457Y18767D01*
X4456Y72306D01*
X4498Y72515D01*
X4496Y131027D01*
X49290Y131028D01*
X50851Y131339D01*
X52174Y132223D01*
X53058Y133546D01*
X53279Y134661D01*
X54332Y135260D01*
X54504Y135287D01*
X54627Y135287D01*
X54727Y135221D01*
X55897Y134988D01*
X62430D01*
Y130248D01*
X62018D01*
Y127504D01*
X61997Y127426D01*
X62011Y127321D01*
X61990Y127217D01*
X62018Y127075D01*
Y120248D01*
X72018D01*
Y120708D01*
X74748D01*
Y125248D01*
Y129788D01*
X72018D01*
Y130248D01*
X71607D01*
Y134988D01*
X74693D01*
X75488Y135146D01*
X76758Y134407D01*
Y132159D01*
X84037D01*
X84033Y132299D01*
X83988Y132809D01*
X83913Y133259D01*
X83808Y133649D01*
X83673Y133979D01*
X83508Y134249D01*
X83313Y134459D01*
X83088Y134609D01*
X82833Y134699D01*
X82548Y134729D01*
X84278D01*
Y138199D01*
Y144239D01*
X77752D01*
Y147739D01*
X79022Y148443D01*
X80281Y148192D01*
X80281Y148192D01*
X90441D01*
X90441Y148192D01*
X92002Y148503D01*
X93325Y149387D01*
X94637Y150699D01*
X94798D01*
Y150860D01*
X98405Y154467D01*
X98405Y154467D01*
X98771Y155014D01*
X100204Y154873D01*
X100217Y154840D01*
X101500Y153169D01*
X103171Y151887D01*
X105117Y151081D01*
X107205Y150806D01*
X109294Y151081D01*
X111240Y151887D01*
X112670Y152984D01*
X113809Y152757D01*
X114949Y152984D01*
X116379Y151887D01*
X118325Y151081D01*
X120413Y150806D01*
X122502Y151081D01*
X124448Y151887D01*
X125418Y152631D01*
X126689Y152006D01*
X126774Y119972D01*
X127089Y118412D01*
X127976Y117091D01*
X129302Y116210D01*
X130863Y115904D01*
X246444Y116210D01*
X248004Y116525D01*
X249324Y117412D01*
X250205Y118738D01*
X250511Y120299D01*
X250215Y232162D01*
X250215Y232162D01*
X249901Y233722D01*
X249013Y235042D01*
X247688Y235923D01*
X246126Y236229D01*
X227945Y236181D01*
X227718Y236457D01*
X215521D01*
X215268Y236148D01*
X147934Y235970D01*
X147547Y237239D01*
X147693Y237336D01*
X148918Y239169D01*
X149095Y240060D01*
X138303D01*
X138480Y239169D01*
X139705Y237336D01*
X139881Y237218D01*
X139498Y235947D01*
X130546Y235924D01*
X128986Y235609D01*
X127665Y234721D01*
X126784Y233396D01*
X126478Y231834D01*
X126540Y208194D01*
X125272Y207473D01*
X125012Y207629D01*
Y214870D01*
X103012D01*
Y207149D01*
X98596D01*
Y214870D01*
X88491D01*
X88349Y214877D01*
X88229Y214895D01*
X88090Y214931D01*
X87925Y214990D01*
X87732Y215078D01*
X87510Y215201D01*
X87261Y215365D01*
X86988Y215571D01*
X86861Y215679D01*
X74541Y227999D01*
Y236730D01*
X74081D01*
Y238360D01*
X68441D01*
Y240900D01*
X74081D01*
Y245270D01*
X75240Y245538D01*
X77056D01*
Y239740D01*
X87596D01*
X95566D01*
Y243470D01*
X95616Y242995D01*
X95765Y242570D01*
X96016Y242195D01*
X96365Y241870D01*
X96816Y241595D01*
X97366Y241370D01*
X98015Y241195D01*
X98136Y241175D01*
Y248610D01*
X91645D01*
X91463Y248838D01*
X91082Y249880D01*
X91681Y250776D01*
X91964Y252195D01*
Y256547D01*
X94257D01*
Y273547D01*
X82257D01*
Y273087D01*
X80027D01*
Y272449D01*
X80057Y272105D01*
X80120Y271726D01*
X80207Y271397D01*
X80320Y271118D01*
X80457Y270891D01*
X80620Y270714D01*
X80807Y270587D01*
X81020Y270511D01*
X81257Y270486D01*
X80027D01*
Y265047D01*
X77487D01*
Y270486D01*
X76257D01*
X76495Y270511D01*
X76707Y270587D01*
X76895Y270714D01*
X77057Y270891D01*
X77195Y271118D01*
X77307Y271397D01*
X77395Y271726D01*
X77457Y272105D01*
X77487Y272449D01*
Y273087D01*
X75257D01*
Y273547D01*
X63257D01*
Y269007D01*
X61987Y268882D01*
X61621Y270722D01*
X60350Y272624D01*
X60298Y272748D01*
X60385Y274174D01*
X61168Y274697D01*
X62392Y276530D01*
X62570Y277422D01*
X61185D01*
X60953Y277365D01*
X60621Y277257D01*
X60296Y277126D01*
X59978Y276971D01*
X59666Y276791D01*
X59362Y276589D01*
X59064Y276362D01*
X59034Y277422D01*
X51778D01*
X51955Y276530D01*
X53180Y274697D01*
X52758Y273452D01*
X51644Y272707D01*
X51387Y272322D01*
X50117Y272708D01*
Y273547D01*
X48705D01*
Y275811D01*
X48356Y277567D01*
X47361Y279056D01*
X45426Y280991D01*
X44998Y281277D01*
X45383Y282547D01*
X50117D01*
Y293478D01*
X51387Y293864D01*
X51765Y293298D01*
X53749Y291972D01*
X56090Y291507D01*
X58431Y291972D01*
X60416Y293298D01*
X61742Y295283D01*
X61987Y296515D01*
X63257Y296390D01*
Y282547D01*
X75257D01*
Y289524D01*
X75282Y289621D01*
X75295Y289894D01*
X75315Y290023D01*
X75351Y290168D01*
X75410Y290336D01*
X75496Y290528D01*
X75616Y290746D01*
X75775Y290990D01*
X75975Y291258D01*
X76080Y291381D01*
X81084Y296385D01*
X82257Y295899D01*
Y282547D01*
X94257D01*
Y299547D01*
X84395D01*
X83590Y300528D01*
X83655Y300856D01*
Y305683D01*
X85729D01*
Y317883D01*
X85167D01*
Y325120D01*
X86216Y325354D01*
X86921Y325466D01*
X87164Y325556D01*
X87832Y325644D01*
X89778Y326450D01*
X91449Y327733D01*
X92732Y329404D01*
X93538Y331350D01*
X93813Y333438D01*
X93611Y334972D01*
X94813Y335565D01*
X98339Y332040D01*
D02*
G37*
G36*
X494744Y295597D02*
X494716Y295781D01*
X494632Y295946D01*
X494492Y296092D01*
X494297Y296218D01*
X494045Y296324D01*
X493738Y296412D01*
X493375Y296479D01*
X492956Y296528D01*
X492481Y296557D01*
X491950Y296567D01*
Y299567D01*
X492481Y299576D01*
X493375Y299654D01*
X493738Y299722D01*
X494045Y299809D01*
X494297Y299916D01*
X494492Y300042D01*
X494632Y300187D01*
X494716Y300352D01*
X494744Y300536D01*
Y295597D01*
D02*
G37*
G36*
X31622Y294016D02*
X30744Y293103D01*
X29339Y291415D01*
X28811Y290639D01*
X28399Y289909D01*
X28103Y289225D01*
X27925Y288587D01*
X27862Y287994D01*
X27916Y287447D01*
X28086Y286945D01*
X23515Y296516D01*
X23792Y296121D01*
X24164Y295892D01*
X24632Y295830D01*
X25195Y295933D01*
X25854Y296204D01*
X26609Y296640D01*
X27460Y297244D01*
X28406Y298013D01*
X30586Y300052D01*
X31622Y294016D01*
D02*
G37*
G36*
X74348D02*
X73945Y293592D01*
X73584Y293168D01*
X73266Y292743D01*
X72990Y292319D01*
X72757Y291895D01*
X72566Y291471D01*
X72418Y291046D01*
X72312Y290622D01*
X72248Y290198D01*
X72227Y289774D01*
Y296516D01*
X72248Y296465D01*
X72312Y296465D01*
X72418Y296514D01*
X72566Y296613D01*
X72757Y296763D01*
X73266Y297211D01*
X74348Y298259D01*
Y294016D01*
D02*
G37*
G36*
X463355Y297716D02*
X463825Y297314D01*
X464033Y297168D01*
X464222Y297057D01*
X464392Y296982D01*
X464544Y296943D01*
X464677Y296940D01*
X464792Y296973D01*
X464888Y297042D01*
X464497Y296651D01*
X465451Y295828D01*
X465672Y295686D01*
X465864Y295584D01*
X466027Y295523D01*
X466162Y295503D01*
X464661Y294002D01*
X464641Y294137D01*
X464580Y294300D01*
X464478Y294492D01*
X464336Y294713D01*
X464153Y294962D01*
X463666Y295546D01*
X463534Y295688D01*
X463122Y295276D01*
X463191Y295372D01*
X463224Y295487D01*
X463221Y295620D01*
X463182Y295772D01*
X463107Y295942D01*
X462996Y296131D01*
X462849Y296338D01*
X462667Y296565D01*
X462194Y297072D01*
X463092Y297970D01*
X463355Y297716D01*
D02*
G37*
G36*
X180333Y288205D02*
X180287Y288010D01*
X180247Y287721D01*
X180182Y286863D01*
X180115Y283072D01*
X177115D01*
X176846Y288305D01*
X180384D01*
X180333Y288205D01*
D02*
G37*
G36*
X467676Y287310D02*
X467721Y286800D01*
X467796Y286350D01*
X467901Y285960D01*
X468036Y285630D01*
X468201Y285360D01*
X468396Y285150D01*
X468621Y285000D01*
X468876Y284910D01*
X469161Y284880D01*
X463419D01*
X463655Y284910D01*
X463866Y285000D01*
X464053Y285150D01*
X464214Y285360D01*
X464351Y285630D01*
X464463Y285960D01*
X464549Y286350D01*
X464612Y286800D01*
X464649Y287310D01*
X464661Y287880D01*
X467661D01*
X467676Y287310D01*
D02*
G37*
G36*
X478231Y296718D02*
X478321Y296463D01*
X478473Y296238D01*
X478685Y296043D01*
X478958Y295878D01*
X479291Y295743D01*
X479685Y295638D01*
X480140Y295563D01*
X480655Y295518D01*
X481231Y295503D01*
Y292503D01*
X480655Y292488D01*
X480140Y292443D01*
X479685Y292368D01*
X479291Y292263D01*
X478958Y292128D01*
X478685Y291963D01*
X478473Y291768D01*
X478321Y291543D01*
X478231Y291288D01*
X478200Y291003D01*
Y297003D01*
X478231Y296718D01*
D02*
G37*
G36*
X439135Y313926D02*
X439174Y313818D01*
X439239Y313723D01*
X439330Y313640D01*
X439447Y313570D01*
X439590Y313513D01*
X439759Y313469D01*
X439955Y313437D01*
X440176Y313418D01*
X440423Y313412D01*
Y312142D01*
X440176Y312135D01*
X439955Y312116D01*
X439759Y312085D01*
X439590Y312040D01*
X439447Y311983D01*
X439330Y311913D01*
X439239Y311831D01*
X439174Y311735D01*
X439135Y311627D01*
X439122Y311507D01*
Y314047D01*
X439135Y313926D01*
D02*
G37*
G36*
X329335Y333115D02*
X329227Y333076D01*
X329131Y333011D01*
X329049Y332920D01*
X328979Y332803D01*
X328922Y332659D01*
X328877Y332490D01*
X328846Y332295D01*
X328827Y332074D01*
X328820Y331827D01*
X327550D01*
X327544Y332074D01*
X327525Y332295D01*
X327493Y332490D01*
X327449Y332659D01*
X327392Y332803D01*
X327322Y332920D01*
X327239Y333011D01*
X327144Y333076D01*
X327036Y333115D01*
X326915Y333128D01*
X329455D01*
X329335Y333115D01*
D02*
G37*
G36*
X339495Y333229D02*
X339387Y333191D01*
X339291Y333127D01*
X339209Y333038D01*
X339139Y332924D01*
X339082Y332784D01*
X339037Y332619D01*
X339006Y332429D01*
X338987Y332213D01*
X338980Y331972D01*
X337710D01*
X337704Y332213D01*
X337685Y332429D01*
X337653Y332619D01*
X337609Y332784D01*
X337551Y332924D01*
X337482Y333038D01*
X337399Y333127D01*
X337304Y333191D01*
X337196Y333229D01*
X337075Y333242D01*
X339615D01*
X339495Y333229D01*
D02*
G37*
G36*
X350217D02*
X350109Y333191D01*
X350014Y333127D01*
X349931Y333038D01*
X349861Y332924D01*
X349804Y332784D01*
X349760Y332619D01*
X349728Y332429D01*
X349709Y332213D01*
X349703Y331972D01*
X348433D01*
X348426Y332213D01*
X348407Y332429D01*
X348376Y332619D01*
X348331Y332784D01*
X348274Y332924D01*
X348204Y333038D01*
X348122Y333127D01*
X348026Y333191D01*
X347918Y333229D01*
X347798Y333242D01*
X350338D01*
X350217Y333229D01*
D02*
G37*
G36*
X320335Y333115D02*
X320227Y333076D01*
X320131Y333011D01*
X320049Y332920D01*
X319979Y332803D01*
X319922Y332659D01*
X319877Y332490D01*
X319846Y332295D01*
X319827Y332074D01*
X319820Y331827D01*
X318550D01*
X318544Y332074D01*
X318525Y332295D01*
X318493Y332490D01*
X318449Y332659D01*
X318391Y332803D01*
X318322Y332920D01*
X318239Y333011D01*
X318144Y333076D01*
X318036Y333115D01*
X317915Y333128D01*
X320455D01*
X320335Y333115D01*
D02*
G37*
G36*
X409644Y326474D02*
X409824Y326321D01*
X410004Y326186D01*
X410183Y326069D01*
X410363Y325971D01*
X410542Y325890D01*
X410722Y325827D01*
X410902Y325782D01*
X411081Y325755D01*
X411261Y325746D01*
X407669D01*
X407830Y325755D01*
X407956Y325782D01*
X408046Y325827D01*
X408100Y325890D01*
X408118Y325971D01*
X408100Y326069D01*
X408046Y326186D01*
X407956Y326321D01*
X407830Y326474D01*
X407669Y326644D01*
X409465D01*
X409644Y326474D01*
D02*
G37*
G36*
X86440Y328487D02*
X85643Y328360D01*
X84191Y328037D01*
X83536Y327840D01*
X82929Y327621D01*
X82369Y327378D01*
X81856Y327113D01*
X81391Y326824D01*
X80974Y326512D01*
X80603Y326176D01*
X78482Y328298D01*
X78817Y328668D01*
X79129Y329086D01*
X79418Y329551D01*
X79684Y330064D01*
X79926Y330624D01*
X80146Y331231D01*
X80342Y331886D01*
X80665Y333338D01*
X80792Y334134D01*
X86440Y328487D01*
D02*
G37*
G36*
X125701Y330480D02*
X125489Y330405D01*
X125301Y330280D01*
X125139Y330105D01*
X125001Y329880D01*
X124889Y329605D01*
X124801Y329280D01*
X124739Y328905D01*
X124701Y328480D01*
X124689Y328005D01*
X122189D01*
X122176Y328480D01*
X122139Y328905D01*
X122076Y329280D01*
X121989Y329605D01*
X121876Y329880D01*
X121739Y330105D01*
X121576Y330280D01*
X121389Y330405D01*
X121176Y330480D01*
X120939Y330505D01*
X125939D01*
X125701Y330480D01*
D02*
G37*
G36*
X275316Y336805D02*
X275152Y336616D01*
X274997Y336386D01*
X274850Y336115D01*
X274712Y335803D01*
X274583Y335450D01*
X274463Y335055D01*
X274248Y334143D01*
X274067Y333066D01*
X270679Y336455D01*
X271238Y336540D01*
X272668Y336850D01*
X273062Y336970D01*
X273416Y337099D01*
X273728Y337237D01*
X273999Y337384D01*
X274229Y337539D01*
X274418Y337703D01*
X275316Y336805D01*
D02*
G37*
G36*
X51912Y339804D02*
X50948Y338805D01*
X49425Y337002D01*
X48866Y336198D01*
X48442Y335458D01*
X48153Y334783D01*
X47999Y334174D01*
X47979Y333629D01*
X48095Y333148D01*
X48346Y332733D01*
X41955Y340424D01*
X42312Y340115D01*
X42747Y339954D01*
X43260Y339941D01*
X43850Y340075D01*
X44518Y340358D01*
X45264Y340789D01*
X46088Y341367D01*
X46990Y342093D01*
X49026Y343990D01*
X51912Y339804D01*
D02*
G37*
G36*
X508064Y345818D02*
X508743Y344548D01*
X507871Y343243D01*
X507447Y341110D01*
X506296Y340465D01*
X505670Y341091D01*
X504468Y341894D01*
X503049Y342176D01*
X469255D01*
X469255Y342176D01*
X467836Y341894D01*
X466634Y341091D01*
X466634Y341091D01*
X454290Y328747D01*
X453487Y327544D01*
X453205Y326126D01*
Y320786D01*
X452031Y320300D01*
X449401Y322931D01*
X448198Y323734D01*
X446780Y324016D01*
X425743D01*
X425743Y324016D01*
X424325Y323734D01*
X423454Y323153D01*
X422352Y323575D01*
X422184Y323715D01*
Y328777D01*
X411676D01*
X407712Y332740D01*
X406510Y333544D01*
X405091Y333826D01*
X367210D01*
X365792Y333544D01*
X364589Y332740D01*
X358542Y326693D01*
X357738Y325491D01*
X357456Y324072D01*
Y317794D01*
X356283Y317308D01*
X355641Y317950D01*
X354439Y318753D01*
X354258Y318789D01*
X353259Y320279D01*
X353270Y320331D01*
X352920Y322086D01*
X352711Y322400D01*
X352774Y322717D01*
Y330211D01*
X355168D01*
Y342411D01*
X349899D01*
X347735Y344576D01*
X348261Y345845D01*
X508064Y345818D01*
D02*
G37*
G36*
X44722Y345897D02*
X45222Y344627D01*
X44986Y344407D01*
X44248Y343812D01*
X43781Y343485D01*
X34007D01*
Y324785D01*
X34007Y324785D01*
Y323673D01*
X34007D01*
X34007Y323515D01*
Y308286D01*
X33985Y308207D01*
X33979Y308109D01*
X33978Y308107D01*
X33944Y308026D01*
X33874Y307893D01*
X33761Y307711D01*
X33624Y307520D01*
X33429Y307290D01*
X33120Y306981D01*
X31947Y307467D01*
Y313053D01*
X24977D01*
Y305433D01*
X29913D01*
X30399Y304259D01*
X27392Y301253D01*
X26395Y300320D01*
X25608Y299681D01*
X25420Y299547D01*
X23520D01*
X23354Y299571D01*
X23259Y299547D01*
X19117D01*
Y282547D01*
X17935Y282335D01*
X17797D01*
X16042Y281986D01*
X14553Y280991D01*
X9475Y275914D01*
X8481Y274425D01*
X8132Y272669D01*
Y248088D01*
X8481Y246333D01*
X9475Y244844D01*
X13668Y240652D01*
X14112Y240174D01*
X14408Y239806D01*
X14409Y239804D01*
Y234338D01*
X13852Y233160D01*
X13257Y233278D01*
Y227882D01*
Y222486D01*
X13952Y222624D01*
X15222Y222167D01*
Y222167D01*
X19592D01*
Y227807D01*
X22132D01*
Y222167D01*
X23762D01*
Y221707D01*
X26432D01*
X31268Y216870D01*
X30782Y215697D01*
X4351Y215696D01*
X4350Y282337D01*
X4498Y283081D01*
X4497Y308963D01*
X5767Y309088D01*
X5936Y308240D01*
X7160Y306407D01*
X8993Y305183D01*
X9884Y305005D01*
Y310401D01*
X12424D01*
Y305005D01*
X13316Y305183D01*
X14197Y305771D01*
X15467Y305433D01*
Y305433D01*
X15467Y305433D01*
X22437D01*
Y314323D01*
Y320642D01*
X21207D01*
X21444Y320667D01*
X21657Y320742D01*
X21844Y320867D01*
X22007Y321042D01*
X22144Y321267D01*
X22257Y321542D01*
X22344Y321867D01*
X22407Y322242D01*
X22437Y322582D01*
Y323213D01*
X16603D01*
X16013Y324377D01*
X16574Y325245D01*
X22437D01*
Y325882D01*
X22407Y326226D01*
X22344Y326606D01*
X22257Y326935D01*
X22144Y327213D01*
X22007Y327441D01*
X21844Y327618D01*
X21657Y327744D01*
X21444Y327820D01*
X21207Y327846D01*
X22437D01*
Y332865D01*
X14366D01*
X14197Y332775D01*
X13521Y333226D01*
X12630Y333403D01*
Y331475D01*
X12675Y331495D01*
X12985Y331659D01*
X13282Y331843D01*
X13568Y332048D01*
X13841Y332272D01*
X14102Y332517D01*
X15869Y330749D01*
X15625Y330488D01*
X15400Y330215D01*
X15196Y329930D01*
X15012Y329632D01*
X14848Y329322D01*
X14704Y329000D01*
X14581Y328666D01*
X14477Y328319D01*
X14394Y327961D01*
X14331Y327589D01*
X12630Y329290D01*
Y328007D01*
X10090D01*
Y333403D01*
X9198Y333226D01*
X7366Y332001D01*
X6141Y330169D01*
X6053Y329726D01*
X4714Y329501D01*
X4626Y329652D01*
X4653Y329860D01*
Y329860D01*
X4751Y331087D01*
X4934Y332942D01*
X5844Y335943D01*
X7323Y338709D01*
X9313Y341134D01*
X11737Y343124D01*
X14504Y344603D01*
X17505Y345513D01*
X19435Y345703D01*
X20666Y345794D01*
X20677Y345792D01*
X20870Y345830D01*
X21900Y345901D01*
X44722Y345897D01*
D02*
G37*
G36*
X233066Y338825D02*
X232507Y338744D01*
X231077Y338444D01*
X230682Y338325D01*
X230329Y338198D01*
X230016Y338061D01*
X229744Y337915D01*
X229514Y337760D01*
X229325Y337596D01*
X228803Y338129D01*
Y337074D01*
X228626Y336889D01*
X228329Y336522D01*
X228208Y336341D01*
X228106Y336161D01*
X228023Y335982D01*
X227958Y335804D01*
X227911Y335627D01*
X227883Y335452D01*
X227874Y335278D01*
Y338870D01*
X227883Y338703D01*
X227911Y338573D01*
X227958Y338480D01*
X228023Y338424D01*
X228106Y338406D01*
X228208Y338424D01*
X228329Y338480D01*
X228468Y338573D01*
X228567Y338655D01*
X228601Y338693D01*
X228757Y338923D01*
X228905Y339194D01*
X229044Y339506D01*
X229175Y339858D01*
X229298Y340252D01*
X229517Y341161D01*
X229703Y342233D01*
X233066Y338825D01*
D02*
G37*
G36*
X316146Y334897D02*
X316133Y335017D01*
X316094Y335125D01*
X316029Y335221D01*
X315938Y335303D01*
X315821Y335373D01*
X315678Y335430D01*
X315509Y335475D01*
X315314Y335506D01*
X315093Y335525D01*
X314846Y335532D01*
Y336802D01*
X315093Y336808D01*
X315314Y336827D01*
X315509Y336859D01*
X315678Y336903D01*
X315821Y336960D01*
X315938Y337030D01*
X316029Y337113D01*
X316094Y337208D01*
X316133Y337316D01*
X316146Y337437D01*
Y334897D01*
D02*
G37*
G36*
X284438Y335718D02*
X284328Y335603D01*
X284153Y335397D01*
X284088Y335306D01*
X284039Y335221D01*
X284005Y335144D01*
X283986Y335075D01*
X283982Y335013D01*
X283993Y334958D01*
X284020Y334911D01*
X282532Y335922D01*
X282585Y335916D01*
X282649Y335926D01*
X282724Y335954D01*
X282809Y335998D01*
X282905Y336059D01*
X283011Y336137D01*
X283255Y336343D01*
X283540Y336616D01*
X284438Y335718D01*
D02*
G37*
G36*
X95199Y343671D02*
X95302Y343442D01*
X95475Y343160D01*
X95716Y342823D01*
X96406Y341986D01*
X97959Y340323D01*
X98614Y339660D01*
X96847Y337893D01*
X96184Y338548D01*
X93347Y341032D01*
X93065Y341205D01*
X92837Y341309D01*
X92662Y341343D01*
X95164Y343845D01*
X95199Y343671D01*
D02*
G37*
G36*
X124701Y326728D02*
X124739Y326299D01*
X124801Y325920D01*
X124889Y325592D01*
X125001Y325313D01*
X125139Y325085D01*
X125301Y324908D01*
X125489Y324781D01*
X125701Y324703D01*
X125939Y324677D01*
X121149Y324707D01*
X121347Y324732D01*
X121524Y324807D01*
X121679Y324932D01*
X121815Y325107D01*
X121929Y325332D01*
X122022Y325607D01*
X122095Y325932D01*
X122147Y326307D01*
X122178Y326732D01*
X122189Y327207D01*
X124689D01*
X124701Y326728D01*
D02*
G37*
G36*
X167089Y326694D02*
X168292Y325635D01*
X168815Y325238D01*
X169285Y324930D01*
X169702Y324710D01*
X170066Y324580D01*
X170377Y324538D01*
X170398Y324541D01*
X170547Y324598D01*
X170729Y324683D01*
X170875Y324772D01*
X170986Y324864D01*
X171884Y323965D01*
X171793Y323855D01*
X171704Y323708D01*
X171618Y323526D01*
X171562Y323377D01*
X171558Y323357D01*
X171600Y323045D01*
X171731Y322681D01*
X171950Y322264D01*
X172258Y321794D01*
X173715Y320069D01*
X174378Y319388D01*
X170842Y315852D01*
X169006Y317623D01*
X168099Y318412D01*
X167740Y318690D01*
X167445Y318890D01*
X167213Y319012D01*
X167139Y319031D01*
X166940Y319021D01*
X166042Y319919D01*
X166022Y319918D01*
X166009Y319960D01*
X166003Y320046D01*
X166003Y320175D01*
X166007Y320242D01*
X165911Y320424D01*
X163541Y323146D01*
X162873Y323821D01*
X166409Y327357D01*
X167089Y326694D01*
D02*
G37*
G36*
X467124Y321858D02*
X467130Y321625D01*
X467149Y321409D01*
X467181Y321218D01*
X467225Y321053D01*
X467283Y320914D01*
X467352Y320799D01*
X467435Y320710D01*
X467530Y320647D01*
X467638Y320609D01*
X467759Y320596D01*
X467183D01*
X467277Y319319D01*
X467333Y319063D01*
X467397Y318855D01*
X467469Y318696D01*
X467550Y318587D01*
X465428D01*
X465509Y318696D01*
X465581Y318855D01*
X465645Y319063D01*
X465700Y319319D01*
X465747Y319625D01*
X465816Y320382D01*
X465823Y320596D01*
X465219D01*
X465340Y320609D01*
X465448Y320647D01*
X465543Y320710D01*
X465625Y320799D01*
X465695Y320914D01*
X465752Y321053D01*
X465797Y321218D01*
X465829Y321409D01*
X465848Y321625D01*
X465854Y321858D01*
X465854Y321886D01*
X467124D01*
X467124Y321858D01*
D02*
G37*
G36*
X136318Y324576D02*
X136408Y324458D01*
X136558Y324355D01*
X136768Y324265D01*
X137038Y324189D01*
X137368Y324127D01*
X137758Y324078D01*
X138718Y324023D01*
X139288Y324016D01*
Y321016D01*
X138714Y321001D01*
X138200Y320956D01*
X137746Y320881D01*
X137353Y320776D01*
X137020Y320641D01*
X136747Y320476D01*
X136534Y320281D01*
X136382Y320056D01*
X136290Y319801D01*
X136258Y319516D01*
X136288Y324707D01*
X136318Y324576D01*
D02*
G37*
G36*
X71892Y316871D02*
X71929Y316441D01*
X71992Y316062D01*
X72079Y315733D01*
X72192Y315454D01*
X72329Y315227D01*
X72492Y315049D01*
X72679Y314923D01*
X72892Y314847D01*
X73129Y314822D01*
X68129D01*
X68367Y314847D01*
X68579Y314923D01*
X68767Y315049D01*
X68929Y315227D01*
X69067Y315454D01*
X69179Y315733D01*
X69267Y316062D01*
X69329Y316441D01*
X69367Y316871D01*
X69379Y317352D01*
X71879D01*
X71892Y316871D01*
D02*
G37*
G36*
X545451Y312396D02*
X544996Y311924D01*
X544271Y311058D01*
X544002Y310664D01*
X543794Y310298D01*
X543648Y309957D01*
X543564Y309643D01*
X543542Y309356D01*
X543581Y309095D01*
X543683Y308861D01*
X541037Y313286D01*
X541192Y313105D01*
X541390Y313003D01*
X541633Y312981D01*
X541921Y313038D01*
X542252Y313175D01*
X542628Y313391D01*
X543048Y313688D01*
X543512Y314063D01*
X544573Y315054D01*
X545451Y312396D01*
D02*
G37*
G36*
X18068Y311823D02*
X18043Y312060D01*
X17967Y312273D01*
X17840Y312460D01*
X17663Y312623D01*
X17435Y312760D01*
X17157Y312873D01*
X16828Y312960D01*
X16448Y313023D01*
X16018Y313060D01*
X15596Y313071D01*
X15419Y312882D01*
X15194Y312609D01*
X14990Y312324D01*
X14806Y312026D01*
X14642Y311716D01*
X14498Y311394D01*
X14375Y311060D01*
X14271Y310713D01*
X14188Y310355D01*
X14125Y309984D01*
X10737Y313372D01*
X11107Y313435D01*
X11466Y313518D01*
X11813Y313622D01*
X12147Y313745D01*
X12469Y313889D01*
X12779Y314053D01*
X13077Y314237D01*
X13362Y314442D01*
X13635Y314666D01*
X13896Y314911D01*
X15537Y313269D01*
Y315573D01*
X16018Y315585D01*
X16448Y315623D01*
X16828Y315685D01*
X17157Y315773D01*
X17435Y315885D01*
X17663Y316023D01*
X17840Y316185D01*
X17967Y316373D01*
X18043Y316585D01*
X18068Y316823D01*
Y311823D01*
D02*
G37*
G36*
X313085Y330067D02*
X315479D01*
Y324879D01*
X313925Y324570D01*
X312437Y323575D01*
X311442Y322086D01*
X311093Y320331D01*
X311442Y318575D01*
X312217Y317416D01*
X311876Y316906D01*
X311815Y316599D01*
X313165D01*
X313925Y316091D01*
X315681Y315742D01*
X317681D01*
Y314919D01*
X315681D01*
X313925Y314570D01*
X313161Y314059D01*
X310875D01*
X310589Y313710D01*
X301249D01*
Y316007D01*
X301249D01*
X301297Y316459D01*
X301297D01*
X301297Y317257D01*
Y320829D01*
X299931D01*
X299571Y320803D01*
X299339Y320768D01*
X299142Y320722D01*
X298982Y320667D01*
X298857Y320601D01*
X298767Y320525D01*
X298714Y320439D01*
X298696Y320343D01*
Y320829D01*
X295657D01*
Y322099D01*
X294387D01*
Y327739D01*
X292757D01*
Y328199D01*
X287171D01*
X286493Y329469D01*
X287320Y330708D01*
X287669Y332461D01*
X313085D01*
Y330067D01*
D02*
G37*
G36*
X265579Y327315D02*
X265645Y326878D01*
X265755Y326446D01*
X265910Y326021D01*
X266108Y325600D01*
X266351Y325185D01*
X266638Y324776D01*
X266970Y324372D01*
X267345Y323974D01*
X267765Y323582D01*
X267258Y323501D01*
X268096Y322663D01*
X267768Y322331D01*
X266524Y320917D01*
X266437Y320778D01*
X266385Y320666D01*
X266368Y320582D01*
X265117Y321832D01*
X265202Y321850D01*
X265313Y321902D01*
X265453Y321988D01*
X265620Y322109D01*
X266036Y322455D01*
X266866Y323232D01*
X267115Y323478D01*
X261671Y322611D01*
X261934Y323081D01*
X262377Y324014D01*
X262558Y324477D01*
X262835Y325397D01*
X262932Y325854D01*
X263001Y326308D01*
X263043Y326760D01*
X263057Y327210D01*
X265557Y327758D01*
X265579Y327315D01*
D02*
G37*
G36*
X283618Y322172D02*
X283605Y322293D01*
X283566Y322401D01*
X283501Y322496D01*
X283410Y322579D01*
X283293Y322649D01*
X283150Y322706D01*
X282981Y322750D01*
X282785Y322782D01*
X282565Y322801D01*
X282317Y322807D01*
Y324077D01*
X282565Y324084D01*
X282785Y324103D01*
X282981Y324134D01*
X283150Y324179D01*
X283293Y324236D01*
X283410Y324306D01*
X283501Y324389D01*
X283566Y324484D01*
X283605Y324592D01*
X283618Y324712D01*
Y322172D01*
D02*
G37*
G36*
X578894Y325567D02*
X578742Y325305D01*
X578607Y325026D01*
X578491Y324731D01*
X578392Y324420D01*
X578312Y324093D01*
X578249Y323749D01*
X578204Y323389D01*
X578177Y323013D01*
X578168Y322620D01*
X575168D01*
X575159Y323013D01*
X575088Y323749D01*
X575025Y324093D01*
X574944Y324420D01*
X574846Y324731D01*
X574729Y325026D01*
X574595Y325305D01*
X574442Y325567D01*
X574272Y325813D01*
X579064D01*
X578894Y325567D01*
D02*
G37*
G36*
X103949Y328441D02*
X104032Y327959D01*
X104169Y327448D01*
X104361Y326909D01*
X104608Y326340D01*
X104909Y325742D01*
X105678Y324460D01*
X106144Y323775D01*
X106665Y323061D01*
X98679D01*
X99200Y323775D01*
X100434Y325742D01*
X100736Y326340D01*
X100983Y326909D01*
X101175Y327448D01*
X101312Y327959D01*
X101394Y328441D01*
X101422Y328894D01*
X103922D01*
X103949Y328441D01*
D02*
G37*
G36*
X349517Y322268D02*
X349387Y322129D01*
X349287Y322003D01*
X349218Y321889D01*
X349179Y321789D01*
X349171Y321701D01*
X349194Y321626D01*
X349247Y321564D01*
X349331Y321515D01*
X349445Y321478D01*
X349590Y321454D01*
X346404Y321798D01*
X346559Y321793D01*
X346719Y321809D01*
X346885Y321847D01*
X347055Y321907D01*
X347230Y321989D01*
X347410Y322093D01*
X347595Y322219D01*
X347785Y322366D01*
X347980Y322536D01*
X348180Y322727D01*
X349517Y322268D01*
D02*
G37*
G36*
X47232Y327795D02*
X46807Y327645D01*
X46432Y327393D01*
X46107Y327041D01*
X45832Y326588D01*
X45607Y326035D01*
X45432Y325381D01*
X45307Y324626D01*
X45272Y324233D01*
X45307Y323842D01*
X45432Y323092D01*
X45607Y322442D01*
X45832Y321892D01*
X46107Y321442D01*
X46432Y321092D01*
X46807Y320842D01*
X47232Y320692D01*
X47707Y320642D01*
X37707D01*
X38182Y320692D01*
X38607Y320842D01*
X38982Y321092D01*
X39307Y321442D01*
X39582Y321892D01*
X39807Y322442D01*
X39982Y323092D01*
X40107Y323842D01*
X40141Y324233D01*
X40107Y324626D01*
X39982Y325381D01*
X39807Y326035D01*
X39582Y326588D01*
X39307Y327041D01*
X38982Y327393D01*
X38607Y327645D01*
X38182Y327795D01*
X37707Y327846D01*
X47707D01*
X47232Y327795D01*
D02*
G37*
G36*
X239082Y322959D02*
X239119Y322529D01*
X239182Y322149D01*
X239269Y321820D01*
X239382Y321542D01*
X239519Y321314D01*
X239682Y321137D01*
X239869Y321011D01*
X240082Y320935D01*
X240319Y320909D01*
X235319D01*
X235557Y320935D01*
X235769Y321011D01*
X235957Y321137D01*
X236119Y321314D01*
X236257Y321542D01*
X236369Y321820D01*
X236457Y322149D01*
X236519Y322529D01*
X236557Y322959D01*
X236569Y323440D01*
X239069D01*
X239082Y322959D01*
D02*
G37*
G36*
X370677Y321007D02*
X370664Y321127D01*
X370625Y321235D01*
X370560Y321331D01*
X370469Y321413D01*
X370352Y321483D01*
X370209Y321540D01*
X370040Y321585D01*
X369845Y321616D01*
X369624Y321635D01*
X369377Y321642D01*
Y322912D01*
X369624Y322918D01*
X369845Y322937D01*
X370040Y322969D01*
X370209Y323013D01*
X370352Y323070D01*
X370469Y323140D01*
X370560Y323223D01*
X370625Y323318D01*
X370664Y323426D01*
X370677Y323547D01*
Y321007D01*
D02*
G37*
G36*
X330917Y262578D02*
X329743Y262092D01*
X324712Y267124D01*
X323306Y268063D01*
X321648Y268393D01*
X308075D01*
X307690Y269663D01*
X308475Y270187D01*
X309699Y272020D01*
X309876Y272911D01*
X299085D01*
X299262Y272020D01*
X300486Y270187D01*
X301271Y269663D01*
X300886Y268393D01*
X283098D01*
X281439Y268063D01*
X280034Y267124D01*
X272576Y259666D01*
X266460D01*
X266314Y259688D01*
X266159Y259721D01*
X266012Y259763D01*
X265869Y259813D01*
X265728Y259874D01*
X265586Y259945D01*
X265443Y260029D01*
X265222Y260177D01*
X264949Y260290D01*
X264591Y260530D01*
X264140Y261076D01*
X264240Y262116D01*
X265137Y263460D01*
X265603Y265801D01*
X265137Y268142D01*
X263811Y270127D01*
X262961Y270695D01*
X263132Y271657D01*
X263309Y271989D01*
X264605Y272247D01*
X265807Y273050D01*
X271884Y279127D01*
X299799D01*
X300274Y277857D01*
X299262Y276343D01*
X299085Y275451D01*
X309876D01*
X309699Y276343D01*
X308687Y277857D01*
X309162Y279127D01*
X330917D01*
Y262578D01*
D02*
G37*
G36*
X263818Y257435D02*
X264124Y257257D01*
X264438Y257099D01*
X264758Y256962D01*
X265086Y256846D01*
X265421Y256751D01*
X265764Y256677D01*
X266114Y256625D01*
X266471Y256593D01*
X266836Y256583D01*
X266963Y254083D01*
X266603Y254071D01*
X266250Y254035D01*
X265904Y253974D01*
X265566Y253890D01*
X265234Y253782D01*
X264910Y253650D01*
X264593Y253493D01*
X264284Y253313D01*
X263981Y253108D01*
X263686Y252880D01*
X263520Y257635D01*
X263818Y257435D01*
D02*
G37*
G36*
X258417Y259062D02*
X258657Y258900D01*
X258935Y258755D01*
X259249Y258626D01*
X259600Y258513D01*
X259988Y258416D01*
X260413Y258336D01*
X261372Y258223D01*
X261907Y258191D01*
X258833Y254614D01*
X258722Y255145D01*
X258345Y256516D01*
X258206Y256898D01*
X257906Y257551D01*
X257746Y257821D01*
X257579Y258054D01*
X257405Y258250D01*
X258213Y259239D01*
X258417Y259062D01*
D02*
G37*
G36*
X251253Y254311D02*
X251563Y252881D01*
X251683Y252487D01*
X251812Y252133D01*
X251950Y251821D01*
X252097Y251550D01*
X252252Y251320D01*
X252416Y251131D01*
X251518Y250233D01*
X251329Y250397D01*
X251099Y250552D01*
X250828Y250699D01*
X250516Y250837D01*
X250163Y250966D01*
X249768Y251087D01*
X248856Y251301D01*
X247779Y251482D01*
X251167Y254870D01*
X251253Y254311D01*
D02*
G37*
G36*
X36879Y259582D02*
X36667Y259506D01*
X36479Y259380D01*
X36317Y259203D01*
X36179Y258975D01*
X36067Y258697D01*
X35979Y258368D01*
X35917Y257988D01*
X35879Y257558D01*
X35873Y257334D01*
X36076Y257144D01*
X36349Y256920D01*
X36635Y256715D01*
X36932Y256531D01*
X37242Y256367D01*
X37564Y256224D01*
X37898Y256100D01*
X38245Y255996D01*
X38604Y255913D01*
X38975Y255850D01*
X35586Y252462D01*
X35523Y252833D01*
X35440Y253192D01*
X35337Y253538D01*
X35213Y253872D01*
X35069Y254194D01*
X34905Y254504D01*
X34721Y254802D01*
X34517Y255087D01*
X34293Y255360D01*
X34048Y255621D01*
X35504Y257077D01*
X33367D01*
X33354Y257558D01*
X33317Y257988D01*
X33254Y258368D01*
X33167Y258697D01*
X33054Y258975D01*
X32917Y259203D01*
X32754Y259380D01*
X32567Y259506D01*
X32354Y259582D01*
X32117Y259608D01*
X37117D01*
X36879Y259582D01*
D02*
G37*
G36*
X71948Y259547D02*
X71698Y259457D01*
X71477Y259307D01*
X71286Y259097D01*
X71125Y258827D01*
X70992Y258497D01*
X70890Y258107D01*
X70816Y257657D01*
X70772Y257147D01*
X70757Y256577D01*
X67757D01*
X67743Y257147D01*
X67698Y257657D01*
X67625Y258107D01*
X67522Y258497D01*
X67390Y258827D01*
X67228Y259097D01*
X67037Y259307D01*
X66817Y259457D01*
X66567Y259547D01*
X66288Y259577D01*
X72227D01*
X71948Y259547D01*
D02*
G37*
G36*
X89407Y259595D02*
X89299Y259556D01*
X89203Y259491D01*
X89121Y259400D01*
X89051Y259283D01*
X88994Y259139D01*
X88949Y258970D01*
X88918Y258775D01*
X88899Y258554D01*
X88892Y258307D01*
X87622D01*
X87616Y258554D01*
X87597Y258775D01*
X87565Y258970D01*
X87521Y259139D01*
X87464Y259283D01*
X87394Y259400D01*
X87311Y259491D01*
X87216Y259556D01*
X87108Y259595D01*
X86987Y259608D01*
X89527D01*
X89407Y259595D01*
D02*
G37*
G36*
X236499Y258073D02*
X236552Y257800D01*
X236640Y257505D01*
X236763Y257187D01*
X236922Y256846D01*
X237116Y256481D01*
X237609Y255684D01*
X238243Y254795D01*
X233451D01*
X233785Y255251D01*
X234578Y256481D01*
X234771Y256846D01*
X234930Y257187D01*
X235053Y257505D01*
X235141Y257800D01*
X235194Y258073D01*
X235212Y258322D01*
X236482D01*
X236499Y258073D01*
D02*
G37*
G36*
X27807Y259547D02*
X27557Y259457D01*
X27337Y259307D01*
X27146Y259097D01*
X26984Y258827D01*
X26852Y258497D01*
X26749Y258107D01*
X26676Y257657D01*
X26632Y257147D01*
X26617Y256577D01*
X23617D01*
X23602Y257147D01*
X23558Y257657D01*
X23485Y258107D01*
X23382Y258497D01*
X23249Y258827D01*
X23088Y259097D01*
X22897Y259307D01*
X22676Y259457D01*
X22427Y259547D01*
X22147Y259577D01*
X28086D01*
X27807Y259547D01*
D02*
G37*
G36*
X56902Y243541D02*
X56921Y243320D01*
X56953Y243125D01*
X56997Y242955D01*
X57054Y242812D01*
X57124Y242695D01*
X57207Y242604D01*
X57302Y242539D01*
X57410Y242500D01*
X57530Y242487D01*
X54990D01*
X55111Y242500D01*
X55219Y242539D01*
X55314Y242604D01*
X55397Y242695D01*
X55467Y242812D01*
X55524Y242955D01*
X55568Y243125D01*
X55600Y243320D01*
X55619Y243541D01*
X55625Y243788D01*
X56895D01*
X56902Y243541D01*
D02*
G37*
G36*
X247540Y247461D02*
X248312Y246921D01*
X248676Y246701D01*
X249026Y246515D01*
X249362Y246363D01*
X249683Y246245D01*
X249990Y246160D01*
X250283Y246110D01*
X250562Y246093D01*
Y244823D01*
X250283Y244806D01*
X249990Y244755D01*
X249683Y244671D01*
X249362Y244552D01*
X249026Y244400D01*
X248676Y244214D01*
X248312Y243995D01*
X247540Y243454D01*
X247133Y243133D01*
Y247782D01*
X247540Y247461D01*
D02*
G37*
G36*
X18058Y244893D02*
X19165Y243953D01*
X19653Y243611D01*
X20099Y243353D01*
X20502Y243181D01*
X20862Y243093D01*
X21178Y243090D01*
X21452Y243171D01*
X21683Y243338D01*
X17470Y239126D01*
X17637Y239356D01*
X17719Y239630D01*
X17716Y239947D01*
X17628Y240306D01*
X17455Y240709D01*
X17198Y241155D01*
X16855Y241644D01*
X16428Y242176D01*
X15318Y243368D01*
X17440Y245490D01*
X18058Y244893D01*
D02*
G37*
G36*
X296359Y254425D02*
X296996D01*
X297341Y254455D01*
X297720Y254517D01*
X298049Y254605D01*
X298327Y254717D01*
X298555Y254855D01*
X298732Y255017D01*
X298859Y255205D01*
X298935Y255417D01*
X298960Y255655D01*
Y254425D01*
X321439D01*
Y256481D01*
X322612Y256967D01*
X344391Y235188D01*
X345797Y234249D01*
X347455Y233919D01*
X409444D01*
X415426Y227936D01*
Y159728D01*
X415756Y158069D01*
X416696Y156664D01*
X423269Y150091D01*
X424674Y149151D01*
X426333Y148821D01*
X455901D01*
Y145155D01*
X481901D01*
X482271Y144038D01*
Y142271D01*
X481901Y141155D01*
X481001Y141155D01*
X455901D01*
Y125155D01*
X481001D01*
X481901Y125155D01*
X482271Y124038D01*
Y122399D01*
X481027Y121155D01*
X459291D01*
X459256Y121166D01*
X459133Y121155D01*
X459074D01*
X458932Y121183D01*
X458789Y121155D01*
X455901D01*
Y118888D01*
X455839Y118871D01*
X455350Y118791D01*
X455027Y118762D01*
X351918D01*
X351548Y118802D01*
X351108Y118890D01*
X351012Y118921D01*
X350974Y119661D01*
Y150609D01*
X350625Y152365D01*
X349630Y153853D01*
X336829Y166654D01*
X335341Y167648D01*
X333585Y167997D01*
X321886D01*
Y181155D01*
X295886D01*
Y167997D01*
X285048D01*
X284204Y168725D01*
X280728Y172202D01*
Y186667D01*
X292121D01*
Y189449D01*
X295879D01*
Y185155D01*
X321879D01*
Y201155D01*
X295879D01*
Y196861D01*
X292121D01*
Y198866D01*
X289878D01*
X289200Y200136D01*
X290028Y201376D01*
X290494Y203717D01*
X290028Y206059D01*
X288702Y208043D01*
X286717Y209369D01*
X284376Y209835D01*
X282035Y209369D01*
X280050Y208043D01*
X278724Y206059D01*
X278259Y203717D01*
X278724Y201376D01*
X279553Y200136D01*
X278874Y198866D01*
X273982D01*
Y226387D01*
X275751D01*
Y227181D01*
X275728Y227471D01*
X275673Y227827D01*
X275597Y228135D01*
X275499Y228395D01*
X275379Y228608D01*
X275238Y228774D01*
X275074Y228893D01*
X274889Y228964D01*
X274682Y228988D01*
X275751D01*
Y232027D01*
Y237667D01*
X271381D01*
Y237667D01*
X270563Y237328D01*
X268097Y239794D01*
X268400Y241286D01*
X268690Y241480D01*
X268958Y241589D01*
X269635Y242035D01*
X270220Y241878D01*
X270619Y241640D01*
X270905Y241304D01*
Y240307D01*
X283105D01*
Y240767D01*
X284735D01*
Y246407D01*
Y252047D01*
X283105D01*
Y252507D01*
X279333D01*
X278846Y253680D01*
X284893Y259726D01*
X296359D01*
Y254425D01*
D02*
G37*
G36*
X478713Y251937D02*
X478661Y251694D01*
X478674Y251420D01*
X478754Y251114D01*
X478901Y250777D01*
X479114Y250407D01*
X479393Y250006D01*
X479739Y249573D01*
X480631Y248612D01*
X479290Y246417D01*
X478756Y246935D01*
X477807Y247744D01*
X477393Y248036D01*
X477020Y248253D01*
X476686Y248396D01*
X476393Y248463D01*
X476140Y248456D01*
X475927Y248373D01*
X475755Y248216D01*
X478833Y252148D01*
X478713Y251937D01*
D02*
G37*
G36*
X169996Y248701D02*
X169983Y248821D01*
X169944Y248929D01*
X169879Y249024D01*
X169788Y249107D01*
X169671Y249177D01*
X169528Y249234D01*
X169359Y249278D01*
X169164Y249310D01*
X168943Y249329D01*
X168696Y249335D01*
Y250606D01*
X168943Y250612D01*
X169164Y250631D01*
X169359Y250663D01*
X169528Y250707D01*
X169671Y250764D01*
X169788Y250834D01*
X169879Y250917D01*
X169944Y251012D01*
X169983Y251120D01*
X169996Y251241D01*
Y248701D01*
D02*
G37*
G36*
X267930Y248531D02*
X269086Y247703D01*
X269436Y247501D01*
X269768Y247336D01*
X270084Y247207D01*
X270382Y247115D01*
X270662Y247060D01*
X270925Y247042D01*
X270840Y245772D01*
X270583Y245755D01*
X270303Y245707D01*
X270002Y245625D01*
X269678Y245511D01*
X269333Y245364D01*
X268575Y244974D01*
X268164Y244729D01*
X267274Y244143D01*
X267510Y248880D01*
X267930Y248531D01*
D02*
G37*
G36*
X273966Y245137D02*
X273953Y245257D01*
X273914Y245365D01*
X273849Y245460D01*
X273758Y245543D01*
X273641Y245613D01*
X273498Y245670D01*
X273329Y245714D01*
X273134Y245746D01*
X272913Y245765D01*
X272665Y245772D01*
Y247042D01*
X272913Y247048D01*
X273134Y247067D01*
X273329Y247099D01*
X273498Y247143D01*
X273641Y247200D01*
X273758Y247270D01*
X273849Y247353D01*
X273914Y247448D01*
X273953Y247556D01*
X273966Y247677D01*
Y245137D01*
D02*
G37*
G36*
X133953Y260322D02*
X133845Y260283D01*
X133750Y260217D01*
X133667Y260126D01*
X133597Y260009D01*
X133540Y259866D01*
X133496Y259697D01*
X133464Y259502D01*
X133445Y259281D01*
X133439Y259034D01*
X132169D01*
X132162Y259281D01*
X132143Y259502D01*
X132112Y259697D01*
X132067Y259866D01*
X132010Y260009D01*
X131940Y260126D01*
X131858Y260217D01*
X131762Y260283D01*
X131654Y260322D01*
X131534Y260335D01*
X134074D01*
X133953Y260322D01*
D02*
G37*
G36*
X45631Y272946D02*
X45676Y272436D01*
X45749Y271986D01*
X45852Y271596D01*
X45984Y271266D01*
X46146Y270996D01*
X46337Y270786D01*
X46557Y270636D01*
X46807Y270546D01*
X47086Y270516D01*
X41147D01*
X41427Y270546D01*
X41676Y270636D01*
X41897Y270786D01*
X42088Y270996D01*
X42249Y271266D01*
X42382Y271596D01*
X42485Y271986D01*
X42558Y272436D01*
X42602Y272946D01*
X42617Y273516D01*
X45617D01*
X45631Y272946D01*
D02*
G37*
G36*
X133988Y272006D02*
X133880Y271967D01*
X133785Y271901D01*
X133702Y271810D01*
X133632Y271693D01*
X133575Y271550D01*
X133531Y271381D01*
X133499Y271186D01*
X133480Y270965D01*
X133473Y270718D01*
X132203D01*
X132197Y270965D01*
X132178Y271186D01*
X132146Y271381D01*
X132102Y271550D01*
X132045Y271693D01*
X131975Y271810D01*
X131892Y271901D01*
X131797Y271967D01*
X131689Y272006D01*
X131568Y272019D01*
X134108D01*
X133988Y272006D01*
D02*
G37*
G36*
X133480Y267472D02*
X133499Y267256D01*
X133531Y267065D01*
X133575Y266900D01*
X133632Y266761D01*
X133702Y266646D01*
X133785Y266557D01*
X133880Y266494D01*
X133988Y266456D01*
X134108Y266443D01*
X131568D01*
X131689Y266456D01*
X131797Y266494D01*
X131892Y266557D01*
X131975Y266646D01*
X132045Y266761D01*
X132102Y266900D01*
X132146Y267065D01*
X132178Y267256D01*
X132197Y267472D01*
X132203Y267713D01*
X133473D01*
X133480Y267472D01*
D02*
G37*
G36*
X117806Y268164D02*
X119037Y267371D01*
X119401Y267178D01*
X119742Y267019D01*
X120060Y266896D01*
X120355Y266808D01*
X120628Y266755D01*
X120877Y266737D01*
Y265467D01*
X120753Y265459D01*
X120765Y264832D01*
X120750Y264953D01*
X120709Y265061D01*
X120643Y265156D01*
X120551Y265239D01*
X120434Y265309D01*
X120291Y265366D01*
X120270Y265371D01*
X120060Y265309D01*
X119742Y265186D01*
X119401Y265027D01*
X119037Y264833D01*
X118239Y264340D01*
X117350Y263706D01*
Y268498D01*
X117806Y268164D01*
D02*
G37*
G36*
X217695Y263536D02*
X217655Y263548D01*
X217605Y263546D01*
X217547Y263529D01*
X217479Y263498D01*
X217403Y263452D01*
X217317Y263392D01*
X217222Y263317D01*
X217006Y263123D01*
X216884Y263004D01*
X215986Y263902D01*
X216105Y264023D01*
X216374Y264334D01*
X216435Y264420D01*
X216481Y264497D01*
X216512Y264564D01*
X216529Y264623D01*
X216531Y264672D01*
X216518Y264713D01*
X217695Y263536D01*
D02*
G37*
G36*
X241087Y263022D02*
X240912Y262994D01*
X240735Y262948D01*
X240558Y262883D01*
X240379Y262799D01*
X240199Y262697D01*
X240017Y262577D01*
X239834Y262437D01*
X239651Y262279D01*
X239466Y262103D01*
X237670D01*
X237837Y262279D01*
X237967Y262437D01*
X238059Y262577D01*
X238115Y262697D01*
X238134Y262799D01*
X238115Y262883D01*
X238059Y262948D01*
X237967Y262994D01*
X237837Y263022D01*
X237670Y263032D01*
X241262D01*
X241087Y263022D01*
D02*
G37*
%LPC*%
G36*
X301889Y35133D02*
Y31007D01*
X306015D01*
X305837Y31899D01*
X304613Y33731D01*
X302780Y34956D01*
X301889Y35133D01*
D02*
G37*
G36*
X311793Y33815D02*
X310902Y33638D01*
X309069Y32413D01*
X307845Y30581D01*
X307668Y29689D01*
X311793D01*
Y33815D01*
D02*
G37*
G36*
X327510Y33522D02*
Y29396D01*
X331636D01*
X331459Y30288D01*
X330234Y32121D01*
X328402Y33345D01*
X327510Y33522D01*
D02*
G37*
G36*
X324970D02*
X324078Y33345D01*
X322246Y32121D01*
X321022Y30288D01*
X320844Y29396D01*
X324970D01*
Y33522D01*
D02*
G37*
G36*
X299349Y35133D02*
X298457Y34956D01*
X296625Y33731D01*
X295400Y31899D01*
X295223Y31007D01*
X299349D01*
Y35133D01*
D02*
G37*
G36*
X314333Y33815D02*
Y29689D01*
X318459D01*
X318282Y30581D01*
X317057Y32413D01*
X315225Y33638D01*
X314333Y33815D01*
D02*
G37*
G36*
X349519Y47021D02*
X337249D01*
Y39752D01*
X349519D01*
Y47021D01*
D02*
G37*
G36*
X319815Y46943D02*
X315689D01*
X315866Y46052D01*
X317091Y44219D01*
X318923Y42995D01*
X319815Y42817D01*
Y46943D01*
D02*
G37*
G36*
X326481D02*
X322355D01*
Y42817D01*
X323246Y42995D01*
X325079Y44219D01*
X326303Y46052D01*
X326481Y46943D01*
D02*
G37*
G36*
X305758Y21103D02*
X301388D01*
Y16733D01*
X305758D01*
Y21103D01*
D02*
G37*
G36*
X351616Y26417D02*
X347490D01*
X347668Y25526D01*
X348892Y23693D01*
X350725Y22469D01*
X351616Y22291D01*
Y26417D01*
D02*
G37*
G36*
X344810Y26708D02*
X340684D01*
Y22582D01*
X341576Y22759D01*
X343409Y23984D01*
X344633Y25816D01*
X344810Y26708D01*
D02*
G37*
G36*
X338144D02*
X334019D01*
X334196Y25816D01*
X335420Y23984D01*
X337253Y22759D01*
X338144Y22582D01*
Y26708D01*
D02*
G37*
G36*
X358282Y26417D02*
X354156D01*
Y22291D01*
X355048Y22469D01*
X356880Y23693D01*
X358105Y25526D01*
X358282Y26417D01*
D02*
G37*
G36*
X305758Y14193D02*
X301388D01*
Y9823D01*
X305758D01*
Y14193D01*
D02*
G37*
G36*
X324970Y26856D02*
X320844D01*
X321022Y25965D01*
X322246Y24132D01*
X324078Y22908D01*
X324970Y22731D01*
Y26856D01*
D02*
G37*
G36*
X351616Y33083D02*
X350725Y32906D01*
X348892Y31681D01*
X347668Y29849D01*
X347490Y28957D01*
X351616D01*
Y33083D01*
D02*
G37*
G36*
X340684Y33374D02*
Y29248D01*
X344810D01*
X344633Y30139D01*
X343409Y31972D01*
X341576Y33196D01*
X340684Y33374D01*
D02*
G37*
G36*
X338144D02*
X337253Y33196D01*
X335420Y31972D01*
X334196Y30139D01*
X334019Y29248D01*
X338144D01*
Y33374D01*
D02*
G37*
G36*
X354156Y33083D02*
Y28957D01*
X358282D01*
X358105Y29849D01*
X356880Y31681D01*
X355048Y32906D01*
X354156Y33083D01*
D02*
G37*
G36*
X311793Y27149D02*
X307668D01*
X307845Y26258D01*
X309069Y24425D01*
X310902Y23201D01*
X311793Y23023D01*
Y27149D01*
D02*
G37*
G36*
X331636Y26856D02*
X327510D01*
Y22731D01*
X328402Y22908D01*
X330234Y24132D01*
X331459Y25965D01*
X331636Y26856D01*
D02*
G37*
G36*
X318459Y27149D02*
X314333D01*
Y23023D01*
X315225Y23201D01*
X317057Y24425D01*
X318282Y26258D01*
X318459Y27149D01*
D02*
G37*
G36*
X306015Y28467D02*
X301889D01*
Y24341D01*
X302780Y24518D01*
X304613Y25743D01*
X305837Y27576D01*
X306015Y28467D01*
D02*
G37*
G36*
X299349D02*
X295223D01*
X295400Y27576D01*
X296625Y25743D01*
X298457Y24518D01*
X299349Y24341D01*
Y28467D01*
D02*
G37*
G36*
X364329Y87831D02*
X352059D01*
Y87200D01*
X352089Y86860D01*
X352151Y86485D01*
X352239Y86160D01*
X352351Y85885D01*
X352489Y85660D01*
X352651Y85485D01*
X352839Y85360D01*
X353051Y85285D01*
X353289Y85260D01*
X352059D01*
Y80561D01*
X364329D01*
Y87831D01*
D02*
G37*
G36*
X349519D02*
X337249D01*
Y80561D01*
X349519D01*
Y85260D01*
X348289D01*
X348526Y85285D01*
X348739Y85360D01*
X348926Y85485D01*
X349089Y85660D01*
X349226Y85885D01*
X349339Y86160D01*
X349426Y86485D01*
X349489Y86860D01*
X349519Y87201D01*
Y87831D01*
D02*
G37*
G36*
X351000Y105822D02*
X350109Y105645D01*
X348276Y104420D01*
X347052Y102588D01*
X346874Y101696D01*
X351000D01*
Y105822D01*
D02*
G37*
G36*
X353540D02*
Y101696D01*
X357666D01*
X357489Y102588D01*
X356264Y104420D01*
X354432Y105645D01*
X353540Y105822D01*
D02*
G37*
G36*
X349464Y99156D02*
X346874D01*
X347052Y98264D01*
X348276Y96432D01*
X349535Y95591D01*
X349464Y99156D01*
D02*
G37*
G36*
X357666D02*
X353540D01*
Y95030D01*
X354432Y95208D01*
X356264Y96432D01*
X357489Y98264D01*
X357666Y99156D01*
D02*
G37*
G36*
X349870Y95367D02*
X350109Y95208D01*
X351000Y95030D01*
Y95194D01*
X349870Y95367D01*
D02*
G37*
G36*
X351000Y99156D02*
X349983D01*
X351000Y98724D01*
Y99156D01*
D02*
G37*
G36*
X322355Y53609D02*
Y49483D01*
X326481D01*
X326303Y50375D01*
X325079Y52207D01*
X323246Y53432D01*
X322355Y53609D01*
D02*
G37*
G36*
X319815D02*
X318923Y53432D01*
X317091Y52207D01*
X315866Y50375D01*
X315689Y49483D01*
X319815D01*
Y53609D01*
D02*
G37*
G36*
X349519Y56831D02*
X337249D01*
Y49561D01*
X349519D01*
Y56831D01*
D02*
G37*
G36*
Y78021D02*
X337249D01*
Y70752D01*
X349519D01*
Y78021D01*
D02*
G37*
G36*
X518079Y232967D02*
X513709D01*
Y228597D01*
X518079D01*
Y232967D01*
D02*
G37*
G36*
X506747Y210019D02*
X505856Y209841D01*
X504023Y208617D01*
X502799Y206784D01*
X502369Y204623D01*
Y201293D01*
X506747D01*
Y210019D01*
D02*
G37*
G36*
Y198753D02*
X502369D01*
Y195423D01*
X502799Y193261D01*
X504023Y191429D01*
X505856Y190204D01*
X506747Y190027D01*
Y198753D01*
D02*
G37*
G36*
X107572Y174490D02*
X103446D01*
X103624Y173598D01*
X104848Y171766D01*
X106681Y170541D01*
X107572Y170364D01*
Y174490D01*
D02*
G37*
G36*
X121710Y174617D02*
X117584D01*
Y170491D01*
X118476Y170668D01*
X120309Y171893D01*
X121533Y173725D01*
X121710Y174617D01*
D02*
G37*
G36*
X67010Y171847D02*
X62640D01*
Y167477D01*
X67010D01*
Y171847D01*
D02*
G37*
G36*
Y178757D02*
X62640D01*
Y174387D01*
X67010D01*
Y178757D01*
D02*
G37*
G36*
X188739Y14349D02*
X177528D01*
X177792Y12345D01*
X179056Y9295D01*
X181066Y6675D01*
X183685Y4665D01*
X186736Y3401D01*
X188739Y3138D01*
Y14349D01*
D02*
G37*
G36*
X566200Y338603D02*
X561830D01*
Y334233D01*
X566200D01*
Y338603D01*
D02*
G37*
G36*
Y294765D02*
X561830D01*
Y290395D01*
X566200D01*
Y292344D01*
X566064Y292565D01*
X565902Y292740D01*
X565714Y292865D01*
X565502Y292940D01*
X565264Y292965D01*
X566200D01*
Y294765D01*
D02*
G37*
G36*
X510179Y260317D02*
X505809D01*
Y255947D01*
X510179D01*
Y260317D01*
D02*
G37*
G36*
X542006Y262553D02*
Y258428D01*
X546132D01*
X545955Y259319D01*
X544730Y261152D01*
X542898Y262376D01*
X542006Y262553D01*
D02*
G37*
G36*
X481129Y323167D02*
X476759D01*
Y318797D01*
X481129D01*
Y323167D01*
D02*
G37*
G36*
X70231Y77960D02*
X66105D01*
Y73834D01*
X66997Y74011D01*
X68829Y75236D01*
X70054Y77068D01*
X70231Y77960D01*
D02*
G37*
G36*
X63565D02*
X59439D01*
X59617Y77068D01*
X60841Y75236D01*
X62674Y74011D01*
X63565Y73834D01*
Y77960D01*
D02*
G37*
G36*
X385656Y309317D02*
X378136D01*
Y304547D01*
X383055D01*
Y305777D01*
X383081Y305539D01*
X383157Y305326D01*
X383283Y305139D01*
X383460Y304977D01*
X383688Y304839D01*
X383966Y304727D01*
X384295Y304639D01*
X384675Y304576D01*
X385018Y304547D01*
X385656D01*
Y309317D01*
D02*
G37*
G36*
X426904Y281150D02*
X410904D01*
Y255150D01*
X422765D01*
X423648Y254073D01*
X427971D01*
Y258405D01*
X426904Y259282D01*
Y281150D01*
D02*
G37*
G36*
X385656Y302007D02*
X385020D01*
X384675Y301977D01*
X384295Y301914D01*
X383966Y301826D01*
X383688Y301714D01*
X383460Y301576D01*
X383283Y301414D01*
X383157Y301227D01*
X383081Y301014D01*
X383055Y300777D01*
Y302007D01*
X378136D01*
Y297236D01*
X385656D01*
Y302007D01*
D02*
G37*
G36*
X411664D02*
X406745D01*
Y300777D01*
X406720Y301014D01*
X406644Y301227D01*
X406517Y301414D01*
X406340Y301576D01*
X406113Y301714D01*
X405834Y301826D01*
X405505Y301914D01*
X405126Y301977D01*
X404780Y302007D01*
X404144D01*
Y297236D01*
X411664D01*
Y302007D01*
D02*
G37*
G36*
X446884Y281165D02*
X430884D01*
Y259126D01*
X430512Y258821D01*
Y254073D01*
X434819D01*
X435715Y255165D01*
X446884D01*
Y281165D01*
D02*
G37*
G36*
X386909Y281155D02*
X370909D01*
Y255155D01*
X386909D01*
Y281155D01*
D02*
G37*
G36*
X406917D02*
X390917D01*
Y255155D01*
X406917D01*
Y281155D01*
D02*
G37*
G36*
X421724Y302007D02*
X414204D01*
Y297236D01*
X421724D01*
Y302007D01*
D02*
G37*
G36*
X56736Y311560D02*
Y307434D01*
X57271D01*
Y308560D01*
X57578Y308342D01*
X57891Y308147D01*
X58209Y307976D01*
X58533Y307826D01*
X58862Y307701D01*
X59197Y307597D01*
X59538Y307517D01*
X59884Y307460D01*
X60148Y307434D01*
X60862D01*
X60684Y308326D01*
X59460Y310158D01*
X57628Y311383D01*
X56736Y311560D01*
D02*
G37*
G36*
X67320Y310513D02*
X64989D01*
Y306143D01*
X69359D01*
Y308474D01*
X68992Y308218D01*
X68550Y307865D01*
X67560Y306945D01*
X65792Y308713D01*
X66287Y309226D01*
X67065Y310145D01*
X67320Y310513D01*
D02*
G37*
G36*
X69359D02*
X69296D01*
X69359Y310449D01*
Y310513D01*
D02*
G37*
G36*
X112742Y248610D02*
X103472D01*
Y241172D01*
X103608Y241195D01*
X104262Y241370D01*
X104815Y241595D01*
X105268Y241870D01*
X105620Y242195D01*
X105872Y242570D01*
X106023Y242995D01*
X106073Y243470D01*
Y239740D01*
X112742D01*
Y248610D01*
D02*
G37*
G36*
X78688Y44587D02*
X74563D01*
Y40461D01*
X75454Y40639D01*
X77287Y41863D01*
X78511Y43696D01*
X78688Y44587D01*
D02*
G37*
G36*
X124552Y237200D02*
X123921D01*
X123581Y237170D01*
X123207Y237107D01*
X122881Y237020D01*
X122606Y236907D01*
X122381Y236770D01*
X122206Y236607D01*
X122081Y236420D01*
X122007Y236207D01*
X121981Y235970D01*
Y237200D01*
X120021D01*
X116483Y236965D01*
X116161Y236888D01*
X115926Y236799D01*
X115779Y236701D01*
Y237200D01*
X115282D01*
Y228330D01*
X124552D01*
Y237200D01*
D02*
G37*
G36*
X77988Y123978D02*
X77288D01*
Y120708D01*
X80558D01*
Y123744D01*
X80418Y123743D01*
X78738Y123630D01*
X78468Y123579D01*
X78258Y123518D01*
X78108Y123447D01*
X78018Y123367D01*
X77988Y123278D01*
Y123978D01*
D02*
G37*
G36*
X112742Y237200D02*
X106073D01*
Y233470D01*
X106023Y233945D01*
X105872Y234370D01*
X105620Y234745D01*
X105268Y235070D01*
X104815Y235345D01*
X104262Y235570D01*
X103608Y235745D01*
X103472Y235767D01*
Y228330D01*
X112742D01*
Y237200D01*
D02*
G37*
G36*
X95566D02*
X88866D01*
Y228330D01*
X98136D01*
Y235765D01*
X98015Y235745D01*
X97366Y235570D01*
X96816Y235345D01*
X96365Y235070D01*
X96016Y234745D01*
X95765Y234370D01*
X95616Y233945D01*
X95566Y233470D01*
Y237200D01*
D02*
G37*
G36*
X86326D02*
X77056D01*
Y228330D01*
X86326D01*
Y237200D01*
D02*
G37*
G36*
X124552Y248610D02*
X115282D01*
Y239740D01*
X115779D01*
Y240238D01*
X115926Y240140D01*
X116161Y240052D01*
X116483Y239974D01*
X116892Y239906D01*
X117971Y239803D01*
X119812Y239740D01*
X121981D01*
Y240970D01*
X122007Y240732D01*
X122081Y240520D01*
X122206Y240332D01*
X122381Y240170D01*
X122606Y240032D01*
X122881Y239920D01*
X123207Y239832D01*
X123581Y239770D01*
X123921Y239740D01*
X124552D01*
Y248610D01*
D02*
G37*
G36*
X80558Y129788D02*
X77288D01*
Y126518D01*
X77988D01*
Y127217D01*
X78018Y127128D01*
X78108Y127048D01*
X78258Y126978D01*
X78468Y126917D01*
X78738Y126865D01*
X79068Y126823D01*
X79908Y126766D01*
X80558Y126755D01*
Y129788D01*
D02*
G37*
G36*
X94338Y144239D02*
X86818D01*
Y139469D01*
X94338D01*
Y144239D01*
D02*
G37*
G36*
Y136929D02*
X86818D01*
Y134729D01*
X88548D01*
X88263Y134699D01*
X88008Y134609D01*
X87783Y134459D01*
X87588Y134249D01*
X87423Y133979D01*
X87288Y133649D01*
X87183Y133259D01*
X87108Y132809D01*
X87063Y132299D01*
X87059Y132159D01*
X94338D01*
Y136929D01*
D02*
G37*
G36*
X136430Y102200D02*
X132060D01*
Y97830D01*
X136430D01*
Y102200D01*
D02*
G37*
G36*
X119130Y134953D02*
X116789Y134487D01*
X114804Y133161D01*
X113478Y131177D01*
X113012Y128836D01*
X113478Y126495D01*
X114804Y124510D01*
X116789Y123184D01*
X119130Y122718D01*
X121471Y123184D01*
X123456Y124510D01*
X124782Y126495D01*
X125247Y128836D01*
X124782Y131177D01*
X123456Y133161D01*
X121471Y134487D01*
X119130Y134953D01*
D02*
G37*
G36*
X195420Y63687D02*
Y59561D01*
X199545D01*
X199368Y60452D01*
X198144Y62285D01*
X196311Y63509D01*
X195420Y63687D01*
D02*
G37*
G36*
X192880D02*
X191988Y63509D01*
X190155Y62285D01*
X188931Y60452D01*
X188754Y59561D01*
X192880D01*
Y63687D01*
D02*
G37*
G36*
X225411Y57119D02*
X221285D01*
Y52994D01*
X222176Y53171D01*
X224009Y54395D01*
X225233Y56228D01*
X225411Y57119D01*
D02*
G37*
G36*
X109753Y288017D02*
X107412Y287552D01*
X105427Y286226D01*
X104101Y284241D01*
X103635Y281900D01*
X104101Y279559D01*
X105427Y277574D01*
X107412Y276248D01*
X109753Y275782D01*
X112094Y276248D01*
X114079Y277574D01*
X115405Y279559D01*
X115870Y281900D01*
X115405Y284241D01*
X114079Y286226D01*
X112094Y287552D01*
X109753Y288017D01*
D02*
G37*
G36*
X218745Y57119D02*
X214619D01*
X214796Y56228D01*
X216021Y54395D01*
X217853Y53171D01*
X218745Y52994D01*
Y57119D01*
D02*
G37*
G36*
X199545Y57021D02*
X195420D01*
Y52895D01*
X196311Y53072D01*
X198144Y54297D01*
X199368Y56129D01*
X199545Y57021D01*
D02*
G37*
G36*
X58444Y284088D02*
Y279962D01*
X58961D01*
X58928Y281125D01*
X59228Y280922D01*
X59536Y280740D01*
X59850Y280580D01*
X60171Y280441D01*
X60499Y280323D01*
X60835Y280227D01*
X61177Y280152D01*
X61526Y280098D01*
X61883Y280066D01*
X62246Y280056D01*
X62250Y279962D01*
X62570D01*
X62392Y280853D01*
X61168Y282686D01*
X59335Y283910D01*
X58444Y284088D01*
D02*
G37*
G36*
X218745Y63785D02*
X217853Y63608D01*
X216021Y62384D01*
X214796Y60551D01*
X214619Y59660D01*
X218745D01*
Y63785D01*
D02*
G37*
G36*
X221285D02*
Y59660D01*
X225411D01*
X225233Y60551D01*
X224009Y62384D01*
X222176Y63608D01*
X221285Y63785D01*
D02*
G37*
G36*
X55904Y284088D02*
X55012Y283910D01*
X53180Y282686D01*
X51955Y280853D01*
X51778Y279962D01*
X55904D01*
Y284088D01*
D02*
G37*
G36*
X447019Y336437D02*
X442893D01*
X443071Y335545D01*
X444295Y333713D01*
X446128Y332488D01*
X447019Y332311D01*
Y336437D01*
D02*
G37*
G36*
X453685D02*
X449559D01*
Y332311D01*
X450451Y332488D01*
X452283Y333713D01*
X453508Y335545D01*
X453685Y336437D01*
D02*
G37*
G36*
X420939Y336184D02*
X416813D01*
X416990Y335292D01*
X418215Y333460D01*
X420047Y332235D01*
X420939Y332058D01*
Y336184D01*
D02*
G37*
G36*
X427605D02*
X423479D01*
Y332058D01*
X424371Y332235D01*
X426203Y333460D01*
X427427Y335292D01*
X427605Y336184D01*
D02*
G37*
G36*
X440521Y336060D02*
X436395D01*
Y331935D01*
X437286Y332112D01*
X439119Y333336D01*
X440343Y335169D01*
X440521Y336060D01*
D02*
G37*
G36*
X433855D02*
X429729D01*
X429906Y335169D01*
X431131Y333336D01*
X432963Y332112D01*
X433855Y331935D01*
Y336060D01*
D02*
G37*
G36*
Y342726D02*
X432963Y342549D01*
X431131Y341325D01*
X429906Y339492D01*
X429729Y338601D01*
X433855D01*
Y342726D01*
D02*
G37*
G36*
X436395D02*
Y338601D01*
X440521D01*
X440343Y339492D01*
X439119Y341325D01*
X437286Y342549D01*
X436395Y342726D01*
D02*
G37*
G36*
X420939Y342850D02*
X420047Y342672D01*
X418215Y341448D01*
X416990Y339615D01*
X416813Y338724D01*
X420939D01*
Y342850D01*
D02*
G37*
G36*
X449559Y343103D02*
Y338977D01*
X453685D01*
X453508Y339868D01*
X452283Y341701D01*
X450451Y342925D01*
X449559Y343103D01*
D02*
G37*
G36*
X423479Y342850D02*
Y338724D01*
X427605D01*
X427427Y339615D01*
X426203Y341448D01*
X424371Y342672D01*
X423479Y342850D01*
D02*
G37*
G36*
X447019Y343103D02*
X446128Y342925D01*
X444295Y341701D01*
X443071Y339868D01*
X442893Y338977D01*
X447019D01*
Y343103D01*
D02*
G37*
G36*
X31947Y332865D02*
X24977D01*
Y327846D01*
X26207D01*
X25969Y327820D01*
X25757Y327744D01*
X25569Y327618D01*
X25407Y327441D01*
X25269Y327213D01*
X25157Y326935D01*
X25069Y326606D01*
X25007Y326226D01*
X24977Y325882D01*
Y325245D01*
X31947D01*
Y332865D01*
D02*
G37*
G36*
X10718Y226612D02*
X6592D01*
X6769Y225721D01*
X7993Y223888D01*
X9826Y222664D01*
X10718Y222486D01*
Y226612D01*
D02*
G37*
G36*
Y233278D02*
X9826Y233101D01*
X7993Y231876D01*
X6769Y230044D01*
X6592Y229152D01*
X10718D01*
Y233278D01*
D02*
G37*
G36*
X22437Y343025D02*
X15467D01*
Y335405D01*
X22437D01*
Y343025D01*
D02*
G37*
G36*
X31947D02*
X24977D01*
Y335405D01*
X31947D01*
Y343025D01*
D02*
G37*
G36*
Y323213D02*
X24977D01*
Y322582D01*
X25007Y322242D01*
X25069Y321867D01*
X25157Y321542D01*
X25269Y321267D01*
X25407Y321042D01*
X25569Y320867D01*
X25757Y320742D01*
X25969Y320667D01*
X26207Y320642D01*
X24977D01*
Y315593D01*
X31947D01*
Y323213D01*
D02*
G37*
G36*
X301297Y327739D02*
X296927D01*
Y323369D01*
X298696D01*
Y323854D01*
X298714Y323758D01*
X298767Y323672D01*
X298857Y323596D01*
X298982Y323531D01*
X299142Y323475D01*
X299339Y323429D01*
X299571Y323394D01*
X299839Y323369D01*
X299845Y323369D01*
X301297D01*
Y327739D01*
D02*
G37*
G36*
X341386Y229025D02*
Y224899D01*
X345512D01*
X345335Y225790D01*
X344110Y227623D01*
X342278Y228847D01*
X341386Y229025D01*
D02*
G37*
G36*
X338846D02*
X337954Y228847D01*
X336122Y227623D01*
X334897Y225790D01*
X334720Y224899D01*
X335434D01*
X335698Y224925D01*
X336044Y224982D01*
X336385Y225062D01*
X336720Y225165D01*
X337049Y225291D01*
X337373Y225440D01*
X337691Y225612D01*
X338004Y225807D01*
X338311Y226025D01*
Y224899D01*
X338846D01*
Y229025D01*
D02*
G37*
G36*
X345512Y222359D02*
X341386D01*
Y218233D01*
X342278Y218410D01*
X344110Y219635D01*
X345335Y221467D01*
X345512Y222359D01*
D02*
G37*
G36*
X338846D02*
X338311D01*
Y221233D01*
X338004Y221451D01*
X337691Y221645D01*
X337373Y221817D01*
X337049Y221966D01*
X336720Y222092D01*
X336385Y222195D01*
X336044Y222276D01*
X335698Y222333D01*
X335434Y222359D01*
X334720D01*
X334897Y221467D01*
X336122Y219635D01*
X337954Y218410D01*
X338846Y218233D01*
Y222359D01*
D02*
G37*
G36*
X321884Y241155D02*
X295884D01*
Y236861D01*
X292121D01*
Y238127D01*
X279921D01*
Y237667D01*
X278291D01*
Y232027D01*
Y228988D01*
X279360D01*
X279153Y228964D01*
X278968Y228893D01*
X278805Y228774D01*
X278663Y228608D01*
X278543Y228395D01*
X278445Y228135D01*
X278369Y227827D01*
X278315Y227471D01*
X278291Y227180D01*
Y226387D01*
X279921D01*
Y225927D01*
X292121D01*
Y229449D01*
X295884D01*
Y225155D01*
X321884D01*
Y241155D01*
D02*
G37*
G36*
X321871Y221155D02*
X295871D01*
Y205155D01*
X321871D01*
Y221155D01*
D02*
G37*
G36*
X291645Y245137D02*
X287275D01*
Y240767D01*
X291645D01*
Y245137D01*
D02*
G37*
G36*
X287292Y222956D02*
X284951Y222491D01*
X282966Y221164D01*
X281640Y219180D01*
X281175Y216839D01*
X281640Y214498D01*
X282966Y212513D01*
X284951Y211187D01*
X287292Y210721D01*
X289633Y211187D01*
X291618Y212513D01*
X292944Y214498D01*
X293410Y216839D01*
X292944Y219180D01*
X291618Y221164D01*
X289633Y222491D01*
X287292Y222956D01*
D02*
G37*
G36*
X291645Y252047D02*
X287275D01*
Y249715D01*
X287642Y249971D01*
X288085Y250325D01*
X289074Y251244D01*
X290842Y249476D01*
X290347Y248964D01*
X289569Y248044D01*
X289314Y247677D01*
X291645D01*
Y252047D01*
D02*
G37*
G36*
X307629Y251885D02*
X298960D01*
Y250655D01*
X298935Y250892D01*
X298859Y251105D01*
X298732Y251292D01*
X298555Y251455D01*
X298327Y251592D01*
X298049Y251705D01*
X297720Y251792D01*
X297341Y251855D01*
X296996Y251885D01*
X296359D01*
Y245615D01*
X307629D01*
Y251885D01*
D02*
G37*
G36*
X321439D02*
X310169D01*
Y245615D01*
X321439D01*
Y251885D01*
D02*
G37*
G36*
X287275Y247740D02*
Y247677D01*
X287338D01*
X287275Y247740D01*
D02*
G37*
%LPD*%
G36*
X298945Y231885D02*
X298932Y232005D01*
X298893Y232113D01*
X298828Y232209D01*
X298737Y232291D01*
X298620Y232361D01*
X298477Y232418D01*
X298308Y232463D01*
X298113Y232494D01*
X297891Y232513D01*
X297644Y232520D01*
Y233790D01*
X297891Y233796D01*
X298113Y233815D01*
X298308Y233847D01*
X298477Y233891D01*
X298620Y233948D01*
X298737Y234018D01*
X298828Y234101D01*
X298893Y234196D01*
X298932Y234304D01*
X298945Y234425D01*
Y231885D01*
D02*
G37*
G36*
X289073Y234304D02*
X289112Y234196D01*
X289177Y234101D01*
X289268Y234018D01*
X289385Y233948D01*
X289529Y233891D01*
X289697Y233847D01*
X289893Y233815D01*
X290114Y233796D01*
X290361Y233790D01*
Y232520D01*
X290114Y232513D01*
X289893Y232494D01*
X289697Y232463D01*
X289529Y232418D01*
X289385Y232361D01*
X289268Y232291D01*
X289177Y232209D01*
X289112Y232113D01*
X289073Y232005D01*
X289060Y231885D01*
Y234425D01*
X289073Y234304D01*
D02*
G37*
D10*
X491625Y34050D02*
D03*
Y43050D02*
D03*
X28581Y58556D02*
D03*
Y67556D02*
D03*
X71025Y88121D02*
D03*
Y97121D02*
D03*
X130790Y87560D02*
D03*
Y96560D02*
D03*
X82621Y96982D02*
D03*
Y87982D02*
D03*
X119276Y96808D02*
D03*
Y87808D02*
D03*
X16529Y67956D02*
D03*
Y58956D02*
D03*
X94505Y87755D02*
D03*
Y96755D02*
D03*
X16911Y33998D02*
D03*
Y24998D02*
D03*
X30089Y24907D02*
D03*
Y33907D02*
D03*
X106697Y87755D02*
D03*
Y96755D02*
D03*
X57789Y88668D02*
D03*
Y97668D02*
D03*
X519349Y218327D02*
D03*
Y227327D02*
D03*
X521308Y123169D02*
D03*
Y114169D02*
D03*
X532214Y228078D02*
D03*
Y219078D02*
D03*
X544312Y218572D02*
D03*
Y227572D02*
D03*
X533417Y114171D02*
D03*
Y123171D02*
D03*
X556026Y227257D02*
D03*
Y218258D02*
D03*
X545843Y122625D02*
D03*
Y113625D02*
D03*
X68441Y239630D02*
D03*
Y230630D02*
D03*
X56260Y230448D02*
D03*
Y239448D02*
D03*
D11*
X527813Y34103D02*
D03*
X509508Y34042D02*
D03*
D12*
X57393Y26126D02*
D03*
X57393Y32626D02*
D03*
Y39126D02*
D03*
X57393Y45626D02*
D03*
X57394Y52125D02*
D03*
Y58625D02*
D03*
X57394Y65125D02*
D03*
X113396Y65127D02*
D03*
X113396Y58627D02*
D03*
Y52127D02*
D03*
X113395Y45627D02*
D03*
X113395Y39127D02*
D03*
Y32627D02*
D03*
X113395Y26128D02*
D03*
D13*
X140161Y47767D02*
D03*
X149161D02*
D03*
X57367Y9886D02*
D03*
X66367D02*
D03*
X149369Y71499D02*
D03*
X140369D02*
D03*
X149551Y35731D02*
D03*
X140551D02*
D03*
X277021Y232027D02*
D03*
X286021D02*
D03*
X140369Y59307D02*
D03*
X149369D02*
D03*
X277021Y192766D02*
D03*
X286021D02*
D03*
X140161Y23747D02*
D03*
X149161D02*
D03*
X277021Y130427D02*
D03*
X286021D02*
D03*
X277021Y118598D02*
D03*
X286021D02*
D03*
X149551Y11855D02*
D03*
X140551D02*
D03*
X277021Y107059D02*
D03*
X286021D02*
D03*
X277021Y142111D02*
D03*
X286021D02*
D03*
X475161Y294003D02*
D03*
X466161D02*
D03*
X511449Y254677D02*
D03*
X520449D02*
D03*
X475161Y305831D02*
D03*
X466161D02*
D03*
X567797Y308590D02*
D03*
X576797D02*
D03*
X567797Y320419D02*
D03*
X576797D02*
D03*
X70067Y323830D02*
D03*
X79067D02*
D03*
X79629Y311783D02*
D03*
X70629D02*
D03*
X567470Y332963D02*
D03*
X576470D02*
D03*
X567470Y296035D02*
D03*
X576470D02*
D03*
X475489Y317527D02*
D03*
X466489D02*
D03*
X475489Y281811D02*
D03*
X466489D02*
D03*
X20862Y227807D02*
D03*
X29862D02*
D03*
X29509Y240299D02*
D03*
X20509D02*
D03*
X123804Y275058D02*
D03*
X132804D02*
D03*
X124219Y286586D02*
D03*
X133219D02*
D03*
X123804Y263374D02*
D03*
X132804D02*
D03*
X295657Y322099D02*
D03*
X286657D02*
D03*
X68280Y173117D02*
D03*
X77280D02*
D03*
X132866Y310110D02*
D03*
X123867D02*
D03*
X295149Y309907D02*
D03*
X286149D02*
D03*
X291118Y15463D02*
D03*
X300118D02*
D03*
X124219Y298270D02*
D03*
X133219D02*
D03*
X349068Y336311D02*
D03*
X340068D02*
D03*
X319185Y336167D02*
D03*
X328185D02*
D03*
X124219Y321638D02*
D03*
X133219D02*
D03*
X286005Y246407D02*
D03*
X277005D02*
D03*
X123439Y333574D02*
D03*
X132439D02*
D03*
X174960Y47284D02*
D03*
X183960D02*
D03*
D14*
X19796Y90515D02*
D03*
Y109515D02*
D03*
X39180Y90287D02*
D03*
Y109287D02*
D03*
D15*
X617237Y155996D02*
D03*
Y190371D02*
D03*
Y121621D02*
D03*
D16*
Y224745D02*
D03*
D17*
X509693Y55243D02*
D03*
X528693D02*
D03*
X509693Y75563D02*
D03*
X528693D02*
D03*
X23707Y334135D02*
D03*
X42707D02*
D03*
X23707Y314323D02*
D03*
X42707D02*
D03*
D18*
X248965Y56369D02*
D03*
X259867D02*
D03*
D19*
X308879Y113155D02*
D03*
X308881Y133155D02*
D03*
X308879Y153155D02*
D03*
X308886Y173155D02*
D03*
X308879Y193155D02*
D03*
X308871Y213155D02*
D03*
X308884Y233155D02*
D03*
X308899Y253155D02*
D03*
X468894D02*
D03*
X468901Y233155D02*
D03*
Y213155D02*
D03*
Y193155D02*
D03*
Y173155D02*
D03*
Y153155D02*
D03*
Y133155D02*
D03*
Y113155D02*
D03*
D20*
X338917Y268162D02*
D03*
X358917Y268155D02*
D03*
X378909D02*
D03*
X398917D02*
D03*
X418904Y268150D02*
D03*
X438884Y268165D02*
D03*
D21*
X508017Y145227D02*
D03*
X520717D02*
D03*
X533417D02*
D03*
X546117D02*
D03*
X508017Y200023D02*
D03*
X520717D02*
D03*
X533417D02*
D03*
X546117D02*
D03*
D22*
X432933Y312777D02*
D03*
X412934Y303277D02*
D03*
Y322277D02*
D03*
X396865Y312777D02*
D03*
X376866Y303277D02*
D03*
Y322277D02*
D03*
X65549Y147699D02*
D03*
X85548Y157199D02*
D03*
Y138199D02*
D03*
D23*
X552213Y273067D02*
D03*
Y285567D02*
D03*
Y298067D02*
D03*
Y310567D02*
D03*
X497213D02*
D03*
Y298067D02*
D03*
Y285567D02*
D03*
Y273067D02*
D03*
D24*
X524713Y291567D02*
D03*
D25*
X88257Y291047D02*
D03*
Y265047D02*
D03*
X78757D02*
D03*
X69257D02*
D03*
Y291047D02*
D03*
X44117D02*
D03*
Y265047D02*
D03*
X34617D02*
D03*
X25117D02*
D03*
Y291047D02*
D03*
D26*
X350789Y48291D02*
D03*
Y79291D02*
D03*
D27*
X365272Y63804D02*
D03*
D28*
X114012Y238470D02*
D03*
Y204270D02*
D03*
X87596Y238470D02*
D03*
Y204270D02*
D03*
D29*
X76018Y125248D02*
D03*
X67018D02*
D03*
D30*
X317681Y320331D02*
D03*
Y315329D02*
D03*
Y310331D02*
D03*
X317682Y305329D02*
D03*
X346682D02*
D03*
X346681Y310331D02*
D03*
Y315329D02*
D03*
Y320331D02*
D03*
D31*
X156935Y319470D02*
D03*
Y314470D02*
D03*
Y309470D02*
D03*
Y304470D02*
D03*
Y299470D02*
D03*
Y294471D02*
D03*
Y289471D02*
D03*
Y284471D02*
D03*
Y279471D02*
D03*
Y274471D02*
D03*
Y269471D02*
D03*
Y264471D02*
D03*
X240935D02*
D03*
Y269471D02*
D03*
Y274471D02*
D03*
Y279471D02*
D03*
Y284471D02*
D03*
Y289471D02*
D03*
Y294471D02*
D03*
Y299470D02*
D03*
Y304470D02*
D03*
Y309470D02*
D03*
Y314470D02*
D03*
Y319470D02*
D03*
D32*
X171435Y249970D02*
D03*
X176435D02*
D03*
X181435D02*
D03*
X186435D02*
D03*
X191435D02*
D03*
X196435D02*
D03*
X201435D02*
D03*
X206435D02*
D03*
X211435D02*
D03*
X216435D02*
D03*
X221435D02*
D03*
X226435D02*
D03*
Y333970D02*
D03*
X221435D02*
D03*
X216435D02*
D03*
X211435D02*
D03*
X206435D02*
D03*
X201435D02*
D03*
X196435D02*
D03*
X191435D02*
D03*
X186435D02*
D03*
X181435D02*
D03*
X176435D02*
D03*
X171435D02*
D03*
D33*
X266209Y15619D02*
D03*
X240809Y15619D02*
D03*
X215409Y15619D02*
D03*
X190009Y15619D02*
D03*
D34*
X527390Y254116D02*
X532378D01*
X286149Y312247D02*
X296000Y322099D01*
X261777Y255492D02*
X262508D01*
X347552Y256223D02*
X359772Y244003D01*
X451581D01*
X270349Y282834D02*
X344386D01*
X263187Y275671D02*
X270349Y282834D01*
X344386D02*
X347552Y279668D01*
Y256223D02*
Y279668D01*
X527813Y34103D02*
X569287D01*
X493210Y55243D02*
X509693D01*
X491625Y53657D02*
X493210Y55243D01*
X491625Y43050D02*
Y53657D01*
Y34050D02*
X491632Y34042D01*
X509508D01*
X257634Y275671D02*
X263187D01*
X472945Y269152D02*
X502358Y239739D01*
X461857Y269152D02*
X472945D01*
X248835Y284471D02*
X257634Y275671D01*
X240935Y284471D02*
X248835D01*
X67298Y229487D02*
X68441Y230630D01*
X56260Y239448D02*
Y247122D01*
X88257Y252195D02*
Y265047D01*
X85307Y249245D02*
X88257Y252195D01*
X80809Y197483D02*
X86397Y203071D01*
X87596Y204270D01*
X78249Y197483D02*
X80809D01*
X27957Y225423D02*
X36085Y217295D01*
X58437D01*
X78249Y197483D01*
X156935Y319470D02*
X166491D01*
X171435Y324414D02*
Y333970D01*
X240610Y319145D02*
X240935Y319470D01*
X156935Y279471D02*
X175259D01*
X178107Y282318D01*
X295149Y309907D02*
Y310004D01*
X317355D02*
X317681Y310331D01*
X346681Y320331D02*
X349068Y322717D01*
X206222Y250184D02*
X206435Y249970D01*
X341336Y305656D02*
X346355D01*
X338345Y308646D02*
X341336Y305656D01*
X317681Y320331D02*
X319185Y321835D01*
X317682Y305329D02*
X323764D01*
X328185Y309751D01*
X338345Y334589D02*
X340068Y336311D01*
X319185Y321835D02*
Y336167D01*
X349068Y322717D02*
Y336311D01*
X338345Y308646D02*
Y334589D01*
X328185Y309751D02*
Y336167D01*
X283989D02*
X319185D01*
X349068Y336311D02*
Y338001D01*
X131521Y39127D02*
X140161Y47767D01*
X113395Y39127D02*
X131521D01*
X123867Y310110D02*
Y311800D01*
X132866Y298622D02*
Y310110D01*
Y298622D02*
X133219Y298270D01*
X132838Y286205D02*
X133219Y286586D01*
X132804Y263374D02*
X132838Y263408D01*
X178107Y282318D02*
X178615Y281810D01*
X113395Y26128D02*
X122680D01*
X125070Y23737D01*
X113395Y32627D02*
X126316D01*
X132361Y9410D02*
X138107D01*
X140551Y11855D01*
X129255Y12516D02*
X132361Y9410D01*
X129255Y12516D02*
Y29688D01*
X126316Y32627D02*
X129255Y29688D01*
X106697Y96755D02*
X106896Y96953D01*
X113650Y51872D02*
X124696D01*
X113396Y52127D02*
X113650Y51872D01*
X94505Y70046D02*
Y87755D01*
Y70046D02*
X99424Y65127D01*
X113396D01*
X94505Y87755D02*
X106697D01*
X113396Y65127D02*
X124052D01*
X57128Y58359D02*
X57394Y58625D01*
X82312Y88292D02*
X82621Y87982D01*
Y56898D02*
Y87982D01*
X77849Y52125D02*
X82621Y56898D01*
X57394Y52125D02*
X77849D01*
X50141Y84203D02*
X54208Y88270D01*
X38952Y90515D02*
X39180Y90287D01*
X16911Y33998D02*
X18283Y32626D01*
X16911Y24998D02*
X18039Y26126D01*
X57367Y9886D02*
Y26100D01*
X57393Y26126D01*
X49910Y65125D02*
X53319D01*
X53412Y230448D02*
X56260D01*
X286021Y130427D02*
Y142111D01*
X296414Y133155D02*
X308881D01*
X293686Y130427D02*
X296414Y133155D01*
X286021Y130427D02*
X293686D01*
X292303Y108643D02*
X296814Y113155D01*
X308879D01*
X286021Y108643D02*
Y118598D01*
X286410Y193155D02*
X308879D01*
X286021Y192766D02*
X286410Y193155D01*
X287149Y233155D02*
X308884D01*
X286021Y232027D02*
X287149Y233155D01*
X532909Y200531D02*
Y218963D01*
Y200531D02*
X533417Y200023D01*
X532909Y218963D02*
X534849D01*
X542558Y226671D01*
X558645Y218963D02*
X558661Y218946D01*
X166491Y319470D02*
X168625Y321605D01*
X171435Y324414D01*
X513019Y341406D02*
X513133Y341292D01*
X513247Y341634D02*
X513361D01*
X513133Y341292D02*
Y341406D01*
X513361Y341634D01*
X514271Y342544D01*
X513133Y341292D02*
X513523Y340902D01*
X466489Y317527D02*
Y324352D01*
X456911Y303253D02*
X466161Y294003D01*
X456911Y303253D02*
Y326126D01*
X497213Y310567D02*
Y313484D01*
X405091Y330120D02*
X412934Y322277D01*
X367210Y330120D02*
X405091D01*
X367875Y322277D02*
X376866D01*
X344483Y342586D02*
X349068Y338001D01*
X364973Y319374D02*
X367875Y322277D01*
X346681Y315329D02*
X353021D01*
X361163Y324072D02*
X367210Y330120D01*
X273043Y130427D02*
X277021D01*
Y118598D02*
Y119737D01*
X266466Y130292D02*
X277021Y119737D01*
X270276Y133194D02*
X273043Y130427D01*
X277021Y170667D02*
Y192766D01*
Y142111D02*
Y156152D01*
Y170667D02*
X284279Y163409D01*
X533963Y113625D02*
X545843D01*
X533417Y114171D02*
X533963Y113625D01*
X514542Y119244D02*
X519585Y114201D01*
X533417Y133267D02*
Y145227D01*
Y133267D02*
X536069Y130615D01*
X550644D01*
X554146Y127113D01*
X546563Y112905D02*
X552857D01*
X545843Y113625D02*
X546563Y112905D01*
X514542Y119244D02*
Y167600D01*
X524112Y177169D01*
X537518D02*
X546117Y185769D01*
X524112Y177169D02*
X537518D01*
X546117Y185769D02*
Y200023D01*
X554146Y114194D02*
Y127113D01*
X552857Y112905D02*
X554146Y114194D01*
X557386Y226671D02*
X558661Y227946D01*
X396865Y312777D02*
X418209D01*
X425743Y320310D01*
X216435Y249970D02*
Y263452D01*
X176435Y249970D02*
Y262815D01*
X176662Y263042D01*
X156610Y289795D02*
X156935Y289471D01*
X133219Y298270D02*
X138696D01*
X147171Y289795D01*
X156610D01*
X459628Y277981D02*
X464284Y273326D01*
X459628Y277981D02*
Y293004D01*
X453067Y299565D02*
X459628Y293004D01*
X449257Y296882D02*
X455818Y290321D01*
X432933Y312777D02*
X446305D01*
X449257Y309825D01*
Y296882D02*
Y309825D01*
X425743Y320310D02*
X446780D01*
X453067Y314023D01*
Y299565D02*
Y314023D01*
X455818Y275191D02*
Y290321D01*
X113396Y58627D02*
X124155D01*
X147111Y4811D02*
X149551Y7252D01*
Y11855D01*
X125070Y10274D02*
Y23737D01*
Y10274D02*
X130533Y4811D01*
X147111D01*
X124155Y58627D02*
X125279Y59750D01*
Y63900D01*
X124052Y65127D02*
X125279Y63900D01*
X113395Y45627D02*
X126690D01*
X140369Y59307D01*
X19796Y90515D02*
X38952D01*
X46381Y58359D02*
X57128D01*
X44848Y59892D02*
X46381Y58359D01*
X44848Y59892D02*
Y63725D01*
X46248Y65125D01*
X49910D01*
X17009Y76696D02*
X19796Y79482D01*
X17009Y68437D02*
Y76696D01*
X16529Y67956D02*
X17009Y68437D01*
X19796Y79482D02*
Y90515D01*
X18838Y35926D02*
Y44476D01*
X16911Y33998D02*
X18838Y35926D01*
X16529Y46786D02*
Y58956D01*
Y46786D02*
X18838Y44476D01*
X56337Y40182D02*
X57393Y39126D01*
X28581Y42758D02*
Y58556D01*
Y42758D02*
X31157Y40182D01*
X56337D01*
X118237Y87953D02*
X118731Y87459D01*
X113001Y96627D02*
X113327Y96953D01*
X113001Y79388D02*
Y96627D01*
X106896Y96953D02*
X113327D01*
X118237D01*
X137340Y71499D02*
X140369D01*
X137312Y71470D02*
X137340Y71499D01*
X149369D02*
X156206D01*
X156412Y71293D01*
X157049D01*
X113001Y79388D02*
X114472Y77918D01*
Y74824D02*
Y77918D01*
X132804Y254345D02*
Y263374D01*
Y254345D02*
X137179Y249970D01*
X171435D01*
X176435Y322793D02*
Y333970D01*
X181435Y323316D02*
Y333970D01*
X186435Y323704D02*
Y333970D01*
X195595Y304771D02*
Y309156D01*
X216110Y323409D02*
Y332589D01*
X216435Y332914D01*
Y333970D01*
X191435Y324994D02*
Y333970D01*
X186435Y323704D02*
X203948Y306191D01*
X240610Y289795D02*
X240935Y289471D01*
X231565Y289795D02*
X240610D01*
X262881Y300649D02*
X268807Y294724D01*
X240935Y309470D02*
X241260Y309795D01*
X226435Y333970D02*
Y335605D01*
X206506Y311859D02*
X210123Y308241D01*
X206228Y319650D02*
X206963D01*
X212870Y278929D02*
X219251D01*
X226435Y271745D01*
Y335605D02*
X232630Y341799D01*
X266466Y130292D02*
Y229554D01*
X270276Y133194D02*
Y232374D01*
X266181Y246407D02*
X277005D01*
X265985Y246603D02*
X266181Y246407D01*
X263885Y292825D02*
X265796Y290914D01*
X270515Y312488D02*
X280659Y302344D01*
X281668Y333846D02*
X283989Y336167D01*
X281668Y333049D02*
Y333846D01*
X280199Y342586D02*
X344483D01*
X261703Y300649D02*
X262881D01*
X240935Y314470D02*
X250246D01*
X241260Y309795D02*
X250959D01*
X261896Y309189D02*
X272552Y298534D01*
X271096Y333484D02*
X280199Y342586D01*
X215409Y15619D02*
X215779D01*
X217377Y17216D01*
X263428Y107059D02*
X277021D01*
X258793Y102424D02*
X263428Y107059D01*
X258793Y57442D02*
Y102424D01*
Y57442D02*
X259867Y56369D01*
X204570Y311859D02*
X206506D01*
X191435Y324994D02*
X204570Y311859D01*
X203948Y305684D02*
Y306191D01*
X208458Y297999D02*
X210123Y296334D01*
X212020Y278079D02*
X212870Y278929D01*
X212020Y278029D02*
Y278079D01*
X210374Y269199D02*
Y270660D01*
X226435Y249970D02*
Y271745D01*
X250562Y245458D02*
X266466Y229554D01*
X265557Y246603D02*
X265985D01*
X216435Y263452D02*
X219145Y266162D01*
X235847Y259382D02*
X240935Y264471D01*
X235847Y252990D02*
Y259382D01*
X248197Y254453D02*
X270276Y232374D01*
X245237Y245458D02*
X250562D01*
X115545Y266102D02*
X121075D01*
X123804Y263374D01*
X497213Y313484D02*
X499034Y315305D01*
X56260Y247122D02*
X58334Y249196D01*
X69010D01*
X69059Y249245D01*
X85307D01*
X240935Y279471D02*
X241260Y279146D01*
X249750D01*
X261360Y255194D02*
X261777D01*
X314696Y302344D02*
X317682Y305329D01*
X267978Y323442D02*
X285313D01*
X265118Y320582D02*
X267978Y323442D01*
X285313D02*
X286657Y322099D01*
X124696Y51872D02*
X130353Y57530D01*
Y87459D01*
X519585Y114201D02*
X522131D01*
X546117Y200023D02*
Y218963D01*
X558645D01*
X118731Y87459D02*
X130353D01*
X140551Y11855D02*
Y35731D01*
X18039Y26126D02*
X57393D01*
X149551Y11855D02*
Y18411D01*
X286021Y108643D02*
X292303D01*
X132838Y263408D02*
Y286205D01*
X513019Y341406D02*
X513247Y341634D01*
X18283Y32626D02*
X57393D01*
X295149Y310004D02*
X317355D01*
X211435Y249970D02*
Y269599D01*
X210374Y270660D02*
X211435Y269599D01*
X339233Y298534D02*
X346355Y305656D01*
X542558Y226671D02*
X557386D01*
X579478Y287124D02*
X593367Y301014D01*
X579478Y244471D02*
Y287124D01*
X532214Y228078D02*
Y231928D01*
X554979Y233993D02*
X568838D01*
X569433Y234588D01*
X569595D01*
X579478Y244471D01*
X532214Y231928D02*
X534874Y234588D01*
X554384D01*
X554979Y233993D01*
X19796Y109515D02*
X39942D01*
X49910Y64922D02*
Y65125D01*
Y90425D01*
X54208Y88270D02*
X57944D01*
X58248Y88575D01*
X70573Y88292D02*
X82312D01*
X39942Y109515D02*
X49899Y99559D01*
Y90437D02*
Y99559D01*
X68685Y97121D02*
X71025D01*
X64835Y93272D02*
X68685Y97121D01*
X64835Y79230D02*
Y93272D01*
X520449Y254677D02*
X526254D01*
X547630Y244009D02*
X559362Y255740D01*
X555279Y239739D02*
X560438Y244898D01*
X455818Y275191D02*
X461857Y269152D01*
X464284Y273326D02*
X474810D01*
X504127Y244009D01*
X502358Y239739D02*
X555279D01*
X504127Y244009D02*
X547630D01*
X533658Y251751D02*
Y254116D01*
Y251303D02*
Y251751D01*
X456911Y326126D02*
X469255Y338470D01*
X466489Y324352D02*
X475532Y333395D01*
X469255Y338470D02*
X503049D01*
X498560Y315779D02*
X499034Y315305D01*
X498560Y315779D02*
Y319314D01*
X475532Y333395D02*
X502086D01*
X509236Y326245D01*
X539167D01*
X539874Y326952D01*
X503049Y338470D02*
X508640Y332880D01*
X526747D01*
X210658Y278929D02*
X212020D01*
X123867Y311800D02*
X133462Y321395D01*
X212020Y278929D02*
X212870D01*
X346070Y294724D02*
X356446Y305099D01*
Y311904D01*
X353021Y315329D02*
X356446Y311904D01*
X361163Y304428D02*
Y324072D01*
X263951Y284285D02*
X266769Y287104D01*
X349226D01*
X364973Y302850D01*
Y319374D01*
X265796Y290914D02*
X347648D01*
X361163Y304428D01*
X268807Y294724D02*
X346070D01*
X272552Y298534D02*
X339233D01*
X280659Y302344D02*
X314696D01*
X286149Y309907D02*
Y312247D01*
X296000Y322099D02*
X296160Y322258D01*
X532909Y227963D02*
Y228078D01*
X27957Y225423D02*
Y233043D01*
X250959Y309795D02*
X257002Y315838D01*
X253192Y317416D02*
Y320982D01*
X250246Y314470D02*
X253192Y317416D01*
X257002Y315838D02*
Y326399D01*
X247048Y327126D02*
X253192Y320982D01*
X232630Y341799D02*
X232671D01*
X212876Y320175D02*
X212876Y320175D01*
X212876Y320175D02*
X216110Y323409D01*
X206963Y319650D02*
X211435Y324122D01*
Y333970D01*
X212876Y314221D02*
Y320175D01*
X208340Y297999D02*
X208458D01*
X176435Y322793D02*
X187071Y312156D01*
X181435Y323316D02*
X195595Y309156D01*
X187071Y308373D02*
Y312156D01*
X253310Y263243D02*
X261360Y255194D01*
X253310Y263243D02*
Y275585D01*
X249750Y279146D02*
X253310Y275585D01*
X258385Y284285D02*
X263951D01*
X257450Y292825D02*
X263885D01*
X195408Y304584D02*
X195595Y304771D01*
X226889Y311052D02*
Y312605D01*
X232445Y294471D02*
X240935D01*
X227332Y299584D02*
X232445Y294471D01*
X227332Y299584D02*
X227480Y299732D01*
X221157Y304542D02*
Y305319D01*
X226889Y311052D01*
X227480Y299732D02*
Y302762D01*
X210123Y296334D02*
Y308241D01*
X221157Y304542D02*
X221305Y304394D01*
Y300056D02*
X231565Y289795D01*
X221305Y300056D02*
Y304394D01*
D35*
X190009Y15619D02*
Y27188D01*
X25117Y291047D02*
X42707Y308637D01*
Y314323D01*
Y334135D01*
X122881Y192911D02*
X124514D01*
X87596Y238470D02*
X114012D01*
X29509Y240299D02*
X29862Y239947D01*
Y227807D02*
Y239947D01*
X97553Y192911D02*
X104665D01*
X111269D01*
X42707Y334135D02*
X52415Y343843D01*
X146387D02*
X168625Y321605D01*
X132248Y343843D02*
X146387D01*
X289712Y56481D02*
X346386Y113155D01*
X261469Y56481D02*
X289712D01*
X509693Y55243D02*
Y75563D01*
X346386Y113155D02*
X468901D01*
X479155D01*
X92664Y343843D02*
X132248D01*
X479155Y113155D02*
X487887D01*
X509693Y91349D01*
Y75563D02*
Y91349D01*
X248965Y56369D02*
Y81707D01*
X196105Y101471D02*
X205850Y91726D01*
X238947D01*
X248965Y81707D01*
X189782Y27415D02*
X190009Y27188D01*
X52415Y343843D02*
X92664D01*
X178615Y290072D02*
Y311615D01*
X168625Y321605D02*
X178615Y311615D01*
D36*
X419760Y159728D02*
Y229731D01*
X411238Y238252D02*
X419760Y229731D01*
X347455Y238252D02*
X411238D01*
X321648Y264059D02*
X347455Y238252D01*
X429241Y252803D02*
Y298622D01*
X424587Y303277D02*
X429241Y298622D01*
X412934Y303277D02*
X424587D01*
X546117Y145227D02*
Y170114D01*
X479155Y113155D02*
X486605Y120604D01*
X283098Y264059D02*
X321648D01*
X274371Y255333D02*
X283098Y264059D01*
X200448Y268784D02*
X200648Y268584D01*
X419760Y159728D02*
X426333Y153155D01*
X468901D01*
X468894Y253155D02*
X474321D01*
X486605Y240871D01*
Y120604D02*
Y240871D01*
X91279Y110717D02*
X94505Y107491D01*
Y96755D02*
Y107491D01*
X82621Y96982D02*
Y107552D01*
X79457Y110717D02*
X82621Y107552D01*
X61560Y110717D02*
X79457D01*
X91279D01*
X28581Y67556D02*
X37180D01*
X37536Y67913D01*
X224338Y320591D02*
X237819D01*
Y332147D01*
X241606Y335933D01*
X261779D01*
X264307Y333405D01*
Y323494D02*
Y333405D01*
Y323494D02*
X265118Y322682D01*
Y320582D02*
Y322682D01*
X212020Y279778D02*
X216880Y284638D01*
X201056Y268784D02*
X206435Y263405D01*
Y249970D02*
Y263405D01*
X212020Y278079D02*
Y278929D01*
Y279778D01*
X92664Y343843D02*
X102672Y333835D01*
Y320052D02*
Y333835D01*
X290962Y15619D02*
X291118Y15463D01*
X520717Y200023D02*
Y216959D01*
X519349Y218327D02*
X520717Y216959D01*
Y189679D02*
Y200023D01*
X507506Y176468D02*
X520717Y189679D01*
X507506Y145738D02*
Y176468D01*
Y145738D02*
X508017Y145227D01*
Y111443D02*
Y145227D01*
Y111443D02*
X525313Y94147D01*
X561295D01*
X587851Y120704D01*
X603292D01*
X66367Y9886D02*
X77527D01*
X77754Y10114D01*
X563081Y269836D02*
X567764D01*
X559850Y273067D02*
X563081Y269836D01*
X552213Y273067D02*
X559850D01*
X567764Y270734D02*
Y295740D01*
X567470Y296035D02*
X567764Y295740D01*
X543213Y273067D02*
X552213D01*
X564249Y332963D02*
X567470D01*
X524713Y293427D02*
X564249Y332963D01*
X524713Y291567D02*
X537051Y279229D01*
X543213Y273067D02*
X551685Y264595D01*
X475489Y281811D02*
X494815Y262484D01*
X549575D01*
X551685Y264595D01*
X524713Y291567D02*
Y293427D01*
Y307307D01*
X286005Y246407D02*
X292753Y253155D01*
X308899D01*
X277021Y226618D02*
Y232027D01*
Y226618D02*
X280165Y223474D01*
X284325D01*
X284480Y223629D01*
X340116D01*
X340986Y222759D01*
X350789Y79291D02*
Y98944D01*
X352270Y100426D01*
X23707Y314323D02*
Y334135D01*
X17487D02*
X23707D01*
X11360Y328007D02*
X17487Y334135D01*
X15076Y314323D02*
X23707D01*
X11154Y310401D02*
X15076Y314323D01*
X12063Y227807D02*
X20862D01*
X11988Y227882D02*
X12063Y227807D01*
X66601Y241471D02*
X68441Y239630D01*
X66601Y241471D02*
Y242332D01*
X114012Y238470D02*
X140838D01*
X143699Y241330D01*
X123439Y322418D02*
Y333574D01*
Y322418D02*
X124219Y321638D01*
X70629Y311783D02*
Y323268D01*
X70067Y323830D02*
X70629Y323268D01*
X65010Y306164D02*
X70629Y311783D01*
X55466Y306164D02*
X65010D01*
X34617Y256820D02*
Y265047D01*
Y256820D02*
X38557Y252879D01*
X78757Y265047D02*
Y273783D01*
X73735Y278806D02*
X78757Y273783D01*
X57288Y278806D02*
X73735D01*
X57174Y278692D02*
X57288Y278806D01*
X262668Y255333D02*
X274371D01*
X262508Y255492D02*
X262668Y255333D01*
X307251Y315329D02*
X317681D01*
X300482Y322099D02*
X307251Y315329D01*
X278788Y317267D02*
X286149Y309907D01*
X277813Y317267D02*
X278788D01*
X376866Y303277D02*
X412934D01*
X528693Y55243D02*
Y66229D01*
Y75563D01*
X149551Y35731D02*
X149609Y35673D01*
X246948Y38424D02*
X254050D01*
X242405Y33881D02*
X246948Y38424D01*
X152359D02*
X212948D01*
X217491Y33881D01*
X242405D01*
X185882Y45838D02*
X188021Y43700D01*
X223779D01*
X200448Y268784D02*
X201056D01*
X143181Y284471D02*
X156935D01*
X143088Y284378D02*
X143181Y284471D01*
X589236Y246585D02*
Y246936D01*
X149161Y47767D02*
X173390D01*
X58248Y107405D02*
X61560Y110717D01*
X58248Y97575D02*
Y107405D01*
X546117Y170114D02*
X581076Y205073D01*
Y238425D01*
X589236Y246585D01*
X477393Y319039D02*
X484918Y326563D01*
X501656D01*
X507355Y305751D02*
Y320864D01*
X501656Y326563D02*
X507355Y320864D01*
X266209Y15619D02*
X290962D01*
X295657Y322099D02*
X296000D01*
X300482D01*
X584505Y190371D02*
X617237D01*
X562537Y168403D02*
X584505Y190371D01*
X554157Y103138D02*
X562537Y111518D01*
Y168403D01*
X149609Y35673D02*
X152359Y38424D01*
X219666Y315919D02*
X224338Y320591D01*
X216880Y284638D02*
Y302561D01*
X216732Y302709D02*
X216880Y302561D01*
X216732Y302709D02*
Y307152D01*
X219666Y310086D01*
Y315919D01*
D37*
X122953Y184275D02*
X126014Y187335D01*
X122953Y203071D02*
X126014Y200010D01*
X78249Y154303D02*
X80281Y152271D01*
X90441D01*
X78249Y198499D02*
X82821Y203071D01*
X86397D01*
X78249Y197483D02*
Y198499D01*
X101109Y184275D02*
X122953D01*
X95521Y157351D02*
Y178687D01*
X101109Y184275D01*
X78249Y154303D02*
Y197483D01*
X86397Y203071D02*
X122953D01*
X90441Y152271D02*
X95521Y157351D01*
X126014Y187335D02*
Y200010D01*
D38*
X69257Y291047D02*
X79067Y300856D01*
X68245Y227807D02*
X87596Y208456D01*
Y204270D02*
Y208456D01*
X69257Y256055D02*
Y265047D01*
X25117Y255187D02*
Y265047D01*
Y255187D02*
X29989Y250315D01*
X45737Y227807D02*
Y250315D01*
X178615Y281810D02*
Y290072D01*
X12720Y248088D02*
Y272669D01*
Y248088D02*
X20509Y240299D01*
X12720Y272669D02*
X17797Y277747D01*
X42181D01*
X44117Y275811D01*
Y265047D02*
Y275811D01*
X29862Y227807D02*
X45737D01*
X57625Y45857D02*
X73292D01*
X57393Y45626D02*
X57625Y45857D01*
X45060Y45626D02*
X57393D01*
X42917Y47769D02*
X45060Y45626D01*
X67018Y125248D02*
Y140926D01*
X67263Y141171D01*
X85548Y128135D02*
Y138199D01*
X82661Y125248D02*
X85548Y128135D01*
X76018Y125248D02*
X82661D01*
X520717Y123543D02*
Y145227D01*
X520671Y123497D02*
X520717Y123543D01*
X545283Y123497D02*
X545609Y123171D01*
X79067Y323830D02*
Y326762D01*
X85744Y333438D01*
X132439Y333574D02*
Y343652D01*
X132248Y343843D02*
X132439Y343652D01*
X144505Y319470D02*
X156935D01*
X141459Y322516D02*
X144505Y319470D01*
X134097Y322516D02*
X141459D01*
X133219Y321638D02*
X134097Y322516D01*
X466489Y306159D02*
Y317527D01*
X466161Y305831D02*
X466489Y306159D01*
X466161Y282138D02*
Y294003D01*
Y282138D02*
X466489Y281811D01*
X476057Y304935D02*
X485082D01*
X475161Y305831D02*
X476057Y304935D01*
X493559Y285567D02*
X497213D01*
X485122Y294003D02*
X493559Y285567D01*
X475161Y294003D02*
X485122D01*
X567797Y308590D02*
Y320419D01*
X576470Y320746D02*
X576797Y320419D01*
X576470Y296035D02*
X576797Y296362D01*
X552213Y298067D02*
X562737Y308590D01*
X567797D01*
X98796Y45627D02*
X113395D01*
X98483Y45314D02*
X98796Y45627D01*
X576668Y320945D02*
Y327618D01*
X533417Y107836D02*
Y114171D01*
Y107836D02*
X539175Y102078D01*
X553098D01*
X333585Y163409D02*
X346386Y150609D01*
Y113155D02*
Y150609D01*
X284279Y163409D02*
X333585D01*
X277021Y156152D02*
X284279Y163409D01*
X221435Y237894D02*
Y249970D01*
X41351Y47769D02*
X42917D01*
X182397Y278029D02*
X212020D01*
X178615Y281810D02*
X182397Y278029D01*
X553098Y102078D02*
X554157Y103138D01*
X491950Y298067D02*
X497213D01*
X485082Y304935D02*
X491950Y298067D01*
X45737Y250315D02*
X49293Y253871D01*
X67073D01*
X69257Y256055D01*
X221435Y237894D02*
X221602Y237727D01*
X520671Y123497D02*
X545283D01*
X576470Y320746D02*
X576668Y320945D01*
X79067Y300856D02*
Y323830D01*
X576797Y296362D02*
Y304187D01*
X29989Y235583D02*
Y250315D01*
X45737Y227807D02*
X68245D01*
D39*
X65295Y149477D02*
D03*
D40*
X182390Y100228D02*
D03*
D41*
X526547Y270208D02*
D03*
D42*
X510378Y256515D02*
D03*
D43*
X531782Y253709D02*
D03*
D44*
X479614Y321624D02*
D03*
D45*
X23479Y325878D02*
D03*
D46*
X20246Y308726D02*
D03*
D47*
X11349Y318486D02*
D03*
D48*
X64685Y175373D02*
D03*
D49*
X68084Y173580D02*
D03*
D50*
X66666Y307969D02*
D03*
D51*
X5832Y319110D02*
D03*
D52*
X164855Y94490D02*
D03*
X164713Y105810D02*
D03*
X179849Y101471D02*
D03*
X196105D02*
D03*
X107205Y158875D02*
D03*
X120413D02*
D03*
X97553Y192911D02*
D03*
X111269D02*
D03*
X122881D02*
D03*
X61993Y154811D02*
D03*
X62501Y144651D02*
D03*
X85744Y333438D02*
D03*
X102672Y320052D02*
D03*
X240557Y44464D02*
D03*
X254050Y38424D02*
D03*
X223779Y43700D02*
D03*
D53*
X71137Y154303D02*
D03*
Y144143D02*
D03*
X113809Y158875D02*
D03*
X104665Y192911D02*
D03*
X117365D02*
D03*
X56430Y190157D02*
D03*
Y197999D02*
D03*
X56552Y205901D02*
D03*
X64212Y190400D02*
D03*
X64453Y198118D02*
D03*
X429241Y252803D02*
D03*
X569287Y34103D02*
D03*
X451581Y244003D02*
D03*
X73292Y45857D02*
D03*
X98483Y45314D02*
D03*
X513523Y340902D02*
D03*
X526747Y332880D02*
D03*
X578127Y304187D02*
D03*
X576668Y327618D02*
D03*
X200648Y268584D02*
D03*
X176662Y263042D02*
D03*
X157075Y48057D02*
D03*
X41351Y47769D02*
D03*
X37536Y67913D02*
D03*
X137312Y71470D02*
D03*
X157049Y71293D02*
D03*
X149350Y18411D02*
D03*
X55969Y268381D02*
D03*
X72979Y333303D02*
D03*
X64178Y342844D02*
D03*
X109753Y281900D02*
D03*
X112611Y335463D02*
D03*
X114472Y74824D02*
D03*
X206228Y319650D02*
D03*
X287292Y216839D02*
D03*
X284376Y203717D02*
D03*
X270515Y312488D02*
D03*
X281668Y333049D02*
D03*
X261703Y300649D02*
D03*
X261896Y309189D02*
D03*
X271096Y333484D02*
D03*
X278974Y35055D02*
D03*
X217377Y17216D02*
D03*
X203948Y305684D02*
D03*
X212020Y278029D02*
D03*
X210374Y269199D02*
D03*
X265557Y246603D02*
D03*
X219145Y266162D02*
D03*
X235847Y252990D02*
D03*
X261777Y255194D02*
D03*
X90871Y61878D02*
D03*
X266209Y15619D02*
D03*
X119130Y128836D02*
D03*
X266443Y34409D02*
D03*
X248197Y254453D02*
D03*
X245237Y245458D02*
D03*
X115545Y266102D02*
D03*
X77754Y10114D02*
D03*
X539874Y326952D02*
D03*
X340116Y223629D02*
D03*
X352270Y100426D02*
D03*
X220015Y58390D02*
D03*
X11360Y328007D02*
D03*
X11154Y310401D02*
D03*
X11988Y227882D02*
D03*
X66601Y242332D02*
D03*
X221602Y237727D02*
D03*
X143699Y241330D02*
D03*
X56090Y297624D02*
D03*
X55466Y306164D02*
D03*
X38557Y252879D02*
D03*
X57174Y278692D02*
D03*
X116314Y175887D02*
D03*
X108842Y175760D02*
D03*
X194149Y58291D02*
D03*
X304480Y274181D02*
D03*
X277813Y317267D02*
D03*
X422209Y337454D02*
D03*
X435125Y337331D02*
D03*
X448289Y337707D02*
D03*
X528693Y66229D02*
D03*
X435946Y21586D02*
D03*
X339414Y27978D02*
D03*
X352886Y27687D02*
D03*
X326240Y28126D02*
D03*
X313063Y28419D02*
D03*
X300619Y29737D02*
D03*
X321085Y48213D02*
D03*
X189782Y27415D02*
D03*
X143088Y284378D02*
D03*
X593367Y301014D02*
D03*
X560438Y244898D02*
D03*
X64835Y79230D02*
D03*
X559362Y255740D02*
D03*
X527390Y251751D02*
D03*
X527583Y257557D02*
D03*
X533658Y251751D02*
D03*
X533874Y257493D02*
D03*
X540943Y251767D02*
D03*
X540736Y257157D02*
D03*
X498560Y319314D02*
D03*
X256508Y326399D02*
D03*
X247048Y327126D02*
D03*
X232671Y341799D02*
D03*
X212876Y314221D02*
D03*
X208340Y297999D02*
D03*
X187071Y308373D02*
D03*
X259485Y265801D02*
D03*
X258385Y284285D02*
D03*
X257450Y292825D02*
D03*
X195408Y304584D02*
D03*
X226889Y312605D02*
D03*
X227480Y302762D02*
D03*
D54*
X365445Y63703D02*
D03*
X607742Y150375D02*
D03*
X603292Y120704D02*
D03*
X630839Y223650D02*
D03*
X604919Y189184D02*
D03*
X190012Y15621D02*
D03*
X214748Y16088D02*
D03*
X240809Y15619D02*
D03*
D55*
X265118Y320582D02*
D03*
X589236Y246936D02*
D03*
M02*
