G04 Layer_Color=32896*
%FSLAX44Y44*%
%MOMM*%
G71*
G01*
G75*
%ADD34C,0.1270*%
%ADD35C,0.5000*%
%ADD37C,0.2000*%
%ADD58C,0.2540*%
%ADD86C,0.1524*%
%ADD89C,0.1000*%
%ADD92R,2.3876X0.4572*%
G36*
X294980Y321142D02*
X288130Y317292D01*
Y324912D01*
X294980Y321142D01*
D02*
G37*
G36*
X272505Y321757D02*
Y342077D01*
X292825D01*
X272505Y321757D01*
D02*
G37*
D34*
X281445Y13147D02*
X571445D01*
Y333147D01*
X291515D02*
X571445D01*
X281445Y323077D02*
X291515Y333147D01*
X281445Y13147D02*
Y323077D01*
X120777Y231244D02*
X127479Y231255D01*
X108458Y231367D02*
X115482Y231378D01*
X120903Y221233D02*
X127479Y221244D01*
X108458Y221210D02*
X114939Y221221D01*
X108458Y221210D02*
Y231367D01*
X127479Y221244D02*
Y231255D01*
X155190Y243855D02*
X155202Y237153D01*
X155313Y256174D02*
X155325Y249150D01*
X145179Y243729D02*
X145190Y237153D01*
X145156Y256174D02*
X145167Y249693D01*
X145156Y256174D02*
X155313D01*
X145190Y237153D02*
X155202D01*
X157108Y256166D02*
X157120Y249464D01*
X156985Y244169D02*
X156997Y237145D01*
X167120Y256166D02*
X167131Y249590D01*
X167143Y243626D02*
X167154Y237145D01*
X156997D02*
X167154D01*
X157108Y256166D02*
X167120D01*
X179236Y314379D02*
X185937Y314391D01*
X191232Y314256D02*
X198256Y314268D01*
X179236Y324391D02*
X185811Y324402D01*
X191776Y324414D02*
X198256Y324425D01*
Y314268D02*
Y324425D01*
X179236Y314379D02*
Y324391D01*
X194912Y270801D02*
X194923Y264099D01*
X195034Y283120D02*
X195046Y276096D01*
X184900Y270675D02*
X184912Y264099D01*
X184877Y283120D02*
X184889Y276639D01*
X184877Y283120D02*
X195034D01*
X184912Y264099D02*
X194923D01*
X117167Y127756D02*
X123868Y127768D01*
X104848Y127879D02*
X111872Y127891D01*
X117292Y117745D02*
X123868Y117756D01*
X104848Y117722D02*
X111328Y117733D01*
X104848Y117722D02*
Y127879D01*
X123868Y117756D02*
Y127768D01*
X105220Y105798D02*
X111921Y105809D01*
X117216Y105675D02*
X124240Y105687D01*
X105220Y115810D02*
X111796Y115821D01*
X117760Y115833D02*
X124240Y115844D01*
Y105687D02*
Y115844D01*
X105220Y105798D02*
Y115810D01*
X85086Y239791D02*
X85098Y233089D01*
X85209Y252110D02*
X85221Y245086D01*
X75075Y239665D02*
X75086Y233089D01*
X75052Y252110D02*
X75063Y245629D01*
X75052Y252110D02*
X85209D01*
X75086Y233089D02*
X85098D01*
X98439Y239337D02*
X98450Y232636D01*
X98561Y251656D02*
X98573Y244632D01*
X88427Y239212D02*
X88439Y232636D01*
X88405Y251656D02*
X88416Y245176D01*
X88405Y251656D02*
X98561D01*
X88439Y232636D02*
X98450D01*
X56143Y258054D02*
X62844Y258065D01*
X68139Y257931D02*
X75163Y257943D01*
X56143Y268065D02*
X62718Y268077D01*
X68682Y268088D02*
X75163Y268099D01*
Y257943D02*
Y268099D01*
X56143Y258054D02*
Y268065D01*
X71303Y318620D02*
X78004Y318631D01*
X58984Y318743D02*
X66008Y318755D01*
X71428Y308609D02*
X78004Y308620D01*
X58984Y308586D02*
X65464Y308597D01*
X58984Y308586D02*
Y318743D01*
X78004Y308620D02*
Y318631D01*
X71303Y330956D02*
X78004Y330968D01*
X58984Y331079D02*
X66008Y331091D01*
X71428Y320945D02*
X78004Y320956D01*
X58984Y320922D02*
X65464Y320933D01*
X58984Y320922D02*
Y331079D01*
X78004Y320956D02*
Y330968D01*
X113975Y330956D02*
X120676Y330968D01*
X101656Y331079D02*
X108680Y331091D01*
X114100Y320945D02*
X120676Y320956D01*
X101656Y320922D02*
X108136Y320933D01*
X101656Y320922D02*
Y331079D01*
X120676Y320956D02*
Y330968D01*
X101656Y308709D02*
X108357Y308720D01*
X113652Y308586D02*
X120676Y308598D01*
X101656Y318720D02*
X108232Y318732D01*
X114196Y318743D02*
X120676Y318755D01*
Y308598D02*
Y318755D01*
X101656Y308709D02*
Y318720D01*
D35*
X137822Y129882D02*
G03*
X137822Y129882I-2499J0D01*
G01*
D37*
X217136Y90874D02*
X218914D01*
X195038Y91128D02*
X196816D01*
X195038Y57092D02*
Y91128D01*
Y57092D02*
X197324D01*
X218914Y56584D02*
Y90874D01*
X216374Y56584D02*
X218914D01*
X196816Y80968D02*
Y91128D01*
X217136Y80714D02*
Y90874D01*
X191025Y91729D02*
X192803D01*
X168927Y91983D02*
X170705D01*
X168927Y57947D02*
Y91983D01*
Y57947D02*
X171213D01*
X192803Y57439D02*
Y91729D01*
X190263Y57439D02*
X192803D01*
X170705Y81823D02*
Y91983D01*
X191025Y81569D02*
Y91729D01*
D58*
X144323Y226882D02*
X169901D01*
X144323Y124882D02*
Y226882D01*
Y124882D02*
X169322D01*
X169901D01*
D86*
X230891Y88805D02*
G03*
X229367Y90329I-1524J0D01*
G01*
X222443D02*
G03*
X220919Y88805I0J-1524D01*
G01*
X220935Y72344D02*
G03*
X222459Y70820I1524J0D01*
G01*
X229383D02*
G03*
X230907Y72344I0J1524D01*
G01*
X243092Y88773D02*
G03*
X241567Y90297I-1524J0D01*
G01*
X234643D02*
G03*
X233119Y88773I0J-1524D01*
G01*
X233135Y72312D02*
G03*
X234659Y70788I1524J0D01*
G01*
X241583D02*
G03*
X243107Y72312I0J1524D01*
G01*
X181335Y281226D02*
G03*
X179811Y282750I-1524J0D01*
G01*
X172887D02*
G03*
X171363Y281226I0J-1524D01*
G01*
X171379Y264765D02*
G03*
X172903Y263241I1524J0D01*
G01*
X179827D02*
G03*
X181351Y264765I0J1524D01*
G01*
X222443Y90329D02*
X229367D01*
X220919Y82257D02*
Y88805D01*
X230891Y82208D02*
Y88805D01*
X222459Y70820D02*
X229383D01*
X230884Y78674D02*
X230907Y72344D01*
X220935D02*
X220938Y78622D01*
X234643Y90297D02*
X241567D01*
X233119Y82225D02*
Y88773D01*
X243092Y82176D02*
Y88773D01*
X234659Y70788D02*
X241583D01*
X243084Y78642D02*
X243107Y72312D01*
X233135D02*
X233138Y78590D01*
X172887Y282750D02*
X179811D01*
X171363Y274678D02*
Y281226D01*
X181335Y274629D02*
Y281226D01*
X172903Y263241D02*
X179827D01*
X181328Y271095D02*
X181351Y264765D01*
X171379D02*
X171382Y271043D01*
X95699Y41648D02*
Y49549D01*
X94175Y40124D02*
X95699Y41648D01*
X87251Y40124D02*
X94175D01*
X85727Y41648D02*
X87251Y40124D01*
X85727Y41648D02*
Y49549D01*
X95699Y54073D02*
Y61974D01*
X94175Y63498D02*
X95699Y61974D01*
X87251Y63498D02*
X94175D01*
X85727Y61974D02*
X87251Y63498D01*
X85727Y54073D02*
Y61974D01*
X70619Y283839D02*
Y292947D01*
X56095Y293339D02*
Y303655D01*
X70619D01*
X56095Y273130D02*
Y283447D01*
Y273130D02*
X70619D01*
X112683Y283839D02*
Y292947D01*
X98159Y293339D02*
Y303655D01*
X112683D01*
X98159Y273130D02*
Y283447D01*
Y273130D02*
X112683D01*
X131479Y245231D02*
Y254339D01*
X116955Y254730D02*
Y265047D01*
X131479D01*
X116955Y234522D02*
Y244839D01*
Y234522D02*
X131479D01*
D89*
X179322Y37989D02*
X178406Y37073D01*
X176573D01*
X175657Y37989D01*
Y41655D01*
X176573Y42571D01*
X178406D01*
X179322Y41655D01*
X183904Y42571D02*
Y37073D01*
X181155Y39822D01*
X184820D01*
X206375Y38469D02*
X205458Y37552D01*
X203626D01*
X202709Y38469D01*
Y42134D01*
X203626Y43051D01*
X205458D01*
X206375Y42134D01*
X211873Y37552D02*
X208207D01*
Y40302D01*
X210040Y39385D01*
X210957D01*
X211873Y40302D01*
Y42134D01*
X210957Y43051D01*
X209124D01*
X208207Y42134D01*
X224035Y63769D02*
X223119Y64686D01*
Y66518D01*
X224035Y67435D01*
X227701D01*
X228617Y66518D01*
Y64686D01*
X227701Y63769D01*
X223119Y58271D02*
X224035Y60104D01*
X225868Y61936D01*
X227701D01*
X228617Y61020D01*
Y59187D01*
X227701Y58271D01*
X226784D01*
X225868Y59187D01*
Y61936D01*
X236744Y63737D02*
X235827Y64653D01*
Y66486D01*
X236744Y67402D01*
X240409D01*
X241326Y66486D01*
Y64653D01*
X240409Y63737D01*
X235827Y61904D02*
Y58239D01*
X236744D01*
X240409Y61904D01*
X241326D01*
X178609Y289028D02*
X179526Y288111D01*
Y286279D01*
X178609Y285362D01*
X174944D01*
X174027Y286279D01*
Y288111D01*
X174944Y289028D01*
X174027Y294526D02*
Y290861D01*
X177693Y294526D01*
X178609D01*
X179526Y293610D01*
Y291777D01*
X178609Y290861D01*
Y296359D02*
X179526Y297275D01*
Y299108D01*
X178609Y300024D01*
X177693D01*
X176776Y299108D01*
Y298192D01*
Y299108D01*
X175860Y300024D01*
X174944D01*
X174027Y299108D01*
Y297275D01*
X174944Y296359D01*
X83747Y48893D02*
Y45227D01*
X80998D01*
Y47060D01*
Y45227D01*
X78249D01*
X83747Y50726D02*
X78249D01*
Y53475D01*
X79165Y54391D01*
X80082D01*
X80998Y53475D01*
Y50726D01*
Y53475D01*
X81914Y54391D01*
X82831D01*
X83747Y53475D01*
Y50726D01*
X78249Y56224D02*
Y58057D01*
Y57140D01*
X83747D01*
X82831Y56224D01*
X47660Y295913D02*
Y299578D01*
X48576Y300495D01*
X50409D01*
X51325Y299578D01*
Y295913D01*
X50409Y294997D01*
X48576D01*
X49493Y296829D02*
X47660Y294997D01*
X48576D02*
X47660Y295913D01*
X45827Y294997D02*
X43994D01*
X44911D01*
Y300495D01*
X45827Y299578D01*
X88300Y296443D02*
Y300109D01*
X89216Y301025D01*
X91049D01*
X91965Y300109D01*
Y296443D01*
X91049Y295527D01*
X89216D01*
X90133Y297360D02*
X88300Y295527D01*
X89216D02*
X88300Y296443D01*
X82802Y295527D02*
X86467D01*
X82802Y299192D01*
Y300109D01*
X83718Y301025D01*
X85551D01*
X86467Y300109D01*
X81805Y229995D02*
X76307D01*
Y227246D01*
X77223Y226329D01*
X79056D01*
X79973Y227246D01*
Y229995D01*
Y228162D02*
X81805Y226329D01*
Y224496D02*
Y222664D01*
Y223580D01*
X76307D01*
X77223Y224496D01*
X96029Y228979D02*
X90531D01*
Y226230D01*
X91447Y225313D01*
X93280D01*
X94197Y226230D01*
Y228979D01*
Y227146D02*
X96029Y225313D01*
Y219815D02*
Y223480D01*
X92364Y219815D01*
X91447D01*
X90531Y220731D01*
Y222564D01*
X91447Y223480D01*
X88917Y260983D02*
Y266481D01*
X86168D01*
X85252Y265565D01*
Y263732D01*
X86168Y262815D01*
X88917D01*
X87085D02*
X85252Y260983D01*
X83419Y265565D02*
X82503Y266481D01*
X80670D01*
X79754Y265565D01*
Y264648D01*
X80670Y263732D01*
X81586D01*
X80670D01*
X79754Y262815D01*
Y261899D01*
X80670Y260983D01*
X82503D01*
X83419Y261899D01*
X80281Y328547D02*
Y323049D01*
X83030D01*
X83947Y323965D01*
Y325798D01*
X83030Y326714D01*
X80281D01*
X82114D02*
X83947Y328547D01*
X88529D02*
Y323049D01*
X85779Y325798D01*
X89445D01*
X122445Y316863D02*
Y311364D01*
X125194D01*
X126111Y312281D01*
Y314114D01*
X125194Y315030D01*
X122445D01*
X124278D02*
X126111Y316863D01*
X131609Y311364D02*
X127943D01*
Y314114D01*
X129776Y313197D01*
X130693D01*
X131609Y314114D01*
Y315946D01*
X130693Y316863D01*
X128860D01*
X127943Y315946D01*
X79773Y316355D02*
Y310856D01*
X82522D01*
X83439Y311773D01*
Y313606D01*
X82522Y314522D01*
X79773D01*
X81606D02*
X83439Y316355D01*
X88937Y310856D02*
X87104Y311773D01*
X85272Y313606D01*
Y315438D01*
X86188Y316355D01*
X88021D01*
X88937Y315438D01*
Y314522D01*
X88021Y313606D01*
X85272D01*
X122953Y329563D02*
Y324064D01*
X125702D01*
X126619Y324981D01*
Y326814D01*
X125702Y327730D01*
X122953D01*
X124786D02*
X126619Y329563D01*
X128451Y324064D02*
X132117D01*
Y324981D01*
X128451Y328646D01*
Y329563D01*
X93997Y125855D02*
Y120357D01*
X96746D01*
X97663Y121273D01*
Y123106D01*
X96746Y124022D01*
X93997D01*
X95830D02*
X97663Y125855D01*
X99495Y121273D02*
X100412Y120357D01*
X102245D01*
X103161Y121273D01*
Y122189D01*
X102245Y123106D01*
X103161Y124022D01*
Y124938D01*
X102245Y125855D01*
X100412D01*
X99495Y124938D01*
Y124022D01*
X100412Y123106D01*
X99495Y122189D01*
Y121273D01*
X100412Y123106D02*
X102245D01*
X93997Y113155D02*
Y107656D01*
X96746D01*
X97663Y108573D01*
Y110406D01*
X96746Y111322D01*
X93997D01*
X95830D02*
X97663Y113155D01*
X99495Y112238D02*
X100412Y113155D01*
X102245D01*
X103161Y112238D01*
Y108573D01*
X102245Y107656D01*
X100412D01*
X99495Y108573D01*
Y109489D01*
X100412Y110406D01*
X103161D01*
X112793Y218311D02*
Y212812D01*
X115542D01*
X116459Y213729D01*
Y215562D01*
X115542Y216478D01*
X112793D01*
X114626D02*
X116459Y218311D01*
X118292D02*
X120124D01*
X119208D01*
Y212812D01*
X118292Y213729D01*
X122873D02*
X123790Y212812D01*
X125622D01*
X126539Y213729D01*
Y217394D01*
X125622Y218311D01*
X123790D01*
X122873Y217394D01*
Y213729D01*
X163593Y271651D02*
X158095D01*
Y268902D01*
X159011Y267985D01*
X160844D01*
X161761Y268902D01*
Y271651D01*
Y269818D02*
X163593Y267985D01*
Y266152D02*
Y264320D01*
Y265236D01*
X158095D01*
X159011Y266152D01*
X163593Y261571D02*
Y259738D01*
Y260654D01*
X158095D01*
X159011Y261571D01*
X152417Y271651D02*
X146919D01*
Y268902D01*
X147835Y267985D01*
X149668D01*
X150584Y268902D01*
Y271651D01*
Y269818D02*
X152417Y267985D01*
Y266152D02*
Y264320D01*
Y265236D01*
X146919D01*
X147835Y266152D01*
X152417Y257905D02*
Y261571D01*
X148752Y257905D01*
X147835D01*
X146919Y258822D01*
Y260654D01*
X147835Y261571D01*
X180584Y332491D02*
Y326992D01*
X183333D01*
X184249Y327909D01*
Y329742D01*
X183333Y330658D01*
X180584D01*
X182416D02*
X184249Y332491D01*
X189747D02*
X186082D01*
X189747Y328825D01*
Y327909D01*
X188831Y326992D01*
X186998D01*
X186082Y327909D01*
X191580Y331574D02*
X192496Y332491D01*
X194329D01*
X195245Y331574D01*
Y327909D01*
X194329Y326992D01*
X192496D01*
X191580Y327909D01*
Y328825D01*
X192496Y329742D01*
X195245D01*
X186502Y285187D02*
X192001D01*
Y287936D01*
X191084Y288852D01*
X189251D01*
X188335Y287936D01*
Y285187D01*
Y287020D02*
X186502Y288852D01*
X191084Y290685D02*
X192001Y291602D01*
Y293434D01*
X191084Y294351D01*
X190168D01*
X189251Y293434D01*
Y292518D01*
Y293434D01*
X188335Y294351D01*
X187419D01*
X186502Y293434D01*
Y291602D01*
X187419Y290685D01*
X186502Y299849D02*
Y296183D01*
X190168Y299849D01*
X191084D01*
X192001Y298932D01*
Y297100D01*
X191084Y296183D01*
X258589Y239557D02*
Y234975D01*
X257673Y234059D01*
X255840D01*
X254924Y234975D01*
Y239557D01*
X253091Y234059D02*
X251258D01*
X252175D01*
Y239557D01*
X253091Y238641D01*
X593361Y338617D02*
Y334035D01*
X592445Y333119D01*
X590612D01*
X589696Y334035D01*
Y338617D01*
X584198D02*
X587863D01*
Y335868D01*
X586030Y336784D01*
X585114D01*
X584198Y335868D01*
Y334035D01*
X585114Y333119D01*
X586947D01*
X587863Y334035D01*
X27957Y123405D02*
Y127986D01*
X28874Y128903D01*
X30706D01*
X31623Y127986D01*
Y123405D01*
X37121Y124321D02*
X36205Y123405D01*
X34372D01*
X33456Y124321D01*
Y125237D01*
X34372Y126154D01*
X36205D01*
X37121Y127070D01*
Y127986D01*
X36205Y128903D01*
X34372D01*
X33456Y127986D01*
X38954Y123405D02*
Y128903D01*
X41703D01*
X42619Y127986D01*
Y127070D01*
X41703Y126154D01*
X38954D01*
X41703D01*
X42619Y125237D01*
Y124321D01*
X41703Y123405D01*
X38954D01*
X108839Y265654D02*
Y261989D01*
X107922Y261073D01*
X106090D01*
X105173Y261989D01*
Y265654D01*
X106090Y266571D01*
X107922D01*
X107006Y264738D02*
X108839Y266571D01*
X107922D02*
X108839Y265654D01*
X110672Y261989D02*
X111588Y261073D01*
X113421D01*
X114337Y261989D01*
Y262905D01*
X113421Y263822D01*
X112504D01*
X113421D01*
X114337Y264738D01*
Y265654D01*
X113421Y266571D01*
X111588D01*
X110672Y265654D01*
D92*
X206974Y80712D02*
D03*
X180863Y81568D02*
D03*
M02*
