G04 Layer_Color=16711935*
%FSLAX44Y44*%
%MOMM*%
G71*
G01*
G75*
%ADD73R,1.0000X1.0000*%
%ADD93R,0.8232X0.8232*%
%ADD96R,0.8232X0.8232*%
%ADD105R,1.4532X0.9032*%
%ADD111R,1.8032X1.7232*%
%ADD117C,1.2032*%
%ADD118C,0.8032*%
%ADD119C,1.4732*%
%ADD120C,1.0032*%
%ADD121R,2.3032X0.6032*%
%ADD122R,1.7032X2.7032*%
%ADD123R,2.6000X0.9000*%
%ADD124R,0.9000X2.6000*%
%ADD125R,1.2000X1.2000*%
%ADD126R,1.2000X1.2000*%
%ADD127R,3.1000X2.1000*%
%ADD128R,4.2032X1.2725*%
%ADD129R,9.0932X10.8632*%
%ADD130R,0.7432X0.9933*%
G36*
X345445Y244647D02*
X314445D01*
Y257037D01*
X323055Y265647D01*
X345445D01*
Y244647D01*
D02*
G37*
D73*
X329945Y255147D02*
D03*
D93*
X225921Y76087D02*
D03*
Y85087D02*
D03*
X238122Y76055D02*
D03*
Y85055D02*
D03*
X150241Y242132D02*
D03*
Y251132D02*
D03*
X162069Y251187D02*
D03*
Y242187D02*
D03*
X189962Y269078D02*
D03*
Y278078D02*
D03*
X176365Y268508D02*
D03*
Y277508D02*
D03*
X80137Y238068D02*
D03*
Y247068D02*
D03*
X93489Y237615D02*
D03*
Y246615D02*
D03*
D96*
X122500Y226294D02*
D03*
X113500D02*
D03*
X184214Y319340D02*
D03*
X193214D02*
D03*
X118889Y122807D02*
D03*
X109889D02*
D03*
X110199Y110759D02*
D03*
X119199D02*
D03*
X61121Y263015D02*
D03*
X70121D02*
D03*
X73025Y313670D02*
D03*
X64025D02*
D03*
X73025Y326007D02*
D03*
X64025D02*
D03*
X115697D02*
D03*
X106697D02*
D03*
X106635Y313670D02*
D03*
X115634D02*
D03*
D105*
X53357Y288393D02*
D03*
X73356Y278892D02*
D03*
Y297893D02*
D03*
X95421Y288393D02*
D03*
X115420Y278892D02*
D03*
Y297893D02*
D03*
X114217Y249785D02*
D03*
X134216Y240285D02*
D03*
Y259285D02*
D03*
D111*
X206976Y57436D02*
D03*
Y91636D02*
D03*
X180865Y58291D02*
D03*
Y92491D02*
D03*
D117*
X164855Y94490D02*
D03*
X164713Y105810D02*
D03*
X179849Y101471D02*
D03*
X196105D02*
D03*
X107205Y158875D02*
D03*
X120413D02*
D03*
X97553Y192911D02*
D03*
X111269D02*
D03*
X122881D02*
D03*
X61993Y154811D02*
D03*
X62501Y144651D02*
D03*
X85744Y333438D02*
D03*
X102672Y320052D02*
D03*
X240557Y44464D02*
D03*
X254050Y38424D02*
D03*
X223779Y43700D02*
D03*
D118*
X71137Y154303D02*
D03*
Y144143D02*
D03*
X113809Y158875D02*
D03*
X104665Y192911D02*
D03*
X117365D02*
D03*
X56430Y190157D02*
D03*
Y197999D02*
D03*
X56552Y205901D02*
D03*
X64212Y190400D02*
D03*
X64453Y198118D02*
D03*
X429241Y252803D02*
D03*
X569287Y34103D02*
D03*
X451581Y244003D02*
D03*
X73292Y45857D02*
D03*
X98483Y45314D02*
D03*
X513523Y340902D02*
D03*
X526747Y332880D02*
D03*
X578127Y304187D02*
D03*
X576668Y327618D02*
D03*
X200648Y268584D02*
D03*
X176662Y263042D02*
D03*
X157075Y48057D02*
D03*
X41351Y47769D02*
D03*
X37536Y67913D02*
D03*
X137312Y71470D02*
D03*
X157049Y71293D02*
D03*
X149350Y18411D02*
D03*
X55969Y268381D02*
D03*
X72979Y333303D02*
D03*
X64178Y342844D02*
D03*
X109753Y281900D02*
D03*
X112611Y335463D02*
D03*
X114472Y74824D02*
D03*
X206228Y319650D02*
D03*
X287292Y216839D02*
D03*
X284376Y203717D02*
D03*
X270515Y312488D02*
D03*
X281668Y333049D02*
D03*
X261703Y300649D02*
D03*
X261896Y309189D02*
D03*
X271096Y333484D02*
D03*
X278974Y35055D02*
D03*
X217377Y17216D02*
D03*
X203948Y305684D02*
D03*
X212020Y278029D02*
D03*
X210374Y269199D02*
D03*
X265557Y246603D02*
D03*
X219145Y266162D02*
D03*
X235847Y252990D02*
D03*
X261777Y255194D02*
D03*
X90871Y61878D02*
D03*
X266209Y15619D02*
D03*
X119130Y128836D02*
D03*
X266443Y34409D02*
D03*
X248197Y254453D02*
D03*
X245237Y245458D02*
D03*
X115545Y266102D02*
D03*
X77754Y10114D02*
D03*
X539874Y326952D02*
D03*
X340116Y223629D02*
D03*
X352270Y100426D02*
D03*
X220015Y58390D02*
D03*
X11360Y328007D02*
D03*
X11154Y310401D02*
D03*
X11988Y227882D02*
D03*
X66601Y242332D02*
D03*
X221602Y237727D02*
D03*
X143699Y241330D02*
D03*
X56090Y297624D02*
D03*
X55466Y306164D02*
D03*
X38557Y252879D02*
D03*
X57174Y278692D02*
D03*
X116314Y175887D02*
D03*
X108842Y175760D02*
D03*
X194149Y58291D02*
D03*
X304480Y274181D02*
D03*
X277813Y317267D02*
D03*
X422209Y337454D02*
D03*
X435125Y337331D02*
D03*
X448289Y337707D02*
D03*
X528693Y66229D02*
D03*
X435946Y21586D02*
D03*
X339414Y27978D02*
D03*
X352886Y27687D02*
D03*
X326240Y28126D02*
D03*
X313063Y28419D02*
D03*
X300619Y29737D02*
D03*
X321085Y48213D02*
D03*
X189782Y27415D02*
D03*
X143088Y284378D02*
D03*
X593367Y301014D02*
D03*
X560438Y244898D02*
D03*
X64835Y79230D02*
D03*
X559362Y255740D02*
D03*
X527390Y251751D02*
D03*
X527583Y257557D02*
D03*
X533658Y251751D02*
D03*
X533874Y257493D02*
D03*
X540943Y251767D02*
D03*
X540736Y257157D02*
D03*
X498560Y319314D02*
D03*
X256508Y326399D02*
D03*
X247048Y327126D02*
D03*
X232671Y341799D02*
D03*
X212876Y314221D02*
D03*
X208340Y297999D02*
D03*
X187071Y308373D02*
D03*
X259485Y265801D02*
D03*
X258385Y284285D02*
D03*
X257450Y292825D02*
D03*
X195408Y304584D02*
D03*
X226889Y312605D02*
D03*
X227480Y302762D02*
D03*
D119*
X365445Y63703D02*
D03*
X607742Y150375D02*
D03*
X603292Y120704D02*
D03*
X630839Y223650D02*
D03*
X604919Y189184D02*
D03*
X190012Y15621D02*
D03*
X214748Y16088D02*
D03*
X240809Y15619D02*
D03*
D120*
X265118Y320582D02*
D03*
X589236Y246936D02*
D03*
D121*
X60938Y166808D02*
D03*
X60898Y160371D02*
D03*
X60977Y186307D02*
D03*
X60860Y179783D02*
D03*
X60920Y173273D02*
D03*
D122*
X14021Y120460D02*
D03*
X14262Y226236D02*
D03*
X53464Y120666D02*
D03*
X53830Y225881D02*
D03*
D123*
X568945Y294647D02*
D03*
Y281647D02*
D03*
Y47647D02*
D03*
Y60647D02*
D03*
Y73647D02*
D03*
Y86647D02*
D03*
Y99647D02*
D03*
Y112647D02*
D03*
Y125647D02*
D03*
Y138647D02*
D03*
Y151647D02*
D03*
Y164647D02*
D03*
Y177647D02*
D03*
Y190647D02*
D03*
Y203647D02*
D03*
Y216647D02*
D03*
Y229647D02*
D03*
Y242647D02*
D03*
Y255647D02*
D03*
Y268647D02*
D03*
X283945Y47647D02*
D03*
Y60647D02*
D03*
Y73647D02*
D03*
Y86647D02*
D03*
Y99647D02*
D03*
Y112647D02*
D03*
Y125647D02*
D03*
Y138647D02*
D03*
Y151647D02*
D03*
Y164647D02*
D03*
Y177647D02*
D03*
Y190647D02*
D03*
Y203647D02*
D03*
Y216647D02*
D03*
Y229647D02*
D03*
Y242647D02*
D03*
Y255647D02*
D03*
Y268647D02*
D03*
Y294647D02*
D03*
Y281647D02*
D03*
D124*
X409445Y330647D02*
D03*
X396445D02*
D03*
X539445D02*
D03*
X526445D02*
D03*
X513445D02*
D03*
X500445D02*
D03*
X487445D02*
D03*
X474445D02*
D03*
X461445D02*
D03*
X448445D02*
D03*
X435445D02*
D03*
X422445D02*
D03*
X552445D02*
D03*
X378445D02*
D03*
X365445D02*
D03*
X352445D02*
D03*
X339445D02*
D03*
X326445D02*
D03*
X313445D02*
D03*
X300445D02*
D03*
X552445Y15647D02*
D03*
X539445D02*
D03*
X526445D02*
D03*
X513445D02*
D03*
X500445D02*
D03*
X487445D02*
D03*
X474445D02*
D03*
X461445D02*
D03*
X448445D02*
D03*
X435445D02*
D03*
X422445D02*
D03*
X409445D02*
D03*
X300445D02*
D03*
X365445D02*
D03*
X352445D02*
D03*
X339445D02*
D03*
X326445D02*
D03*
X313445D02*
D03*
X378445D02*
D03*
X396445D02*
D03*
D125*
X441945Y197147D02*
D03*
X425945D02*
D03*
X441945Y181147D02*
D03*
X425945D02*
D03*
X441945Y165147D02*
D03*
X425945D02*
D03*
X409945Y197147D02*
D03*
Y181147D02*
D03*
Y165147D02*
D03*
D126*
X441945Y149147D02*
D03*
X425945D02*
D03*
X409945D02*
D03*
X316445Y283147D02*
D03*
X336445D02*
D03*
X356445D02*
D03*
X376445D02*
D03*
X396445D02*
D03*
X416445D02*
D03*
X436445D02*
D03*
X456445D02*
D03*
X476445D02*
D03*
X496445D02*
D03*
X516445D02*
D03*
X536445D02*
D03*
X316445Y303147D02*
D03*
X336445D02*
D03*
X356445D02*
D03*
X376445D02*
D03*
X396445D02*
D03*
X416445D02*
D03*
X436445D02*
D03*
X456445D02*
D03*
X476445D02*
D03*
X496445D02*
D03*
X516445D02*
D03*
X536445D02*
D03*
D127*
X329945Y91147D02*
D03*
X377945D02*
D03*
X425945D02*
D03*
X473945D02*
D03*
X521945D02*
D03*
X329945Y123147D02*
D03*
Y157147D02*
D03*
Y223147D02*
D03*
X377945Y255147D02*
D03*
X425945D02*
D03*
X473945D02*
D03*
X521945D02*
D03*
X377945Y223147D02*
D03*
X425945D02*
D03*
X473945D02*
D03*
X521945D02*
D03*
X329945Y189147D02*
D03*
X377945D02*
D03*
X473945D02*
D03*
X521945D02*
D03*
X377945Y123147D02*
D03*
X425945D02*
D03*
X473945D02*
D03*
X521945D02*
D03*
X377945Y157147D02*
D03*
X473945D02*
D03*
X521945D02*
D03*
D128*
X109984Y141886D02*
D03*
Y175882D02*
D03*
Y158884D02*
D03*
Y192880D02*
D03*
Y209878D02*
D03*
D129*
X216662Y175882D02*
D03*
D130*
X90713Y46360D02*
D03*
Y57261D02*
D03*
M02*
