G04 Layer_Color=32768*
%FSLAX44Y44*%
%MOMM*%
G71*
G01*
G75*
%ADD35C,0.5000*%
%ADD37C,0.2000*%
%ADD38C,0.3000*%
%ADD85C,0.4000*%
%ADD89C,0.1000*%
%ADD133C,0.0025*%
D35*
X115823Y141881D02*
G03*
X115823Y141881I-2499J0D01*
G01*
D37*
X409335Y323777D02*
G03*
X409335Y323777I-1001J0D01*
G01*
X373267D02*
G03*
X373267Y323777I-1001J0D01*
G01*
X316519Y320414D02*
G03*
X316519Y320414I-1001J0D01*
G01*
X91149Y136698D02*
G03*
X91149Y136698I-1001J0D01*
G01*
X78957Y299393D02*
G03*
X78957Y299393I-1001J0D01*
G01*
X121021D02*
G03*
X121021Y299393I-1001J0D01*
G01*
X139817Y260785D02*
G03*
X139817Y260785I-1001J0D01*
G01*
D38*
X123512Y25987D02*
G03*
X123512Y25987I-1499J0D01*
G01*
D85*
X548169Y205225D02*
G03*
X548169Y205225I-1999J0D01*
G01*
D89*
X61257Y299047D02*
X96257D01*
Y257047D02*
Y299047D01*
X61257Y257047D02*
Y299047D01*
Y257047D02*
X96257D01*
X17117Y299047D02*
X52117D01*
Y257047D02*
Y299047D01*
X17117Y257047D02*
Y299047D01*
Y257047D02*
X52117D01*
X146935Y239970D02*
Y343970D01*
X250935D01*
Y239970D02*
Y343970D01*
X146935Y239970D02*
X250935D01*
D133*
X254162Y52321D02*
X254670Y52829D01*
X383754Y152778D02*
X384262Y152270D01*
X351991Y55491D02*
X352499Y55999D01*
X86666Y51557D02*
X87174Y52065D01*
M02*
