G04 Layer_Color=128*
%FSLAX44Y44*%
%MOMM*%
G71*
G01*
G75*
%ADD134C,0.0508*%
D134*
X162355Y94490D02*
X167355D01*
X164855Y91990D02*
Y96990D01*
X162213Y105810D02*
X167213D01*
X164713Y103310D02*
Y108310D01*
X177349Y101471D02*
X182349D01*
X179849Y98971D02*
Y103971D01*
X193605Y101471D02*
X198605D01*
X196105Y98971D02*
Y103971D01*
X104705Y158875D02*
X109705D01*
X107205Y156375D02*
Y161375D01*
X117913Y158875D02*
X122913D01*
X120413Y156375D02*
Y161375D01*
X95053Y192911D02*
X100053D01*
X97553Y190411D02*
Y195411D01*
X108769Y192911D02*
X113769D01*
X111269Y190411D02*
Y195411D01*
X120381Y192911D02*
X125381D01*
X122881Y190411D02*
Y195411D01*
X59493Y154811D02*
X64493D01*
X61993Y152311D02*
Y157311D01*
X60001Y144651D02*
X65001D01*
X62501Y142151D02*
Y147151D01*
X69637Y154303D02*
X72637D01*
X71137Y152803D02*
Y155803D01*
X69637Y144143D02*
X72637D01*
X71137Y142643D02*
Y145643D01*
X112309Y158875D02*
X115309D01*
X113809Y157375D02*
Y160375D01*
X103165Y192911D02*
X106165D01*
X104665Y191411D02*
Y194411D01*
X115865Y192911D02*
X118865D01*
X117365Y191411D02*
Y194411D01*
X54930Y190157D02*
X57930D01*
X56430Y188657D02*
Y191657D01*
X54930Y197999D02*
X57930D01*
X56430Y196499D02*
Y199499D01*
X55052Y205901D02*
X58052D01*
X56552Y204401D02*
Y207401D01*
X62712Y190400D02*
X65712D01*
X64212Y188900D02*
Y191900D01*
X62952Y198118D02*
X65953D01*
X64453Y196618D02*
Y199618D01*
X427742Y252803D02*
X430742D01*
X429241Y251303D02*
Y254303D01*
X567787Y34103D02*
X570787D01*
X569287Y32603D02*
Y35603D01*
X450081Y244003D02*
X453081D01*
X451581Y242503D02*
Y245503D01*
X361889Y63703D02*
X369001D01*
X365445Y60147D02*
Y67259D01*
X71792Y45857D02*
X74792D01*
X73292Y44357D02*
Y47357D01*
X83244Y333438D02*
X88244D01*
X85744Y330938D02*
Y335938D01*
X96983Y45314D02*
X99983D01*
X98483Y43814D02*
Y46814D01*
X512023Y340902D02*
X515023D01*
X513523Y339402D02*
Y342402D01*
X525247Y332880D02*
X528247D01*
X526747Y331380D02*
Y334380D01*
X576627Y304187D02*
X579627D01*
X578127Y302687D02*
Y305687D01*
X575168Y327618D02*
X578168D01*
X576668Y326118D02*
Y329118D01*
X199148Y268584D02*
X202148D01*
X200648Y267084D02*
Y270084D01*
X175162Y263042D02*
X178162D01*
X176662Y261542D02*
Y264542D01*
X155575Y48057D02*
X158575D01*
X157075Y46557D02*
Y49557D01*
X39851Y47769D02*
X42851D01*
X41351Y46269D02*
Y49269D01*
X36036Y67913D02*
X39036D01*
X37536Y66413D02*
Y69413D01*
X135812Y71470D02*
X138812D01*
X137312Y69970D02*
Y72970D01*
X155549Y71293D02*
X158549D01*
X157049Y69792D02*
Y72793D01*
X147850Y18411D02*
X150850D01*
X149350Y16911D02*
Y19911D01*
X54469Y268381D02*
X57469D01*
X55969Y266881D02*
Y269881D01*
X71479Y333303D02*
X74479D01*
X72979Y331803D02*
Y334803D01*
X62678Y342844D02*
X65678D01*
X64178Y341344D02*
Y344344D01*
X108253Y281900D02*
X111253D01*
X109753Y280400D02*
Y283400D01*
X111111Y335463D02*
X114111D01*
X112611Y333963D02*
Y336963D01*
X112972Y74824D02*
X115972D01*
X114472Y73324D02*
Y76324D01*
X204728Y319650D02*
X207728D01*
X206228Y318150D02*
Y321150D01*
X285792Y216839D02*
X288792D01*
X287292Y215339D02*
Y218339D01*
X282876Y203717D02*
X285876D01*
X284376Y202217D02*
Y205217D01*
X269015Y312488D02*
X272015D01*
X270515Y310988D02*
Y313988D01*
X280168Y333049D02*
X283169D01*
X281668Y331549D02*
Y334549D01*
X260203Y300649D02*
X263203D01*
X261703Y299149D02*
Y302149D01*
X260396Y309189D02*
X263396D01*
X261896Y307689D02*
Y310689D01*
X269597Y333484D02*
X272596D01*
X271096Y331984D02*
Y334984D01*
X262618Y320582D02*
X267618D01*
X265118Y318082D02*
Y323082D01*
X277474Y35055D02*
X280473D01*
X278974Y33555D02*
Y36555D01*
X215877Y17216D02*
X218877D01*
X217377Y15716D02*
Y18716D01*
X202448Y305684D02*
X205448D01*
X203948Y304184D02*
Y307184D01*
X210520Y278029D02*
X213520D01*
X212020Y276529D02*
Y279529D01*
X208874Y269199D02*
X211874D01*
X210374Y267699D02*
Y270699D01*
X264057Y246603D02*
X267057D01*
X265557Y245103D02*
Y248103D01*
X217645Y266162D02*
X220645D01*
X219145Y264662D02*
Y267662D01*
X234347Y252990D02*
X237347D01*
X235847Y251490D02*
Y254490D01*
X260277Y255194D02*
X263277D01*
X261777Y253694D02*
Y256694D01*
X100172Y320052D02*
X105172D01*
X102672Y317553D02*
Y322552D01*
X89371Y61878D02*
X92371D01*
X90871Y60378D02*
Y63378D01*
X264709Y15619D02*
X267709D01*
X266209Y14119D02*
Y17119D01*
X117630Y128836D02*
X120630D01*
X119130Y127336D02*
Y130336D01*
X238057Y44464D02*
X243057D01*
X240557Y41964D02*
Y46964D01*
X264943Y34409D02*
X267943D01*
X266443Y32909D02*
Y35909D01*
X604185Y150375D02*
X611297D01*
X607742Y146819D02*
Y153931D01*
X599736Y120704D02*
X606848D01*
X603292Y117148D02*
Y124260D01*
X627283Y223650D02*
X634395D01*
X630839Y220093D02*
Y227206D01*
X601363Y189184D02*
X608475D01*
X604919Y185628D02*
Y192740D01*
X246697Y254453D02*
X249697D01*
X248197Y252953D02*
Y255953D01*
X243737Y245458D02*
X246737D01*
X245237Y243958D02*
Y246958D01*
X114045Y266102D02*
X117045D01*
X115545Y264602D02*
Y267602D01*
X76254Y10114D02*
X79254D01*
X77754Y8613D02*
Y11614D01*
X538374Y326952D02*
X541374D01*
X539874Y325452D02*
Y328452D01*
X338616Y223629D02*
X341616D01*
X340116Y222129D02*
Y225129D01*
X350770Y100426D02*
X353770D01*
X352270Y98926D02*
Y101926D01*
X218515Y58390D02*
X221515D01*
X220015Y56890D02*
Y59889D01*
X9860Y328007D02*
X12860D01*
X11360Y326507D02*
Y329507D01*
X9654Y310401D02*
X12654D01*
X11154Y308901D02*
Y311901D01*
X10488Y227882D02*
X13487D01*
X11988Y226382D02*
Y229382D01*
X65101Y242332D02*
X68101D01*
X66601Y240832D02*
Y243832D01*
X220102Y237727D02*
X223102D01*
X221602Y236227D02*
Y239227D01*
X142199Y241330D02*
X145199D01*
X143699Y239830D02*
Y242830D01*
X54590Y297624D02*
X57590D01*
X56090Y296124D02*
Y299124D01*
X53966Y306164D02*
X56966D01*
X55466Y304664D02*
Y307664D01*
X37057Y252879D02*
X40057D01*
X38557Y251379D02*
Y254379D01*
X55674Y278692D02*
X58674D01*
X57174Y277192D02*
Y280192D01*
X114815Y175887D02*
X117815D01*
X116314Y174387D02*
Y177387D01*
X107342Y175760D02*
X110342D01*
X108842Y174260D02*
Y177260D01*
X192649Y58291D02*
X195650D01*
X194149Y56791D02*
Y59791D01*
X302980Y274181D02*
X305980D01*
X304480Y272681D02*
Y275681D01*
X276313Y317267D02*
X279313D01*
X277813Y315767D02*
Y318767D01*
X420709Y337454D02*
X423709D01*
X422209Y335954D02*
Y338954D01*
X433625Y337331D02*
X436625D01*
X435125Y335830D02*
Y338830D01*
X446789Y337707D02*
X449789D01*
X448289Y336207D02*
Y339207D01*
X527193Y66229D02*
X530193D01*
X528693Y64729D02*
Y67729D01*
X434446Y21586D02*
X437446D01*
X435946Y20086D02*
Y23086D01*
X337914Y27978D02*
X340914D01*
X339414Y26478D02*
Y29478D01*
X351386Y27687D02*
X354386D01*
X352886Y26187D02*
Y29187D01*
X324740Y28126D02*
X327740D01*
X326240Y26626D02*
Y29626D01*
X311563Y28419D02*
X314563D01*
X313063Y26919D02*
Y29919D01*
X299119Y29737D02*
X302119D01*
X300619Y28237D02*
Y31237D01*
X319585Y48213D02*
X322585D01*
X321085Y46713D02*
Y49713D01*
X188282Y27415D02*
X191282D01*
X189782Y25916D02*
Y28916D01*
X186456Y15621D02*
X193568D01*
X190012Y12065D02*
Y19177D01*
X211192Y16088D02*
X218304D01*
X214748Y12532D02*
Y19644D01*
X237253Y15619D02*
X244365D01*
X240809Y12063D02*
Y19175D01*
X251550Y38424D02*
X256550D01*
X254050Y35924D02*
Y40924D01*
X221279Y43700D02*
X226279D01*
X223779Y41200D02*
Y46200D01*
X141588Y284378D02*
X144588D01*
X143088Y282878D02*
Y285878D01*
X591867Y301014D02*
X594867D01*
X593367Y299514D02*
Y302514D01*
X586736Y246936D02*
X591736D01*
X589236Y244436D02*
Y249436D01*
X558937Y244898D02*
X561937D01*
X560438Y243398D02*
Y246398D01*
X63335Y79230D02*
X66335D01*
X64835Y77730D02*
Y80730D01*
X557862Y255740D02*
X560862D01*
X559362Y254240D02*
Y257240D01*
X525890Y251751D02*
X528890D01*
X527390Y250251D02*
Y253251D01*
X526083Y257557D02*
X529083D01*
X527583Y256057D02*
Y259057D01*
X532158Y251751D02*
X535158D01*
X533658Y250251D02*
Y253251D01*
X532374Y257493D02*
X535374D01*
X533874Y255993D02*
Y258993D01*
X539444Y251767D02*
X542444D01*
X540943Y250267D02*
Y253267D01*
X539236Y257157D02*
X542236D01*
X540736Y255658D02*
Y258657D01*
X497060Y319314D02*
X500060D01*
X498560Y317814D02*
Y320814D01*
X255008Y326399D02*
X258008D01*
X256508Y324899D02*
Y327899D01*
X245548Y327126D02*
X248548D01*
X247048Y325626D02*
Y328626D01*
X231171Y341799D02*
X234171D01*
X232671Y340299D02*
Y343299D01*
X211376Y314221D02*
X214376D01*
X212876Y312721D02*
Y315721D01*
X206840Y297999D02*
X209840D01*
X208340Y296499D02*
Y299499D01*
X185571Y308373D02*
X188571D01*
X187071Y306873D02*
Y309873D01*
X257985Y265801D02*
X260985D01*
X259485Y264301D02*
Y267301D01*
X256885Y284285D02*
X259885D01*
X258385Y282785D02*
Y285785D01*
X255950Y292825D02*
X258950D01*
X257450Y291325D02*
Y294325D01*
X193908Y304584D02*
X196908D01*
X195408Y303084D02*
Y306084D01*
X225389Y312605D02*
X228389D01*
X226889Y311105D02*
Y314105D01*
X225980Y302762D02*
X228980D01*
X227480Y301262D02*
Y304262D01*
M02*
