G04 Layer_Color=65535*
%FSLAX44Y44*%
%MOMM*%
G71*
G01*
G75*
%ADD34C,0.1270*%
%ADD37C,0.2000*%
%ADD58C,0.2540*%
%ADD85C,0.4000*%
%ADD86C,0.1524*%
%ADD87C,0.3500*%
%ADD88C,0.0500*%
%ADD89C,0.1000*%
%ADD90C,0.1500*%
%ADD91C,0.2032*%
%ADD92R,2.3876X0.4572*%
D34*
X486664Y29071D02*
X486675Y35772D01*
X486541Y41067D02*
X486553Y48091D01*
X496675Y29071D02*
X496687Y35647D01*
X496698Y41611D02*
X496709Y48091D01*
X486553D02*
X496709D01*
X486664Y29071D02*
X496675D01*
X23620Y53577D02*
X23631Y60279D01*
X23496Y65574D02*
X23509Y72597D01*
X33631Y53577D02*
X33642Y60153D01*
X33654Y66117D02*
X33665Y72597D01*
X23509D02*
X33665D01*
X23620Y53577D02*
X33631D01*
X135182Y52728D02*
X141883Y52716D01*
X147179Y52851D02*
X154202Y52839D01*
X135182Y42716D02*
X141758Y42705D01*
X147722Y42693D02*
X154202Y42682D01*
Y52839D01*
X135182Y42716D02*
Y52728D01*
X52388Y14847D02*
X59089Y14836D01*
X64384Y14971D02*
X71408Y14958D01*
X52388Y4836D02*
X58964Y4825D01*
X64928Y4813D02*
X71408Y4802D01*
Y14958D01*
X52388Y4836D02*
Y14847D01*
X87571Y95260D02*
X87582Y101961D01*
X87693Y82941D02*
X87705Y89965D01*
X77559Y95385D02*
X77571Y101961D01*
X77536Y82941D02*
X77547Y89421D01*
X77536Y82941D02*
X87693D01*
X77571Y101961D02*
X87582D01*
X124225Y95086D02*
X124237Y101787D01*
X124348Y82767D02*
X124360Y89791D01*
X114214Y95211D02*
X114225Y101787D01*
X114191Y82767D02*
X114202Y89247D01*
X114191Y82767D02*
X124348D01*
X114225Y101787D02*
X124237D01*
X21478Y66234D02*
X21490Y72935D01*
X21601Y53914D02*
X21613Y60938D01*
X11467Y66359D02*
X11478Y72935D01*
X11444Y53914D02*
X11455Y60395D01*
X11444Y53914D02*
X21601D01*
X11478Y72935D02*
X21490D01*
X89544Y82776D02*
X89556Y89477D01*
X89421Y94772D02*
X89433Y101796D01*
X99556Y82776D02*
X99567Y89352D01*
X99579Y95316D02*
X99590Y101796D01*
X89433D02*
X99590D01*
X89544Y82776D02*
X99556D01*
X147647Y66549D02*
X154348Y66538D01*
X135328Y66427D02*
X142352Y66415D01*
X147772Y76561D02*
X154348Y76549D01*
X135328Y76583D02*
X141808Y76572D01*
X135328Y66427D02*
Y76583D01*
X154348Y66538D02*
Y76549D01*
X21860Y32276D02*
X21872Y38977D01*
X21983Y19957D02*
X21995Y26981D01*
X11849Y32401D02*
X11860Y38977D01*
X11826Y19957D02*
X11837Y26437D01*
X11826Y19957D02*
X21983D01*
X11860Y38977D02*
X21872D01*
X272043Y236988D02*
X278744Y236976D01*
X284039Y237111D02*
X291063Y237099D01*
X272043Y226976D02*
X278618Y226965D01*
X284583Y226953D02*
X291063Y226942D01*
Y237099D01*
X272043Y226976D02*
Y236988D01*
Y197727D02*
X278744Y197716D01*
X284039Y197850D02*
X291063Y197838D01*
X272043Y187716D02*
X278618Y187705D01*
X284583Y187693D02*
X291063Y187682D01*
Y197838D01*
X272043Y187716D02*
Y197727D01*
X135182Y28708D02*
X141883Y28696D01*
X147179Y28831D02*
X154202Y28819D01*
X135182Y18696D02*
X141758Y18685D01*
X147722Y18673D02*
X154202Y18662D01*
Y28819D01*
X135182Y18696D02*
Y28708D01*
X272043Y135388D02*
X278744Y135376D01*
X284039Y135511D02*
X291063Y135499D01*
X272043Y125376D02*
X278618Y125365D01*
X284583Y125353D02*
X291063Y125342D01*
Y135499D01*
X272043Y125376D02*
Y135388D01*
Y123559D02*
X278744Y123548D01*
X284039Y123682D02*
X291063Y123671D01*
X272043Y113548D02*
X278618Y113537D01*
X284583Y113525D02*
X291063Y113514D01*
Y123671D01*
X272043Y113548D02*
Y123559D01*
Y112020D02*
X278744Y112008D01*
X284039Y112143D02*
X291063Y112131D01*
X272043Y102008D02*
X278618Y101997D01*
X284583Y101985D02*
X291063Y101974D01*
Y112131D01*
X272043Y102008D02*
Y112020D01*
Y147072D02*
X278744Y147060D01*
X284039Y147195D02*
X291063Y147183D01*
X272043Y137060D02*
X278618Y137049D01*
X284583Y137037D02*
X291063Y137026D01*
Y147183D01*
X272043Y137060D02*
Y147072D01*
X526257Y121446D02*
X526269Y128147D01*
X526380Y109127D02*
X526392Y116151D01*
X516246Y121572D02*
X516257Y128147D01*
X516223Y109127D02*
X516234Y115607D01*
X516223Y109127D02*
X526380D01*
X516257Y128147D02*
X526269D01*
X539351Y213593D02*
X539363Y220294D01*
X539228Y225590D02*
X539240Y232614D01*
X549363Y213593D02*
X549374Y220169D01*
X549386Y226133D02*
X549397Y232614D01*
X539240D02*
X549397D01*
X539351Y213593D02*
X549363D01*
X528456Y109192D02*
X528468Y115893D01*
X528333Y121188D02*
X528345Y128212D01*
X538468Y109192D02*
X538479Y115768D01*
X538491Y121732D02*
X538502Y128212D01*
X528345D02*
X538502D01*
X528456Y109192D02*
X538468D01*
X473439Y289053D02*
X480140Y289042D01*
X461120Y288931D02*
X468144Y288919D01*
X473564Y299065D02*
X480140Y299053D01*
X461120Y299088D02*
X467600Y299076D01*
X461120Y288931D02*
Y299088D01*
X480140Y289042D02*
Y299053D01*
X506470Y259638D02*
X513171Y259627D01*
X518467Y259762D02*
X525490Y259749D01*
X506470Y249627D02*
X513046Y249615D01*
X519010Y249604D02*
X525490Y249593D01*
Y259749D01*
X506470Y249627D02*
Y259638D01*
X473439Y300882D02*
X480140Y300870D01*
X461120Y300759D02*
X468144Y300747D01*
X473564Y310893D02*
X480140Y310882D01*
X461120Y310916D02*
X467600Y310905D01*
X461120Y300759D02*
Y310916D01*
X480140Y300870D02*
Y310882D01*
X562818Y313551D02*
X569520Y313540D01*
X574815Y313675D02*
X581839Y313662D01*
X562818Y303540D02*
X569394Y303529D01*
X575359Y303517D02*
X581839Y303506D01*
Y313662D01*
X562818Y303540D02*
Y313551D01*
Y325380D02*
X569520Y325368D01*
X574815Y325503D02*
X581839Y325491D01*
X562818Y315368D02*
X569394Y315357D01*
X575359Y315345D02*
X581839Y315334D01*
Y325491D01*
X562818Y315368D02*
Y325380D01*
X77907Y306833D02*
X84608Y306822D01*
X65588Y306711D02*
X72612Y306699D01*
X78032Y316845D02*
X84608Y316833D01*
X65588Y316868D02*
X72068Y316856D01*
X65588Y306711D02*
Y316868D01*
X84608Y306822D02*
Y316833D01*
X51299Y225469D02*
X51311Y232171D01*
X51176Y237466D02*
X51188Y244490D01*
X61311Y225469D02*
X61322Y232045D01*
X61334Y238009D02*
X61345Y244490D01*
X51188D02*
X61345D01*
X51299Y225469D02*
X61311D01*
X27787Y235350D02*
X34488Y235338D01*
X15468Y235227D02*
X22492Y235215D01*
X27912Y245361D02*
X34488Y245350D01*
X15468Y245384D02*
X21948Y245373D01*
X15468Y235227D02*
Y245384D01*
X34488Y235338D02*
Y245350D01*
X118825Y280019D02*
X125526Y280007D01*
X130821Y280142D02*
X137845Y280130D01*
X118825Y270007D02*
X125401Y269996D01*
X131365Y269984D02*
X137845Y269973D01*
Y280130D01*
X118825Y270007D02*
Y280019D01*
Y268335D02*
X125526Y268323D01*
X130821Y268458D02*
X137845Y268446D01*
X118825Y258323D02*
X125401Y258312D01*
X131365Y258300D02*
X137845Y258289D01*
Y268446D01*
X118825Y258323D02*
Y268335D01*
X131144Y305160D02*
X137845Y305149D01*
X118825Y305038D02*
X125849Y305026D01*
X131270Y315172D02*
X137845Y315160D01*
X118825Y315194D02*
X125305Y315183D01*
X118825Y305038D02*
Y315194D01*
X137845Y305149D02*
Y315160D01*
X347345Y331362D02*
X354047Y331350D01*
X335026Y331239D02*
X342050Y331227D01*
X347471Y341373D02*
X354047Y341362D01*
X335026Y341396D02*
X341507Y341385D01*
X335026Y331239D02*
Y341396D01*
X354047Y331350D02*
Y341362D01*
X314207Y341128D02*
X320908Y341116D01*
X326203Y341251D02*
X333227Y341239D01*
X314207Y331116D02*
X320782Y331105D01*
X326746Y331093D02*
X333227Y331082D01*
Y341239D01*
X314207Y331116D02*
Y341128D01*
X169981Y52245D02*
X176683Y52234D01*
X181978Y52368D02*
X189002Y52356D01*
X169981Y42234D02*
X176557Y42222D01*
X182521Y42211D02*
X189002Y42200D01*
Y52356D01*
X169981Y42234D02*
Y52245D01*
D37*
X319212Y326800D02*
G03*
X319212Y326800I-1001J0D01*
G01*
X328372Y322990D02*
G03*
X335992Y322990I3810J-159D01*
G01*
X175935Y317971D02*
G03*
X175935Y317971I-3000J0D01*
G01*
X534041Y27004D02*
Y40933D01*
X526163Y27004D02*
X534041D01*
X503492D02*
X510992D01*
X503270Y41378D02*
X510770D01*
X526089Y40933D02*
X534041D01*
X503077Y27004D02*
Y41378D01*
X11414Y82641D02*
Y117389D01*
Y82641D02*
X28177D01*
Y117389D01*
X11414D02*
X28177D01*
X30798Y82413D02*
Y117161D01*
Y82413D02*
X47562D01*
Y117161D01*
X30798D02*
X47562D01*
X501819Y63625D02*
X536567D01*
X501819Y46861D02*
Y63625D01*
Y46861D02*
X536567D01*
Y63625D01*
X501819Y83945D02*
X536567D01*
X501819Y67181D02*
Y83945D01*
Y67181D02*
X536567D01*
Y83945D01*
X93257Y273797D02*
Y282297D01*
X64257D02*
X93257D01*
X64257Y273797D02*
X93257D01*
X64257D02*
Y282297D01*
X15833Y342517D02*
X50581D01*
X15833Y325753D02*
Y342517D01*
Y325753D02*
X50581D01*
Y342517D01*
X15833Y322705D02*
X50581D01*
X15833Y305941D02*
Y322705D01*
Y305941D02*
X50581D01*
Y322705D01*
X49117Y273797D02*
Y282297D01*
X20117D02*
X49117D01*
X20117Y273797D02*
X49117D01*
X20117D02*
Y282297D01*
X124172Y205032D02*
X125950D01*
X102074Y204778D02*
X103852D01*
X102074D02*
Y238814D01*
X104360D01*
X125950Y205032D02*
Y239322D01*
X123410D02*
X125950D01*
X103852Y204778D02*
Y214938D01*
X124172Y205032D02*
Y215192D01*
X97756Y205032D02*
X99534D01*
X75658Y204778D02*
X77436D01*
X75658D02*
Y238814D01*
X77944D01*
X99534Y205032D02*
Y239322D01*
X96994D02*
X99534D01*
X77436Y204778D02*
Y214938D01*
X97756Y205032D02*
Y215192D01*
X321540Y323330D02*
X342822D01*
X332182Y302330D02*
X342822D01*
X321540D02*
X332182D01*
X241517Y325058D02*
Y336488D01*
X231103D02*
X241517D01*
X230595Y249366D02*
X242025D01*
Y259780D01*
X156935Y248604D02*
X167349D01*
X156935D02*
Y260034D01*
X157117Y323788D02*
Y329050D01*
X162015Y333948D01*
X167095D01*
D58*
X92252Y20480D02*
G03*
X78536Y20480I-6858J0D01*
G01*
X551969Y178426D02*
G03*
X551969Y166626I-447J-5900D01*
G01*
X555573Y198224D02*
G03*
X555573Y198224I-1204J0D01*
G01*
X495778Y319102D02*
G03*
X495689Y319362I936J465D01*
G01*
X353784Y63805D02*
G03*
X353784Y63805I-2997J0D01*
G01*
X101396Y20480D02*
X107894D01*
X62894D02*
X69392D01*
X107894Y20626D02*
Y21783D01*
Y69470D02*
Y70626D01*
X62894D02*
X107894D01*
X62894Y69470D02*
Y70626D01*
Y20626D02*
Y21783D01*
X69392Y20480D02*
X78536D01*
X92252D02*
X101396D01*
X448901Y118152D02*
Y248152D01*
X328902D02*
X448901D01*
X328902Y118152D02*
Y248152D01*
Y118152D02*
X448901D01*
X338901Y88153D02*
X438901D01*
Y38153D02*
Y88153D01*
X428901Y38153D02*
X438901D01*
X428901D02*
Y68152D01*
X418901D02*
X428901D01*
X418901Y38153D02*
Y68152D01*
X408901Y38153D02*
X418901D01*
X408901D02*
Y68152D01*
X398901D02*
X408901D01*
X398901Y38153D02*
Y68152D01*
X388901Y38153D02*
X398901D01*
X388901D02*
Y68152D01*
X378901D02*
X388901D01*
X378901Y38153D02*
Y68152D01*
X318902Y38153D02*
X378901D01*
X318902Y98153D02*
X458901D01*
X308902Y28153D02*
X468901D01*
X308902D02*
Y105842D01*
Y120465D02*
Y125842D01*
Y140465D02*
Y145842D01*
Y160465D02*
Y165842D01*
Y180465D02*
Y185842D01*
Y200465D02*
Y205842D01*
Y220465D02*
Y225842D01*
Y240465D02*
Y245842D01*
Y260465D02*
Y268152D01*
X331607D01*
X346229D02*
X351607D01*
X366229D02*
X371599D01*
X386222D02*
X391606D01*
X406229D02*
X411594D01*
X426217D02*
X431573D01*
X446196D02*
X468901D01*
Y260465D02*
Y268152D01*
Y240465D02*
Y245842D01*
Y220465D02*
Y225842D01*
Y200465D02*
Y205842D01*
Y180465D02*
Y185842D01*
Y160465D02*
Y165842D01*
Y140465D02*
Y145842D01*
Y120465D02*
Y125842D01*
Y28153D02*
Y105842D01*
X551968Y155626D02*
Y166626D01*
X502069Y155626D02*
X551968D01*
X502069D02*
Y189339D01*
X551968D01*
Y178426D02*
Y189339D01*
X335790Y48305D02*
Y79303D01*
Y48305D02*
X337477D01*
X364101D02*
X365790D01*
Y54993D01*
Y72615D02*
Y79303D01*
X364101D02*
X365790D01*
X335790D02*
X337477D01*
X333989Y61305D02*
X348988D01*
X333989D02*
Y66504D01*
X349389D01*
D85*
X117393Y18126D02*
G03*
X117393Y18126I-1999J0D01*
G01*
D86*
X67579Y102364D02*
G03*
X66055Y100840I0J-1524D01*
G01*
X76027D02*
G03*
X74503Y102364I-1524J0D01*
G01*
X74488Y82854D02*
G03*
X76012Y84378I0J1524D01*
G01*
X66040D02*
G03*
X67564Y82854I1524J0D01*
G01*
X127344Y101802D02*
G03*
X125820Y100278I0J-1524D01*
G01*
X135793D02*
G03*
X134269Y101802I-1524J0D01*
G01*
X134253Y82294D02*
G03*
X135777Y83818I0J1524D01*
G01*
X125805D02*
G03*
X127329Y82294I1524J0D01*
G01*
X135309Y32285D02*
G03*
X136833Y30761I1524J0D01*
G01*
Y40733D02*
G03*
X135309Y39209I0J-1524D01*
G01*
X154818Y39193D02*
G03*
X153294Y40718I-1524J0D01*
G01*
Y30745D02*
G03*
X154818Y32269I0J1524D01*
G01*
X154611Y62752D02*
G03*
X153087Y64276I-1524J0D01*
G01*
Y54304D02*
G03*
X154611Y55828I0J1524D01*
G01*
X135102Y55844D02*
G03*
X136626Y54320I1524J0D01*
G01*
Y64292D02*
G03*
X135102Y62768I0J-1524D01*
G01*
X26643Y39149D02*
G03*
X25119Y37625I0J-1524D01*
G01*
X35091D02*
G03*
X33567Y39149I-1524J0D01*
G01*
X33551Y19640D02*
G03*
X35076Y21164I0J1524D01*
G01*
X25103D02*
G03*
X26628Y19640I1524J0D01*
G01*
X103251Y101997D02*
G03*
X101728Y100473I0J-1524D01*
G01*
X111699D02*
G03*
X110176Y101997I-1524J0D01*
G01*
X110160Y82488D02*
G03*
X111684Y84012I0J1524D01*
G01*
X101712D02*
G03*
X103236Y82488I1524J0D01*
G01*
X54343Y102910D02*
G03*
X52819Y101386I0J-1524D01*
G01*
X62791D02*
G03*
X61267Y102910I-1524J0D01*
G01*
X61251Y83401D02*
G03*
X62775Y84925I0J1524D01*
G01*
X52803D02*
G03*
X54327Y83401I1524J0D01*
G01*
X135309Y8409D02*
G03*
X136833Y6885I1524J0D01*
G01*
Y16857D02*
G03*
X135309Y15333I0J-1524D01*
G01*
X154818Y15317D02*
G03*
X153294Y16841I-1524J0D01*
G01*
Y6869D02*
G03*
X154818Y8393I0J1524D01*
G01*
X515904Y232569D02*
G03*
X514380Y231045I0J-1524D01*
G01*
X524352D02*
G03*
X522827Y232569I-1524J0D01*
G01*
X522812Y213060D02*
G03*
X524336Y214584I0J1524D01*
G01*
X514364D02*
G03*
X515888Y213060I1524J0D01*
G01*
X535660Y213836D02*
G03*
X537184Y215360I0J1524D01*
G01*
X527212D02*
G03*
X528736Y213836I1524J0D01*
G01*
X528751Y233345D02*
G03*
X527228Y231821I0J-1524D01*
G01*
X537200D02*
G03*
X535676Y233345I-1524J0D01*
G01*
X559471Y213015D02*
G03*
X560995Y214539I0J1524D01*
G01*
X551023D02*
G03*
X552547Y213015I1524J0D01*
G01*
X552563Y232524D02*
G03*
X551039Y231000I0J-1524D01*
G01*
X561011D02*
G03*
X559487Y232524I-1524J0D01*
G01*
X549289Y108383D02*
G03*
X550813Y109907I0J1524D01*
G01*
X540841D02*
G03*
X542365Y108383I1524J0D01*
G01*
X542380Y127892D02*
G03*
X540856Y126368I0J-1524D01*
G01*
X550829D02*
G03*
X549305Y127892I-1524J0D01*
G01*
X71887Y225388D02*
G03*
X73411Y226912I0J1524D01*
G01*
X63439D02*
G03*
X64963Y225388I1524J0D01*
G01*
X64979Y244897D02*
G03*
X63455Y243373I0J-1524D01*
G01*
X73427D02*
G03*
X71903Y244897I-1524J0D01*
G01*
X84309Y327276D02*
G03*
X82785Y328800I-1524J0D01*
G01*
Y318828D02*
G03*
X84309Y320352I0J1524D01*
G01*
X64800Y320368D02*
G03*
X66324Y318844I1524J0D01*
G01*
Y328816D02*
G03*
X64800Y327292I0J-1524D01*
G01*
X581712Y336409D02*
G03*
X580188Y337933I-1524J0D01*
G01*
Y327961D02*
G03*
X581712Y329484I0J1524D01*
G01*
X562203Y329500D02*
G03*
X563727Y327976I1524J0D01*
G01*
Y337948D02*
G03*
X562203Y336424I0J-1524D01*
G01*
X581712Y299480D02*
G03*
X580188Y301005I-1524J0D01*
G01*
Y291032D02*
G03*
X581712Y292556I0J1524D01*
G01*
X562203Y292572D02*
G03*
X563727Y291048I1524J0D01*
G01*
Y301020D02*
G03*
X562203Y299496I0J-1524D01*
G01*
X461247Y314081D02*
G03*
X462771Y312557I1524J0D01*
G01*
Y322529D02*
G03*
X461247Y321005I0J-1524D01*
G01*
X480756Y320989D02*
G03*
X479232Y322513I-1524J0D01*
G01*
Y312541D02*
G03*
X480756Y314065I0J1524D01*
G01*
X461247Y278365D02*
G03*
X462771Y276841I1524J0D01*
G01*
Y286813D02*
G03*
X461247Y285289I0J-1524D01*
G01*
X480756Y285273D02*
G03*
X479232Y286797I-1524J0D01*
G01*
Y276825D02*
G03*
X480756Y278349I0J1524D01*
G01*
X35104Y231252D02*
G03*
X33580Y232777I-1524J0D01*
G01*
Y222805D02*
G03*
X35104Y224328I0J1524D01*
G01*
X15595Y224344D02*
G03*
X17119Y222820I1524J0D01*
G01*
Y232792D02*
G03*
X15595Y231268I0J-1524D01*
G01*
X138461Y290031D02*
G03*
X136937Y291555I-1524J0D01*
G01*
Y281583D02*
G03*
X138461Y283107I0J1524D01*
G01*
X118952Y283123D02*
G03*
X120476Y281599I1524J0D01*
G01*
Y291571D02*
G03*
X118952Y290047I0J-1524D01*
G01*
X281415Y318653D02*
G03*
X282939Y317129I1524J0D01*
G01*
Y327101D02*
G03*
X281415Y325577I0J-1524D01*
G01*
X300924Y325561D02*
G03*
X299400Y327085I-1524J0D01*
G01*
Y317113D02*
G03*
X300924Y318637I0J1524D01*
G01*
X82522Y176563D02*
G03*
X80998Y178087I-1524J0D01*
G01*
Y168115D02*
G03*
X82522Y169639I0J1524D01*
G01*
X63013Y169655D02*
G03*
X64537Y168130I1524J0D01*
G01*
Y178102D02*
G03*
X63013Y176579I0J-1524D01*
G01*
X280907Y306461D02*
G03*
X282431Y304937I1524J0D01*
G01*
Y314909D02*
G03*
X280907Y313385I0J-1524D01*
G01*
X300416Y313369D02*
G03*
X298892Y314893I-1524J0D01*
G01*
Y304921D02*
G03*
X300416Y306445I0J1524D01*
G01*
X305360Y18908D02*
G03*
X303836Y20433I-1524J0D01*
G01*
Y10460D02*
G03*
X305360Y11984I0J1524D01*
G01*
X285851Y12000D02*
G03*
X287375Y10476I1524J0D01*
G01*
Y20448D02*
G03*
X285851Y18924I0J-1524D01*
G01*
X138461Y301715D02*
G03*
X136937Y303239I-1524J0D01*
G01*
Y293267D02*
G03*
X138461Y294791I0J1524D01*
G01*
X118952Y294807D02*
G03*
X120476Y293283I1524J0D01*
G01*
Y303255D02*
G03*
X118952Y301731I0J-1524D01*
G01*
X138461Y325083D02*
G03*
X136937Y326607I-1524J0D01*
G01*
Y316635D02*
G03*
X138461Y318159I0J1524D01*
G01*
X118952Y318175D02*
G03*
X120476Y316651I1524J0D01*
G01*
Y326623D02*
G03*
X118952Y325099I0J-1524D01*
G01*
X271763Y242961D02*
G03*
X273287Y241437I1524J0D01*
G01*
Y251409D02*
G03*
X271763Y249885I0J-1524D01*
G01*
X291272Y249869D02*
G03*
X289748Y251393I-1524J0D01*
G01*
Y241421D02*
G03*
X291272Y242945I0J1524D01*
G01*
X137681Y337020D02*
G03*
X136157Y338544I-1524J0D01*
G01*
Y328572D02*
G03*
X137681Y330096I0J1524D01*
G01*
X118172Y330112D02*
G03*
X119696Y328588I1524J0D01*
G01*
Y338560D02*
G03*
X118172Y337036I0J-1524D01*
G01*
X67579Y102364D02*
X74503D01*
X76027Y94292D02*
Y100840D01*
X66055Y94242D02*
Y100840D01*
X67564Y82854D02*
X74488D01*
X66040Y84378D02*
X66063Y90708D01*
X76009Y90656D02*
X76012Y84378D01*
X127344Y101802D02*
X134269D01*
X135793Y93731D02*
Y100278D01*
X125820Y93681D02*
Y100278D01*
X127329Y82294D02*
X134253D01*
X125805Y83818D02*
X125828Y90147D01*
X135774Y90095D02*
X135777Y83818D01*
X135309Y32285D02*
Y39209D01*
X136833Y40733D02*
X143381D01*
X136833Y30761D02*
X143431D01*
X154818Y32269D02*
Y39193D01*
X146965Y30769D02*
X153294Y30745D01*
X147016Y40714D02*
X153294Y40718D01*
X154611Y55828D02*
Y62752D01*
X146540Y54304D02*
X153087D01*
X146490Y64276D02*
X153087D01*
X135102Y55844D02*
Y62768D01*
X136626Y64292D02*
X142956Y64269D01*
X136626Y54320D02*
X142904Y54323D01*
X26643Y39149D02*
X33567D01*
X35091Y31077D02*
Y37625D01*
X25119Y31028D02*
Y37625D01*
X26628Y19640D02*
X33551D01*
X25103Y21164D02*
X25127Y27494D01*
X35073Y27442D02*
X35076Y21164D01*
X103251Y101997D02*
X110176D01*
X111699Y93925D02*
Y100473D01*
X101728Y93876D02*
Y100473D01*
X103236Y82488D02*
X110160D01*
X101712Y84012D02*
X101735Y90342D01*
X111681Y90290D02*
X111684Y84012D01*
X54343Y102910D02*
X61267D01*
X62791Y94838D02*
Y101386D01*
X52819Y94789D02*
Y101386D01*
X54327Y83401D02*
X61251D01*
X52803Y84925D02*
X52826Y91255D01*
X62772Y91203D02*
X62775Y84925D01*
X135309Y8409D02*
Y15333D01*
X136833Y16857D02*
X143381D01*
X136833Y6885D02*
X143431D01*
X154818Y8393D02*
Y15317D01*
X146965Y6893D02*
X153294Y6869D01*
X147016Y16838D02*
X153294Y16841D01*
X244253Y61355D02*
X252154D01*
X242729Y59831D02*
X244253Y61355D01*
X242729Y52907D02*
Y59831D01*
Y52907D02*
X244253Y51383D01*
X252154D01*
X256678Y61355D02*
X264579D01*
X266103Y59831D01*
Y52907D02*
Y59831D01*
X264579Y51383D02*
X266103Y52907D01*
X256678Y51383D02*
X264579D01*
X515904Y232569D02*
X522827D01*
X524352Y224497D02*
Y231045D01*
X514380Y224448D02*
Y231045D01*
X515888Y213060D02*
X522812D01*
X514364Y214584D02*
X514387Y220914D01*
X524333Y220862D02*
X524336Y214584D01*
X528736Y213836D02*
X535660D01*
X527212Y215360D02*
Y221908D01*
X537184Y215360D02*
Y221957D01*
X528751Y233345D02*
X535676D01*
X537176Y225491D02*
X537200Y231821D01*
X527228D02*
X527231Y225543D01*
X415672Y308223D02*
Y317331D01*
X430196Y317722D02*
Y328039D01*
X415672D02*
X430196D01*
Y297514D02*
Y307831D01*
X415672Y297514D02*
X430196D01*
X379604Y308223D02*
Y317331D01*
X394128Y317722D02*
Y328039D01*
X379604D02*
X394128D01*
Y297514D02*
Y307831D01*
X379604Y297514D02*
X394128D01*
X552547Y213015D02*
X559471D01*
X551023Y214539D02*
Y221087D01*
X560995Y214539D02*
Y221137D01*
X552563Y232524D02*
X559487D01*
X560988Y224671D02*
X561011Y231000D01*
X551039D02*
X551042Y224722D01*
X542365Y108383D02*
X549289D01*
X540841Y109907D02*
Y116455D01*
X550813Y109907D02*
Y116504D01*
X542380Y127892D02*
X549305D01*
X550805Y120038D02*
X550829Y126368D01*
X540856D02*
X540859Y120090D01*
X64963Y225388D02*
X71887D01*
X63439Y226912D02*
Y233460D01*
X73411Y226912D02*
Y233510D01*
X64979Y244897D02*
X71903D01*
X73404Y237043D02*
X73427Y243373D01*
X63455D02*
X63458Y237095D01*
X84309Y320352D02*
Y327276D01*
X76237Y318828D02*
X82785D01*
X76188Y328800D02*
X82785D01*
X64800Y320368D02*
Y327292D01*
X66324Y328816D02*
X72654Y328793D01*
X66324Y318844D02*
X72602Y318847D01*
X581712Y329484D02*
Y336409D01*
X573640Y327961D02*
X580188D01*
X573590Y337933D02*
X580188D01*
X562203Y329500D02*
Y336424D01*
X563727Y337948D02*
X570056Y337925D01*
X563727Y327976D02*
X570005Y327979D01*
X581712Y292556D02*
Y299480D01*
X573640Y291032D02*
X580188D01*
X573590Y301005D02*
X580188D01*
X562203Y292572D02*
Y299496D01*
X563727Y301020D02*
X570056Y300997D01*
X563727Y291048D02*
X570005Y291051D01*
X461247Y314081D02*
Y321005D01*
X462771Y322529D02*
X469319D01*
X462771Y312557D02*
X469368D01*
X480756Y314065D02*
Y320989D01*
X472902Y312565D02*
X479232Y312541D01*
X472954Y322510D02*
X479232Y322513D01*
X461247Y278365D02*
Y285289D01*
X462771Y286813D02*
X469319D01*
X462771Y276841D02*
X469368D01*
X480756Y278349D02*
Y285273D01*
X472902Y276849D02*
X479232Y276825D01*
X472954Y286794D02*
X479232Y286797D01*
X35104Y224328D02*
Y231252D01*
X27032Y222805D02*
X33580D01*
X26982Y232777D02*
X33580D01*
X15595Y224344D02*
Y231268D01*
X17119Y232792D02*
X23449Y232769D01*
X17119Y222820D02*
X23397Y222823D01*
X138461Y283107D02*
Y290031D01*
X130389Y281583D02*
X136937D01*
X130340Y291555D02*
X136937D01*
X118952Y283123D02*
Y290047D01*
X120476Y291571D02*
X126806Y291548D01*
X120476Y281599D02*
X126754Y281602D01*
X281415Y318653D02*
Y325577D01*
X282939Y327101D02*
X289487D01*
X282939Y317129D02*
X289536D01*
X300924Y318637D02*
Y325561D01*
X293070Y317136D02*
X299400Y317113D01*
X293122Y327082D02*
X299400Y327085D01*
X82522Y169639D02*
Y176563D01*
X74450Y168115D02*
X80998D01*
X74401Y178087D02*
X80998D01*
X63013Y169655D02*
Y176579D01*
X64537Y178102D02*
X70867Y178079D01*
X64537Y168130D02*
X70815Y168134D01*
X280907Y306461D02*
Y313385D01*
X282431Y314909D02*
X288979D01*
X282431Y304937D02*
X289028D01*
X300416Y306445D02*
Y313369D01*
X292562Y304944D02*
X298892Y304921D01*
X292614Y314890D02*
X298892Y314893D01*
X305360Y11984D02*
Y18908D01*
X297288Y10460D02*
X303836D01*
X297238Y20433D02*
X303836D01*
X285851Y12000D02*
Y18924D01*
X287375Y20448D02*
X293704Y20425D01*
X287375Y10476D02*
X293653Y10479D01*
X138461Y294791D02*
Y301715D01*
X130389Y293267D02*
X136937D01*
X130340Y303239D02*
X136937D01*
X118952Y294807D02*
Y301731D01*
X120476Y303255D02*
X126806Y303232D01*
X120476Y293283D02*
X126754Y293286D01*
X138461Y318159D02*
Y325083D01*
X130389Y316635D02*
X136937D01*
X130340Y326607D02*
X136937D01*
X118952Y318175D02*
Y325099D01*
X120476Y326623D02*
X126806Y326600D01*
X120476Y316651D02*
X126754Y316654D01*
X271763Y242961D02*
Y249885D01*
X273287Y251409D02*
X279835D01*
X273287Y241437D02*
X279884D01*
X291272Y242945D02*
Y249869D01*
X283418Y241444D02*
X289748Y241421D01*
X283470Y251390D02*
X289748Y251393D01*
X82811Y143145D02*
Y152253D01*
X68287Y132437D02*
Y142753D01*
Y132437D02*
X82811D01*
X68287Y152645D02*
Y162961D01*
X82811D01*
X137681Y330096D02*
Y337020D01*
X129609Y328572D02*
X136157D01*
X129560Y338544D02*
X136157D01*
X118172Y330112D02*
Y337036D01*
X119696Y338560D02*
X126026Y338536D01*
X119696Y328588D02*
X125974Y328591D01*
D87*
X61739Y261283D02*
G03*
X61739Y261283I-508J0D01*
G01*
X17599D02*
G03*
X17599Y261283I-508J0D01*
G01*
D88*
X516096Y28530D02*
X518246Y26380D01*
X516305D02*
X518246D01*
X518291Y26425D01*
Y28407D01*
X519629Y27835D02*
X521779Y25685D01*
X519837D02*
X521779D01*
X521824Y25730D01*
Y27711D01*
X515118Y33806D02*
X522264D01*
X520286Y29866D02*
Y38095D01*
X520008Y33623D02*
X520156D01*
X516826Y30441D02*
X520008Y33623D01*
X516826Y30441D02*
Y37364D01*
X520008Y34183D01*
Y33623D02*
Y34183D01*
X555213Y266067D02*
Y316567D01*
X494713D02*
X555213D01*
X494713Y266067D02*
X555213D01*
X494713D02*
Y316567D01*
X63518Y121748D02*
Y128748D01*
Y121748D02*
X76518D01*
X79518D01*
Y126248D01*
Y128748D01*
X63518D02*
X79518D01*
X71440Y123996D02*
Y126697D01*
X70353Y124147D02*
X71452Y125246D01*
X70349Y126348D02*
X71452Y125246D01*
X70353Y124147D02*
Y126344D01*
X72649Y124193D02*
Y126391D01*
X71550Y125292D02*
X72653Y124189D01*
X71550Y125292D02*
X72649Y126391D01*
D89*
X495181Y51894D02*
X489682D01*
Y54643D01*
X490599Y55559D01*
X492431D01*
X493348Y54643D01*
Y51894D01*
Y53727D02*
X495181Y55559D01*
Y61058D02*
Y57392D01*
X491515Y61058D01*
X490599D01*
X489682Y60141D01*
Y58308D01*
X490599Y57392D01*
X489682Y62890D02*
Y66556D01*
X490599D01*
X494264Y62890D01*
X495181D01*
X88351Y175228D02*
X87435Y176144D01*
X85602D01*
X84686Y175228D01*
Y171562D01*
X85602Y170646D01*
X87435D01*
X88351Y171562D01*
X90184Y170646D02*
X92017D01*
X91101D01*
Y176144D01*
X90184Y175228D01*
X129547Y241280D02*
X128631Y240364D01*
Y238531D01*
X129547Y237615D01*
X133213D01*
X134129Y238531D01*
Y240364D01*
X133213Y241280D01*
X134129Y246778D02*
Y243113D01*
X130464Y246778D01*
X129547D01*
X128631Y245862D01*
Y244029D01*
X129547Y243113D01*
X137167Y241788D02*
X136251Y240872D01*
Y239039D01*
X137167Y238123D01*
X140833D01*
X141749Y239039D01*
Y240872D01*
X140833Y241788D01*
X137167Y243621D02*
X136251Y244537D01*
Y246370D01*
X137167Y247286D01*
X138084D01*
X139000Y246370D01*
Y245454D01*
Y246370D01*
X139916Y247286D01*
X140833D01*
X141749Y246370D01*
Y244537D01*
X140833Y243621D01*
X40259Y228989D02*
X39342Y229905D01*
X37510D01*
X36593Y228989D01*
Y225323D01*
X37510Y224407D01*
X39342D01*
X40259Y225323D01*
X42091Y228989D02*
X43008Y229905D01*
X44841D01*
X45757Y228989D01*
Y228072D01*
X44841Y227156D01*
X45757Y226239D01*
Y225323D01*
X44841Y224407D01*
X43008D01*
X42091Y225323D01*
Y226239D01*
X43008Y227156D01*
X42091Y228072D01*
Y228989D01*
X43008Y227156D02*
X44841D01*
X57417Y344419D02*
X56501Y345335D01*
X54668D01*
X53752Y344419D01*
Y340753D01*
X54668Y339837D01*
X56501D01*
X57417Y340753D01*
X59250D02*
X60166Y339837D01*
X61999D01*
X62915Y340753D01*
Y344419D01*
X61999Y345335D01*
X60166D01*
X59250Y344419D01*
Y343502D01*
X60166Y342586D01*
X62915D01*
X57216Y336195D02*
X56300Y337111D01*
X54467D01*
X53551Y336195D01*
Y332529D01*
X54467Y331613D01*
X56300D01*
X57216Y332529D01*
X59049Y331613D02*
X60882D01*
X59965D01*
Y337111D01*
X59049Y336195D01*
X63631D02*
X64547Y337111D01*
X66380D01*
X67296Y336195D01*
Y332529D01*
X66380Y331613D01*
X64547D01*
X63631Y332529D01*
Y336195D01*
X66047Y250424D02*
X65131Y249508D01*
Y247675D01*
X66047Y246759D01*
X69713D01*
X70629Y247675D01*
Y249508D01*
X69713Y250424D01*
X70629Y252257D02*
Y254090D01*
Y253173D01*
X65131D01*
X66047Y252257D01*
X70629Y256839D02*
Y258671D01*
Y257755D01*
X65131D01*
X66047Y256839D01*
X90250Y326001D02*
X89333Y326917D01*
X87500D01*
X86584Y326001D01*
Y322336D01*
X87500Y321419D01*
X89333D01*
X90250Y322336D01*
X92082Y321419D02*
X93915D01*
X92999D01*
Y326917D01*
X92082Y326001D01*
X100330Y321419D02*
X96664D01*
X100330Y325085D01*
Y326001D01*
X99413Y326917D01*
X97580D01*
X96664Y326001D01*
X161671Y37981D02*
X160754Y38897D01*
X158922D01*
X158005Y37981D01*
Y34315D01*
X158922Y33399D01*
X160754D01*
X161671Y34315D01*
X163503Y33399D02*
X165336D01*
X164420D01*
Y38897D01*
X163503Y37981D01*
X168085D02*
X169002Y38897D01*
X170834D01*
X171751Y37981D01*
Y37064D01*
X170834Y36148D01*
X169918D01*
X170834D01*
X171751Y35231D01*
Y34315D01*
X170834Y33399D01*
X169002D01*
X168085Y34315D01*
X161671Y14105D02*
X160754Y15021D01*
X158922D01*
X158005Y14105D01*
Y10439D01*
X158922Y9523D01*
X160754D01*
X161671Y10439D01*
X163503Y9523D02*
X165336D01*
X164420D01*
Y15021D01*
X163503Y14105D01*
X170834Y9523D02*
Y15021D01*
X168085Y12272D01*
X171751D01*
X161527Y65313D02*
X160610Y66229D01*
X158778D01*
X157861Y65313D01*
Y61647D01*
X158778Y60731D01*
X160610D01*
X161527Y61647D01*
X163360Y60731D02*
X165192D01*
X164276D01*
Y66229D01*
X163360Y65313D01*
X171607Y66229D02*
X167941D01*
Y63480D01*
X169774Y64396D01*
X170690D01*
X171607Y63480D01*
Y61647D01*
X170690Y60731D01*
X168858D01*
X167941Y61647D01*
X104268Y108250D02*
X103352Y107334D01*
Y105501D01*
X104268Y104585D01*
X107934D01*
X108850Y105501D01*
Y107334D01*
X107934Y108250D01*
X108850Y110083D02*
Y111916D01*
Y110999D01*
X103352D01*
X104268Y110083D01*
X103352Y118330D02*
X104268Y116498D01*
X106101Y114665D01*
X107934D01*
X108850Y115581D01*
Y117414D01*
X107934Y118330D01*
X107017D01*
X106101Y117414D01*
Y114665D01*
X128684Y108942D02*
X127767Y108025D01*
Y106193D01*
X128684Y105276D01*
X132349D01*
X133266Y106193D01*
Y108025D01*
X132349Y108942D01*
X133266Y110774D02*
Y112607D01*
Y111691D01*
X127767D01*
X128684Y110774D01*
X127767Y115356D02*
Y119022D01*
X128684D01*
X132349Y115356D01*
X133266D01*
X55968Y109010D02*
X55051Y108093D01*
Y106261D01*
X55968Y105344D01*
X59633D01*
X60550Y106261D01*
Y108093D01*
X59633Y109010D01*
X60550Y110843D02*
Y112675D01*
Y111759D01*
X55051D01*
X55968Y110843D01*
Y115424D02*
X55051Y116341D01*
Y118174D01*
X55968Y119090D01*
X56884D01*
X57800Y118174D01*
X58717Y119090D01*
X59633D01*
X60550Y118174D01*
Y116341D01*
X59633Y115424D01*
X58717D01*
X57800Y116341D01*
X56884Y115424D01*
X55968D01*
X57800Y116341D02*
Y118174D01*
X69112Y108097D02*
X68196Y107181D01*
Y105348D01*
X69112Y104432D01*
X72778D01*
X73694Y105348D01*
Y107181D01*
X72778Y108097D01*
X73694Y109930D02*
Y111763D01*
Y110847D01*
X68196D01*
X69112Y109930D01*
X72778Y114512D02*
X73694Y115428D01*
Y117261D01*
X72778Y118177D01*
X69112D01*
X68196Y117261D01*
Y115428D01*
X69112Y114512D01*
X70029D01*
X70945Y115428D01*
Y118177D01*
X35733Y124181D02*
X34817Y125097D01*
X32984D01*
X32068Y124181D01*
Y120516D01*
X32984Y119599D01*
X34817D01*
X35733Y120516D01*
X41232Y119599D02*
X37566D01*
X41232Y123265D01*
Y124181D01*
X40315Y125097D01*
X38483D01*
X37566Y124181D01*
X43064D02*
X43981Y125097D01*
X45813D01*
X46730Y124181D01*
Y120516D01*
X45813Y119599D01*
X43981D01*
X43064Y120516D01*
Y124181D01*
X17365Y124409D02*
X16449Y125325D01*
X14616D01*
X13700Y124409D01*
Y120744D01*
X14616Y119827D01*
X16449D01*
X17365Y120744D01*
X22863Y119827D02*
X19198D01*
X22863Y123493D01*
Y124409D01*
X21947Y125325D01*
X20114D01*
X19198Y124409D01*
X24696Y119827D02*
X26529D01*
X25612D01*
Y125325D01*
X24696Y124409D01*
X32151Y13865D02*
X33067Y14782D01*
Y16614D01*
X32151Y17531D01*
X28485D01*
X27569Y16614D01*
Y14782D01*
X28485Y13865D01*
X27569Y8367D02*
Y12033D01*
X31234Y8367D01*
X32151D01*
X33067Y9283D01*
Y11116D01*
X32151Y12033D01*
X27569Y2869D02*
Y6534D01*
X31234Y2869D01*
X32151D01*
X33067Y3785D01*
Y5618D01*
X32151Y6534D01*
X144868Y334248D02*
X143952Y335164D01*
X142119D01*
X141202Y334248D01*
Y330583D01*
X142119Y329666D01*
X143952D01*
X144868Y330583D01*
X150366Y329666D02*
X146701D01*
X150366Y333332D01*
Y334248D01*
X149450Y335164D01*
X147617D01*
X146701Y334248D01*
X154948Y329666D02*
Y335164D01*
X152199Y332415D01*
X155864D01*
X104340Y340091D02*
X103424Y341008D01*
X101591D01*
X100674Y340091D01*
Y336426D01*
X101591Y335509D01*
X103424D01*
X104340Y336426D01*
X109838Y335509D02*
X106173D01*
X109838Y339175D01*
Y340091D01*
X108922Y341008D01*
X107089D01*
X106173Y340091D01*
X115336Y341008D02*
X111671D01*
Y338259D01*
X113504Y339175D01*
X114420D01*
X115336Y338259D01*
Y336426D01*
X114420Y335509D01*
X112587D01*
X111671Y336426D01*
X101452Y300467D02*
X100535Y301384D01*
X98703D01*
X97786Y300467D01*
Y296802D01*
X98703Y295886D01*
X100535D01*
X101452Y296802D01*
X106950Y295886D02*
X103285D01*
X106950Y299551D01*
Y300467D01*
X106034Y301384D01*
X104201D01*
X103285Y300467D01*
X112448Y301384D02*
X110616Y300467D01*
X108783Y298635D01*
Y296802D01*
X109699Y295886D01*
X111532D01*
X112448Y296802D01*
Y297718D01*
X111532Y298635D01*
X108783D01*
X101452Y287768D02*
X100535Y288684D01*
X98703D01*
X97786Y287768D01*
Y284102D01*
X98703Y283186D01*
X100535D01*
X101452Y284102D01*
X106950Y283186D02*
X103285D01*
X106950Y286851D01*
Y287768D01*
X106034Y288684D01*
X104201D01*
X103285Y287768D01*
X108783Y288684D02*
X112448D01*
Y287768D01*
X108783Y284102D01*
Y283186D01*
X277495Y335161D02*
X276578Y336077D01*
X274746D01*
X273829Y335161D01*
Y331495D01*
X274746Y330579D01*
X276578D01*
X277495Y331495D01*
X282993Y330579D02*
X279328D01*
X282993Y334244D01*
Y335161D01*
X282077Y336077D01*
X280244D01*
X279328Y335161D01*
X284826D02*
X285742Y336077D01*
X287575D01*
X288491Y335161D01*
Y334244D01*
X287575Y333328D01*
X288491Y332411D01*
Y331495D01*
X287575Y330579D01*
X285742D01*
X284826Y331495D01*
Y332411D01*
X285742Y333328D01*
X284826Y334244D01*
Y335161D01*
X285742Y333328D02*
X287575D01*
X276479Y258961D02*
X275562Y259877D01*
X273730D01*
X272813Y258961D01*
Y255295D01*
X273730Y254379D01*
X275562D01*
X276479Y255295D01*
X281977Y254379D02*
X278312D01*
X281977Y258044D01*
Y258961D01*
X281061Y259877D01*
X279228D01*
X278312Y258961D01*
X283810Y255295D02*
X284726Y254379D01*
X286559D01*
X287475Y255295D01*
Y258961D01*
X286559Y259877D01*
X284726D01*
X283810Y258961D01*
Y258044D01*
X284726Y257128D01*
X287475D01*
X447294Y284361D02*
X446378Y285277D01*
X444545D01*
X443629Y284361D01*
Y280695D01*
X444545Y279779D01*
X446378D01*
X447294Y280695D01*
X449127Y284361D02*
X450043Y285277D01*
X451876D01*
X452793Y284361D01*
Y283444D01*
X451876Y282528D01*
X450960D01*
X451876D01*
X452793Y281611D01*
Y280695D01*
X451876Y279779D01*
X450043D01*
X449127Y280695D01*
X454625Y284361D02*
X455542Y285277D01*
X457374D01*
X458291Y284361D01*
Y280695D01*
X457374Y279779D01*
X455542D01*
X454625Y280695D01*
Y284361D01*
X447362Y319491D02*
X446446Y320407D01*
X444613D01*
X443697Y319491D01*
Y315825D01*
X444613Y314909D01*
X446446D01*
X447362Y315825D01*
X449195Y319491D02*
X450111Y320407D01*
X451944D01*
X452860Y319491D01*
Y318574D01*
X451944Y317658D01*
X451028D01*
X451944D01*
X452860Y316742D01*
Y315825D01*
X451944Y314909D01*
X450111D01*
X449195Y315825D01*
X454693Y314909D02*
X456526D01*
X455610D01*
Y320407D01*
X454693Y319491D01*
X589151Y312017D02*
X588235Y312934D01*
X586402D01*
X585486Y312017D01*
Y308352D01*
X586402Y307435D01*
X588235D01*
X589151Y308352D01*
X590984Y312017D02*
X591901Y312934D01*
X593733D01*
X594650Y312017D01*
Y311101D01*
X593733Y310184D01*
X592817D01*
X593733D01*
X594650Y309268D01*
Y308352D01*
X593733Y307435D01*
X591901D01*
X590984Y308352D01*
X600148Y307435D02*
X596482D01*
X600148Y311101D01*
Y312017D01*
X599231Y312934D01*
X597399D01*
X596482Y312017D01*
X589407Y335161D02*
X588490Y336077D01*
X586658D01*
X585741Y335161D01*
Y331495D01*
X586658Y330579D01*
X588490D01*
X589407Y331495D01*
X591240Y335161D02*
X592156Y336077D01*
X593989D01*
X594905Y335161D01*
Y334244D01*
X593989Y333328D01*
X593072D01*
X593989D01*
X594905Y332411D01*
Y331495D01*
X593989Y330579D01*
X592156D01*
X591240Y331495D01*
X596738Y335161D02*
X597654Y336077D01*
X599487D01*
X600403Y335161D01*
Y334244D01*
X599487Y333328D01*
X598570D01*
X599487D01*
X600403Y332411D01*
Y331495D01*
X599487Y330579D01*
X597654D01*
X596738Y331495D01*
X283101Y29582D02*
X282184Y30499D01*
X280352D01*
X279435Y29582D01*
Y25917D01*
X280352Y25001D01*
X282184D01*
X283101Y25917D01*
X288599Y30499D02*
X284933D01*
Y27750D01*
X286766Y28666D01*
X287683D01*
X288599Y27750D01*
Y25917D01*
X287683Y25001D01*
X285850D01*
X284933Y25917D01*
X290432Y29582D02*
X291348Y30499D01*
X293181D01*
X294097Y29582D01*
Y28666D01*
X293181Y27750D01*
X292264D01*
X293181D01*
X294097Y26833D01*
Y25917D01*
X293181Y25001D01*
X291348D01*
X290432Y25917D01*
X276987Y300617D02*
X276070Y301533D01*
X274238D01*
X273321Y300617D01*
Y296951D01*
X274238Y296035D01*
X276070D01*
X276987Y296951D01*
X282485Y301533D02*
X280652Y300617D01*
X278820Y298784D01*
Y296951D01*
X279736Y296035D01*
X281569D01*
X282485Y296951D01*
Y297868D01*
X281569Y298784D01*
X278820D01*
X284318Y300617D02*
X285234Y301533D01*
X287067D01*
X287983Y300617D01*
Y299700D01*
X287067Y298784D01*
X287983Y297868D01*
Y296951D01*
X287067Y296035D01*
X285234D01*
X284318Y296951D01*
Y297868D01*
X285234Y298784D01*
X284318Y299700D01*
Y300617D01*
X285234Y298784D02*
X287067D01*
X506415Y216836D02*
X505499Y215920D01*
Y214087D01*
X506415Y213171D01*
X510081D01*
X510997Y214087D01*
Y215920D01*
X510081Y216836D01*
X510997Y222334D02*
Y218669D01*
X507332Y222334D01*
X506415D01*
X505499Y221418D01*
Y219585D01*
X506415Y218669D01*
Y224167D02*
X505499Y225084D01*
Y226916D01*
X506415Y227833D01*
X510081D01*
X510997Y226916D01*
Y225084D01*
X510081Y224167D01*
X506415D01*
X510997Y229665D02*
Y231498D01*
Y230582D01*
X505499D01*
X506415Y229665D01*
X573698Y219237D02*
X572782Y218321D01*
Y216488D01*
X573698Y215572D01*
X577364D01*
X578280Y216488D01*
Y218321D01*
X577364Y219237D01*
X578280Y224735D02*
Y221070D01*
X574615Y224735D01*
X573698D01*
X572782Y223819D01*
Y221986D01*
X573698Y221070D01*
Y226568D02*
X572782Y227484D01*
Y229317D01*
X573698Y230233D01*
X577364D01*
X578280Y229317D01*
Y227484D01*
X577364Y226568D01*
X573698D01*
X578280Y235732D02*
Y232066D01*
X574615Y235732D01*
X573698D01*
X572782Y234815D01*
Y232983D01*
X573698Y232066D01*
X548439Y102521D02*
X549355Y103438D01*
Y105271D01*
X548439Y106187D01*
X544774D01*
X543857Y105271D01*
Y103438D01*
X544774Y102521D01*
X543857Y97023D02*
Y100689D01*
X547523Y97023D01*
X548439D01*
X549355Y97940D01*
Y99772D01*
X548439Y100689D01*
Y95190D02*
X549355Y94274D01*
Y92441D01*
X548439Y91525D01*
X544774D01*
X543857Y92441D01*
Y94274D01*
X544774Y95190D01*
X548439D01*
Y89692D02*
X549355Y88776D01*
Y86943D01*
X548439Y86027D01*
X547523D01*
X546606Y86943D01*
Y87859D01*
Y86943D01*
X545690Y86027D01*
X544774D01*
X543857Y86943D01*
Y88776D01*
X544774Y89692D01*
X497971Y217283D02*
X497055Y216367D01*
Y214534D01*
X497971Y213618D01*
X501637D01*
X502553Y214534D01*
Y216367D01*
X501637Y217283D01*
X502553Y222781D02*
Y219116D01*
X498887Y222781D01*
X497971D01*
X497055Y221865D01*
Y220032D01*
X497971Y219116D01*
Y224614D02*
X497055Y225530D01*
Y227363D01*
X497971Y228279D01*
X501637D01*
X502553Y227363D01*
Y225530D01*
X501637Y224614D01*
X497971D01*
X502553Y232861D02*
X497055D01*
X499804Y230112D01*
Y233778D01*
X543390Y57285D02*
X542474Y58201D01*
X540641D01*
X539725Y57285D01*
Y53619D01*
X540641Y52703D01*
X542474D01*
X543390Y53619D01*
X548889Y52703D02*
X545223D01*
X548889Y56368D01*
Y57285D01*
X547972Y58201D01*
X546139D01*
X545223Y57285D01*
X550721D02*
X551638Y58201D01*
X553470D01*
X554387Y57285D01*
Y53619D01*
X553470Y52703D01*
X551638D01*
X550721Y53619D01*
Y57285D01*
X559885Y58201D02*
X556219D01*
Y55452D01*
X558052Y56368D01*
X558969D01*
X559885Y55452D01*
Y53619D01*
X558969Y52703D01*
X557136D01*
X556219Y53619D01*
X542374Y77605D02*
X541458Y78521D01*
X539625D01*
X538709Y77605D01*
Y73939D01*
X539625Y73023D01*
X541458D01*
X542374Y73939D01*
X547873Y73023D02*
X544207D01*
X547873Y76688D01*
Y77605D01*
X546956Y78521D01*
X545123D01*
X544207Y77605D01*
X549705D02*
X550622Y78521D01*
X552454D01*
X553371Y77605D01*
Y73939D01*
X552454Y73023D01*
X550622D01*
X549705Y73939D01*
Y77605D01*
X558869Y78521D02*
X557036Y77605D01*
X555204Y75772D01*
Y73939D01*
X556120Y73023D01*
X557953D01*
X558869Y73939D01*
Y74855D01*
X557953Y75772D01*
X555204D01*
X81297Y128305D02*
Y122807D01*
X84046D01*
X84963Y123723D01*
Y127389D01*
X84046Y128305D01*
X81297D01*
X86796Y122807D02*
X88628D01*
X87712D01*
Y128305D01*
X86796Y127389D01*
X84977Y145041D02*
Y150540D01*
X86810Y148707D01*
X88642Y150540D01*
Y145041D01*
X90475D02*
X92308D01*
X91391D01*
Y150540D01*
X90475Y149623D01*
X631969Y241171D02*
Y246669D01*
X634718D01*
X635635Y245753D01*
Y243920D01*
X634718Y243004D01*
X631969D01*
X641133Y241171D02*
X637467D01*
X641133Y244836D01*
Y245753D01*
X640217Y246669D01*
X638384D01*
X637467Y245753D01*
X226077Y27303D02*
Y32801D01*
X228826D01*
X229743Y31885D01*
Y30052D01*
X228826Y29135D01*
X226077D01*
X235241Y32801D02*
X231576D01*
Y30052D01*
X233408Y30968D01*
X234325D01*
X235241Y30052D01*
Y28219D01*
X234325Y27303D01*
X232492D01*
X231576Y28219D01*
X399923Y322859D02*
Y326525D01*
X399006Y327441D01*
X397174D01*
X396257Y326525D01*
Y322859D01*
X397174Y321943D01*
X399006D01*
X398090Y323775D02*
X399923Y321943D01*
X399006D02*
X399923Y322859D01*
X405421Y327441D02*
X403588Y326525D01*
X401755Y324692D01*
Y322859D01*
X402672Y321943D01*
X404505D01*
X405421Y322859D01*
Y323775D01*
X404505Y324692D01*
X401755D01*
X437515Y322351D02*
Y326017D01*
X436598Y326933D01*
X434766D01*
X433849Y326017D01*
Y322351D01*
X434766Y321435D01*
X436598D01*
X435682Y323268D02*
X437515Y321435D01*
X436598D02*
X437515Y322351D01*
X439347Y326933D02*
X443013D01*
Y326017D01*
X439347Y322351D01*
Y321435D01*
X35808Y237272D02*
Y242770D01*
X38557D01*
X39474Y241854D01*
Y240021D01*
X38557Y239105D01*
X35808D01*
X37641D02*
X39474Y237272D01*
X41306D02*
X43139D01*
X42223D01*
Y242770D01*
X41306Y241854D01*
X45888D02*
X46805Y242770D01*
X48637D01*
X49554Y241854D01*
Y240938D01*
X48637Y240021D01*
X47721D01*
X48637D01*
X49554Y239105D01*
Y238188D01*
X48637Y237272D01*
X46805D01*
X45888Y238188D01*
X59096Y246233D02*
X53598D01*
Y248982D01*
X54514Y249899D01*
X56347D01*
X57263Y248982D01*
Y246233D01*
Y248066D02*
X59096Y249899D01*
Y251731D02*
Y253564D01*
Y252648D01*
X53598D01*
X54514Y251731D01*
X59096Y259062D02*
X53598D01*
X56347Y256313D01*
Y259979D01*
X86782Y313567D02*
Y319065D01*
X89531D01*
X90448Y318149D01*
Y316316D01*
X89531Y315400D01*
X86782D01*
X88615D02*
X90448Y313567D01*
X92281D02*
X94113D01*
X93197D01*
Y319065D01*
X92281Y318149D01*
X100528Y319065D02*
X96862D01*
Y316316D01*
X98695Y317232D01*
X99612D01*
X100528Y316316D01*
Y314483D01*
X99612Y313567D01*
X97779D01*
X96862Y314483D01*
X158313Y53600D02*
Y59098D01*
X161062D01*
X161978Y58181D01*
Y56349D01*
X161062Y55432D01*
X158313D01*
X160145D02*
X161978Y53600D01*
X163811D02*
X165644D01*
X164727D01*
Y59098D01*
X163811Y58181D01*
X168393Y59098D02*
X172058D01*
Y58181D01*
X168393Y54516D01*
Y53600D01*
X158005Y20191D02*
Y25689D01*
X160754D01*
X161671Y24773D01*
Y22940D01*
X160754Y22023D01*
X158005D01*
X159838D02*
X161671Y20191D01*
X163503D02*
X165336D01*
X164420D01*
Y25689D01*
X163503Y24773D01*
X168085D02*
X169002Y25689D01*
X170834D01*
X171751Y24773D01*
Y23856D01*
X170834Y22940D01*
X171751Y22023D01*
Y21107D01*
X170834Y20191D01*
X169002D01*
X168085Y21107D01*
Y22023D01*
X169002Y22940D01*
X168085Y23856D01*
Y24773D01*
X169002Y22940D02*
X170834D01*
X163039Y69446D02*
Y74945D01*
X165788D01*
X166705Y74028D01*
Y72196D01*
X165788Y71279D01*
X163039D01*
X164872D02*
X166705Y69446D01*
X168538D02*
X170370D01*
X169454D01*
Y74945D01*
X168538Y74028D01*
X173119Y70363D02*
X174036Y69446D01*
X175868D01*
X176785Y70363D01*
Y74028D01*
X175868Y74945D01*
X174036D01*
X173119Y74028D01*
Y73112D01*
X174036Y72196D01*
X176785D01*
X121350Y104948D02*
X115852D01*
Y107697D01*
X116768Y108613D01*
X118601D01*
X119517Y107697D01*
Y104948D01*
Y106781D02*
X121350Y108613D01*
Y114112D02*
Y110446D01*
X117685Y114112D01*
X116768D01*
X115852Y113195D01*
Y111363D01*
X116768Y110446D01*
Y115944D02*
X115852Y116861D01*
Y118694D01*
X116768Y119610D01*
X120434D01*
X121350Y118694D01*
Y116861D01*
X120434Y115944D01*
X116768D01*
X96766Y104236D02*
X91267D01*
Y106985D01*
X92184Y107902D01*
X94017D01*
X94933Y106985D01*
Y104236D01*
Y106069D02*
X96766Y107902D01*
Y113400D02*
Y109734D01*
X93100Y113400D01*
X92184D01*
X91267Y112484D01*
Y110651D01*
X92184Y109734D01*
X96766Y115233D02*
Y117065D01*
Y116149D01*
X91267D01*
X92184Y115233D01*
X84907Y103984D02*
X79409D01*
Y106733D01*
X80325Y107650D01*
X82158D01*
X83074Y106733D01*
Y103984D01*
Y105817D02*
X84907Y107650D01*
Y113148D02*
Y109482D01*
X81242Y113148D01*
X80325D01*
X79409Y112232D01*
Y110399D01*
X80325Y109482D01*
X84907Y118646D02*
Y114981D01*
X81242Y118646D01*
X80325D01*
X79409Y117730D01*
Y115897D01*
X80325Y114981D01*
X9022Y55788D02*
X3524D01*
Y58537D01*
X4440Y59454D01*
X6273D01*
X7189Y58537D01*
Y55788D01*
Y57621D02*
X9022Y59454D01*
Y64952D02*
Y61287D01*
X5357Y64952D01*
X4440D01*
X3524Y64036D01*
Y62203D01*
X4440Y61287D01*
Y66785D02*
X3524Y67701D01*
Y69534D01*
X4440Y70450D01*
X5357D01*
X6273Y69534D01*
Y68618D01*
Y69534D01*
X7189Y70450D01*
X8106D01*
X9022Y69534D01*
Y67701D01*
X8106Y66785D01*
X20549Y44996D02*
Y50494D01*
X23298D01*
X24215Y49577D01*
Y47745D01*
X23298Y46828D01*
X20549D01*
X22382D02*
X24215Y44996D01*
X29713D02*
X26048D01*
X29713Y48661D01*
Y49577D01*
X28797Y50494D01*
X26964D01*
X26048Y49577D01*
X34295Y44996D02*
Y50494D01*
X31546Y47745D01*
X35211D01*
X13735Y18233D02*
X19233D01*
Y15483D01*
X18317Y14567D01*
X16484D01*
X15568Y15483D01*
Y18233D01*
Y16400D02*
X13735Y14567D01*
Y9069D02*
Y12734D01*
X17400Y9069D01*
X18317D01*
X19233Y9985D01*
Y11818D01*
X18317Y12734D01*
X19233Y3571D02*
Y7236D01*
X16484D01*
X17400Y5404D01*
Y4487D01*
X16484Y3571D01*
X14651D01*
X13735Y4487D01*
Y6320D01*
X14651Y7236D01*
X84204Y6349D02*
Y11847D01*
X86953D01*
X87870Y10931D01*
Y9098D01*
X86953Y8182D01*
X84204D01*
X86037D02*
X87870Y6349D01*
X93368D02*
X89702D01*
X93368Y10015D01*
Y10931D01*
X92451Y11847D01*
X90619D01*
X89702Y10931D01*
X98866Y11847D02*
X97033Y10931D01*
X95201Y9098D01*
Y7266D01*
X96117Y6349D01*
X97950D01*
X98866Y7266D01*
Y8182D01*
X97950Y9098D01*
X95201D01*
X101165Y328079D02*
Y333577D01*
X103914D01*
X104831Y332661D01*
Y330828D01*
X103914Y329912D01*
X101165D01*
X102998D02*
X104831Y328079D01*
X106663Y332661D02*
X107580Y333577D01*
X109412D01*
X110329Y332661D01*
Y331744D01*
X109412Y330828D01*
X108496D01*
X109412D01*
X110329Y329912D01*
Y328995D01*
X109412Y328079D01*
X107580D01*
X106663Y328995D01*
X112162Y332661D02*
X113078Y333577D01*
X114911D01*
X115827Y332661D01*
Y328995D01*
X114911Y328079D01*
X113078D01*
X112162Y328995D01*
Y332661D01*
X97786Y272010D02*
Y277508D01*
X100535D01*
X101452Y276591D01*
Y274759D01*
X100535Y273842D01*
X97786D01*
X99619D02*
X101452Y272010D01*
X103285Y276591D02*
X104201Y277508D01*
X106034D01*
X106950Y276591D01*
Y275675D01*
X106034Y274759D01*
X105117D01*
X106034D01*
X106950Y273842D01*
Y272926D01*
X106034Y272010D01*
X104201D01*
X103285Y272926D01*
X108783Y272010D02*
X110616D01*
X109699D01*
Y277508D01*
X108783Y276591D01*
X356500Y333416D02*
Y338914D01*
X359249D01*
X360165Y337998D01*
Y336165D01*
X359249Y335249D01*
X356500D01*
X358333D02*
X360165Y333416D01*
X361998Y337998D02*
X362915Y338914D01*
X364747D01*
X365664Y337998D01*
Y337081D01*
X364747Y336165D01*
X363831D01*
X364747D01*
X365664Y335249D01*
Y334332D01*
X364747Y333416D01*
X362915D01*
X361998Y334332D01*
X371162Y338914D02*
X369329Y337998D01*
X367496Y336165D01*
Y334332D01*
X368413Y333416D01*
X370245D01*
X371162Y334332D01*
Y335249D01*
X370245Y336165D01*
X367496D01*
X297197Y334135D02*
Y339633D01*
X299946D01*
X300863Y338717D01*
Y336884D01*
X299946Y335967D01*
X297197D01*
X299030D02*
X300863Y334135D01*
X302696Y338717D02*
X303612Y339633D01*
X305445D01*
X306361Y338717D01*
Y337800D01*
X305445Y336884D01*
X304528D01*
X305445D01*
X306361Y335967D01*
Y335051D01*
X305445Y334135D01*
X303612D01*
X302696Y335051D01*
X308194Y339633D02*
X311859D01*
Y338717D01*
X308194Y335051D01*
Y334135D01*
X443697Y302963D02*
Y308461D01*
X446446D01*
X447362Y307545D01*
Y305712D01*
X446446Y304796D01*
X443697D01*
X445530D02*
X447362Y302963D01*
X449195Y307545D02*
X450111Y308461D01*
X451944D01*
X452860Y307545D01*
Y306628D01*
X451944Y305712D01*
X451028D01*
X451944D01*
X452860Y304796D01*
Y303880D01*
X451944Y302963D01*
X450111D01*
X449195Y303880D01*
X454693Y307545D02*
X455610Y308461D01*
X457442D01*
X458359Y307545D01*
Y306628D01*
X457442Y305712D01*
X458359Y304796D01*
Y303880D01*
X457442Y302963D01*
X455610D01*
X454693Y303880D01*
Y304796D01*
X455610Y305712D01*
X454693Y306628D01*
Y307545D01*
X455610Y305712D02*
X457442D01*
X444119Y291318D02*
Y296817D01*
X446868D01*
X447784Y295900D01*
Y294067D01*
X446868Y293151D01*
X444119D01*
X445951D02*
X447784Y291318D01*
X452366D02*
Y296817D01*
X449617Y294067D01*
X453282D01*
X455115Y295900D02*
X456031Y296817D01*
X457864D01*
X458781Y295900D01*
Y294984D01*
X457864Y294067D01*
X458781Y293151D01*
Y292235D01*
X457864Y291318D01*
X456031D01*
X455115Y292235D01*
Y293151D01*
X456031Y294067D01*
X455115Y294984D01*
Y295900D01*
X456031Y294067D02*
X457864D01*
X585995Y315333D02*
Y320831D01*
X588744D01*
X589660Y319915D01*
Y318082D01*
X588744Y317166D01*
X585995D01*
X587828D02*
X589660Y315333D01*
X595159Y320831D02*
X593326Y319915D01*
X591493Y318082D01*
Y316249D01*
X592410Y315333D01*
X594242D01*
X595159Y316249D01*
Y317166D01*
X594242Y318082D01*
X591493D01*
X596991Y319915D02*
X597908Y320831D01*
X599740D01*
X600657Y319915D01*
Y318998D01*
X599740Y318082D01*
X600657Y317166D01*
Y316249D01*
X599740Y315333D01*
X597908D01*
X596991Y316249D01*
Y317166D01*
X597908Y318082D01*
X596991Y318998D01*
Y319915D01*
X597908Y318082D02*
X599740D01*
X586083Y323087D02*
Y328585D01*
X588832D01*
X589748Y327669D01*
Y325836D01*
X588832Y324920D01*
X586083D01*
X587916D02*
X589748Y323087D01*
X591581Y328585D02*
X595247D01*
Y327669D01*
X591581Y324004D01*
Y323087D01*
X597079Y327669D02*
X597996Y328585D01*
X599828D01*
X600745Y327669D01*
Y326753D01*
X599828Y325836D01*
X600745Y324920D01*
Y324004D01*
X599828Y323087D01*
X597996D01*
X597079Y324004D01*
Y324920D01*
X597996Y325836D01*
X597079Y326753D01*
Y327669D01*
X597996Y325836D02*
X599828D01*
X483536Y252176D02*
Y257675D01*
X486286D01*
X487202Y256758D01*
Y254926D01*
X486286Y254009D01*
X483536D01*
X485369D02*
X487202Y252176D01*
X489035D02*
X490867D01*
X489951D01*
Y257675D01*
X489035Y256758D01*
X493617D02*
X494533Y257675D01*
X496366D01*
X497282Y256758D01*
Y253093D01*
X496366Y252176D01*
X494533D01*
X493617Y253093D01*
Y256758D01*
X502780Y252176D02*
X499115D01*
X502780Y255842D01*
Y256758D01*
X501864Y257675D01*
X500031D01*
X499115Y256758D01*
X97786Y260834D02*
Y266332D01*
X100535D01*
X101452Y265415D01*
Y263583D01*
X100535Y262666D01*
X97786D01*
X99619D02*
X101452Y260834D01*
X103285D02*
X105117D01*
X104201D01*
Y266332D01*
X103285Y265415D01*
X111532Y260834D02*
X107866D01*
X111532Y264499D01*
Y265415D01*
X110616Y266332D01*
X108783D01*
X107866Y265415D01*
X117030Y260834D02*
X113365D01*
X117030Y264499D01*
Y265415D01*
X116114Y266332D01*
X114281D01*
X113365Y265415D01*
X569923Y215333D02*
X564425D01*
Y218082D01*
X565341Y218998D01*
X567174D01*
X568090Y218082D01*
Y215333D01*
Y217166D02*
X569923Y218998D01*
Y224496D02*
Y220831D01*
X566258Y224496D01*
X565341D01*
X564425Y223580D01*
Y221747D01*
X565341Y220831D01*
Y226329D02*
X564425Y227246D01*
Y229078D01*
X565341Y229995D01*
X569007D01*
X569923Y229078D01*
Y227246D01*
X569007Y226329D01*
X565341D01*
X569923Y231828D02*
Y233660D01*
Y232744D01*
X564425D01*
X565341Y231828D01*
X531241Y106605D02*
X536739D01*
Y103856D01*
X535823Y102940D01*
X533990D01*
X533074Y103856D01*
Y106605D01*
Y104773D02*
X531241Y102940D01*
Y97442D02*
Y101107D01*
X534907Y97442D01*
X535823D01*
X536739Y98358D01*
Y100191D01*
X535823Y101107D01*
Y95609D02*
X536739Y94692D01*
Y92860D01*
X535823Y91943D01*
X532157D01*
X531241Y92860D01*
Y94692D01*
X532157Y95609D01*
X535823D01*
X531241Y86445D02*
Y90111D01*
X534907Y86445D01*
X535823D01*
X536739Y87361D01*
Y89194D01*
X535823Y90111D01*
X520292Y106041D02*
X525790D01*
Y103292D01*
X524873Y102375D01*
X523041D01*
X522124Y103292D01*
Y106041D01*
Y104208D02*
X520292Y102375D01*
Y96877D02*
Y100542D01*
X523957Y96877D01*
X524873D01*
X525790Y97793D01*
Y99626D01*
X524873Y100542D01*
Y95044D02*
X525790Y94128D01*
Y92295D01*
X524873Y91379D01*
X521208D01*
X520292Y92295D01*
Y94128D01*
X521208Y95044D01*
X524873D01*
Y89546D02*
X525790Y88630D01*
Y86797D01*
X524873Y85880D01*
X523957D01*
X523041Y86797D01*
Y87713D01*
Y86797D01*
X522124Y85880D01*
X521208D01*
X520292Y86797D01*
Y88630D01*
X521208Y89546D01*
X271797Y158367D02*
Y163865D01*
X274546D01*
X275463Y162949D01*
Y161116D01*
X274546Y160200D01*
X271797D01*
X273630D02*
X275463Y158367D01*
X280961D02*
X277295D01*
X280961Y162032D01*
Y162949D01*
X280045Y163865D01*
X278212D01*
X277295Y162949D01*
X282794D02*
X283710Y163865D01*
X285543D01*
X286459Y162949D01*
Y159283D01*
X285543Y158367D01*
X283710D01*
X282794Y159283D01*
Y162949D01*
X291041Y158367D02*
Y163865D01*
X288292Y161116D01*
X291957D01*
X272305Y85723D02*
Y91221D01*
X275054D01*
X275971Y90305D01*
Y88472D01*
X275054Y87556D01*
X272305D01*
X274138D02*
X275971Y85723D01*
X281469D02*
X277803D01*
X281469Y89388D01*
Y90305D01*
X280553Y91221D01*
X278720D01*
X277803Y90305D01*
X283302D02*
X284218Y91221D01*
X286051D01*
X286967Y90305D01*
Y86639D01*
X286051Y85723D01*
X284218D01*
X283302Y86639D01*
Y90305D01*
X292465Y91221D02*
X288800D01*
Y88472D01*
X290633Y89388D01*
X291549D01*
X292465Y88472D01*
Y86639D01*
X291549Y85723D01*
X289716D01*
X288800Y86639D01*
X272305Y93851D02*
Y99349D01*
X275054D01*
X275971Y98433D01*
Y96600D01*
X275054Y95683D01*
X272305D01*
X274138D02*
X275971Y93851D01*
X281469D02*
X277803D01*
X281469Y97516D01*
Y98433D01*
X280553Y99349D01*
X278720D01*
X277803Y98433D01*
X283302D02*
X284218Y99349D01*
X286051D01*
X286967Y98433D01*
Y94767D01*
X286051Y93851D01*
X284218D01*
X283302Y94767D01*
Y98433D01*
X292465Y99349D02*
X290633Y98433D01*
X288800Y96600D01*
Y94767D01*
X289716Y93851D01*
X291549D01*
X292465Y94767D01*
Y95683D01*
X291549Y96600D01*
X288800D01*
X271797Y149731D02*
Y155229D01*
X274546D01*
X275463Y154313D01*
Y152480D01*
X274546Y151564D01*
X271797D01*
X273630D02*
X275463Y149731D01*
X280961D02*
X277295D01*
X280961Y153396D01*
Y154313D01*
X280045Y155229D01*
X278212D01*
X277295Y154313D01*
X282794D02*
X283710Y155229D01*
X285543D01*
X286459Y154313D01*
Y150647D01*
X285543Y149731D01*
X283710D01*
X282794Y150647D01*
Y154313D01*
X288292Y155229D02*
X291957D01*
Y154313D01*
X288292Y150647D01*
Y149731D01*
X272305Y179195D02*
Y184693D01*
X275054D01*
X275971Y183777D01*
Y181944D01*
X275054Y181028D01*
X272305D01*
X274138D02*
X275971Y179195D01*
X281469D02*
X277803D01*
X281469Y182860D01*
Y183777D01*
X280553Y184693D01*
X278720D01*
X277803Y183777D01*
X283302D02*
X284218Y184693D01*
X286051D01*
X286967Y183777D01*
Y180111D01*
X286051Y179195D01*
X284218D01*
X283302Y180111D01*
Y183777D01*
X288800D02*
X289716Y184693D01*
X291549D01*
X292465Y183777D01*
Y182860D01*
X291549Y181944D01*
X292465Y181028D01*
Y180111D01*
X291549Y179195D01*
X289716D01*
X288800Y180111D01*
Y181028D01*
X289716Y181944D01*
X288800Y182860D01*
Y183777D01*
X289716Y181944D02*
X291549D01*
X271797Y219327D02*
Y224825D01*
X274546D01*
X275463Y223909D01*
Y222076D01*
X274546Y221159D01*
X271797D01*
X273630D02*
X275463Y219327D01*
X280961D02*
X277295D01*
X280961Y222992D01*
Y223909D01*
X280045Y224825D01*
X278212D01*
X277295Y223909D01*
X282794D02*
X283710Y224825D01*
X285543D01*
X286459Y223909D01*
Y220243D01*
X285543Y219327D01*
X283710D01*
X282794Y220243D01*
Y223909D01*
X288292Y220243D02*
X289208Y219327D01*
X291041D01*
X291957Y220243D01*
Y223909D01*
X291041Y224825D01*
X289208D01*
X288292Y223909D01*
Y222992D01*
X289208Y222076D01*
X291957D01*
X517271Y323477D02*
X516354Y324393D01*
X514522D01*
X513605Y323477D01*
Y322560D01*
X514522Y321644D01*
X516354D01*
X517271Y320728D01*
Y319811D01*
X516354Y318895D01*
X514522D01*
X513605Y319811D01*
X519104Y324393D02*
X520936D01*
X520020D01*
Y318895D01*
X519104D01*
X520936D01*
X523685D02*
Y324393D01*
X525518Y322560D01*
X527351Y324393D01*
Y318895D01*
X529184Y321644D02*
X532849D01*
X538347Y323477D02*
X537431Y324393D01*
X535598D01*
X534682Y323477D01*
Y319811D01*
X535598Y318895D01*
X537431D01*
X538347Y319811D01*
X6113Y281721D02*
Y277139D01*
X7030Y276223D01*
X8862D01*
X9779Y277139D01*
Y281721D01*
X15277Y276223D02*
X11611D01*
X15277Y279888D01*
Y280805D01*
X14361Y281721D01*
X12528D01*
X11611Y280805D01*
X86912Y311406D02*
Y306824D01*
X87829Y305907D01*
X89661D01*
X90578Y306824D01*
Y311406D01*
X92410Y310489D02*
X93327Y311406D01*
X95160D01*
X96076Y310489D01*
Y309573D01*
X95160Y308657D01*
X94243D01*
X95160D01*
X96076Y307740D01*
Y306824D01*
X95160Y305907D01*
X93327D01*
X92410Y306824D01*
X80562Y78588D02*
Y74006D01*
X81478Y73090D01*
X83311D01*
X84227Y74006D01*
Y78588D01*
X88809Y73090D02*
Y78588D01*
X86060Y75839D01*
X89726D01*
X141499Y342666D02*
Y338084D01*
X142416Y337168D01*
X144248D01*
X145165Y338084D01*
Y342666D01*
X150663D02*
X148830Y341749D01*
X146997Y339917D01*
Y338084D01*
X147914Y337168D01*
X149746D01*
X150663Y338084D01*
Y339000D01*
X149746Y339917D01*
X146997D01*
X325402Y297171D02*
Y292589D01*
X326318Y291673D01*
X328151D01*
X329067Y292589D01*
Y297171D01*
X330900Y291673D02*
X332733D01*
X331816D01*
Y297171D01*
X330900Y296255D01*
X335482D02*
X336398Y297171D01*
X338231D01*
X339147Y296255D01*
Y292589D01*
X338231Y291673D01*
X336398D01*
X335482Y292589D01*
Y296255D01*
X555324Y175825D02*
Y171243D01*
X556240Y170326D01*
X558073D01*
X558989Y171243D01*
Y175825D01*
X564487Y170326D02*
X560822D01*
X564487Y173992D01*
Y174908D01*
X563571Y175825D01*
X561738D01*
X560822Y174908D01*
X566320D02*
X567237Y175825D01*
X569069D01*
X569986Y174908D01*
Y171243D01*
X569069Y170326D01*
X567237D01*
X566320Y171243D01*
Y174908D01*
X571818Y170326D02*
Y173992D01*
X573651Y175825D01*
X575484Y173992D01*
Y170326D01*
Y173075D01*
X571818D01*
X333763Y235925D02*
Y231343D01*
X334679Y230427D01*
X336512D01*
X337429Y231343D01*
Y235925D01*
X342927Y230427D02*
X339261D01*
X342927Y234092D01*
Y235009D01*
X342010Y235925D01*
X340178D01*
X339261Y235009D01*
X344759D02*
X345676Y235925D01*
X347509D01*
X348425Y235009D01*
Y231343D01*
X347509Y230427D01*
X345676D01*
X344759Y231343D01*
Y235009D01*
X255519Y71862D02*
Y66364D01*
X257352Y68197D01*
X259184Y66364D01*
Y71862D01*
X264683D02*
X261017D01*
Y69113D01*
X262850D01*
X261017D01*
Y66364D01*
X266515D02*
X268348D01*
X267432D01*
Y71862D01*
X266515Y70946D01*
X320060Y60666D02*
Y59750D01*
X321892Y57917D01*
X323725Y59750D01*
Y60666D01*
X321892Y57917D02*
Y55168D01*
X325558D02*
X327391D01*
X326474D01*
Y60666D01*
X325558Y59750D01*
X330140Y55168D02*
X331973D01*
X331056D01*
Y60666D01*
X330140Y59750D01*
X191871Y44377D02*
Y49875D01*
X194620D01*
X195537Y48959D01*
Y47126D01*
X194620Y46210D01*
X191871D01*
X193704D02*
X195537Y44377D01*
X197370D02*
X199202D01*
X198286D01*
Y49875D01*
X197370Y48959D01*
X205617Y49875D02*
X203784Y48959D01*
X201951Y47126D01*
Y45293D01*
X202868Y44377D01*
X204701D01*
X205617Y45293D01*
Y46210D01*
X204701Y47126D01*
X201951D01*
D90*
X538496Y38137D02*
Y30639D01*
X543495D01*
X550992Y38137D02*
X545994D01*
Y30639D01*
X550992D01*
X545994Y34388D02*
X548493D01*
X553492Y38137D02*
Y30639D01*
X557240D01*
X558490Y31889D01*
Y36887D01*
X557240Y38137D01*
X553492D01*
X560989Y30639D02*
X563488D01*
X562239D01*
Y38137D01*
X560989Y36887D01*
D91*
X346797Y227372D02*
X333255D01*
Y207059D01*
X346797D01*
X333255Y217215D02*
X340026D01*
X367111Y223987D02*
X363725Y227372D01*
X356954D01*
X353568Y223987D01*
Y220601D01*
X356954Y217215D01*
X363725D01*
X367111Y213830D01*
Y210444D01*
X363725Y207059D01*
X356954D01*
X353568Y210444D01*
X373882Y207059D02*
Y227372D01*
X384039D01*
X387424Y223987D01*
Y217215D01*
X384039Y213830D01*
X373882D01*
X394195Y207059D02*
X400966D01*
X397581D01*
Y227372D01*
X394195Y223987D01*
X424665Y207059D02*
X411123D01*
X424665Y220601D01*
Y223987D01*
X421280Y227372D01*
X414509D01*
X411123Y223987D01*
X444979Y227372D02*
X431437D01*
Y217215D01*
X438208D01*
X431437D01*
Y207059D01*
D92*
X114010Y215192D02*
D03*
X87594D02*
D03*
M02*
