G04 Layer_Color=8421504*
%FSLAX44Y44*%
%MOMM*%
G71*
G01*
G75*
%ADD10R,0.6200X0.6200*%
%ADD11R,0.8000X1.0000*%
%ADD12R,1.7000X0.4000*%
%ADD13R,0.6200X0.6200*%
%ADD14R,1.2700X1.1400*%
%ADD15R,5.0000X3.0000*%
%ADD16R,5.0000X2.5000*%
%ADD17R,1.1400X1.2700*%
%ADD18R,0.7901X0.5400*%
%ADD19R,2.0000X1.0000*%
%ADD20R,1.0000X2.0000*%
%ADD21O,0.6000X1.5200*%
%ADD22R,1.2500X0.7000*%
%ADD23R,0.5000X0.5000*%
%ADD24R,3.8000X4.3500*%
%ADD25R,0.6000X1.1000*%
%ADD26R,2.2000X1.1999*%
%ADD27R,1.3000X1.3000*%
%ADD28R,1.6000X1.5200*%
%ADD29R,0.4000X0.4000*%
%ADD30O,0.7000X0.3000*%
%ADD31R,1.5000X0.3000*%
%ADD32R,0.3000X1.5000*%
%ADD33C,2.0000*%
G36*
X253066Y57233D02*
Y55505D01*
X250380Y53669D01*
X245415D01*
X245015Y54069D01*
Y58669D01*
X245415Y59069D01*
X250380D01*
X253066Y57233D01*
D02*
G37*
G36*
X263817Y58669D02*
Y54069D01*
X263417Y53669D01*
X258452D01*
X255766Y55505D01*
Y57233D01*
X258452Y59069D01*
X263417D01*
X263817Y58669D01*
D02*
G37*
D10*
X491625Y34050D02*
D03*
Y43050D02*
D03*
X28581Y58556D02*
D03*
Y67556D02*
D03*
X71025Y88121D02*
D03*
Y97121D02*
D03*
X130790Y87560D02*
D03*
Y96560D02*
D03*
X82621Y96982D02*
D03*
Y87982D02*
D03*
X119276Y96808D02*
D03*
Y87808D02*
D03*
X16529Y67956D02*
D03*
Y58956D02*
D03*
X94505Y87755D02*
D03*
Y96755D02*
D03*
X16911Y33998D02*
D03*
Y24998D02*
D03*
X30089Y24907D02*
D03*
Y33907D02*
D03*
X106697Y87755D02*
D03*
Y96755D02*
D03*
X57789Y88668D02*
D03*
Y97668D02*
D03*
X519349Y218327D02*
D03*
Y227327D02*
D03*
X521308Y123169D02*
D03*
Y114169D02*
D03*
X532214Y228078D02*
D03*
Y219078D02*
D03*
X544312Y218572D02*
D03*
Y227572D02*
D03*
X533417Y114171D02*
D03*
Y123171D02*
D03*
X556026Y227257D02*
D03*
Y218258D02*
D03*
X545843Y122625D02*
D03*
Y113625D02*
D03*
X68441Y239630D02*
D03*
Y230630D02*
D03*
X56260Y230448D02*
D03*
Y239448D02*
D03*
D11*
X527813Y34103D02*
D03*
X509508Y34042D02*
D03*
D12*
X57393Y26126D02*
D03*
X57393Y32626D02*
D03*
Y39126D02*
D03*
X57393Y45626D02*
D03*
X57394Y52125D02*
D03*
Y58625D02*
D03*
X57394Y65125D02*
D03*
X113396Y65127D02*
D03*
X113396Y58627D02*
D03*
Y52127D02*
D03*
X113395Y45627D02*
D03*
X113395Y39127D02*
D03*
Y32627D02*
D03*
X113395Y26128D02*
D03*
D13*
X140161Y47767D02*
D03*
X149161D02*
D03*
X57367Y9886D02*
D03*
X66367D02*
D03*
X149369Y71499D02*
D03*
X140369D02*
D03*
X149551Y35731D02*
D03*
X140551D02*
D03*
X277021Y232027D02*
D03*
X286021D02*
D03*
X140369Y59307D02*
D03*
X149369D02*
D03*
X277021Y192766D02*
D03*
X286021D02*
D03*
X140161Y23747D02*
D03*
X149161D02*
D03*
X277021Y130427D02*
D03*
X286021D02*
D03*
X277021Y118598D02*
D03*
X286021D02*
D03*
X149551Y11855D02*
D03*
X140551D02*
D03*
X277021Y107059D02*
D03*
X286021D02*
D03*
X277021Y142111D02*
D03*
X286021D02*
D03*
X475161Y294003D02*
D03*
X466161D02*
D03*
X511449Y254677D02*
D03*
X520449D02*
D03*
X475161Y305831D02*
D03*
X466161D02*
D03*
X567797Y308590D02*
D03*
X576797D02*
D03*
X567797Y320419D02*
D03*
X576797D02*
D03*
X70067Y323830D02*
D03*
X79067D02*
D03*
X79629Y311783D02*
D03*
X70629D02*
D03*
X567470Y332963D02*
D03*
X576470D02*
D03*
X567470Y296035D02*
D03*
X576470D02*
D03*
X475489Y317527D02*
D03*
X466489D02*
D03*
X475489Y281811D02*
D03*
X466489D02*
D03*
X20862Y227807D02*
D03*
X29862D02*
D03*
X29509Y240299D02*
D03*
X20509D02*
D03*
X123804Y275058D02*
D03*
X132804D02*
D03*
X124219Y286586D02*
D03*
X133219D02*
D03*
X123804Y263374D02*
D03*
X132804D02*
D03*
X295657Y322099D02*
D03*
X286657D02*
D03*
X68280Y173117D02*
D03*
X77280D02*
D03*
X132866Y310110D02*
D03*
X123867D02*
D03*
X295149Y309907D02*
D03*
X286149D02*
D03*
X291118Y15463D02*
D03*
X300118D02*
D03*
X124219Y298270D02*
D03*
X133219D02*
D03*
X349068Y336311D02*
D03*
X340068D02*
D03*
X319185Y336167D02*
D03*
X328185D02*
D03*
X124219Y321638D02*
D03*
X133219D02*
D03*
X286005Y246407D02*
D03*
X277005D02*
D03*
X123439Y333574D02*
D03*
X132439D02*
D03*
X174960Y47284D02*
D03*
X183960D02*
D03*
D14*
X19796Y90515D02*
D03*
Y109515D02*
D03*
X39180Y90287D02*
D03*
Y109287D02*
D03*
D15*
X617237Y155996D02*
D03*
Y190371D02*
D03*
Y121621D02*
D03*
D16*
Y224745D02*
D03*
D17*
X509693Y55243D02*
D03*
X528693D02*
D03*
X509693Y75563D02*
D03*
X528693D02*
D03*
X23707Y334135D02*
D03*
X42707D02*
D03*
X23707Y314323D02*
D03*
X42707D02*
D03*
D18*
X248965Y56369D02*
D03*
X259867D02*
D03*
D19*
X308879Y113155D02*
D03*
X308881Y133155D02*
D03*
X308879Y153155D02*
D03*
X308886Y173155D02*
D03*
X308879Y193155D02*
D03*
X308871Y213155D02*
D03*
X308884Y233155D02*
D03*
X308899Y253155D02*
D03*
X468894D02*
D03*
X468901Y233155D02*
D03*
Y213155D02*
D03*
Y193155D02*
D03*
Y173155D02*
D03*
Y153155D02*
D03*
Y133155D02*
D03*
Y113155D02*
D03*
D20*
X338917Y268162D02*
D03*
X358917Y268155D02*
D03*
X378909D02*
D03*
X398917D02*
D03*
X418904Y268150D02*
D03*
X438884Y268165D02*
D03*
D21*
X508017Y145227D02*
D03*
X520717D02*
D03*
X533417D02*
D03*
X546117D02*
D03*
X508017Y200023D02*
D03*
X520717D02*
D03*
X533417D02*
D03*
X546117D02*
D03*
D22*
X432933Y312777D02*
D03*
X412934Y303277D02*
D03*
Y322277D02*
D03*
X396865Y312777D02*
D03*
X376866Y303277D02*
D03*
Y322277D02*
D03*
X65549Y147699D02*
D03*
X85548Y157199D02*
D03*
Y138199D02*
D03*
D23*
X552213Y273067D02*
D03*
Y285567D02*
D03*
Y298067D02*
D03*
Y310567D02*
D03*
X497213D02*
D03*
Y298067D02*
D03*
Y285567D02*
D03*
Y273067D02*
D03*
D24*
X524713Y291567D02*
D03*
D25*
X88257Y291047D02*
D03*
Y265047D02*
D03*
X78757D02*
D03*
X69257D02*
D03*
Y291047D02*
D03*
X44117D02*
D03*
Y265047D02*
D03*
X34617D02*
D03*
X25117D02*
D03*
Y291047D02*
D03*
D26*
X350789Y48291D02*
D03*
Y79291D02*
D03*
D27*
X365272Y63804D02*
D03*
D28*
X114012Y238470D02*
D03*
Y204270D02*
D03*
X87596Y238470D02*
D03*
Y204270D02*
D03*
D29*
X76018Y125248D02*
D03*
X67018D02*
D03*
D30*
X317681Y320331D02*
D03*
Y315329D02*
D03*
Y310331D02*
D03*
X317682Y305329D02*
D03*
X346682D02*
D03*
X346681Y310331D02*
D03*
Y315329D02*
D03*
Y320331D02*
D03*
D31*
X156935Y319470D02*
D03*
Y314470D02*
D03*
Y309470D02*
D03*
Y304470D02*
D03*
Y299470D02*
D03*
Y294471D02*
D03*
Y289471D02*
D03*
Y284471D02*
D03*
Y279471D02*
D03*
Y274471D02*
D03*
Y269471D02*
D03*
Y264471D02*
D03*
X240935D02*
D03*
Y269471D02*
D03*
Y274471D02*
D03*
Y279471D02*
D03*
Y284471D02*
D03*
Y289471D02*
D03*
Y294471D02*
D03*
Y299470D02*
D03*
Y304470D02*
D03*
Y309470D02*
D03*
Y314470D02*
D03*
Y319470D02*
D03*
D32*
X171435Y249970D02*
D03*
X176435D02*
D03*
X181435D02*
D03*
X186435D02*
D03*
X191435D02*
D03*
X196435D02*
D03*
X201435D02*
D03*
X206435D02*
D03*
X211435D02*
D03*
X216435D02*
D03*
X221435D02*
D03*
X226435D02*
D03*
Y333970D02*
D03*
X221435D02*
D03*
X216435D02*
D03*
X211435D02*
D03*
X206435D02*
D03*
X201435D02*
D03*
X196435D02*
D03*
X191435D02*
D03*
X186435D02*
D03*
X181435D02*
D03*
X176435D02*
D03*
X171435D02*
D03*
D33*
X266209Y15619D02*
D03*
X240809Y15619D02*
D03*
X215409Y15619D02*
D03*
X190009Y15619D02*
D03*
M02*
