G04 Layer_Color=128*
%FSLAX44Y44*%
%MOMM*%
G71*
G01*
G75*
%ADD10R,0.6200X0.6200*%
%ADD13R,0.6200X0.6200*%
%ADD22R,1.2500X0.7000*%
%ADD28R,1.6000X1.5200*%
%ADD66R,2.1000X0.4000*%
%ADD67R,1.5000X2.5000*%
%ADD68R,2.5000X0.8000*%
%ADD69R,0.8000X2.5000*%
%ADD70R,1.1000X1.1000*%
%ADD71R,1.1000X1.1000*%
%ADD72R,3.0000X2.0000*%
%ADD73R,1.0000X1.0000*%
%ADD74R,4.0000X1.0693*%
%ADD75R,8.8900X10.6600*%
%ADD76R,0.5400X0.7901*%
G36*
X93413Y47774D02*
Y42810D01*
X93013Y42410D01*
X88413D01*
X88013Y42810D01*
Y47774D01*
X89849Y50461D01*
X91577D01*
X93413Y47774D01*
D02*
G37*
G36*
Y60812D02*
Y55847D01*
X91577Y53161D01*
X89849D01*
X88013Y55847D01*
Y60812D01*
X88413Y61212D01*
X93013D01*
X93413Y60812D01*
D02*
G37*
G36*
X344945Y245147D02*
X314945D01*
Y256897D01*
X323195Y265147D01*
X344945D01*
Y245147D01*
D02*
G37*
D10*
X225921Y76087D02*
D03*
Y85087D02*
D03*
X238122Y76055D02*
D03*
Y85055D02*
D03*
X150241Y242132D02*
D03*
Y251132D02*
D03*
X162069Y251187D02*
D03*
Y242187D02*
D03*
X189962Y269078D02*
D03*
Y278078D02*
D03*
X176365Y268508D02*
D03*
Y277508D02*
D03*
X80137Y238068D02*
D03*
Y247068D02*
D03*
X93489Y237615D02*
D03*
Y246615D02*
D03*
D13*
X122500Y226294D02*
D03*
X113500D02*
D03*
X184214Y319340D02*
D03*
X193214D02*
D03*
X118889Y122807D02*
D03*
X109889D02*
D03*
X110199Y110759D02*
D03*
X119199D02*
D03*
X61121Y263015D02*
D03*
X70121D02*
D03*
X73025Y313670D02*
D03*
X64025D02*
D03*
X73025Y326007D02*
D03*
X64025D02*
D03*
X115697D02*
D03*
X106697D02*
D03*
X106635Y313670D02*
D03*
X115634D02*
D03*
D22*
X53357Y288393D02*
D03*
X73356Y278892D02*
D03*
Y297893D02*
D03*
X95421Y288393D02*
D03*
X115420Y278892D02*
D03*
Y297893D02*
D03*
X114217Y249785D02*
D03*
X134216Y240285D02*
D03*
Y259285D02*
D03*
D28*
X206976Y57436D02*
D03*
Y91636D02*
D03*
X180865Y58291D02*
D03*
Y92491D02*
D03*
D66*
X60938Y166808D02*
D03*
X60898Y160371D02*
D03*
X60977Y186307D02*
D03*
X60860Y179783D02*
D03*
X60920Y173273D02*
D03*
D67*
X14021Y120460D02*
D03*
X14262Y226236D02*
D03*
X53464Y120666D02*
D03*
X53830Y225881D02*
D03*
D68*
X568945Y294647D02*
D03*
Y281647D02*
D03*
Y47647D02*
D03*
Y60647D02*
D03*
Y73647D02*
D03*
Y86647D02*
D03*
Y99647D02*
D03*
Y112647D02*
D03*
Y125647D02*
D03*
Y138647D02*
D03*
Y151647D02*
D03*
Y164647D02*
D03*
Y177647D02*
D03*
Y190647D02*
D03*
Y203647D02*
D03*
Y216647D02*
D03*
Y229647D02*
D03*
Y242647D02*
D03*
Y255647D02*
D03*
Y268647D02*
D03*
X283945Y47647D02*
D03*
Y60647D02*
D03*
Y73647D02*
D03*
Y86647D02*
D03*
Y99647D02*
D03*
Y112647D02*
D03*
Y125647D02*
D03*
Y138647D02*
D03*
Y151647D02*
D03*
Y164647D02*
D03*
Y177647D02*
D03*
Y190647D02*
D03*
Y203647D02*
D03*
Y216647D02*
D03*
Y229647D02*
D03*
Y242647D02*
D03*
Y255647D02*
D03*
Y268647D02*
D03*
Y294647D02*
D03*
Y281647D02*
D03*
D69*
X409445Y330647D02*
D03*
X396445D02*
D03*
X539445D02*
D03*
X526445D02*
D03*
X513445D02*
D03*
X500445D02*
D03*
X487445D02*
D03*
X474445D02*
D03*
X461445D02*
D03*
X448445D02*
D03*
X435445D02*
D03*
X422445D02*
D03*
X552445D02*
D03*
X378445D02*
D03*
X365445D02*
D03*
X352445D02*
D03*
X339445D02*
D03*
X326445D02*
D03*
X313445D02*
D03*
X300445D02*
D03*
X552445Y15647D02*
D03*
X539445D02*
D03*
X526445D02*
D03*
X513445D02*
D03*
X500445D02*
D03*
X487445D02*
D03*
X474445D02*
D03*
X461445D02*
D03*
X448445D02*
D03*
X435445D02*
D03*
X422445D02*
D03*
X409445D02*
D03*
X300445D02*
D03*
X365445D02*
D03*
X352445D02*
D03*
X339445D02*
D03*
X326445D02*
D03*
X313445D02*
D03*
X378445D02*
D03*
X396445D02*
D03*
D70*
X441945Y197147D02*
D03*
X425945D02*
D03*
X441945Y181147D02*
D03*
X425945D02*
D03*
X441945Y165147D02*
D03*
X425945D02*
D03*
X409945Y197147D02*
D03*
Y181147D02*
D03*
Y165147D02*
D03*
D71*
X441945Y149147D02*
D03*
X425945D02*
D03*
X409945D02*
D03*
X316445Y283147D02*
D03*
X336445D02*
D03*
X356445D02*
D03*
X376445D02*
D03*
X396445D02*
D03*
X416445D02*
D03*
X436445D02*
D03*
X456445D02*
D03*
X476445D02*
D03*
X496445D02*
D03*
X516445D02*
D03*
X536445D02*
D03*
X316445Y303147D02*
D03*
X336445D02*
D03*
X356445D02*
D03*
X376445D02*
D03*
X396445D02*
D03*
X416445D02*
D03*
X436445D02*
D03*
X456445D02*
D03*
X476445D02*
D03*
X496445D02*
D03*
X516445D02*
D03*
X536445D02*
D03*
D72*
X329945Y91147D02*
D03*
X377945D02*
D03*
X425945D02*
D03*
X473945D02*
D03*
X521945D02*
D03*
X329945Y123147D02*
D03*
Y157147D02*
D03*
Y223147D02*
D03*
X377945Y255147D02*
D03*
X425945D02*
D03*
X473945D02*
D03*
X521945D02*
D03*
X377945Y223147D02*
D03*
X425945D02*
D03*
X473945D02*
D03*
X521945D02*
D03*
X329945Y189147D02*
D03*
X377945D02*
D03*
X473945D02*
D03*
X521945D02*
D03*
X377945Y123147D02*
D03*
X425945D02*
D03*
X473945D02*
D03*
X521945D02*
D03*
X377945Y157147D02*
D03*
X473945D02*
D03*
X521945D02*
D03*
D73*
X329945Y255147D02*
D03*
D74*
X109984Y141886D02*
D03*
Y175882D02*
D03*
Y158884D02*
D03*
Y192880D02*
D03*
Y209878D02*
D03*
D75*
X216662Y175882D02*
D03*
D76*
X90713Y46360D02*
D03*
Y57261D02*
D03*
M02*
